<?xml version="1.0" encoding="UTF-8" standalone="no"?>
<!DOCTYPE svg PUBLIC "-//W3C//DTD SVG 1.1//EN" "http://www.w3.org/Graphics/SVG/1.1/DTD/svg11.dtd">
<svg xmlns="http://www.w3.org/2000/svg" version="1.1" viewBox="0 0 225 225" width="225.0pt" height="225.0pt" xmlns:xlink="http://www.w3.org/1999/xlink">
<defs>
<path d="M 0.00 0.00 L 225.00 0.00 L 225.00 225.00 L 0.00 225.00 L 0.00 0.00 Z M 75.15 89.11 C 75.06 90.60 76.93 89.70 76.57 91.49 C 72.29 92.65 70.04 95.33 67.91 99.01 C 65.94 99.43 64.22 98.06 62.15 99.21 C 60.02 100.72 59.91 102.77 59.07 105.02 C 56.38 105.36 53.95 103.32 51.00 103.89 C 43.49 103.67 37.57 112.15 40.86 119.05 C 41.33 120.99 43.63 122.23 43.88 123.96 C 41.85 126.23 39.21 128.57 40.13 131.96 C 41.14 134.62 43.60 135.08 46.00 135.94 C 51.42 136.70 58.71 135.42 62.63 131.36 C 56.77 133.96 50.38 135.26 44.23 132.75 C 43.49 132.13 42.33 131.03 42.37 130.01 C 43.01 127.32 44.84 125.99 46.51 124.00 C 45.22 121.26 43.21 119.39 43.28 116.00 C 43.64 108.66 52.49 103.64 58.91 107.13 C 59.38 107.37 59.90 107.52 60.46 107.57 C 60.33 105.46 60.49 102.76 62.53 101.57 C 65.23 100.12 67.32 101.49 69.77 101.84 C 70.36 97.14 73.87 93.95 78.13 92.35 C 79.20 92.29 79.88 93.85 81.00 94.05 C 83.07 92.91 84.89 91.14 86.87 89.81 L 86.94 89.11 C 83.35 88.76 78.74 88.76 75.15 89.11 Z M 59.84 121.05 C 57.69 120.65 54.73 122.01 53.22 119.79 C 51.26 117.82 52.15 113.59 54.87 112.80 C 56.14 112.07 57.71 112.68 59.05 112.89 C 59.88 111.63 59.87 110.38 59.04 109.16 C 54.49 108.24 49.58 108.59 47.25 113.18 C 46.29 116.44 46.21 120.55 49.06 122.93 C 51.58 125.70 55.59 125.62 58.95 124.89 C 60.43 124.23 60.28 122.34 59.84 121.05 Z M 63.14 112.85 C 65.35 112.30 70.12 111.07 71.08 113.99 L 70.84 114.78 C 68.37 115.15 66.19 114.55 63.82 115.65 C 60.07 116.61 59.97 122.51 63.04 124.20 C 64.97 124.77 66.54 125.73 68.50 124.57 C 69.35 124.34 70.64 123.03 71.47 123.53 C 72.73 124.80 74.51 125.06 76.04 124.10 C 76.56 121.36 76.64 114.90 75.66 112.30 C 73.47 107.93 69.10 108.64 64.98 108.99 C 62.89 109.02 62.42 111.25 63.14 112.85 Z M 77.97 109.16 L 77.51 109.98 C 77.80 114.57 77.02 119.71 77.89 124.13 C 79.25 124.85 80.67 124.86 82.16 124.16 C 83.25 120.65 81.55 117.03 84.81 113.81 C 86.13 111.98 88.98 112.67 88.54 109.97 C 87.17 107.09 83.54 109.68 82.42 111.40 C 82.24 110.67 82.05 109.93 81.85 109.20 C 80.64 108.90 79.34 108.88 77.97 109.16 Z M 102.97 121.12 C 101.32 120.65 99.77 122.11 97.98 121.86 C 96.44 121.90 93.42 120.40 94.40 118.45 C 97.45 118.48 100.49 118.45 103.53 118.47 C 104.50 120.23 105.06 122.00 106.69 123.30 C 109.35 125.64 112.72 125.42 116.03 125.14 C 117.95 124.86 119.47 122.86 118.03 121.12 C 116.31 120.87 114.77 122.06 112.98 121.80 C 111.60 121.78 108.96 120.72 109.91 118.94 C 112.89 118.10 116.50 118.81 119.64 118.58 C 121.21 115.32 118.45 109.99 114.98 109.04 C 111.95 108.58 108.94 108.39 106.45 110.48 C 105.51 110.89 105.17 112.79 104.19 112.72 C 101.36 108.10 94.78 107.36 90.79 110.80 C 88.25 113.22 88.47 116.80 89.07 119.97 C 90.78 124.08 94.71 125.75 99.00 125.28 C 101.48 125.35 104.78 124.18 102.97 121.12 Z M 121.09 124.08 C 122.05 124.90 124.99 124.85 126.00 124.10 C 126.86 121.36 125.46 117.60 127.21 115.06 C 128.01 113.20 130.14 112.62 131.83 111.86 C 132.30 111.09 132.29 110.18 131.81 109.15 C 128.87 107.86 127.36 109.84 125.44 111.63 C 125.60 110.66 125.47 109.84 125.04 109.16 C 124.08 109.11 120.76 108.35 120.92 110.02 C 120.98 114.68 120.59 119.45 121.09 124.08 Z M 141.00 124.86 C 142.90 120.59 142.80 115.47 144.33 111.00 C 145.38 108.37 140.79 108.14 140.50 110.46 C 139.72 114.67 138.96 118.86 137.83 123.00 C 137.02 125.24 139.52 125.51 141.00 124.86 Z M 178.88 114.86 C 177.47 114.55 176.63 113.49 175.00 113.70 C 170.00 113.59 168.38 119.98 170.32 123.69 C 172.29 126.12 175.58 125.78 177.50 123.48 C 177.73 125.39 179.38 125.46 180.86 124.86 C 181.43 121.73 182.27 118.60 182.63 115.52 C 183.23 113.67 184.00 111.06 183.84 109.16 C 182.67 108.79 181.48 108.82 180.28 109.26 C 179.81 111.19 179.95 113.26 178.88 114.86 Z M 136.86 122.14 C 134.72 121.86 132.83 122.71 132.27 119.94 C 132.18 116.60 135.13 115.91 137.84 116.80 C 139.99 113.45 136.18 113.66 133.99 113.71 C 129.84 113.78 126.55 118.57 128.61 122.37 C 129.91 125.31 134.00 126.04 136.52 124.51 C 137.13 123.86 137.25 123.07 136.86 122.14 Z M 146.46 114.46 C 142.94 115.83 142.78 120.85 144.39 123.65 C 147.22 126.77 154.03 125.47 155.58 121.50 C 157.02 119.00 155.84 115.01 152.98 114.04 C 150.95 113.68 148.32 113.43 146.46 114.46 Z M 157.54 114.46 C 157.12 117.21 156.36 120.24 156.76 123.01 C 158.08 125.84 160.63 125.74 163.04 124.29 C 164.56 124.59 165.30 125.71 167.03 124.87 C 168.36 121.91 168.95 118.20 169.43 114.99 L 169.02 114.14 C 167.66 113.75 166.50 113.85 165.53 114.45 C 164.97 117.13 165.36 120.06 162.89 121.80 C 162.15 122.09 161.34 122.01 160.47 121.56 C 159.72 118.91 162.33 116.27 161.01 114.15 C 159.65 113.75 158.49 113.85 157.54 114.46 Z M 166.41 133.67 C 166.69 132.55 167.21 131.87 167.98 131.62 C 170.47 131.32 169.59 132.77 170.71 133.71 C 170.75 132.24 170.75 130.76 170.72 129.29 C 170.33 129.45 170.05 130.00 169.88 130.95 C 168.40 131.98 166.96 131.25 166.51 129.61 C 166.32 130.62 166.51 132.39 166.41 133.67 Z M 172.27 130.33 C 171.73 131.53 171.71 132.68 172.20 133.76 C 173.64 134.23 173.23 130.96 172.74 130.33 L 172.27 130.33 Z M 74.36 133.30 C 74.69 133.66 74.69 133.66 74.36 133.30 Z M 133.32 133.31 C 133.67 133.67 133.67 133.67 133.32 133.31 Z M 143.50 133.47 C 143.50 133.49 143.50 133.49 143.50 133.47 Z M 183.34 133.30 C 183.71 133.68 183.71 133.68 183.34 133.30 Z" id="p0" />
<path d="M 75.15 89.11 C 78.74 88.76 83.35 88.76 86.94 89.11 L 86.87 89.81 C 84.89 91.14 83.07 92.91 81.00 94.05 C 79.88 93.85 79.20 92.29 78.13 92.35 C 73.87 93.95 70.36 97.14 69.77 101.84 C 67.32 101.49 65.23 100.12 62.53 101.57 C 60.49 102.76 60.33 105.46 60.46 107.57 C 59.90 107.52 59.38 107.37 58.91 107.13 C 52.49 103.64 43.64 108.66 43.28 116.00 C 43.21 119.39 45.22 121.26 46.51 124.00 C 44.84 125.99 43.01 127.32 42.37 130.01 C 42.33 131.03 43.49 132.13 44.23 132.75 C 50.38 135.26 56.77 133.96 62.63 131.36 C 58.71 135.42 51.42 136.70 46.00 135.94 C 43.60 135.08 41.14 134.62 40.13 131.96 C 39.21 128.57 41.85 126.23 43.88 123.96 C 43.63 122.23 41.33 120.99 40.86 119.05 C 37.57 112.15 43.49 103.67 51.00 103.89 C 53.95 103.32 56.38 105.36 59.07 105.02 C 59.91 102.77 60.02 100.72 62.15 99.21 C 64.22 98.06 65.94 99.43 67.91 99.01 C 70.04 95.33 72.29 92.65 76.57 91.49 C 76.93 89.70 75.06 90.60 75.15 89.11 Z" id="p1" />
<path d="M 59.04 109.16 C 59.87 110.38 59.88 111.63 59.05 112.89 C 57.71 112.68 56.14 112.07 54.87 112.80 C 52.15 113.59 51.26 117.82 53.22 119.79 C 54.73 122.01 57.69 120.65 59.84 121.05 C 60.28 122.34 60.43 124.23 58.95 124.89 C 55.59 125.62 51.58 125.70 49.06 122.93 C 46.21 120.55 46.29 116.44 47.25 113.18 C 49.58 108.59 54.49 108.24 59.04 109.16 Z" id="p2" />
<path d="M 64.98 108.99 C 69.10 108.64 73.47 107.93 75.66 112.30 C 76.64 114.90 76.56 121.36 76.04 124.10 C 74.51 125.06 72.73 124.80 71.47 123.53 C 70.64 123.03 69.35 124.34 68.50 124.57 C 66.54 125.73 64.97 124.77 63.04 124.20 C 59.97 122.51 60.07 116.61 63.82 115.65 C 66.19 114.55 68.37 115.15 70.84 114.78 L 71.08 113.99 C 70.12 111.07 65.35 112.30 63.14 112.85 C 62.42 111.25 62.89 109.02 64.98 108.99 Z M 66.46 118.49 C 65.92 119.91 65.91 120.84 67.33 121.65 C 69.66 121.86 72.10 119.91 70.57 117.43 C 68.95 117.33 67.86 117.72 66.46 118.49 Z" id="p3" />
<path d="M 77.97 109.16 C 79.34 108.88 80.64 108.90 81.85 109.20 C 82.05 109.93 82.24 110.67 82.42 111.40 C 83.54 109.68 87.17 107.09 88.54 109.97 C 88.98 112.67 86.13 111.98 84.81 113.81 C 81.55 117.03 83.25 120.65 82.16 124.16 C 80.67 124.86 79.25 124.85 77.89 124.13 C 77.02 119.71 77.80 114.57 77.51 109.98 L 77.97 109.16 Z" id="p4" />
<path d="M 104.19 112.72 C 105.17 112.79 105.51 110.89 106.45 110.48 C 108.94 108.39 111.95 108.58 114.98 109.04 C 118.45 109.99 121.21 115.32 119.64 118.58 C 116.50 118.81 112.89 118.10 109.91 118.94 C 108.96 120.72 111.60 121.78 112.98 121.80 C 114.77 122.06 116.31 120.87 118.03 121.12 C 119.47 122.86 117.95 124.86 116.03 125.14 C 112.72 125.42 109.35 125.64 106.69 123.30 C 105.06 122.00 104.50 120.23 103.53 118.47 C 100.49 118.45 97.45 118.48 94.40 118.45 C 93.42 120.40 96.44 121.90 97.98 121.86 C 99.77 122.11 101.32 120.65 102.97 121.12 C 104.78 124.18 101.48 125.35 99.00 125.28 C 94.71 125.75 90.78 124.08 89.07 119.97 C 88.47 116.80 88.25 113.22 90.79 110.80 C 94.78 107.36 101.36 108.10 104.19 112.72 Z M 94.43 115.51 C 96.15 115.51 97.86 115.51 99.58 115.53 C 100.94 112.63 96.68 111.03 94.84 112.84 C 94.13 113.43 94.00 114.32 94.43 115.51 Z M 109.43 115.51 C 111.15 115.51 112.86 115.51 114.58 115.53 C 116.36 112.59 111.50 111.04 109.89 112.93 C 109.22 113.60 109.07 114.46 109.43 115.51 Z" id="p5" />
<path d="M 125.04 109.16 C 125.47 109.84 125.60 110.66 125.44 111.63 C 127.36 109.84 128.87 107.86 131.81 109.15 C 132.29 110.18 132.30 111.09 131.83 111.86 C 130.14 112.62 128.01 113.20 127.21 115.06 C 125.46 117.60 126.86 121.36 126.00 124.10 C 124.99 124.85 122.05 124.90 121.09 124.08 C 120.59 119.45 120.98 114.68 120.92 110.02 C 120.76 108.35 124.08 109.11 125.04 109.16 Z" id="p6" />
<path d="M 144.33 111.00 C 142.80 115.47 142.90 120.59 141.00 124.86 C 139.52 125.51 137.02 125.24 137.83 123.00 C 138.96 118.86 139.72 114.67 140.50 110.46 C 140.79 108.14 145.38 108.37 144.33 111.00 Z" id="p7" />
<path d="M 180.28 109.26 C 181.48 108.82 182.67 108.79 183.84 109.16 C 184.00 111.06 183.23 113.67 182.63 115.52 C 182.27 118.60 181.43 121.73 180.86 124.86 C 179.38 125.46 177.73 125.39 177.50 123.48 C 175.58 125.78 172.29 126.12 170.32 123.69 C 168.38 119.98 170.00 113.59 175.00 113.70 C 176.63 113.49 177.47 114.55 178.88 114.86 C 179.95 113.26 179.81 111.19 180.28 109.26 Z M 173.47 121.55 C 175.71 123.19 178.18 121.59 178.06 119.00 C 178.41 116.75 175.76 115.43 174.40 117.40 C 173.01 118.54 173.50 119.94 173.47 121.55 Z" id="p8" />
<path d="M 99.58 115.53 C 97.86 115.51 96.15 115.51 94.43 115.51 C 94.00 114.32 94.13 113.43 94.84 112.84 C 96.68 111.03 100.94 112.63 99.58 115.53 Z" id="p9" />
<path d="M 114.58 115.53 C 112.86 115.51 111.15 115.51 109.43 115.51 C 109.07 114.46 109.22 113.60 109.89 112.93 C 111.50 111.04 116.36 112.59 114.58 115.53 Z" id="p10" />
<path d="M 133.99 113.71 C 136.18 113.66 139.99 113.45 137.84 116.80 C 135.13 115.91 132.18 116.60 132.27 119.94 C 132.83 122.71 134.72 121.86 136.86 122.14 C 137.25 123.07 137.13 123.86 136.52 124.51 C 134.00 126.04 129.91 125.31 128.61 122.37 C 126.55 118.57 129.84 113.78 133.99 113.71 Z" id="p11" />
<path d="M 146.46 114.46 C 148.32 113.43 150.95 113.68 152.98 114.04 C 155.84 115.01 157.02 119.00 155.58 121.50 C 154.03 125.47 147.22 126.77 144.39 123.65 C 142.78 120.85 142.94 115.83 146.46 114.46 Z M 149.34 116.37 C 147.17 117.48 146.00 121.72 148.97 122.53 C 152.62 122.75 153.52 115.47 149.34 116.37 Z" id="p12" />
<path d="M 157.54 114.46 C 158.49 113.85 159.65 113.75 161.01 114.15 C 162.33 116.27 159.72 118.91 160.47 121.56 C 161.34 122.01 162.15 122.09 162.89 121.80 C 165.36 120.06 164.97 117.13 165.53 114.45 C 166.50 113.85 167.66 113.75 169.02 114.14 L 169.43 114.99 C 168.95 118.20 168.36 121.91 167.03 124.87 C 165.30 125.71 164.56 124.59 163.04 124.29 C 160.63 125.74 158.08 125.84 156.76 123.01 C 156.36 120.24 157.12 117.21 157.54 114.46 Z" id="p13" />
<path d="M 149.34 116.37 C 153.52 115.47 152.62 122.75 148.97 122.53 C 146.00 121.72 147.17 117.48 149.34 116.37 Z" id="p14" />
<path d="M 178.06 119.00 C 178.18 121.59 175.71 123.19 173.47 121.55 C 173.50 119.94 173.01 118.54 174.40 117.40 C 175.76 115.43 178.41 116.75 178.06 119.00 Z" id="p15" />
<path d="M 70.57 117.43 C 72.10 119.91 69.66 121.86 67.33 121.65 C 65.91 120.84 65.92 119.91 66.46 118.49 C 67.86 117.72 68.95 117.33 70.57 117.43 Z" id="p16" />
<path d="M 166.51 129.61 C 166.96 131.25 168.40 131.98 169.88 130.95 C 170.05 130.00 170.33 129.45 170.72 129.29 C 170.75 130.76 170.75 132.24 170.71 133.71 C 169.59 132.77 170.47 131.32 167.98 131.62 C 167.21 131.87 166.69 132.55 166.41 133.67 C 166.51 132.39 166.32 130.62 166.51 129.61 Z" id="p17" />
<path d="M 172.27 130.33 L 172.74 130.33 C 173.23 130.96 173.64 134.23 172.20 133.76 C 171.71 132.68 171.73 131.53 172.27 130.33 Z" id="p18" />
<path d="M 74.36 133.30 C 74.69 133.66 74.69 133.66 74.36 133.30 Z" id="p19" />
<path d="M 133.32 133.31 C 133.67 133.67 133.67 133.67 133.32 133.31 Z" id="p20" />
<path d="M 143.50 133.47 C 143.50 133.49 143.50 133.49 143.50 133.47 Z" id="p21" />
<path d="M 183.34 133.30 C 183.71 133.68 183.71 133.68 183.34 133.30 Z" id="p22" />
</defs>
<g stroke-width="10pt">
<use stroke="#fefefe" xlink:href="#p0" />
<use stroke="#0089ce" xlink:href="#p1" />
<use stroke="#0089ce" xlink:href="#p2" />
<use stroke="#0089ce" xlink:href="#p3" />
<use stroke="#0089ce" xlink:href="#p4" />
<use stroke="#0089ce" xlink:href="#p5" />
<use stroke="#0089ce" xlink:href="#p6" />
<use stroke="#f16a37" xlink:href="#p7" />
<use stroke="#f16a37" xlink:href="#p8" />
<use stroke="#fefefe" xlink:href="#p9" />
<use stroke="#fefefe" xlink:href="#p10" />
<use stroke="#f16a37" xlink:href="#p11" />
<use stroke="#f16a37" xlink:href="#p12" />
<use stroke="#f16a37" xlink:href="#p13" />
<use stroke="#fefefe" xlink:href="#p14" />
<use stroke="#fefefe" xlink:href="#p15" />
<use stroke="#fefefe" xlink:href="#p16" />
<use stroke="#f16a37" xlink:href="#p17" />
<use stroke="#f16a37" xlink:href="#p18" />
<use stroke="#f16a37" xlink:href="#p19" />
<use stroke="#f16a37" xlink:href="#p20" />
<use stroke="#f16a37" xlink:href="#p21" />
<use stroke="#f16a37" xlink:href="#p22" />
</g>
<g>
<use fill="#fefefe" xlink:href="#p0" />
<use fill="#0089ce" xlink:href="#p1" />
<use fill="#0089ce" xlink:href="#p2" />
<use fill="#0089ce" xlink:href="#p3" />
<use fill="#0089ce" xlink:href="#p4" />
<use fill="#0089ce" xlink:href="#p5" />
<use fill="#0089ce" xlink:href="#p6" />
<use fill="#f16a37" xlink:href="#p7" />
<use fill="#f16a37" xlink:href="#p8" />
<use fill="#fefefe" xlink:href="#p9" />
<use fill="#fefefe" xlink:href="#p10" />
<use fill="#f16a37" xlink:href="#p11" />
<use fill="#f16a37" xlink:href="#p12" />
<use fill="#f16a37" xlink:href="#p13" />
<use fill="#fefefe" xlink:href="#p14" />
<use fill="#fefefe" xlink:href="#p15" />
<use fill="#fefefe" xlink:href="#p16" />
<use fill="#f16a37" xlink:href="#p17" />
<use fill="#f16a37" xlink:href="#p18" />
<use fill="#f16a37" xlink:href="#p19" />
<use fill="#f16a37" xlink:href="#p20" />
<use fill="#f16a37" xlink:href="#p21" />
<use fill="#f16a37" xlink:href="#p22" />
</g>
</svg>