<svg xmlns="http://www.w3.org/2000/svg" viewBox="0 0 283 30"><path fill="#182642" d="M31.247 0v30H15.364c-8.284 0-15-6.716-15-15 0-8.284 6.716-15 15-15h15.883z"/><path fill="#FFF" d="M18.912 13.598a3.815 3.815 0 1 0-.011 2.835h9.681c-.714 6.668-6.359 11.862-13.217 11.862v1.053C7.562 29.346 1.018 22.803 1.018 15S7.562.654 15.364.654v1.053c6.868 0 12.52 5.209 13.22 11.891h-9.672z"/><path fill="#009B74" d="M15.138 19.68a4.65 4.65 0 0 1-2.929-1.217l-5.885 5.882A12.935 12.935 0 0 0 15.138 28v-8.32z"/><path fill="#287AB9" d="M11.901 18.155A4.669 4.669 0 0 1 10.679 15c0-1.21.458-2.312 1.211-3.143L6.006 5.973A12.962 12.962 0 0 0 2.362 15a12.96 12.96 0 0 0 3.651 9.034l5.888-5.879z"/><path fill="#FDB816" d="M15.138 1.999a12.947 12.947 0 0 0-8.821 3.662l5.882 5.885a4.666 4.666 0 0 1 2.938-1.226l.001-8.321z"/><path fill="#FFF" d="M15.138 23.753v1.105l.005.002v-1.106l-.005-.001M15.138 22.734v.48l.005.001v-.48l-.005-.001M15.138 2.104v.839l.005.001v-.84h-.005M15.138 3.309v1.318l.006.002V3.31l-.006-.001"/><path fill="#007457" d="M6.368 24.301l-.044.044c.089.086.179.171.271.255a10.689 10.689 0 0 1-.227-.299"/><g fill="#F79C25"><path d="M14.232 2.046a12.961 12.961 0 0 0-3.195.688 10.508 10.508 0 0 1 4.101.209v-.839a9.792 9.792 0 0 0-.906-.058M12.679 2.995a9.888 9.888 0 0 0-3.982.839 13.108 13.108 0 0 0-2.38 1.827l.1.099a10.56 10.56 0 0 1 5.602-1.61c1.043 0 2.095.155 3.119.476V3.308a9.818 9.818 0 0 0-2.459-.313"/><path d="M11.939 4.515a9.786 9.786 0 0 0-5.25 1.517l.852.853a10.498 10.498 0 0 1 7.596-.731V5.048a9.806 9.806 0 0 0-3.198-.533"/><path d="M12.052 6.198c-1.43 0-2.875.312-4.234.964l.907.908a10.42 10.42 0 0 1 4.579-1.056c.617 0 1.23.054 1.834.16v-.481a9.897 9.897 0 0 0-3.086-.495"/><path d="M13.027 7.592a9.885 9.885 0 0 0-3.954.826l.55.55a10.574 10.574 0 0 1 4.215-1.342 9.996 9.996 0 0 0-.811-.034"/></g><g fill="#007457"><path d="M10.101 20.571l-.135.134a9.864 9.864 0 0 0 5.172 4.153v-1.105a10.523 10.523 0 0 1-5.037-3.182M12.609 21.955a9.834 9.834 0 0 0 2.529 1.259v-.479a10.63 10.63 0 0 1-2.529-.78M7.443 23.227l-.799.799a9.88 9.88 0 0 0 2.895 2.604c1.156.581 2.411.994 3.734 1.207a10.553 10.553 0 0 1-5.83-4.61"/><path d="M8.619 22.052l-.909.908a9.812 9.812 0 0 0 7.428 4.845v-.841a10.476 10.476 0 0 1-6.519-4.912"/><path d="M9.554 21.117l-.609.608a9.781 9.781 0 0 0 3.753 3.873 9.816 9.816 0 0 0 2.44 1V25.28a10.598 10.598 0 0 1-2.117-.929 10.466 10.466 0 0 1-3.467-3.234"/></g><g fill="#1E5C8B"><path d="M6.315 6.282a9.907 9.907 0 0 0-1.988 1.842 12.926 12.926 0 0 0-1.577 3.71 10.56 10.56 0 0 1 4.385-4.731l-.82-.821z"/><path d="M7.406 7.373a9.812 9.812 0 0 0-5.028 6.967 12.976 12.976 0 0 0 .485 4.246A10.514 10.514 0 0 1 8.315 8.282l-.909-.909z"/><path d="M8.649 8.616A9.78 9.78 0 0 0 4.5 12.511a9.816 9.816 0 0 0-.557 8.709 13.08 13.08 0 0 0 2.07 2.815l.099-.099a10.513 10.513 0 0 1-.365-11.102 10.459 10.459 0 0 1 3.487-3.631l-.585-.587z"/><path d="M9.655 9.622a9.831 9.831 0 0 0-4.952 8.538c0 2.039.62 3.932 1.683 5.502l.831-.83a10.48 10.48 0 0 1-1.273-5.017c0-3.258 1.483-6.167 3.808-8.096l-.097-.097z"/><path d="M8.143 12.421A9.838 9.838 0 0 0 7.49 22.56l.909-.907a10.502 10.502 0 0 1-.256-9.232"/><path d="M7.814 16.26a9.878 9.878 0 0 0 .924 5.054l.575-.574a10.561 10.561 0 0 1-1.499-4.48"/></g><g><path fill="#182642" d="M49.944 25.848c-6.384 0-11.127-4.834-11.127-10.946v-.061c0-6.051 4.649-11.007 11.312-11.007 4.091 0 6.54 1.338 8.554 3.284l-3.037 3.436c-1.673-1.49-3.378-2.402-5.548-2.402-3.657 0-6.291 2.98-6.291 6.628v.061c0 3.649 2.572 6.69 6.291 6.69 2.479 0 3.998-.973 5.703-2.494l3.037 3.011c-2.23 2.34-4.71 3.8-8.894 3.8zM93.204 18.1c2.758-1.023 4.649-3.223 4.649-6.725v-.062c0-4.463-3.068-7.16-8.182-7.16h-9.918v21.696h4.773v-6.942h3.75l4.649 6.942h5.579l-5.3-7.749zm-.186-6.478c0 1.828-1.333 3.068-3.657 3.068h-4.835V8.46h4.742c2.324 0 3.75 1.054 3.75 3.099v.063zM149.711 18.1c2.758-1.023 4.649-3.223 4.649-6.725v-.062c0-4.463-3.068-7.16-8.182-7.16h-9.918v21.696h4.773v-6.942h3.75l4.649 6.942h5.579l-5.3-7.749zm-.186-6.478c0 1.828-1.333 3.068-3.657 3.068h-4.835V8.46h4.742c2.324 0 3.75 1.054 3.75 3.099v.063zM72.951 4.436c-1.055-.386-2.259-.602-3.611-.602h-.56c-1.351 0-2.556.217-3.611.602-3.007 1.1-4.74 3.638-4.74 6.935V25.847h4.902v-6.879h7.458v6.879h4.902V11.371c0-3.297-1.732-5.835-4.74-6.935zM65.29 14.703l.003-3.268c.013-2.09 1.456-3.224 3.768-3.265 2.312.041 3.754 1.175 3.768 3.265l.003 3.268H65.29zM104.426 21.602v-2.71h10.198v-4.244h-10.198V8.399h11.777V4.152H99.684v21.696h16.519v-4.246zM122.714 21.602v-2.71h10.198v-4.244h-10.198V8.399h11.777V4.152h-16.519v21.696h16.519v-4.246z"/><g><path fill="#182642" d="M169.445 14.689c1.761-.71 3.676-2.192 3.676-5.126v-.062c0-3.243-2.811-5.312-7.011-5.312h-8.926v21.62h9.389c4.664 0 7.752-2.285 7.752-5.899v-.062c0-2.997-2.285-4.479-4.88-5.159zM158.79 5.671h7.289c3.459 0 5.405 1.606 5.405 3.984v.062c0 2.872-2.316 4.414-5.559 4.414h-7.135v-8.46zm13.898 14.238c0 2.717-2.347 4.417-6.053 4.417h-7.845v-8.712h7.32c4.262 0 6.578 1.577 6.578 4.233v.062zM185.705 26.148c-5.189 0-8.865-3.274-8.865-9.327V4.188h1.606v12.477c0 5.096 2.749 8.031 7.32 8.031 4.386 0 7.196-2.656 7.196-7.876V4.188h1.606v12.447c.001 6.208-3.613 9.513-8.863 9.513zM199.333 4.188h1.606v21.62h-1.606zM205.703 25.808V4.188h1.606v20.138h12.694v1.482zM229.698 4.188h-7.196v21.62h7.196c6.795 0 11.489-4.725 11.489-10.81v-.062c0-6.084-4.695-10.748-11.489-10.748zm9.821 10.872c0 5.157-3.799 9.265-9.822 9.265h-5.591V5.671h5.591c6.023 0 9.822 4.2 9.822 9.327v.062zM243.733 25.808V4.188h15.381v1.483h-13.775v8.46h12.385v1.483h-12.385v8.712h13.93v1.482zM271.918 15.614c2.951-.197 5.866-1.49 5.789-5.978-.067-3.907-2.842-5.481-7.043-5.481h-8.926v21.62h1.606V15.614h6.139l.455-.005 7.367 10.199h2.038l-7.425-10.194zm-8.573-1.483V5.638h7.289c3.459 0 5.312 1.295 5.405 4.005.118 3.446-1.945 4.489-5.559 4.489l-7.135-.001z"/></g></g><g><path fill="#182642" d="M278.558 7.26v.015M280.474 8.052c-1.141 0-2.07-.929-2.07-2.07s.929-2.07 2.07-2.07c1.141 0 2.07.929 2.07 2.07s-.928 2.07-2.07 2.07zm0-3.795c-.951 0-1.725.774-1.725 1.725s.774 1.725 1.725 1.725 1.725-.774 1.725-1.725-.774-1.725-1.725-1.725z"/><path fill="#182642" d="M279.743 5.002h.886a.99.99 0 0 1 .34.054.662.662 0 0 1 .246.152c.051.051.09.111.118.18a.596.596 0 0 1 .041.227v.006a.622.622 0 0 1-.041.231.533.533 0 0 1-.116.177.637.637 0 0 1-.178.124.887.887 0 0 1-.224.069l.633.842h-.286l-.598-.801h-.589v.801h-.232V5.002zm.867 1.051c.077 0 .148-.01.213-.029s.121-.048.168-.084a.386.386 0 0 0 .151-.311v-.005c0-.127-.046-.227-.139-.299s-.222-.107-.39-.107h-.638v.836h.635z"/></g></svg>