<?xml version="1.0" encoding="UTF-8" standalone="no"?>
<!DOCTYPE svg PUBLIC "-//W3C//DTD SVG 1.1//EN" "http://www.w3.org/Graphics/SVG/1.1/DTD/svg11.dtd">
<svg xmlns="http://www.w3.org/2000/svg" version="1.1" viewBox="0 0 355 142" width="355.0pt" height="142.0pt" xmlns:xlink="http://www.w3.org/1999/xlink">
<defs>
<path d="M 0.00 0.00 L 355.00 0.00 L 355.00 142.00 L 0.00 142.00 L 0.00 0.00 Z M 68.35 56.23 C 68.98 57.22 69.61 58.22 70.24 59.21 C 73.85 56.44 76.40 52.64 80.06 49.88 C 84.26 46.66 89.45 43.13 95.01 43.90 C 98.55 44.65 100.40 47.37 101.13 50.76 C 104.41 50.80 107.69 50.85 110.97 50.90 C 110.38 46.54 108.78 42.50 105.16 39.80 C 101.61 37.27 96.52 37.67 92.56 38.86 C 82.57 42.25 75.65 48.99 68.35 56.23 Z M 69.08 71.80 C 69.49 66.74 70.75 62.35 68.31 57.55 C 66.02 57.38 63.99 56.95 61.74 57.71 C 55.88 59.56 50.49 63.88 45.82 67.78 C 40.23 72.36 35.41 77.46 30.43 82.70 C 31.73 82.55 33.85 83.04 34.70 81.85 C 40.39 75.37 47.03 68.84 54.61 64.62 C 56.94 63.27 59.02 63.55 61.53 64.09 C 62.62 71.10 59.52 76.39 56.44 82.36 C 57.27 82.74 58.10 83.12 58.93 83.49 C 57.30 85.70 55.72 87.93 54.18 90.20 C 57.17 90.29 60.10 90.16 63.04 89.61 C 67.88 80.86 74.93 72.88 83.14 67.15 C 88.44 63.69 94.33 60.98 100.81 61.59 C 106.01 62.28 110.46 65.70 112.77 70.37 C 116.13 76.57 116.12 82.96 116.20 89.81 C 122.18 90.46 128.14 89.99 134.16 90.29 C 133.93 82.52 132.40 74.90 129.22 67.78 C 126.06 61.03 120.41 54.92 113.00 52.97 C 104.39 50.30 94.91 53.08 87.25 57.26 C 80.53 61.29 74.26 65.86 69.08 71.80 Z M 162.40 72.83 C 163.10 72.71 163.80 72.59 164.50 72.48 C 165.35 74.01 165.80 75.67 167.45 76.53 C 171.08 78.05 174.80 77.42 178.22 75.66 C 179.34 76.21 180.46 76.78 181.58 77.34 C 179.62 72.30 180.89 67.63 180.27 62.48 C 179.68 59.84 177.65 58.46 175.00 58.46 C 173.08 58.55 169.00 57.76 168.19 60.12 C 170.70 60.17 173.29 59.95 175.79 60.28 C 178.09 60.82 178.43 62.54 179.23 64.51 C 175.54 65.13 171.38 65.50 167.93 67.02 C 166.21 67.71 165.74 69.16 164.82 70.62 C 163.90 70.70 162.97 70.77 162.05 70.84 C 160.24 72.81 158.71 74.66 155.98 75.33 C 150.73 77.00 143.76 73.71 142.76 68.01 C 141.25 62.32 144.10 56.21 149.96 54.66 C 153.60 53.42 156.45 54.81 159.75 56.17 C 160.10 56.99 160.44 57.81 160.79 58.63 C 161.54 58.56 162.29 58.49 163.03 58.41 C 159.51 50.83 148.76 50.98 143.59 56.56 C 139.32 61.55 139.77 69.94 144.57 74.44 C 149.84 78.70 158.22 78.66 162.40 72.83 Z M 257.88 76.63 C 258.67 76.58 259.46 76.53 260.25 76.48 C 261.34 73.77 262.50 71.10 263.72 68.45 C 267.25 68.53 270.77 68.54 274.29 68.46 C 275.52 71.14 276.62 73.84 277.64 76.61 C 278.49 76.59 279.34 76.57 280.19 76.56 C 277.17 69.32 273.97 62.17 270.98 54.93 C 270.14 53.61 270.30 51.83 268.28 52.23 C 265.27 58.02 263.24 64.35 260.39 70.22 C 259.39 72.30 258.58 74.43 257.88 76.63 Z M 318.94 59.73 C 319.55 58.22 319.64 56.79 319.21 55.43 C 317.64 56.29 317.99 58.51 318.94 59.73 Z M 322.11 59.26 C 323.04 59.01 323.97 58.72 324.88 58.40 C 324.82 57.68 324.76 56.96 324.70 56.25 C 324.06 56.30 323.42 56.36 322.78 56.41 C 321.86 56.42 320.95 56.42 320.04 56.42 C 320.70 57.39 321.41 58.32 322.11 59.26 Z M 285.61 59.74 C 285.08 58.76 284.54 57.79 283.99 56.82 C 283.14 58.58 282.77 60.02 282.85 61.98 C 282.95 66.83 282.99 71.66 282.81 76.51 L 285.25 76.57 C 285.31 71.89 284.83 67.06 285.41 62.41 C 286.92 60.95 288.93 59.97 290.97 59.53 C 293.01 59.59 295.05 60.51 296.98 61.11 C 296.50 59.65 296.69 58.55 295.05 57.94 C 291.70 56.67 288.32 57.51 285.61 59.74 Z M 186.78 58.64 C 186.83 64.66 186.91 70.69 186.74 76.69 L 188.60 76.74 C 188.49 72.06 188.39 67.38 188.59 62.70 C 190.92 61.51 193.24 59.83 195.98 60.05 C 197.85 60.06 199.30 61.68 200.72 62.74 C 199.53 65.65 199.25 68.79 200.11 71.83 C 201.28 75.09 204.26 76.73 207.51 77.34 C 210.19 77.51 212.96 76.91 215.56 76.28 C 217.05 75.98 217.49 75.34 218.31 74.14 C 214.09 74.74 209.16 77.00 205.16 74.87 C 202.48 73.46 201.65 71.10 200.93 68.36 C 206.73 68.24 212.52 68.29 218.32 68.26 C 217.52 65.32 217.20 62.40 214.69 60.34 C 210.96 57.24 205.45 57.76 202.03 61.10 C 200.52 60.29 199.07 59.37 197.51 58.66 C 193.37 57.22 190.86 61.39 186.78 58.64 Z M 240.24 74.41 C 235.37 74.63 231.08 76.94 226.37 74.77 C 223.60 73.56 223.29 70.92 222.18 68.41 C 228.02 68.08 233.85 68.43 239.69 68.17 C 239.06 65.26 238.72 62.64 236.36 60.55 C 231.77 56.33 223.52 58.15 221.47 64.18 C 219.25 69.79 222.62 76.69 228.90 77.26 C 232.50 77.48 237.51 77.05 240.24 74.41 Z M 244.14 58.09 C 243.78 63.04 243.77 68.06 243.83 73.03 C 243.79 74.92 244.28 76.59 244.99 78.32 C 246.08 73.40 245.47 67.96 245.61 62.91 C 247.60 61.70 249.57 60.07 252.01 60.04 C 253.93 60.03 255.87 61.15 257.67 61.74 C 256.11 56.62 249.71 58.19 246.35 60.42 C 245.62 59.64 244.88 58.86 244.14 58.09 Z M 316.06 71.24 C 313.19 71.17 312.50 73.02 310.35 74.33 C 307.89 74.88 304.64 75.01 302.45 73.54 C 297.56 70.66 298.34 61.65 304.01 59.98 C 308.26 58.62 311.47 60.21 314.52 63.10 C 314.65 61.45 315.00 60.58 313.54 59.47 C 308.41 55.32 299.21 57.33 297.35 64.03 C 296.80 67.12 296.85 71.35 299.20 73.76 C 301.81 76.85 306.22 77.25 309.97 76.62 C 312.86 76.09 314.66 73.61 316.06 71.24 Z" id="p0" />
<path d="M 92.56 38.86 C 96.52 37.67 101.61 37.27 105.16 39.80 C 108.78 42.50 110.38 46.54 110.97 50.90 C 107.69 50.85 104.41 50.80 101.13 50.76 C 100.40 47.37 98.55 44.65 95.01 43.90 C 89.45 43.13 84.26 46.66 80.06 49.88 C 76.40 52.64 73.85 56.44 70.24 59.21 C 69.61 58.22 68.98 57.22 68.35 56.23 C 75.65 48.99 82.57 42.25 92.56 38.86 Z" id="p1" />
<path d="M 113.00 52.97 C 120.41 54.92 126.06 61.03 129.22 67.78 C 132.40 74.90 133.93 82.52 134.16 90.29 C 128.14 89.99 122.18 90.46 116.20 89.81 C 116.12 82.96 116.13 76.57 112.77 70.37 C 110.46 65.70 106.01 62.28 100.81 61.59 C 94.33 60.98 88.44 63.69 83.14 67.15 C 74.93 72.88 67.88 80.86 63.04 89.61 C 60.10 90.16 57.17 90.29 54.18 90.20 C 55.72 87.93 57.30 85.70 58.93 83.49 C 58.10 83.12 57.27 82.74 56.44 82.36 C 59.52 76.39 62.62 71.10 61.53 64.09 C 59.02 63.55 56.94 63.27 54.61 64.62 C 47.03 68.84 40.39 75.37 34.70 81.85 C 33.85 83.04 31.73 82.55 30.43 82.70 C 35.41 77.46 40.23 72.36 45.82 67.78 C 50.49 63.88 55.88 59.56 61.74 57.71 C 63.99 56.95 66.02 57.38 68.31 57.55 C 70.75 62.35 69.49 66.74 69.08 71.80 C 74.26 65.86 80.53 61.29 87.25 57.26 C 94.91 53.08 104.39 50.30 113.00 52.97 Z" id="p2" />
<path d="M 163.03 58.41 C 162.29 58.49 161.54 58.56 160.79 58.63 C 160.44 57.81 160.10 56.99 159.75 56.17 C 156.45 54.81 153.60 53.42 149.96 54.66 C 144.10 56.21 141.25 62.32 142.76 68.01 C 143.76 73.71 150.73 77.00 155.98 75.33 C 158.71 74.66 160.24 72.81 162.05 70.84 C 162.97 70.77 163.90 70.70 164.82 70.62 C 165.74 69.16 166.21 67.71 167.93 67.02 C 171.38 65.50 175.54 65.13 179.23 64.51 C 178.43 62.54 178.09 60.82 175.79 60.28 C 173.29 59.95 170.70 60.17 168.19 60.12 C 169.00 57.76 173.08 58.55 175.00 58.46 C 177.65 58.46 179.68 59.84 180.27 62.48 C 180.89 67.63 179.62 72.30 181.58 77.34 C 180.46 76.78 179.34 76.21 178.22 75.66 C 174.80 77.42 171.08 78.05 167.45 76.53 C 165.80 75.67 165.35 74.01 164.50 72.48 C 163.80 72.59 163.10 72.71 162.40 72.83 C 158.22 78.66 149.84 78.70 144.57 74.44 C 139.77 69.94 139.32 61.55 143.59 56.56 C 148.76 50.98 159.51 50.83 163.03 58.41 Z M 165.97 73.19 C 169.94 76.94 174.59 76.18 178.87 73.47 C 178.81 71.10 178.78 68.74 178.76 66.38 C 175.34 66.78 171.43 67.02 168.32 68.61 C 166.93 69.48 166.58 71.77 165.97 73.19 Z" id="p3" />
<path d="M 268.28 52.23 C 270.30 51.83 270.14 53.61 270.98 54.93 C 273.97 62.17 277.17 69.32 280.19 76.56 C 279.34 76.57 278.49 76.59 277.64 76.61 C 276.62 73.84 275.52 71.14 274.29 68.46 C 270.77 68.54 267.25 68.53 263.72 68.45 C 262.50 71.10 261.34 73.77 260.25 76.48 C 259.46 76.53 258.67 76.58 257.88 76.63 C 258.58 74.43 259.39 72.30 260.39 70.22 C 263.24 64.35 265.27 58.02 268.28 52.23 Z M 268.94 55.87 C 268.54 56.83 268.14 57.78 267.74 58.73 C 266.69 61.23 265.75 63.76 264.89 66.33 C 267.72 66.35 270.55 66.36 273.38 66.35 C 271.87 62.87 270.38 59.38 268.94 55.87 Z" id="p4" />
<path d="M 268.94 55.87 C 270.38 59.38 271.87 62.87 273.38 66.35 C 270.55 66.36 267.72 66.35 264.89 66.33 C 265.75 63.76 266.69 61.23 267.74 58.73 C 268.14 57.78 268.54 56.83 268.94 55.87 Z" id="p5" />
<path d="M 319.21 55.43 C 319.64 56.79 319.55 58.22 318.94 59.73 C 317.99 58.51 317.64 56.29 319.21 55.43 Z" id="p6" />
<path d="M 320.04 56.42 C 320.95 56.42 321.86 56.42 322.78 56.41 C 323.42 56.36 324.06 56.30 324.70 56.25 C 324.76 56.96 324.82 57.68 324.88 58.40 C 323.97 58.72 323.04 59.01 322.11 59.26 C 321.41 58.32 320.70 57.39 320.04 56.42 Z" id="p7" />
<path d="M 295.05 57.94 C 296.69 58.55 296.50 59.65 296.98 61.11 C 295.05 60.51 293.01 59.59 290.97 59.53 C 288.93 59.97 286.92 60.95 285.41 62.41 C 284.83 67.06 285.31 71.89 285.25 76.57 L 282.81 76.51 C 282.99 71.66 282.95 66.83 282.85 61.98 C 282.77 60.02 283.14 58.58 283.99 56.82 C 284.54 57.79 285.08 58.76 285.61 59.74 C 288.32 57.51 291.70 56.67 295.05 57.94 Z" id="p8" />
<path d="M 197.51 58.66 C 199.07 59.37 200.52 60.29 202.03 61.10 C 205.45 57.76 210.96 57.24 214.69 60.34 C 217.20 62.40 217.52 65.32 218.32 68.26 C 212.52 68.29 206.73 68.24 200.93 68.36 C 201.65 71.10 202.48 73.46 205.16 74.87 C 209.16 77.00 214.09 74.74 218.31 74.14 C 217.49 75.34 217.05 75.98 215.56 76.28 C 212.96 76.91 210.19 77.51 207.51 77.34 C 204.26 76.73 201.28 75.09 200.11 71.83 C 199.25 68.79 199.53 65.65 200.72 62.74 C 199.30 61.68 197.85 60.06 195.98 60.05 C 193.24 59.83 190.92 61.51 188.59 62.70 C 188.39 67.38 188.49 72.06 188.60 76.74 L 186.74 76.69 C 186.91 70.69 186.83 64.66 186.78 58.64 C 190.86 61.39 193.37 57.22 197.51 58.66 Z M 201.09 66.57 C 206.23 66.67 211.37 66.72 216.51 66.63 C 215.63 62.96 212.95 60.10 209.02 60.01 C 204.83 60.11 202.00 62.50 201.09 66.57 Z" id="p9" />
<path d="M 236.36 60.55 C 238.72 62.64 239.06 65.26 239.69 68.17 C 233.85 68.43 228.02 68.08 222.18 68.41 C 223.29 70.92 223.60 73.56 226.37 74.77 C 231.08 76.94 235.37 74.63 240.24 74.41 C 237.51 77.05 232.50 77.48 228.90 77.26 C 222.62 76.69 219.25 69.79 221.47 64.18 C 223.52 58.15 231.77 56.33 236.36 60.55 Z M 222.26 66.59 C 227.48 66.69 232.71 66.68 237.94 66.55 C 236.96 64.61 236.38 62.75 234.56 61.42 C 232.28 59.54 228.62 59.70 226.13 61.06 C 223.87 62.27 223.39 64.46 222.26 66.59 Z" id="p10" />
<path d="M 244.14 58.09 C 244.88 58.86 245.62 59.64 246.35 60.42 C 249.71 58.19 256.11 56.62 257.67 61.74 C 255.87 61.15 253.93 60.03 252.01 60.04 C 249.57 60.07 247.60 61.70 245.61 62.91 C 245.47 67.96 246.08 73.40 244.99 78.32 C 244.28 76.59 243.79 74.92 243.83 73.03 C 243.77 68.06 243.78 63.04 244.14 58.09 Z" id="p11" />
<path d="M 313.54 59.47 C 315.00 60.58 314.65 61.45 314.52 63.10 C 311.47 60.21 308.26 58.62 304.01 59.98 C 298.34 61.65 297.56 70.66 302.45 73.54 C 304.64 75.01 307.89 74.88 310.35 74.33 C 312.50 73.02 313.19 71.17 316.06 71.24 C 314.66 73.61 312.86 76.09 309.97 76.62 C 306.22 77.25 301.81 76.85 299.20 73.76 C 296.85 71.35 296.80 67.12 297.35 64.03 C 299.21 57.33 308.41 55.32 313.54 59.47 Z" id="p12" />
<path d="M 209.02 60.01 C 212.95 60.10 215.63 62.96 216.51 66.63 C 211.37 66.72 206.23 66.67 201.09 66.57 C 202.00 62.50 204.83 60.11 209.02 60.01 Z" id="p13" />
<path d="M 234.56 61.42 C 236.38 62.75 236.96 64.61 237.94 66.55 C 232.71 66.68 227.48 66.69 222.26 66.59 C 223.39 64.46 223.87 62.27 226.13 61.06 C 228.62 59.70 232.28 59.54 234.56 61.42 Z" id="p14" />
<path d="M 178.76 66.38 C 178.78 68.74 178.81 71.10 178.87 73.47 C 174.59 76.18 169.94 76.94 165.97 73.19 C 166.58 71.77 166.93 69.48 168.32 68.61 C 171.43 67.02 175.34 66.78 178.76 66.38 Z" id="p15" />
</defs>
<g stroke-width="10pt">
<use stroke="#ffffff" xlink:href="#p0" />
<use stroke="#76b63c" xlink:href="#p1" />
<use stroke="#76b63c" xlink:href="#p2" />
<use stroke="#76b63c" xlink:href="#p3" />
<use stroke="#76b63c" xlink:href="#p4" />
<use stroke="#ffffff" xlink:href="#p5" />
<use stroke="#76b63c" xlink:href="#p6" />
<use stroke="#76b63c" xlink:href="#p7" />
<use stroke="#76b63c" xlink:href="#p8" />
<use stroke="#76b63c" xlink:href="#p9" />
<use stroke="#76b63c" xlink:href="#p10" />
<use stroke="#76b63c" xlink:href="#p11" />
<use stroke="#76b63c" xlink:href="#p12" />
<use stroke="#ffffff" xlink:href="#p13" />
<use stroke="#ffffff" xlink:href="#p14" />
<use stroke="#ffffff" xlink:href="#p15" />
</g>
<g>
<use fill="#ffffff" xlink:href="#p0" />
<use fill="#76b63c" xlink:href="#p1" />
<use fill="#76b63c" xlink:href="#p2" />
<use fill="#76b63c" xlink:href="#p3" />
<use fill="#76b63c" xlink:href="#p4" />
<use fill="#ffffff" xlink:href="#p5" />
<use fill="#76b63c" xlink:href="#p6" />
<use fill="#76b63c" xlink:href="#p7" />
<use fill="#76b63c" xlink:href="#p8" />
<use fill="#76b63c" xlink:href="#p9" />
<use fill="#76b63c" xlink:href="#p10" />
<use fill="#76b63c" xlink:href="#p11" />
<use fill="#76b63c" xlink:href="#p12" />
<use fill="#ffffff" xlink:href="#p13" />
<use fill="#ffffff" xlink:href="#p14" />
<use fill="#ffffff" xlink:href="#p15" />
</g>
</svg>