<?xml version="1.0" encoding="UTF-8" standalone="no"?>
<!DOCTYPE svg PUBLIC "-//W3C//DTD SVG 1.1//EN" "http://www.w3.org/Graphics/SVG/1.1/DTD/svg11.dtd">
<svg xmlns="http://www.w3.org/2000/svg" version="1.1" viewBox="0 0 1001 464" width="1001.0pt" height="464.0pt">
<path d="M 0.00 0.00 L 1001.00 0.00 L 1001.00 464.00 L 0.00 464.00 L 0.00 0.00 Z" fill="#ffffff" />
<path d="M 273.03 95.88 C 302.24 104.63 328.26 123.10 346.31 147.66 C 362.88 169.93 372.37 197.03 373.76 224.73 C 369.05 224.76 364.35 224.75 359.64 224.74 C 358.35 202.21 351.18 180.15 338.62 161.38 C 321.41 135.20 294.32 115.80 263.97 107.99 C 251.32 104.64 238.37 103.60 225.32 104.02 C 225.24 101.68 225.19 99.34 225.15 97.00 C 200.05 98.06 175.49 106.49 154.91 120.88 C 128.25 139.28 108.68 167.48 100.90 198.95 C 98.72 207.42 97.71 216.04 97.00 224.74 C 94.72 224.74 92.44 224.73 90.16 224.71 C 91.80 188.39 107.98 153.37 134.52 128.54 C 153.24 110.84 176.78 98.37 202.00 93.01 C 225.37 87.99 250.14 88.96 273.03 95.88 Z" fill="#01a9b9" />
<path d="M 225.15 97.00 C 225.19 99.34 225.24 101.68 225.32 104.02 C 201.33 105.44 177.96 113.36 158.36 127.32 C 133.44 144.81 115.10 171.34 107.88 200.95 C 105.78 208.78 104.98 216.74 104.11 224.77 C 101.74 224.76 99.37 224.75 97.00 224.74 C 97.71 216.04 98.72 207.42 100.90 198.95 C 108.68 167.48 128.25 139.28 154.91 120.88 C 175.49 106.49 200.05 98.06 225.15 97.00 Z" fill="#019660" />
<path d="M 225.32 104.02 C 225.28 106.34 225.27 108.66 225.25 110.98 C 192.04 112.77 160.54 128.73 139.22 154.20 C 124.54 171.71 114.92 193.35 112.05 216.03 C 109.35 236.08 112.04 256.77 119.42 275.58 C 128.67 299.09 145.63 319.52 166.90 333.12 C 184.37 344.32 204.56 350.77 225.26 352.06 C 225.26 356.73 225.26 361.41 225.27 366.09 C 202.57 364.99 180.22 358.12 160.91 346.10 C 134.12 329.51 113.41 303.50 103.63 273.50 C 98.39 257.76 96.44 241.28 97.00 224.74 C 99.37 224.75 101.74 224.76 104.11 224.77 C 104.98 216.74 105.78 208.78 107.88 200.95 C 115.10 171.34 133.44 144.81 158.36 127.32 C 177.96 113.36 201.33 105.44 225.32 104.02 Z" fill="#75b701" />
<path d="M 238.75 114.19 C 251.39 114.94 263.86 117.66 275.61 122.37 C 296.26 130.54 314.22 144.76 327.33 162.64 C 339.50 179.41 347.17 199.35 349.09 220.00 C 351.18 240.95 347.57 262.47 338.49 281.48 C 330.25 299.24 317.13 314.77 301.40 326.36 C 283.20 339.67 261.24 347.56 238.71 348.80 C 238.76 344.11 238.76 339.42 238.71 334.72 C 259.64 333.28 280.02 325.52 296.37 312.34 C 313.01 299.23 325.43 280.83 331.39 260.52 C 334.88 248.89 335.94 236.88 335.45 224.78 C 337.82 224.76 340.18 224.74 342.55 224.71 C 341.31 204.31 334.25 184.24 322.35 167.61 C 311.59 152.37 296.88 140.02 280.08 131.91 C 267.12 125.50 253.08 122.14 238.70 121.06 C 238.72 118.77 238.74 116.48 238.75 114.19 Z" fill="#75b701" />
<path d="M 238.70 121.06 C 238.77 123.42 238.84 125.79 238.91 128.15 C 252.78 129.48 266.29 132.84 278.70 139.29 C 299.60 149.78 316.53 167.51 326.24 188.77 C 331.64 200.14 334.34 212.29 335.45 224.78 C 333.11 224.77 330.76 224.74 328.42 224.72 C 326.64 199.28 314.58 175.37 295.30 158.71 C 280.90 146.17 262.77 138.02 243.81 135.71 C 229.19 133.90 214.11 135.48 200.20 140.38 C 178.96 147.73 160.56 162.72 149.03 182.01 C 141.15 194.94 136.61 209.65 135.46 224.73 C 130.76 224.76 126.06 224.77 121.36 224.72 C 122.35 208.86 126.70 193.24 134.28 179.27 C 145.86 157.63 164.79 140.13 187.27 130.27 C 203.42 123.06 221.07 120.18 238.70 121.06 Z" fill="#01a9b9" />
<path d="M 238.70 121.06 C 253.08 122.14 267.12 125.50 280.08 131.91 C 296.88 140.02 311.59 152.37 322.35 167.61 C 334.25 184.24 341.31 204.31 342.55 224.71 C 340.18 224.74 337.82 224.76 335.45 224.78 C 334.34 212.29 331.64 200.14 326.24 188.77 C 316.53 167.51 299.60 149.78 278.70 139.29 C 266.29 132.84 252.78 129.48 238.91 128.15 C 238.84 125.79 238.77 123.42 238.70 121.06 Z" fill="#019660" />
<path d="M 238.72 148.72 C 249.20 149.76 259.43 152.38 268.85 157.15 C 285.48 165.31 299.17 179.18 307.08 195.93 C 313.45 209.09 315.90 223.72 314.83 238.26 C 311.28 238.26 307.73 238.25 304.18 238.22 C 302.48 255.37 294.47 272.08 281.81 283.83 C 270.21 295.09 254.83 301.96 238.77 303.54 C 238.74 301.26 238.72 298.97 238.69 296.69 C 257.29 294.57 274.54 284.72 285.36 269.40 C 293.13 258.54 297.45 245.36 297.52 232.00 C 297.66 217.39 292.72 202.84 283.69 191.36 C 272.84 177.33 256.32 168.27 238.72 166.33 C 238.76 160.46 238.75 154.59 238.72 148.72 Z" fill="#75b701" />
<path d="M 246.03 186.83 C 249.27 187.81 252.22 190.53 252.67 194.00 C 253.25 197.73 251.82 200.63 250.50 203.97 C 248.16 203.02 245.82 202.05 243.48 201.08 C 243.98 199.29 246.68 195.76 244.70 194.30 C 240.74 192.07 234.86 193.51 232.41 197.41 C 229.42 201.82 229.56 207.86 229.44 212.98 C 233.63 213.00 237.82 213.00 242.01 213.00 C 242.00 215.42 242.00 217.84 242.00 220.26 C 237.85 220.26 233.70 220.26 229.55 220.22 C 229.49 230.08 229.48 239.93 229.55 249.79 C 231.94 249.76 234.33 249.74 236.72 249.72 C 236.74 252.15 236.74 254.58 236.75 257.01 C 229.67 257.00 222.58 257.00 215.50 257.01 C 215.50 254.59 215.49 252.17 215.49 249.75 C 217.74 249.75 219.99 249.75 222.24 249.75 C 222.24 239.91 222.25 230.08 222.23 220.24 C 219.74 220.25 217.24 220.25 214.75 220.26 C 214.75 217.84 214.75 215.41 214.75 212.99 C 217.24 212.99 219.74 212.99 222.23 212.99 C 222.23 208.60 222.05 204.32 223.17 200.03 C 224.35 195.26 226.95 190.79 231.28 188.27 C 235.64 185.75 241.26 185.36 246.03 186.83 Z" fill="#51555b" />
<path d="M 472.99 204.08 C 476.52 204.32 480.57 205.20 482.94 208.05 C 485.91 211.47 485.50 217.14 482.11 220.10 C 479.76 221.89 476.40 219.91 476.74 216.99 C 476.60 215.03 479.25 214.18 480.49 213.18 C 478.01 207.54 469.26 207.75 464.93 210.90 C 460.35 214.54 460.52 219.64 460.41 224.99 C 463.69 225.00 466.97 225.00 470.25 225.00 C 470.25 226.58 470.26 228.16 470.27 229.74 C 467.02 229.75 463.78 229.75 460.54 229.75 C 460.47 237.82 460.52 245.90 460.50 253.97 C 462.42 253.98 464.33 253.98 466.25 253.99 C 466.25 255.57 466.26 257.16 466.26 258.74 C 461.01 258.76 455.75 258.77 450.49 258.73 C 450.49 257.15 450.50 255.57 450.50 253.99 C 452.25 253.99 454.00 254.00 455.75 254.00 C 455.75 245.92 455.75 237.85 455.76 229.77 C 453.84 229.76 451.93 229.75 450.02 229.74 C 450.01 228.16 450.00 226.59 449.99 225.01 C 451.88 225.00 453.78 224.99 455.68 224.99 C 455.72 219.81 455.67 215.11 458.65 210.63 C 461.77 205.79 467.42 203.79 472.99 204.08 Z" fill="#51555b" />
<path d="M 682.90 204.47 C 686.23 204.00 689.64 203.94 693.00 203.70 C 693.02 220.46 692.99 237.23 693.01 253.99 C 694.85 254.00 696.68 254.00 698.52 254.01 C 698.52 255.59 698.51 257.16 698.51 258.74 C 693.35 258.76 688.20 258.76 683.04 258.77 C 683.02 257.18 683.00 255.59 682.98 254.01 C 684.73 254.00 686.48 253.99 688.23 253.99 C 688.25 238.91 688.25 223.84 688.24 208.76 C 686.36 208.76 684.48 208.75 682.61 208.74 C 682.68 207.32 682.73 205.89 682.90 204.47 Z" fill="#51555b" />
<path d="M 638.35 212.33 C 642.30 211.06 643.86 216.95 639.85 217.71 C 636.45 218.35 635.30 213.50 638.35 212.33 Z" fill="#51555b" />
<path d="M 208.58 219.42 C 211.99 224.01 212.47 229.20 212.30 234.76 C 201.63 234.77 190.95 234.74 180.28 234.77 C 180.86 238.94 181.11 242.71 183.87 246.11 C 188.00 251.27 196.63 251.51 201.77 247.81 C 204.47 245.98 205.41 243.26 206.81 240.47 C 209.06 241.42 211.31 242.36 213.56 243.30 C 212.31 246.14 211.29 248.81 209.15 251.13 C 202.47 258.55 189.95 259.78 181.75 254.26 C 175.24 249.65 172.82 241.70 173.08 234.02 C 173.34 226.14 176.41 218.53 183.66 214.69 C 191.52 210.74 203.30 211.59 208.58 219.42 Z" fill="#51555b" />
<path d="M 272.52 213.61 C 277.29 215.15 281.16 218.73 281.52 223.97 C 281.97 227.44 280.57 230.17 279.06 233.14 C 276.83 232.16 274.58 231.19 272.34 230.22 C 273.30 227.34 275.62 224.85 272.84 222.16 C 266.79 217.74 255.87 219.21 252.42 226.42 C 249.63 231.99 249.70 239.63 253.09 244.93 C 257.07 251.20 266.80 252.11 272.18 247.20 C 274.37 245.20 275.56 242.16 276.83 239.53 C 279.11 240.53 281.38 241.53 283.65 242.53 C 281.73 246.64 280.05 250.47 276.37 253.35 C 267.46 260.67 252.52 258.48 246.52 248.48 C 241.29 239.63 241.71 226.52 248.73 218.71 C 254.63 212.17 264.46 211.21 272.52 213.61 Z" fill="#51555b" />
<path d="M 199.77 221.19 C 202.28 222.69 203.14 225.00 204.43 227.45 C 196.82 227.52 189.20 227.54 181.60 227.44 C 183.32 224.73 184.77 222.22 187.87 220.89 C 191.46 219.38 196.34 219.13 199.77 221.19 Z" fill="#ffffff" />
<path d="M 438.53 227.48 C 442.74 231.11 443.54 235.94 443.66 241.25 C 435.17 241.31 426.66 241.10 418.17 241.38 C 418.86 244.94 418.97 248.61 421.66 251.34 C 425.21 255.19 431.33 255.34 435.63 252.66 C 437.84 251.35 438.86 249.00 440.14 246.87 C 441.61 247.53 443.06 248.21 444.52 248.87 C 443.09 251.41 441.98 253.82 439.64 255.69 C 433.53 260.66 422.99 260.43 417.74 254.26 C 412.95 248.54 412.57 239.25 415.66 232.67 C 419.40 224.28 431.52 222.12 438.53 227.48 Z" fill="#51555b" />
<path d="M 473.24 225.00 C 476.66 224.99 480.08 224.99 483.51 224.99 C 483.49 234.65 483.52 244.31 483.49 253.97 C 485.25 253.99 487.01 254.01 488.77 254.03 C 488.76 255.61 488.76 257.18 488.75 258.76 C 483.59 258.76 478.42 258.75 473.25 258.75 C 473.25 257.18 473.24 255.60 473.24 254.02 C 475.08 254.00 476.92 253.99 478.75 253.97 C 478.75 245.90 478.75 237.84 478.75 229.77 C 476.92 229.76 475.09 229.75 473.26 229.74 C 473.25 228.16 473.24 226.58 473.24 225.00 Z" fill="#51555b" />
<path d="M 491.62 225.14 C 494.97 224.82 498.39 225.01 501.76 225.02 L 501.71 227.56 C 504.72 226.13 507.60 224.78 511.00 224.62 C 514.60 224.43 518.75 224.83 521.20 227.80 C 523.22 230.19 523.17 233.04 523.28 236.00 C 523.29 241.99 523.22 247.98 523.26 253.97 C 525.02 253.99 526.77 254.01 528.53 254.02 C 528.52 255.60 528.51 257.18 528.50 258.76 C 523.50 258.76 518.50 258.76 513.49 258.75 C 513.48 257.18 513.47 255.61 513.46 254.04 C 515.14 254.01 516.83 253.99 518.51 253.97 C 518.33 246.98 518.81 239.92 518.30 232.96 C 518.01 229.65 514.64 229.22 511.98 229.26 C 507.82 229.29 504.85 231.44 501.73 233.89 C 501.79 240.59 501.73 247.28 501.76 253.98 C 503.43 253.99 505.10 254.01 506.76 254.03 C 506.76 255.60 506.75 257.17 506.75 258.75 C 501.75 258.76 496.76 258.76 491.76 258.75 C 491.75 257.19 491.73 255.64 491.71 254.09 C 493.47 254.04 495.24 253.99 497.00 253.95 C 496.99 245.89 497.00 237.82 496.99 229.75 C 495.13 229.75 493.26 229.75 491.39 229.75 C 491.44 228.21 491.47 226.67 491.62 225.14 Z" fill="#51555b" />
<path d="M 548.03 225.01 C 551.16 225.60 553.66 227.71 554.05 230.98 C 554.69 238.59 553.85 246.32 554.40 253.94 C 555.54 254.42 556.84 254.35 558.30 253.70 C 559.33 254.82 560.35 255.94 561.37 257.07 C 559.21 258.12 557.54 259.59 554.98 259.16 C 552.78 258.97 551.47 257.47 549.78 256.22 C 544.79 258.77 539.61 260.65 534.26 257.76 C 528.44 254.54 528.65 245.56 534.02 242.04 C 538.23 239.27 544.65 239.55 549.51 239.06 C 549.51 236.43 549.68 233.64 549.18 231.05 C 548.11 229.56 545.72 229.26 544.02 229.25 C 541.64 229.29 538.33 229.89 536.93 232.05 C 535.88 234.08 537.42 235.51 538.14 237.36 C 536.78 238.19 535.42 239.03 534.05 239.85 C 532.15 236.46 530.60 233.47 532.70 229.68 C 535.61 224.76 542.96 223.90 548.03 225.01 Z" fill="#51555b" />
<path d="M 562.23 225.03 C 565.55 225.01 568.93 224.81 572.23 225.16 L 572.77 227.58 C 575.40 226.19 577.96 224.92 580.98 224.70 C 584.77 224.34 589.57 224.65 592.15 227.87 C 594.12 230.32 593.99 233.02 594.05 236.00 C 594.00 242.01 593.99 248.01 594.01 254.02 C 595.73 254.00 597.46 253.97 599.18 253.96 C 599.20 255.55 599.26 257.14 599.30 258.73 C 594.28 258.77 589.27 258.75 584.26 258.75 C 584.25 257.18 584.25 255.60 584.24 254.02 C 585.91 254.00 587.59 253.99 589.26 253.97 C 589.19 247.64 589.31 241.31 589.26 234.99 C 589.15 232.86 589.30 230.99 587.08 229.94 C 581.50 227.94 576.48 230.36 572.45 234.23 C 572.55 240.80 572.49 247.38 572.50 253.96 C 574.16 253.98 575.83 253.99 577.49 254.01 C 577.50 255.59 577.51 257.16 577.51 258.74 C 572.50 258.76 567.49 258.76 562.48 258.74 C 562.49 257.16 562.49 255.58 562.50 254.00 C 564.25 254.00 566.00 254.00 567.75 253.99 C 567.75 245.92 567.75 237.85 567.75 229.78 C 565.92 229.76 564.09 229.75 562.26 229.73 C 562.25 228.16 562.24 226.59 562.23 225.03 Z" fill="#51555b" />
<path d="M 619.99 225.06 C 623.74 225.86 627.27 228.02 628.25 231.96 C 629.06 234.80 627.84 237.02 627.07 239.69 C 625.58 239.12 624.08 238.56 622.59 237.99 C 623.00 236.67 623.48 235.33 623.72 233.98 C 623.62 232.16 622.37 230.98 620.78 230.28 C 615.72 228.20 609.18 229.18 606.06 234.05 C 603.36 238.29 603.27 244.92 605.71 249.30 C 608.56 254.56 615.84 256.05 620.73 252.79 C 623.14 251.22 624.26 248.58 625.62 246.15 C 627.07 246.79 628.51 247.43 629.96 248.07 C 628.24 251.39 626.87 254.50 623.61 256.62 C 616.40 261.42 605.63 259.33 601.44 251.53 C 598.03 245.07 598.34 235.78 602.99 229.97 C 607.16 224.94 613.82 223.77 619.99 225.06 Z" fill="#51555b" />
<path d="M 631.73 225.00 C 635.16 224.99 638.59 225.00 642.01 225.00 C 641.99 234.67 642.01 244.33 642.01 254.00 C 643.83 254.00 645.66 254.00 647.49 254.00 C 647.50 255.57 647.51 257.15 647.52 258.73 C 642.34 258.77 637.17 258.76 631.99 258.74 C 631.99 257.16 632.00 255.58 632.00 253.99 C 633.75 253.99 635.50 254.00 637.25 254.00 C 637.24 245.93 637.25 237.86 637.24 229.79 C 635.41 229.77 633.58 229.74 631.75 229.72 C 631.75 228.14 631.74 226.57 631.73 225.00 Z" fill="#51555b" />
<path d="M 666.02 224.67 C 669.82 224.98 673.72 226.73 674.10 230.98 C 674.60 238.26 673.94 245.62 674.33 252.90 C 674.18 255.12 677.13 254.04 678.31 253.71 C 679.42 254.83 680.52 255.96 681.62 257.09 C 679.53 258.06 677.40 259.61 674.98 259.16 C 672.96 259.01 671.47 257.38 669.87 256.24 C 664.78 258.86 658.90 260.82 653.67 257.34 C 648.26 253.65 649.11 244.78 654.69 241.71 C 658.87 239.32 664.81 239.50 669.50 239.10 C 669.50 236.41 669.65 233.62 669.26 230.96 C 665.65 227.84 657.97 228.89 656.16 233.76 C 656.90 234.90 657.64 236.05 658.38 237.19 C 657.02 238.08 655.65 238.97 654.28 239.85 C 652.53 236.99 650.97 234.62 652.16 231.09 C 654.01 225.59 660.94 224.18 666.02 224.67 Z" fill="#51555b" />
<path d="M 726.88 225.26 C 730.31 226.17 733.47 228.33 734.32 231.97 C 735.06 234.85 733.95 237.10 733.06 239.76 C 731.57 239.14 730.09 238.52 728.61 237.90 C 728.99 236.40 729.87 234.74 729.71 233.19 C 728.78 230.67 726.27 229.86 723.85 229.45 C 719.80 228.82 714.94 229.92 712.51 233.48 C 709.26 238.18 709.16 245.03 712.12 249.89 C 715.03 254.69 722.18 255.83 726.74 252.81 C 729.14 251.34 730.35 248.55 731.71 246.20 C 733.16 246.81 734.61 247.42 736.05 248.03 C 734.69 250.71 733.58 253.24 731.33 255.32 C 724.54 261.71 711.83 259.95 707.51 251.51 C 703.87 244.69 704.39 234.63 709.98 228.97 C 714.39 224.53 721.04 223.83 726.88 225.26 Z" fill="#51555b" />
<path d="M 758.52 225.64 C 760.88 226.63 762.45 228.61 762.64 231.20 C 763.23 239.11 762.01 247.28 763.34 255.00 C 764.46 254.48 765.58 253.95 766.70 253.43 C 767.82 254.67 768.94 255.90 770.05 257.14 C 768.22 257.95 766.05 259.42 763.99 259.19 C 761.50 259.14 760.19 257.57 758.34 256.19 C 753.32 258.87 747.78 260.70 742.47 257.58 C 736.85 254.09 737.41 245.19 742.88 241.84 C 747.07 239.27 753.25 239.53 758.02 239.08 C 757.88 236.39 758.45 233.05 757.43 230.54 C 755.40 229.15 752.50 229.05 750.16 229.48 C 747.97 229.98 745.75 230.73 745.06 233.13 C 745.06 234.57 746.09 235.99 746.60 237.31 C 745.35 238.18 744.09 239.04 742.83 239.91 C 741.59 237.64 739.89 235.78 740.27 233.03 C 740.50 229.66 742.80 227.07 745.85 225.82 C 749.79 224.27 754.54 224.10 758.52 225.64 Z" fill="#51555b" />
<path d="M 770.99 224.99 C 774.32 225.00 777.66 225.00 780.99 224.99 L 780.97 227.53 C 783.90 225.85 786.47 224.22 790.03 224.61 C 792.65 224.83 794.91 226.25 795.43 228.96 C 796.13 232.07 794.62 234.13 793.16 236.65 C 791.84 235.79 790.52 234.92 789.20 234.04 C 789.93 232.45 790.87 231.17 790.69 229.33 C 788.76 229.18 787.10 229.32 785.47 230.46 C 783.31 232.06 780.70 233.93 781.01 236.97 C 780.91 242.64 781.07 248.31 781.01 253.99 C 782.92 254.00 784.84 254.00 786.76 254.02 C 786.76 255.60 786.75 257.17 786.75 258.75 C 781.50 258.76 776.25 258.76 771.01 258.76 C 771.00 257.17 771.00 255.59 770.99 254.00 C 772.74 253.99 774.49 254.00 776.23 253.99 C 776.26 245.92 776.25 237.84 776.24 229.77 C 774.50 229.76 772.75 229.77 771.01 229.76 C 771.00 228.17 771.00 226.58 770.99 224.99 Z" fill="#51555b" />
<path d="M 821.03 226.96 C 825.81 230.47 826.77 235.64 826.93 241.24 C 818.48 241.27 810.02 241.23 801.57 241.26 C 802.02 244.70 802.06 247.81 804.27 250.68 C 807.57 255.09 814.22 255.49 818.71 252.74 C 820.99 251.44 822.00 249.04 823.33 246.89 C 824.79 247.51 826.25 248.13 827.71 248.76 C 826.69 250.61 825.69 252.70 824.29 254.30 C 818.43 260.68 806.46 260.99 800.83 254.14 C 796.07 248.22 795.75 238.77 799.15 232.14 C 802.95 224.35 814.12 222.44 821.03 226.96 Z" fill="#51555b" />
<path d="M 854.68 227.27 C 859.11 230.83 860.05 235.85 860.17 241.25 C 851.71 241.26 843.25 241.22 834.79 241.27 C 835.26 244.90 835.40 248.17 837.87 251.11 C 841.40 255.25 848.12 255.44 852.43 252.42 C 854.29 251.19 855.41 248.76 856.56 246.90 C 858.03 247.50 859.50 248.11 860.96 248.73 C 859.92 250.63 858.91 252.83 857.44 254.44 C 851.47 260.71 839.56 260.96 833.99 254.03 C 829.36 248.17 829.01 238.85 832.32 232.31 C 836.10 224.26 847.78 222.29 854.68 227.27 Z" fill="#51555b" />
<path d="M 861.77 224.99 C 865.11 224.99 868.46 225.00 871.80 225.00 L 871.64 227.45 C 874.69 225.80 877.37 224.17 881.02 224.63 C 883.90 224.86 886.19 227.03 886.29 229.96 C 886.53 232.56 885.09 234.45 883.98 236.66 C 882.66 235.78 881.30 234.98 879.98 234.11 C 880.64 232.68 881.27 231.24 881.66 229.70 C 878.68 228.44 876.27 230.21 874.14 232.13 C 873.15 233.17 871.75 234.37 871.82 235.93 C 871.58 241.93 871.84 247.96 871.76 253.97 C 873.68 253.99 875.60 254.01 877.52 254.03 C 877.51 255.60 877.51 257.17 877.50 258.73 C 872.26 258.77 867.01 258.76 861.76 258.75 C 861.74 257.19 861.72 255.64 861.69 254.09 C 863.46 254.04 865.23 254.00 867.00 253.95 C 866.97 245.87 867.05 237.79 866.95 229.71 C 865.20 229.73 863.46 229.74 861.72 229.76 C 861.74 228.17 861.75 226.58 861.77 224.99 Z" fill="#51555b" />
<path d="M 904.12 225.50 C 905.76 224.28 907.55 224.29 909.50 224.03 C 909.52 228.77 909.50 233.52 909.50 238.26 C 908.03 238.25 906.56 238.24 905.09 238.23 C 904.58 235.94 904.30 233.07 902.94 231.09 C 900.61 228.28 895.55 228.81 893.86 232.06 C 893.02 233.82 893.52 236.70 895.50 237.50 C 899.46 239.37 904.63 238.93 908.02 242.02 C 912.83 246.30 911.71 255.04 905.85 257.87 C 901.74 259.98 897.85 259.17 893.68 257.80 C 891.81 258.53 890.04 258.86 888.03 258.96 C 887.97 254.45 887.99 249.95 888.03 245.44 C 889.50 245.48 890.96 245.52 892.42 245.56 C 892.73 247.21 892.98 248.91 893.51 250.51 C 895.35 254.88 902.22 255.98 905.18 252.17 C 906.94 249.92 906.49 246.42 903.91 245.01 C 900.28 243.19 895.24 243.42 891.96 241.04 C 887.10 237.35 887.81 229.11 893.07 226.09 C 896.75 223.89 900.19 224.64 904.12 225.50 Z" fill="#51555b" />
<path d="M 434.47 230.53 C 436.55 231.75 437.63 234.41 438.82 236.41 C 432.19 236.53 425.56 236.58 418.93 236.37 C 420.15 234.63 421.36 232.38 423.13 231.13 C 426.38 228.95 431.03 228.55 434.47 230.53 Z" fill="#ffffff" />
<path d="M 818.12 230.83 C 819.95 232.06 820.92 234.56 821.98 236.41 C 815.38 236.55 808.76 236.55 802.17 236.41 C 803.70 234.17 804.89 231.67 807.44 230.43 C 810.68 228.85 815.08 228.72 818.12 230.83 Z" fill="#ffffff" />
<path d="M 850.64 230.35 C 853.01 231.59 853.98 234.22 855.20 236.44 C 848.65 236.53 842.10 236.53 835.55 236.44 C 836.75 234.52 837.92 232.07 839.90 230.88 C 843.03 229.00 847.37 228.62 850.64 230.35 Z" fill="#ffffff" />
<path d="M 142.17 238.33 C 148.02 238.13 153.89 238.29 159.74 238.28 C 161.81 259.69 173.62 279.51 191.51 291.46 C 205.27 300.84 221.91 304.98 238.47 303.57 C 238.70 307.06 238.83 310.56 238.96 314.06 C 253.42 313.18 267.66 307.74 279.54 299.54 C 299.69 285.60 312.85 262.70 314.83 238.26 C 317.16 238.26 319.48 238.26 321.80 238.26 C 320.01 261.47 309.20 283.33 291.72 298.72 C 278.23 310.71 261.11 318.51 243.19 320.69 C 229.73 322.17 216.09 321.09 203.24 316.73 C 185.56 310.80 169.80 299.20 158.90 284.07 C 149.21 270.76 143.36 254.75 142.17 238.33 Z" fill="#01a9b9" />
<path d="M 304.18 238.22 C 307.73 238.25 311.28 238.26 314.83 238.26 C 312.85 262.70 299.69 285.60 279.54 299.54 C 267.66 307.74 253.42 313.18 238.96 314.06 C 238.83 310.56 238.70 307.06 238.47 303.57 L 238.77 303.54 C 254.83 301.96 270.21 295.09 281.81 283.83 C 294.47 272.08 302.48 255.37 304.18 238.22 Z" fill="#019660" />
<path d="M 549.51 243.84 C 549.50 246.02 549.49 248.20 549.50 250.38 C 545.99 252.86 541.53 255.78 537.10 253.88 C 533.51 252.13 534.30 247.14 537.56 245.57 C 541.13 243.96 545.66 244.18 549.51 243.84 Z" fill="#ffffff" />
<path d="M 669.51 243.84 C 669.50 246.04 669.49 248.25 669.49 250.46 C 665.99 252.91 661.52 255.84 657.14 253.84 C 653.62 252.11 654.36 247.22 657.56 245.59 C 661.11 243.95 665.67 244.18 669.51 243.84 Z" fill="#ffffff" />
<path d="M 758.07 243.78 C 757.74 245.99 758.87 250.28 756.47 251.47 C 753.50 253.67 748.83 255.68 745.30 253.68 C 742.29 251.88 742.90 247.39 745.78 245.76 C 749.34 243.92 754.15 244.21 758.07 243.78 Z" fill="#ffffff" />
</svg>