<?xml version="1.0" encoding="UTF-8" standalone="no"?>
<!DOCTYPE svg PUBLIC "-//W3C//DTD SVG 1.1//EN" "http://www.w3.org/Graphics/SVG/1.1/DTD/svg11.dtd">
<svg xmlns="http://www.w3.org/2000/svg" version="1.1" viewBox="0 0 768 199" width="768.0pt" height="199.0pt">
<path d="M 0.00 0.00 L 83.21 0.00 C 74.40 1.11 65.97 2.96 58.02 7.04 C 40.30 15.81 26.07 30.07 16.17 47.08 C 7.66 61.47 2.35 77.42 0.00 93.95 L 0.00 0.00 Z" fill="#ffffff" />
<path d="M 83.21 0.00 L 95.08 0.00 L 95.77 0.09 C 108.08 1.64 119.72 6.56 128.24 15.76 C 131.03 18.71 134.15 22.73 133.96 27.01 C 129.65 26.53 126.20 22.70 122.34 20.65 C 113.11 14.93 102.89 11.53 92.00 11.11 C 75.30 10.29 59.36 16.32 46.04 26.11 C 36.34 33.19 27.97 42.26 21.21 52.16 C 12.71 65.11 7.21 79.13 2.74 93.89 C 1.98 96.30 1.82 98.58 0.00 100.48 L 0.00 93.95 C 2.35 77.42 7.66 61.47 16.17 47.08 C 26.07 30.07 40.30 15.81 58.02 7.04 C 65.97 2.96 74.40 1.11 83.21 0.00 Z" fill="#3360aa" />
<path d="M 95.08 0.00 L 768.00 0.00 L 768.00 33.12 C 766.68 25.73 760.56 20.09 753.00 19.77 C 746.07 19.27 739.27 23.39 736.89 29.98 C 734.10 36.86 736.63 45.11 742.75 49.28 C 748.57 53.25 756.99 52.97 762.41 48.40 C 765.36 46.03 767.01 42.73 768.00 39.14 L 768.00 199.00 L 714.76 199.00 C 719.56 197.96 723.60 194.81 725.30 190.14 C 726.92 185.71 726.49 181.60 726.52 177.00 C 726.52 133.33 726.50 89.66 726.53 45.99 C 726.55 42.58 725.81 38.96 724.09 35.98 C 719.36 27.64 704.67 27.57 700.23 36.22 C 697.94 40.10 697.67 44.66 697.47 49.06 C 697.22 63.56 697.66 78.10 697.26 92.59 C 695.42 91.49 694.02 89.97 692.52 88.48 C 685.87 82.34 678.02 77.73 669.01 76.18 C 657.05 74.18 643.88 75.18 633.17 81.24 C 622.01 87.55 614.18 98.23 610.47 110.42 C 606.82 122.63 606.23 135.86 607.85 148.45 C 609.65 161.86 614.87 175.71 624.61 185.39 C 632.46 193.30 642.75 198.10 653.87 199.00 L 553.78 199.00 C 565.22 198.18 576.18 195.15 585.78 188.76 C 592.14 184.34 598.14 178.08 600.35 170.48 C 601.07 167.66 601.16 164.00 599.51 161.46 C 596.04 156.02 586.41 155.42 582.14 160.17 C 575.80 166.14 568.48 173.12 560.28 176.37 C 550.47 179.97 538.72 179.33 530.30 172.70 C 521.64 165.92 518.16 155.48 517.97 144.78 C 535.97 144.53 554.00 144.74 572.00 144.67 C 579.64 144.76 588.48 144.84 595.55 141.55 C 600.10 139.41 601.96 134.74 602.46 130.01 C 603.91 111.85 594.75 93.39 579.27 83.73 C 567.84 76.14 554.47 74.28 541.00 75.04 C 527.53 75.88 514.57 80.28 504.57 89.57 C 494.86 98.53 489.61 111.07 487.50 123.92 C 485.81 134.89 486.21 146.29 488.88 157.07 C 492.20 170.23 500.07 182.07 511.57 189.43 C 521.43 195.86 532.41 198.12 543.99 199.00 L 431.80 199.00 C 443.23 198.24 454.24 195.12 463.86 188.80 C 470.28 184.42 476.18 178.09 478.45 170.51 C 479.57 166.25 479.10 161.38 475.08 158.82 C 470.99 156.28 464.31 156.15 460.76 159.74 C 454.20 165.80 446.78 173.14 438.33 176.41 C 427.78 180.23 415.18 179.18 406.73 171.27 C 399.18 164.27 396.45 154.77 395.95 144.75 C 416.63 144.55 437.33 144.76 458.01 144.65 C 463.43 144.43 469.35 143.73 474.26 141.30 C 478.77 138.84 480.34 133.82 480.66 128.99 C 481.38 117.41 477.65 105.47 470.83 96.13 C 463.28 86.19 452.23 79.04 440.00 76.46 C 429.19 74.18 417.68 74.36 406.93 76.87 C 394.65 79.77 383.47 86.69 376.15 97.07 C 366.05 111.03 363.18 130.20 365.16 146.99 C 366.70 161.75 373.03 175.83 384.47 185.51 C 395.16 194.69 408.21 197.99 421.99 199.00 L 341.83 199.00 C 345.85 198.14 349.43 196.19 351.52 192.54 C 354.30 187.76 354.01 181.34 353.99 176.00 C 353.98 133.33 353.98 90.67 353.99 48.00 C 353.91 44.07 353.60 39.82 351.67 36.31 C 347.34 28.00 333.36 27.48 328.28 35.28 C 326.16 38.33 325.26 42.32 325.16 45.99 C 325.03 61.72 325.29 77.45 325.03 93.17 C 317.23 85.42 309.07 78.77 298.00 76.49 C 285.45 73.97 270.94 75.03 259.76 81.73 C 248.37 88.52 240.80 99.81 237.37 112.49 C 233.69 126.61 233.61 141.75 236.65 155.99 C 239.78 170.12 247.65 184.00 260.12 191.83 C 266.39 195.98 273.53 198.20 280.97 199.00 L 213.56 199.00 C 216.49 197.90 219.21 196.69 221.24 194.22 C 224.66 190.19 225.40 185.13 225.44 180.00 C 225.41 160.34 225.44 140.67 225.43 121.00 C 225.25 114.87 225.12 108.36 223.55 102.41 C 221.37 95.20 217.40 88.31 211.42 83.60 C 204.11 77.76 194.28 74.96 185.00 75.14 C 175.50 74.94 165.78 77.34 157.97 82.89 C 152.95 86.31 149.40 90.63 145.29 94.98 C 145.45 89.62 145.40 84.51 141.85 80.14 C 136.63 73.06 123.66 73.35 119.15 81.07 C 116.64 84.95 116.54 90.49 116.45 95.00 C 116.45 122.67 116.45 150.34 116.45 178.00 C 116.58 183.37 116.74 189.31 120.34 193.64 C 122.37 196.37 125.16 197.54 128.11 199.00 L 83.57 199.00 C 86.49 197.91 89.31 196.82 91.51 194.51 C 95.13 190.95 96.43 185.95 96.59 181.02 C 96.69 153.68 96.50 126.33 96.68 99.00 C 93.04 100.55 89.68 102.52 85.86 103.67 C 78.54 106.09 70.96 106.58 63.31 106.12 C 63.48 131.08 63.33 156.05 63.38 181.02 C 63.50 186.12 65.11 191.50 69.00 195.01 C 71.09 197.00 73.57 197.76 76.12 199.00 L 0.00 199.00 L 0.00 100.48 C 1.82 98.58 1.98 96.30 2.74 93.89 C 7.21 79.13 12.71 65.11 21.21 52.16 C 27.97 42.26 36.34 33.19 46.04 26.11 C 59.36 16.32 75.30 10.29 92.00 11.11 C 102.89 11.53 113.11 14.93 122.34 20.65 C 126.20 22.70 129.65 26.53 133.96 27.01 C 134.15 22.73 131.03 18.71 128.24 15.76 C 119.72 6.56 108.08 1.64 95.77 0.09 L 95.08 0.00 Z" fill="#ffffff" />
<path d="M 753.00 19.77 C 760.56 20.09 766.68 25.73 768.00 33.12 L 768.00 39.14 C 767.01 42.73 765.36 46.03 762.41 48.40 C 756.99 52.97 748.57 53.25 742.75 49.28 C 736.63 45.11 734.10 36.86 736.89 29.98 C 739.27 23.39 746.07 19.27 753.00 19.77 Z" fill="#3360aa" />
<path d="M 747.44 23.47 C 753.54 21.06 761.15 24.06 763.87 30.06 C 767.14 36.47 764.36 44.72 757.81 47.74 C 751.03 51.43 742.01 47.64 739.54 40.42 C 736.90 33.76 740.73 25.81 747.44 23.47 Z" fill="#ffffff" />
<path d="M 745.02 27.21 C 748.34 27.36 751.85 27.10 755.12 27.77 C 757.78 28.35 759.23 31.58 758.10 34.00 C 757.55 35.38 755.94 36.32 754.84 37.26 C 756.42 39.80 758.18 42.21 759.68 44.79 C 758.23 44.59 755.97 45.43 755.31 43.76 C 753.20 40.74 752.53 36.92 747.89 37.60 C 747.93 40.00 747.91 42.41 747.86 44.82 C 746.90 44.83 745.94 44.85 744.98 44.87 C 744.71 39.06 744.65 33.02 745.02 27.21 Z" fill="#3360aa" />
<path d="M 351.67 36.31 C 353.60 39.82 353.91 44.07 353.99 48.00 C 353.98 90.67 353.98 133.33 353.99 176.00 C 354.01 181.34 354.30 187.76 351.52 192.54 C 349.43 196.19 345.85 198.14 341.83 199.00 L 336.90 199.00 C 332.79 197.94 329.22 195.65 327.24 191.80 C 325.03 187.80 325.15 183.78 324.98 179.36 C 320.11 183.87 315.85 188.70 310.04 192.12 C 303.58 196.24 296.36 198.24 288.79 199.00 L 280.97 199.00 C 273.53 198.20 266.39 195.98 260.12 191.83 C 247.65 184.00 239.78 170.12 236.65 155.99 C 233.61 141.75 233.69 126.61 237.37 112.49 C 240.80 99.81 248.37 88.52 259.76 81.73 C 270.94 75.03 285.45 73.97 298.00 76.49 C 309.07 78.77 317.23 85.42 325.03 93.17 C 325.29 77.45 325.03 61.72 325.16 45.99 C 325.26 42.32 326.16 38.33 328.28 35.28 C 333.36 27.48 347.34 28.00 351.67 36.31 Z" fill="#3360aa" />
<path d="M 724.09 35.98 C 725.81 38.96 726.55 42.58 726.53 45.99 C 726.50 89.66 726.52 133.33 726.52 177.00 C 726.49 181.60 726.92 185.71 725.30 190.14 C 723.60 194.81 719.56 197.96 714.76 199.00 L 709.02 199.00 C 705.21 197.67 701.80 195.73 699.86 192.05 C 697.60 188.03 697.66 183.97 697.37 179.52 L 697.35 179.28 C 690.66 186.51 683.49 192.85 674.08 196.26 C 669.89 197.83 665.29 198.53 660.85 199.00 L 653.87 199.00 C 642.75 198.10 632.46 193.30 624.61 185.39 C 614.87 175.71 609.65 161.86 607.85 148.45 C 606.23 135.86 606.82 122.63 610.47 110.42 C 614.18 98.23 622.01 87.55 633.17 81.24 C 643.88 75.18 657.05 74.18 669.01 76.18 C 678.02 77.73 685.87 82.34 692.52 88.48 C 694.02 89.97 695.42 91.49 697.26 92.59 C 697.66 78.10 697.22 63.56 697.47 49.06 C 697.67 44.66 697.94 40.10 700.23 36.22 C 704.67 27.57 719.36 27.64 724.09 35.98 Z" fill="#3360aa" />
<path d="M 747.97 30.07 C 749.89 30.09 751.85 30.03 753.76 30.28 C 755.25 31.16 755.79 33.19 754.19 34.27 C 752.46 35.27 749.86 34.88 747.91 35.06 C 747.93 33.40 747.96 31.74 747.97 30.07 Z" fill="#ffffff" />
<path d="M 72.56 38.81 C 82.16 36.41 92.47 39.54 98.65 47.36 C 104.20 54.14 105.59 63.65 102.68 71.84 C 100.69 77.59 96.46 82.34 91.14 85.24 C 83.27 89.64 73.10 89.36 65.51 84.49 C 54.82 77.96 50.70 63.44 56.29 52.23 C 59.40 45.52 65.48 40.74 72.56 38.81 Z" fill="#3360aa" />
<path d="M 141.85 80.14 C 145.40 84.51 145.45 89.62 145.29 94.98 C 149.40 90.63 152.95 86.31 157.97 82.89 C 165.78 77.34 175.50 74.94 185.00 75.14 C 194.28 74.96 204.11 77.76 211.42 83.60 C 217.40 88.31 221.37 95.20 223.55 102.41 C 225.12 108.36 225.25 114.87 225.43 121.00 C 225.44 140.67 225.41 160.34 225.44 180.00 C 225.40 185.13 224.66 190.19 221.24 194.22 C 219.21 196.69 216.49 197.90 213.56 199.00 L 207.00 199.00 C 203.67 197.95 200.62 196.37 198.45 193.55 C 195.68 190.07 194.79 185.35 194.75 181.00 C 194.78 163.67 194.76 146.33 194.77 129.00 C 194.65 121.62 193.94 113.15 190.47 106.52 C 187.02 100.21 179.66 98.57 173.00 98.84 C 160.88 99.25 150.46 109.19 148.58 121.01 C 147.41 128.23 147.31 135.69 147.37 143.00 C 147.37 155.33 147.36 167.67 147.38 180.00 C 147.29 184.79 146.68 189.74 143.64 193.63 C 141.23 196.78 137.70 198.35 133.87 199.00 L 128.11 199.00 C 125.16 197.54 122.37 196.37 120.34 193.64 C 116.74 189.31 116.58 183.37 116.45 178.00 C 116.45 150.34 116.45 122.67 116.45 95.00 C 116.54 90.49 116.64 84.95 119.15 81.07 C 123.66 73.35 136.63 73.06 141.85 80.14 Z" fill="#3360aa" />
<path d="M 440.00 76.46 C 452.23 79.04 463.28 86.19 470.83 96.13 C 477.65 105.47 481.38 117.41 480.66 128.99 C 480.34 133.82 478.77 138.84 474.26 141.30 C 469.35 143.73 463.43 144.43 458.01 144.65 C 437.33 144.76 416.63 144.55 395.95 144.75 C 396.45 154.77 399.18 164.27 406.73 171.27 C 415.18 179.18 427.78 180.23 438.33 176.41 C 446.78 173.14 454.20 165.80 460.76 159.74 C 464.31 156.15 470.99 156.28 475.08 158.82 C 479.10 161.38 479.57 166.25 478.45 170.51 C 476.18 178.09 470.28 184.42 463.86 188.80 C 454.24 195.12 443.23 198.24 431.80 199.00 L 421.99 199.00 C 408.21 197.99 395.16 194.69 384.47 185.51 C 373.03 175.83 366.70 161.75 365.16 146.99 C 363.18 130.20 366.05 111.03 376.15 97.07 C 383.47 86.69 394.65 79.77 406.93 76.87 C 417.68 74.36 429.19 74.18 440.00 76.46 Z" fill="#3360aa" />
<path d="M 541.00 75.04 C 554.47 74.28 567.84 76.14 579.27 83.73 C 594.75 93.39 603.91 111.85 602.46 130.01 C 601.96 134.74 600.10 139.41 595.55 141.55 C 588.48 144.84 579.64 144.76 572.00 144.67 C 554.00 144.74 535.97 144.53 517.97 144.78 C 518.16 155.48 521.64 165.92 530.30 172.70 C 538.72 179.33 550.47 179.97 560.28 176.37 C 568.48 173.12 575.80 166.14 582.14 160.17 C 586.41 155.42 596.04 156.02 599.51 161.46 C 601.16 164.00 601.07 167.66 600.35 170.48 C 598.14 178.08 592.14 184.34 585.78 188.76 C 576.18 195.15 565.22 198.18 553.78 199.00 L 543.99 199.00 C 532.41 198.12 521.43 195.86 511.57 189.43 C 500.07 182.07 492.20 170.23 488.88 157.07 C 486.21 146.29 485.81 134.89 487.50 123.92 C 489.61 111.07 494.86 98.53 504.57 89.57 C 514.57 80.28 527.53 75.88 541.00 75.04 Z" fill="#3360aa" />
<path d="M 443.23 104.77 C 448.51 110.62 450.51 119.44 451.03 127.09 C 432.72 127.18 414.36 127.33 396.06 127.02 C 397.10 118.99 399.07 110.79 404.57 104.57 C 414.00 93.34 433.85 93.66 443.23 104.77 Z" fill="#ffffff" />
<path d="M 565.63 105.38 C 570.65 111.50 572.16 119.33 572.90 127.00 C 570.93 127.14 568.97 127.22 567.00 127.20 C 550.66 127.07 534.31 127.33 517.97 127.07 C 518.88 118.83 521.10 110.15 526.98 103.99 C 536.76 93.13 556.64 93.89 565.63 105.38 Z" fill="#ffffff" />
<path d="M 288.51 98.67 C 294.86 97.30 301.61 98.36 307.15 101.78 C 314.57 106.18 319.23 113.73 321.47 121.90 C 323.98 131.32 323.91 141.48 321.85 150.97 C 320.04 159.11 315.22 167.59 307.69 171.66 C 297.98 177.28 284.89 176.05 276.60 168.39 C 269.59 161.88 266.41 152.26 265.64 142.93 C 264.79 132.94 265.84 121.68 270.70 112.73 C 274.31 105.89 280.77 100.17 288.51 98.67 Z" fill="#ffffff" />
<path d="M 664.10 98.19 C 672.59 97.34 681.00 101.07 686.52 107.47 C 690.73 112.47 693.49 118.59 694.74 124.99 C 696.46 133.87 696.24 143.27 694.14 152.07 C 691.94 160.24 687.03 168.48 679.17 172.26 C 669.21 177.35 656.30 175.65 648.36 167.64 C 641.72 160.98 638.99 152.17 638.15 143.00 C 637.19 132.00 638.56 120.05 644.55 110.53 C 648.84 103.69 655.96 98.88 664.10 98.19 Z" fill="#ffffff" />
<path d="M 96.68 99.00 C 96.50 126.33 96.69 153.68 96.59 181.02 C 96.43 185.95 95.13 190.95 91.51 194.51 C 89.31 196.82 86.49 197.91 83.57 199.00 L 76.12 199.00 C 73.57 197.76 71.09 197.00 69.00 195.01 C 65.11 191.50 63.50 186.12 63.38 181.02 C 63.33 156.05 63.48 131.08 63.31 106.12 C 70.96 106.58 78.54 106.09 85.86 103.67 C 89.68 102.52 93.04 100.55 96.68 99.00 Z" fill="#3360aa" />
<path d="M 173.00 98.84 C 179.66 98.57 187.02 100.21 190.47 106.52 C 193.94 113.15 194.65 121.62 194.77 129.00 C 194.76 146.33 194.78 163.67 194.75 181.00 C 194.79 185.35 195.68 190.07 198.45 193.55 C 200.62 196.37 203.67 197.95 207.00 199.00 L 133.87 199.00 C 137.70 198.35 141.23 196.78 143.64 193.63 C 146.68 189.74 147.29 184.79 147.38 180.00 C 147.36 167.67 147.37 155.33 147.37 143.00 C 147.31 135.69 147.41 128.23 148.58 121.01 C 150.46 109.19 160.88 99.25 173.00 98.84 Z" fill="#ffffff" />
<path d="M 697.35 179.28 L 697.37 179.52 C 697.66 183.97 697.60 188.03 699.86 192.05 C 701.80 195.73 705.21 197.67 709.02 199.00 L 660.85 199.00 C 665.29 198.53 669.89 197.83 674.08 196.26 C 683.49 192.85 690.66 186.51 697.35 179.28 Z" fill="#ffffff" />
<path d="M 324.98 179.36 C 325.15 183.78 325.03 187.80 327.24 191.80 C 329.22 195.65 332.79 197.94 336.90 199.00 L 288.79 199.00 C 296.36 198.24 303.58 196.24 310.04 192.12 C 315.85 188.70 320.11 183.87 324.98 179.36 Z" fill="#ffffff" />
</svg>