<?xml version="1.0" standalone="no"?>
<!DOCTYPE svg PUBLIC "-//W3C//DTD SVG 20010904//EN"
 "http://www.w3.org/TR/2001/REC-SVG-20010904/DTD/svg10.dtd">
<svg version="1.0" xmlns="http://www.w3.org/2000/svg"
 width="400.000000pt" height="35.000000pt" viewBox="0 0 400.000000 35.000000"
 preserveAspectRatio="xMidYMid meet">
<metadata>
Created by potrace 1.15, written by Peter Selinger 2001-2017
</metadata>
<g transform="translate(0.000000,35.000000) scale(0.100000,-0.100000)"
fill="#000000" stroke="none">
<path d="M125 322 c-22 -16 -60 -51 -83 -77 -38 -43 -42 -53 -42 -101 0 -64
32 -108 89 -124 56 -15 97 2 164 67 87 86 105 133 73 195 -27 52 45 70 84 21
31 -39 20 -77 -40 -138 -27 -27 -51 -61 -55 -75 -6 -29 27 -90 50 -90 21 0 19
13 -5 35 -31 28 -25 62 18 104 56 54 72 82 72 124 0 27 -7 45 -26 63 -22 23
-31 25 -72 20 -56 -7 -62 -7 -132 0 -50 5 -59 3 -95 -24z"/>
<path d="M800 305 c0 -8 5 -15 10 -15 6 0 10 -37 10 -90 0 -53 -4 -90 -10 -90
-5 0 -10 -9 -10 -19 0 -17 8 -19 75 -19 58 -1 79 3 99 19 33 26 41 69 22 108
-21 40 -50 54 -97 48 l-39 -5 0 39 c0 37 -2 39 -30 39 -20 0 -30 -5 -30 -15z"/>
<path d="M639 221 c-20 -20 -29 -39 -29 -61 0 -44 47 -90 92 -90 66 0 112 62
88 120 -27 66 -101 81 -151 31z"/>
<path d="M2701 224 c-64 -53 -25 -154 59 -154 84 0 123 101 59 154 -17 15 -43
26 -59 26 -16 0 -42 -11 -59 -26z"/>
<path d="M2860 234 c0 -8 5 -14 10 -14 6 0 10 -25 10 -55 0 -30 -4 -55 -10
-55 -5 0 -10 -9 -10 -20 0 -17 7 -20 40 -20 33 0 40 3 40 20 0 11 -5 20 -11
20 -17 0 -6 82 12 93 31 19 49 1 49 -48 0 -25 -4 -45 -10 -45 -5 0 -10 -9 -10
-20 0 -17 7 -20 40 -20 33 0 40 3 40 20 0 11 -4 20 -10 20 -5 0 -10 24 -10 53
0 73 -15 86 -103 86 -52 0 -67 -4 -67 -15z"/>
<path d="M3260 234 c0 -8 5 -14 10 -14 6 0 10 -25 10 -55 0 -30 -4 -55 -10
-55 -5 0 -10 -9 -10 -20 0 -17 7 -20 40 -20 33 0 40 3 40 20 0 11 -5 20 -11
20 -6 0 -9 19 -7 48 3 45 4 47 33 47 29 0 30 -2 33 -47 2 -29 -1 -48 -7 -48
-6 0 -11 -9 -11 -20 0 -17 7 -20 40 -20 33 0 40 3 40 20 0 11 -4 20 -10 20 -5
0 -10 24 -10 53 0 73 -15 86 -103 86 -52 0 -67 -4 -67 -15z"/>
<path d="M3485 225 c-19 -18 -25 -35 -25 -65 0 -55 34 -90 87 -90 45 1 86 26
64 39 -7 5 -30 7 -50 4 -26 -4 -41 0 -50 11 -12 14 -6 16 59 16 l73 0 -7 33
c-14 72 -102 102 -151 52z"/>
<path d="M3722 158 c-22 -22 -15 -67 12 -80 25 -11 56 -6 56 10 0 4 -12 8 -27
7 -29 0 -44 28 -25 47 17 17 49 -1 56 -32 8 -42 52 -52 79 -19 19 24 20 24 13
2 -6 -19 -3 -23 12 -23 18 0 19 5 15 40 -4 26 -2 40 6 40 6 0 11 -17 11 -40 0
-29 4 -40 15 -40 11 0 14 10 11 40 -3 31 -1 40 11 40 12 0 15 -8 10 -40 -4
-31 -2 -40 9 -40 12 0 14 11 12 48 l-3 47 -58 3 c-57 3 -58 2 -52 -20 l7 -23
-17 23 c-18 24 -54 29 -73 10 -9 -9 -12 -9 -12 0 0 7 -13 12 -28 12 -15 0 -33
-5 -40 -12z"/>
</g>
</svg>
