<?xml version="1.0" encoding="UTF-8" standalone="no"?>
<!DOCTYPE svg PUBLIC "-//W3C//DTD SVG 1.1//EN" "http://www.w3.org/Graphics/SVG/1.1/DTD/svg11.dtd">
<svg xmlns="http://www.w3.org/2000/svg" version="1.1" viewBox="0 0 356 142" width="356.0pt" height="142.0pt">
<path d="M 0.00 0.00 L 356.00 0.00 L 356.00 142.00 L 0.00 142.00 L 0.00 0.00 Z" fill="#ffffff" />
<path d="M 87.45 9.45 C 88.58 9.31 89.72 9.18 90.85 9.05 C 82.29 12.61 73.80 15.92 65.92 20.89 C 58.78 25.15 51.97 29.12 46.35 35.37 C 38.98 43.45 32.56 52.98 27.87 62.86 C 24.20 70.62 23.68 79.10 24.62 87.52 C 25.44 93.80 26.85 100.23 30.36 105.60 C 36.28 114.65 45.42 121.52 55.94 124.22 C 67.48 128.01 80.32 127.81 92.05 125.00 C 101.51 122.88 111.08 119.72 119.08 114.11 C 129.16 107.07 137.76 98.25 144.99 88.33 C 148.60 87.96 151.88 87.17 154.13 84.09 C 156.79 80.30 156.04 75.68 153.13 72.27 C 154.09 68.80 154.78 65.37 155.26 61.79 L 155.31 61.46 C 156.75 48.82 153.45 35.02 143.61 26.37 C 134.21 18.02 120.33 14.56 107.99 15.03 C 96.93 15.78 85.93 19.28 75.90 23.91 C 69.28 27.35 61.86 35.16 53.73 34.06 C 54.29 32.46 54.44 30.95 55.69 29.71 C 59.70 25.61 65.41 22.86 70.63 20.63 C 82.56 15.49 96.13 13.88 108.98 12.09 C 123.91 10.25 140.08 11.50 152.87 20.13 C 165.99 28.51 172.64 45.84 168.96 60.86 C 164.77 65.86 163.54 70.04 164.63 76.57 C 161.20 84.71 156.83 92.23 150.30 98.29 C 139.44 108.24 128.30 117.36 114.16 122.19 C 94.03 128.36 74.27 133.15 53.02 130.72 C 43.27 129.37 32.90 126.20 25.25 119.77 C 18.74 114.36 14.32 106.14 11.77 98.18 C 8.19 87.72 8.90 75.75 13.84 65.85 C 18.44 56.35 24.72 47.60 31.71 39.71 C 37.35 33.16 45.12 28.04 52.29 23.28 C 62.88 16.21 75.16 12.36 87.45 9.45 Z" fill="#fec955" />
<path d="M 45.36 45.37 C 48.23 44.23 51.26 46.20 51.95 49.09 C 52.74 52.97 48.28 56.41 44.75 54.30 C 41.03 52.20 41.37 46.91 45.36 45.37 Z" fill="#335b99" />
<path d="M 256.35 45.29 C 258.57 44.35 261.34 46.72 260.49 49.04 C 259.88 51.89 255.55 52.13 254.47 49.51 C 253.62 47.84 254.71 45.92 256.35 45.29 Z" fill="#335b99" />
<path d="M 97.72 45.81 C 100.23 45.81 102.73 45.81 105.23 45.81 C 105.24 50.66 105.28 55.49 105.16 60.33 C 108.23 58.22 111.08 56.37 115.01 56.60 C 123.29 56.46 129.24 64.09 129.11 71.99 C 129.56 80.10 123.40 88.08 115.00 88.20 C 111.07 88.47 108.23 86.60 105.13 84.53 L 105.26 87.52 C 102.75 87.52 100.24 87.52 97.73 87.51 C 97.72 73.61 97.72 59.71 97.72 45.81 Z" fill="#335b99" />
<path d="M 241.96 45.90 C 243.25 45.89 244.54 45.89 245.83 45.88 C 245.78 59.73 245.76 73.58 245.84 87.42 C 244.55 87.44 243.26 87.46 241.97 87.47 C 241.95 73.62 241.96 59.76 241.96 45.90 Z" fill="#335b99" />
<path d="M 43.26 57.34 C 45.79 57.13 48.37 57.22 50.91 57.23 C 50.91 67.49 50.90 77.74 50.92 88.00 C 50.82 91.43 50.85 95.56 47.86 97.88 C 44.68 100.26 40.63 99.07 37.13 98.25 C 37.12 96.21 37.10 94.17 37.07 92.13 C 39.21 92.27 40.93 93.30 42.74 91.67 C 43.53 87.23 43.04 82.51 43.15 78.00 C 43.25 71.12 42.94 64.21 43.26 57.34 Z" fill="#335b99" />
<path d="M 69.23 57.27 C 78.47 54.47 88.53 60.27 89.97 69.94 C 91.49 79.17 84.37 87.91 75.02 88.18 C 66.70 88.90 58.99 82.33 58.38 74.01 C 57.46 66.55 62.22 59.62 69.23 57.27 Z" fill="#335b99" />
<path d="M 145.02 56.59 C 149.34 56.41 152.37 58.62 155.31 61.46 L 155.26 61.79 C 153.75 63.40 152.21 64.97 150.68 66.55 C 149.04 65.45 147.14 63.72 145.12 63.52 C 144.00 63.98 142.90 64.49 141.81 65.04 C 145.11 68.46 149.36 69.49 153.13 72.27 C 156.04 75.68 156.79 80.30 154.13 84.09 C 151.88 87.17 148.60 87.96 144.99 88.33 C 140.22 88.15 137.37 86.53 134.04 83.27 C 135.61 81.59 137.18 79.92 138.75 78.25 C 140.62 79.35 142.77 81.06 145.01 81.16 C 146.72 81.32 147.98 79.91 149.34 79.09 C 147.00 76.21 143.91 74.93 140.78 73.20 C 137.49 71.29 134.91 68.21 135.36 64.20 C 135.97 59.42 140.40 56.48 145.02 56.59 Z" fill="#335b99" />
<path d="M 190.99 61.01 C 196.93 66.72 197.33 76.72 191.87 82.89 C 187.04 88.82 177.59 89.78 171.30 85.75 C 167.98 83.57 165.91 80.27 164.63 76.57 C 163.54 70.04 164.77 65.86 168.96 60.86 C 175.00 55.25 185.11 55.09 190.99 61.01 Z" fill="#335b99" />
<path d="M 205.42 57.50 C 206.66 57.35 207.91 57.23 209.17 57.15 C 209.12 58.91 209.07 60.67 209.02 62.43 C 211.29 60.36 213.25 58.25 216.27 57.28 C 220.63 55.93 225.74 56.60 228.79 60.25 C 231.14 63.01 231.44 66.59 231.64 70.06 C 231.80 75.85 231.62 81.64 231.74 87.43 C 230.45 87.43 229.16 87.44 227.87 87.44 C 227.79 81.28 228.01 75.11 227.77 68.96 C 227.59 65.56 226.70 62.17 223.31 60.67 C 217.26 58.22 210.61 62.74 209.61 68.95 C 208.70 75.01 209.30 81.35 209.16 87.48 C 207.86 87.46 206.56 87.43 205.26 87.41 C 205.45 77.45 205.09 67.45 205.42 57.50 Z" fill="#335b99" />
<path d="M 259.32 57.28 C 259.32 67.33 259.33 77.38 259.32 87.43 C 258.05 87.44 256.79 87.45 255.52 87.46 C 255.50 77.42 255.56 67.38 255.49 57.35 C 256.76 57.32 258.04 57.30 259.32 57.28 Z" fill="#335b99" />
<path d="M 269.95 57.33 C 271.29 57.34 272.62 57.34 273.96 57.35 C 273.92 59.06 273.87 60.77 273.82 62.49 C 275.88 60.46 277.66 58.47 280.44 57.44 C 284.73 55.95 289.90 56.39 293.11 59.89 C 295.79 62.76 296.11 66.25 296.27 70.00 C 296.42 75.82 296.28 81.64 296.32 87.47 C 295.05 87.46 293.78 87.45 292.52 87.44 C 292.42 81.04 292.74 74.59 292.36 68.20 C 292.08 64.86 290.94 61.74 287.54 60.50 C 281.57 58.41 275.19 62.99 274.26 69.00 C 273.60 75.09 274.00 81.33 273.94 87.46 C 272.61 87.45 271.27 87.44 269.94 87.43 C 269.94 77.40 269.93 67.36 269.95 57.33 Z" fill="#335b99" />
<path d="M 333.62 62.40 C 336.07 65.41 336.53 68.80 337.18 72.49 C 327.94 72.57 318.70 72.49 309.46 72.53 C 310.17 75.72 310.54 78.63 312.88 81.10 C 316.32 84.98 321.94 85.71 326.54 83.53 C 329.51 82.30 330.93 79.94 332.76 77.47 C 333.87 78.06 334.97 78.65 336.08 79.23 C 334.15 82.06 332.46 84.70 329.30 86.30 C 323.01 89.62 313.71 88.67 309.27 82.68 C 304.40 76.64 304.57 67.54 309.69 61.70 C 315.50 54.56 328.18 55.02 333.62 62.40 Z" fill="#335b99" />
<path d="M 176.48 60.59 C 181.54 58.91 186.75 61.06 189.69 65.36 C 193.81 71.25 191.86 80.08 185.43 83.43 C 179.74 86.43 172.48 84.16 169.59 78.40 C 166.01 71.72 169.29 63.04 176.48 60.59 Z" fill="#ffffff" />
<path d="M 329.13 62.86 C 330.97 64.34 331.88 66.93 332.88 69.03 C 325.20 69.05 317.52 69.07 309.84 69.02 C 311.23 66.25 312.21 63.65 314.94 61.90 C 319.30 58.99 325.15 59.56 329.13 62.86 Z" fill="#ffffff" />
<path d="M 155.26 61.79 C 154.78 65.37 154.09 68.80 153.13 72.27 C 149.36 69.49 145.11 68.46 141.81 65.04 C 142.90 64.49 144.00 63.98 145.12 63.52 C 147.14 63.72 149.04 65.45 150.68 66.55 C 152.21 64.97 153.75 63.40 155.26 61.79 Z" fill="#ffffff" />
<path d="M 70.44 64.43 C 73.80 62.80 78.11 63.49 80.47 66.49 C 83.17 69.93 82.99 75.74 79.86 78.86 C 77.07 81.81 71.76 82.01 68.79 79.24 C 64.44 75.43 65.11 67.09 70.44 64.43 Z" fill="#ffffff" />
<path d="M 109.43 64.43 C 112.41 63.04 116.02 63.31 118.55 65.48 C 122.52 68.90 122.39 76.04 118.35 79.37 C 115.67 81.73 111.21 81.80 108.38 79.66 C 103.45 76.10 103.81 67.17 109.43 64.43 Z" fill="#ffffff" />
<path d="M 221.73 94.01 C 223.50 92.83 224.65 95.61 222.56 96.01 C 221.43 95.70 221.15 95.03 221.73 94.01 Z" fill="#335b99" />
<path d="M 233.53 94.12 L 234.88 93.94 C 234.87 95.02 234.86 96.09 234.84 97.16 C 236.54 97.30 238.91 96.35 239.98 98.02 C 241.62 99.82 240.49 101.23 240.10 103.23 C 237.92 103.39 235.74 103.48 233.55 103.56 C 233.58 100.41 233.58 97.27 233.53 94.12 Z" fill="#335b99" />
<path d="M 295.46 94.11 L 296.72 94.10 C 296.66 95.09 296.60 96.08 296.54 97.07 C 297.97 96.99 299.36 97.07 300.71 97.31 C 301.97 99.36 301.91 102.25 300.78 104.35 C 300.45 102.25 300.28 100.12 299.88 98.03 C 296.05 96.71 296.94 101.31 296.46 103.60 L 295.52 103.65 C 295.47 101.38 295.44 99.22 294.55 97.09 C 293.59 99.48 292.62 101.87 291.62 104.24 C 290.87 102.55 290.14 100.86 289.41 99.16 C 288.69 100.81 287.96 102.46 287.23 104.10 C 286.11 101.79 285.05 99.45 284.00 97.10 C 282.41 100.30 281.40 104.26 278.76 106.68 C 279.13 105.45 279.52 104.22 279.93 103.00 C 279.16 101.13 278.39 99.26 277.63 97.39 C 276.76 97.70 275.88 98.02 275.01 98.34 C 274.95 100.12 274.88 101.89 274.82 103.66 L 273.74 103.53 C 273.64 101.24 273.52 100.86 271.91 99.40 L 271.40 102.93 C 269.53 103.96 267.82 103.36 265.82 103.23 C 265.15 100.25 265.13 99.44 266.83 96.85 C 268.12 96.95 269.41 97.05 270.70 97.15 C 271.60 98.14 272.49 99.14 273.39 100.13 L 273.63 96.94 C 275.34 96.95 277.06 96.96 278.77 96.96 C 279.34 98.48 279.92 100.00 280.49 101.53 C 281.97 98.97 281.86 96.80 285.45 96.84 C 285.98 98.32 286.52 99.79 287.07 101.26 C 287.89 99.64 288.76 98.04 289.61 96.44 C 290.25 98.06 290.89 99.68 291.52 101.31 C 292.10 100.02 292.67 98.74 293.25 97.46 C 293.99 97.21 294.73 96.95 295.46 96.69 L 295.46 94.11 Z" fill="#335b99" />
<path d="M 184.12 96.99 C 186.86 96.99 188.33 96.75 190.29 98.75 C 189.97 100.23 189.65 101.70 189.33 103.18 C 188.09 103.33 186.73 103.71 185.49 103.49 C 183.75 103.10 183.45 101.06 182.62 99.71 C 183.42 99.12 184.22 98.53 185.02 97.94 L 185.32 100.60 C 186.70 100.54 188.08 100.46 189.45 100.39 C 188.27 98.04 186.23 98.00 184.12 96.99 Z" fill="#335b99" />
<path d="M 191.18 96.46 C 192.98 97.58 193.58 99.33 194.49 101.13 C 195.34 99.25 196.17 97.62 197.84 96.33 C 196.94 98.99 195.74 101.51 194.50 104.03 C 193.28 101.54 192.03 99.12 191.18 96.46 Z" fill="#335b99" />
<path d="M 204.09 96.61 C 204.89 97.85 205.66 99.10 206.40 100.37 C 204.16 100.46 201.92 100.50 199.68 100.61 C 200.42 101.44 201.16 102.27 201.89 103.10 C 203.24 102.50 204.60 101.93 205.96 101.37 C 204.21 104.94 198.51 104.27 198.88 100.00 C 199.06 96.84 201.75 97.18 204.09 96.61 Z" fill="#335b99" />
<path d="M 207.06 96.93 C 208.73 96.93 210.39 96.94 212.05 96.99 C 212.88 98.45 213.62 99.99 214.37 101.49 C 215.00 99.95 215.64 98.40 216.27 96.86 C 216.72 96.97 217.16 97.07 217.61 97.17 C 216.23 100.12 214.89 103.08 213.57 106.06 C 213.14 106.05 212.71 106.04 212.29 106.03 C 212.72 105.00 213.16 103.97 213.60 102.94 C 212.67 101.06 211.93 99.03 210.80 97.25 C 207.68 98.65 208.53 100.83 208.18 103.67 L 207.05 103.54 C 207.05 101.34 207.06 99.13 207.06 96.93 Z" fill="#335b99" />
<path d="M 221.96 96.95 L 223.09 96.96 C 223.07 99.77 223.38 102.74 222.87 105.50 L 220.84 106.63 C 222.35 103.47 221.96 100.33 221.96 96.95 Z" fill="#335b99" />
<path d="M 227.01 96.98 C 228.03 96.92 229.06 96.89 230.09 96.87 C 230.83 97.77 232.20 98.73 232.10 99.99 C 232.58 102.91 229.11 104.43 226.76 103.31 C 224.87 102.44 225.02 100.79 224.81 99.01 C 225.52 98.31 226.26 97.63 227.01 96.98 Z" fill="#335b99" />
<path d="M 254.77 96.92 C 255.46 97.62 256.14 98.32 256.80 99.04 C 256.50 100.42 256.20 101.80 255.91 103.19 C 253.37 103.62 250.47 104.31 249.68 101.01 C 249.21 97.25 251.71 96.79 254.77 96.92 Z" fill="#335b99" />
<path d="M 257.63 96.29 C 259.12 97.63 259.98 99.25 260.84 101.03 C 261.78 99.24 262.63 97.58 264.28 96.34 C 263.38 99.01 262.14 101.53 260.87 104.04 C 259.62 101.52 258.42 99.00 257.63 96.29 Z" fill="#335b99" />
<path d="M 304.99 96.75 C 307.23 96.84 308.47 97.23 310.25 98.57 C 309.95 100.08 309.70 101.59 309.50 103.12 C 309.21 102.19 308.90 101.26 308.60 100.34 C 306.95 100.49 305.30 100.65 303.65 100.80 C 305.24 101.88 306.86 102.93 308.47 103.98 C 306.91 103.68 305.35 103.41 303.80 103.09 C 302.89 99.91 302.84 99.31 304.99 96.75 Z" fill="#335b99" />
<path d="M 311.42 96.98 C 312.73 96.95 314.03 96.90 315.33 96.85 C 312.28 98.74 312.81 100.54 312.50 103.72 L 311.42 103.63 C 311.43 101.41 311.43 99.19 311.42 96.98 Z" fill="#335b99" />
<path d="M 320.76 96.91 C 321.47 97.61 322.17 98.32 322.86 99.03 C 322.55 100.42 322.23 101.80 321.91 103.19 C 318.97 103.82 315.74 104.06 315.67 100.05 C 315.79 96.84 318.28 96.98 320.76 96.91 Z" fill="#335b99" />
<path d="M 204.62 99.03 C 203.63 100.19 201.25 100.18 200.25 99.05 C 201.31 97.59 203.55 97.57 204.62 99.03 Z" fill="#ffffff" />
<path d="M 227.24 98.05 C 229.82 96.89 232.44 100.16 230.08 102.09 C 227.53 104.56 224.35 100.15 227.24 98.05 Z" fill="#ffffff" />
<path d="M 236.17 98.11 C 238.36 97.24 238.71 98.83 240.24 100.03 C 239.21 101.01 237.60 104.28 236.00 102.36 C 234.37 101.88 234.48 98.16 236.17 98.11 Z" fill="#ffffff" />
<path d="M 254.71 99.22 C 253.70 99.63 252.67 99.66 251.63 99.30 C 251.98 97.98 254.42 97.79 254.71 99.22 Z" fill="#ffffff" />
<path d="M 267.37 98.48 C 268.20 97.56 270.47 97.78 270.77 99.10 C 270.32 101.01 266.23 100.91 267.37 98.48 Z" fill="#ffffff" />
<path d="M 308.07 98.77 L 308.32 99.28 C 307.29 99.65 306.28 99.63 305.27 99.22 C 305.77 98.00 306.71 97.85 308.07 98.77 Z" fill="#ffffff" />
<path d="M 320.75 99.21 C 319.75 99.64 318.74 99.67 317.72 99.31 C 318.04 97.96 320.45 97.77 320.75 99.21 Z" fill="#ffffff" />
<path d="M 188.96 101.09 C 187.97 103.19 186.23 103.05 184.62 101.68 C 185.98 100.90 187.44 100.88 188.96 101.09 Z" fill="#ffffff" />
<path d="M 251.15 101.06 C 252.38 100.65 253.60 100.68 254.79 101.15 C 253.96 102.89 251.99 102.67 251.15 101.06 Z" fill="#ffffff" />
<path d="M 267.08 101.11 C 268.39 100.83 269.68 100.76 270.95 100.90 C 270.08 102.94 267.90 103.53 267.08 101.11 Z" fill="#ffffff" />
<path d="M 317.13 100.96 C 318.44 100.58 319.60 100.59 320.63 100.99 C 321.22 103.32 317.70 102.81 317.13 100.96 Z" fill="#ffffff" />
<path d="M 242.49 102.00 C 244.20 100.78 245.46 103.54 243.38 103.99 C 242.25 103.70 241.95 103.04 242.49 102.00 Z" fill="#335b99" />
<path d="M 324.55 102.03 C 326.30 100.81 327.50 103.57 325.41 104.02 C 324.28 103.73 323.99 103.07 324.55 102.03 Z" fill="#335b99" />
</svg>