<?xml version="1.0" encoding="UTF-8" standalone="no"?>
<!DOCTYPE svg PUBLIC "-//W3C//DTD SVG 1.1//EN" "http://www.w3.org/Graphics/SVG/1.1/DTD/svg11.dtd">
<svg xmlns="http://www.w3.org/2000/svg" version="1.1" viewBox="0 0 526 96" width="526.0pt" height="96.0pt">
<path d="M 0.00 0.00 L 526.00 0.00 L 526.00 96.00 L 0.00 96.00 L 0.00 0.00 Z" fill="#ffffff" />
<path d="M 110.98 3.71 L 111.12 4.01 C 121.35 27.50 130.93 51.26 140.97 74.83 C 142.67 79.31 146.06 82.67 147.51 87.29 C 143.18 87.29 138.85 87.26 134.52 87.32 C 131.30 80.38 128.44 73.27 125.55 66.19 C 116.22 66.12 106.88 66.21 97.55 66.14 C 94.72 73.22 91.62 80.19 88.79 87.27 C 84.36 87.30 79.94 87.29 75.51 87.27 C 78.65 80.31 81.55 73.24 84.38 66.15 C 80.53 66.17 76.67 66.17 72.81 66.16 C 72.78 62.36 72.78 58.56 72.82 54.75 C 78.28 55.12 83.98 55.56 89.40 54.71 C 96.50 37.69 103.84 20.68 110.98 3.71 Z" fill="#000000" />
<path d="M 20.21 7.47 C 20.16 29.98 20.23 52.49 20.17 75.00 C 33.25 75.00 46.33 75.00 59.41 75.00 C 59.38 79.34 59.42 83.68 59.35 88.02 C 41.83 87.97 24.30 88.16 6.79 87.92 C 6.79 61.10 6.81 34.29 6.78 7.47 C 11.26 7.43 15.73 7.43 20.21 7.47 Z" fill="#000000" />
<path d="M 188.01 7.88 C 195.36 8.44 202.09 10.71 208.25 14.75 C 215.13 18.95 219.91 25.54 223.21 32.77 C 229.03 47.92 225.96 66.57 213.51 77.53 C 205.62 84.50 195.42 87.76 184.99 87.97 C 176.88 88.10 168.75 88.00 160.63 88.02 C 160.57 61.16 160.64 34.30 160.59 7.45 C 169.71 7.60 178.93 7.05 188.01 7.88 Z" fill="#000000" />
<path d="M 240.02 7.45 C 246.69 7.45 253.36 7.42 260.03 7.46 C 268.79 7.61 277.19 8.59 284.93 12.98 C 293.00 17.20 298.93 24.24 302.65 32.46 C 308.60 47.47 305.67 65.55 293.88 76.91 C 286.25 83.79 276.23 87.57 265.99 87.91 C 257.35 88.18 248.69 87.96 240.04 88.02 C 239.96 61.17 240.00 34.31 240.02 7.45 Z" fill="#000000" />
<path d="M 320.23 7.49 C 337.89 7.38 355.64 7.47 373.31 7.45 C 373.27 11.50 373.27 15.55 373.31 19.60 C 359.94 19.58 346.57 19.58 333.21 19.60 C 333.28 26.81 333.17 34.03 333.28 41.24 C 345.12 41.22 356.96 41.28 368.81 41.20 C 368.78 45.40 368.78 49.60 368.81 53.80 C 356.94 53.73 345.08 53.76 333.21 53.78 C 333.24 60.95 333.24 68.13 333.21 75.30 C 347.09 75.33 360.97 75.33 374.85 75.30 C 374.82 79.54 374.85 83.79 374.79 88.03 C 356.60 88.02 338.41 88.03 320.22 88.03 C 320.21 61.33 320.19 34.15 320.23 7.49 Z" fill="#000000" />
<path d="M 421.04 7.41 C 427.99 7.32 435.19 9.94 440.19 14.81 C 445.38 20.13 447.12 27.76 446.54 35.00 C 446.18 40.61 444.02 46.02 440.01 50.01 C 437.13 53.11 433.63 54.53 429.99 56.51 C 437.84 66.91 445.14 77.74 452.86 88.24 C 447.99 88.22 443.11 88.25 438.23 88.21 C 431.09 78.09 423.87 68.01 416.81 57.82 C 412.31 57.77 407.82 57.78 403.32 57.80 C 403.39 67.94 403.31 78.08 403.36 88.23 C 399.40 88.24 395.43 88.23 391.46 88.24 C 391.46 61.31 391.46 34.37 391.47 7.44 C 401.32 7.42 411.18 7.49 421.04 7.41 Z" fill="#000000" />
<path d="M 515.69 11.88 C 514.09 15.43 512.51 18.98 510.96 22.55 C 502.35 20.16 494.96 17.35 485.88 20.02 C 481.93 21.31 478.89 24.55 478.71 28.81 C 479.09 32.59 482.21 34.87 485.22 36.66 C 490.23 39.16 495.68 40.93 500.86 43.04 C 506.31 45.53 512.20 48.27 515.56 53.48 C 521.85 62.39 520.94 75.28 512.41 82.42 C 505.48 88.16 497.59 88.58 489.02 89.25 C 479.67 89.37 470.46 87.45 462.49 82.41 C 464.52 78.53 466.43 74.57 468.21 70.56 C 475.33 73.66 482.11 76.17 490.04 75.70 C 495.43 75.10 500.97 73.90 504.67 69.60 C 507.51 66.05 506.55 60.69 502.97 58.04 C 495.79 52.46 487.50 51.19 479.18 46.85 C 474.64 44.82 470.40 41.46 467.75 37.22 C 464.50 30.99 465.94 23.46 469.66 17.77 C 473.18 12.47 479.71 9.19 485.77 7.83 C 496.05 6.24 506.22 7.59 515.69 11.88 Z" fill="#000000" />
<path d="M 403.41 19.23 C 408.93 19.11 414.47 19.23 420.00 19.18 C 425.03 19.10 430.78 20.98 433.44 25.54 C 435.04 28.86 435.15 32.95 434.39 36.50 C 433.06 41.98 427.24 45.05 422.03 45.71 C 415.86 46.33 409.53 45.56 403.32 45.58 C 403.42 36.80 403.24 28.01 403.41 19.23 Z" fill="#ffffff" />
<path d="M 173.46 20.31 C 177.30 20.16 181.17 20.25 185.01 20.25 C 192.63 20.44 199.91 23.24 205.13 28.88 C 212.39 37.33 213.46 49.58 209.71 59.79 C 206.97 66.54 200.74 71.69 193.75 73.52 C 187.06 75.71 180.46 74.83 173.39 74.99 C 173.48 56.79 173.33 38.49 173.46 20.31 Z" fill="#ffffff" />
<path d="M 253.04 20.25 C 260.85 20.41 268.11 19.38 275.53 22.49 C 279.96 24.64 284.02 27.07 286.61 31.41 C 290.96 37.88 291.98 45.38 291.34 53.02 C 289.94 62.59 282.99 71.05 273.49 73.46 C 266.56 75.77 260.22 74.81 253.04 75.00 C 253.06 56.75 253.06 38.50 253.04 20.25 Z" fill="#ffffff" />
<path d="M 110.04 32.92 L 110.17 33.16 C 113.88 40.25 116.49 47.96 119.59 55.34 C 113.51 55.36 107.43 55.38 101.35 55.32 C 104.17 47.85 107.83 40.60 110.04 32.92 Z" fill="#ffffff" />
</svg>