<?xml version="1.0" encoding="UTF-8" standalone="no"?>
<!DOCTYPE svg PUBLIC "-//W3C//DTD SVG 1.1//EN" "http://www.w3.org/Graphics/SVG/1.1/DTD/svg11.dtd">
<svg xmlns="http://www.w3.org/2000/svg" version="1.1" viewBox="0 0 250 41" width="250.0pt" height="41.0pt">
<path d="M 0.00 0.00 L 0.06 0.00 C 6.31 6.30 12.62 12.55 18.88 18.85 C 25.12 12.55 31.42 6.31 37.66 0.00 L 37.74 0.00 C 37.82 13.47 37.60 26.95 37.87 40.42 C 35.06 40.60 32.26 40.64 29.45 40.66 C 29.16 33.87 29.45 27.07 29.31 20.28 C 25.74 23.65 22.36 27.21 18.84 30.64 C 15.37 27.14 11.88 23.65 8.40 20.16 C 8.40 26.97 8.42 33.78 8.40 40.58 C 5.60 40.58 2.80 40.58 0.00 40.57 L 0.00 0.00 Z" fill="#632991" />
<path d="M 0.06 0.00 L 37.66 0.00 C 31.42 6.31 25.12 12.55 18.88 18.85 C 12.62 12.55 6.31 6.30 0.06 0.00 Z" fill="#fefefe" />
<path d="M 37.74 0.00 L 250.00 0.00 L 250.00 41.00 L 140.75 41.00 C 143.28 40.26 145.60 39.43 147.40 37.40 C 150.82 33.76 150.90 27.31 147.11 23.89 C 144.20 20.96 140.65 20.65 137.25 18.77 C 135.81 17.69 135.81 16.34 137.23 15.25 C 140.16 14.10 142.51 15.25 145.12 16.51 C 146.52 14.43 147.85 12.31 149.14 10.16 C 144.01 7.02 137.56 5.79 132.25 9.22 C 127.25 12.45 126.42 20.12 130.73 24.26 C 133.59 27.25 138.30 27.34 141.18 29.91 C 142.29 31.10 141.31 32.62 140.02 33.13 C 136.50 34.19 133.19 32.13 130.40 30.22 C 129.05 32.24 127.66 34.24 126.24 36.21 C 129.17 38.85 132.03 40.22 135.91 41.00 L 66.66 41.00 C 73.00 39.59 78.39 35.51 80.33 29.15 C 82.82 21.45 79.15 12.71 71.92 9.10 C 64.56 5.30 55.01 7.28 50.08 14.03 C 45.24 20.40 45.74 29.91 51.33 35.66 C 53.97 38.52 57.39 39.98 61.08 41.00 L 0.00 41.00 L 0.00 40.57 C 2.80 40.58 5.60 40.58 8.40 40.58 C 8.42 33.78 8.40 26.97 8.40 20.16 C 11.88 23.65 15.37 27.14 18.84 30.64 C 22.36 27.21 25.74 23.65 29.31 20.28 C 29.45 27.07 29.16 33.87 29.45 40.66 C 32.26 40.64 35.06 40.60 37.87 40.42 C 37.60 26.95 37.82 13.47 37.74 0.00 Z" fill="#fefefe" />
<path d="M 219.13 1.91 C 224.65 2.06 230.48 1.34 235.90 2.45 C 241.99 3.90 246.26 9.71 244.86 16.02 C 244.15 20.37 241.05 22.75 237.36 24.66 C 241.74 29.87 245.80 35.34 250.15 40.59 C 246.76 40.58 243.36 40.58 239.97 40.57 C 235.77 35.44 231.91 29.99 227.51 25.02 C 227.52 30.21 227.56 35.40 227.53 40.58 C 224.71 40.61 221.89 40.59 219.07 40.50 C 219.22 27.64 219.09 14.77 219.13 1.91 Z" fill="#632991" />
<path d="M 71.92 9.10 C 79.15 12.71 82.82 21.45 80.33 29.15 C 78.39 35.51 73.00 39.59 66.66 41.00 L 61.08 41.00 C 57.39 39.98 53.97 38.52 51.33 35.66 C 45.74 29.91 45.24 20.40 50.08 14.03 C 55.01 7.28 64.56 5.30 71.92 9.10 Z" fill="#632991" />
<path d="M 90.11 7.21 C 96.92 12.71 103.60 18.36 110.37 23.91 C 110.50 18.46 110.18 12.99 110.55 7.55 C 113.19 7.65 115.83 7.68 118.47 7.66 C 118.45 18.80 118.48 29.94 118.46 41.08 C 111.76 35.50 105.09 29.82 98.20 24.46 C 98.22 29.83 98.20 35.19 98.23 40.56 C 95.50 40.60 92.78 40.60 90.06 40.50 C 90.22 29.41 90.10 18.31 90.11 7.21 Z" fill="#632991" />
<path d="M 149.14 10.16 C 147.85 12.31 146.52 14.43 145.12 16.51 C 142.51 15.25 140.16 14.10 137.23 15.25 C 135.81 16.34 135.81 17.69 137.25 18.77 C 140.65 20.65 144.20 20.96 147.11 23.89 C 150.90 27.31 150.82 33.76 147.40 37.40 C 145.60 39.43 143.28 40.26 140.75 41.00 L 135.91 41.00 C 132.03 40.22 129.17 38.85 126.24 36.21 C 127.66 34.24 129.05 32.24 130.40 30.22 C 133.19 32.13 136.50 34.19 140.02 33.13 C 141.31 32.62 142.29 31.10 141.18 29.91 C 138.30 27.34 133.59 27.25 130.73 24.26 C 126.42 20.12 127.25 12.45 132.25 9.22 C 137.56 5.79 144.01 7.02 149.14 10.16 Z" fill="#632991" />
<path d="M 155.92 7.71 C 163.75 7.57 171.59 7.77 179.42 7.60 C 179.62 10.21 179.59 12.81 179.44 15.42 C 176.97 15.36 174.50 15.32 172.03 15.29 C 171.77 23.68 171.90 32.10 171.97 40.49 C 169.17 40.60 166.38 40.61 163.58 40.58 C 163.58 32.16 163.63 23.74 163.56 15.32 C 161.01 15.34 158.46 15.33 155.91 15.31 C 155.92 12.78 155.92 10.25 155.92 7.71 Z" fill="#632991" />
<path d="M 188.11 7.73 C 195.02 7.62 201.96 7.62 208.86 7.74 C 208.82 10.24 208.82 12.74 208.87 15.25 C 204.70 15.43 200.55 15.32 196.38 15.30 C 196.38 17.00 196.44 18.70 196.54 20.39 C 199.76 20.27 202.98 20.26 206.20 20.18 C 206.43 22.75 206.43 25.26 206.22 27.82 C 203.00 27.75 199.79 27.75 196.58 27.64 C 196.42 29.36 196.36 31.09 196.34 32.83 C 200.60 32.87 204.86 32.81 209.12 32.86 C 209.10 35.42 209.11 37.97 209.12 40.53 C 202.12 40.58 195.09 40.67 188.09 40.48 C 188.23 29.57 188.18 18.64 188.11 7.73 Z" fill="#632991" />
<path d="M 227.56 9.65 C 229.88 9.78 232.65 9.35 234.83 10.21 C 237.55 11.63 237.63 15.54 235.02 17.11 C 232.93 18.19 229.94 17.67 227.64 17.89 C 227.48 15.15 227.48 12.40 227.56 9.65 Z" fill="#fefefe" />
<path d="M 61.42 15.45 C 64.85 14.59 68.46 15.51 70.73 18.30 C 74.04 22.12 73.37 28.30 69.26 31.29 C 65.08 34.56 58.93 33.24 56.27 28.72 C 53.30 23.69 55.80 17.12 61.42 15.45 Z" fill="#fefefe" />
</svg>