<?xml version="1.0" encoding="UTF-8" standalone="no"?>
<!DOCTYPE svg PUBLIC "-//W3C//DTD SVG 1.1//EN" "http://www.w3.org/Graphics/SVG/1.1/DTD/svg11.dtd">
<svg xmlns="http://www.w3.org/2000/svg" version="1.1" viewBox="0 0 507 99" width="507.0pt" height="99.0pt">
<path d="M 0.00 0.00 L 57.38 0.00 L 57.22 0.14 C 55.07 1.95 52.81 3.62 50.55 5.30 C 59.35 17.11 68.16 28.90 76.99 40.68 C 79.36 38.96 81.72 37.23 84.11 35.54 C 75.42 23.73 66.43 12.13 57.89 0.21 L 57.74 0.00 L 507.00 0.00 L 507.00 99.00 L 79.98 99.00 C 80.01 87.27 80.01 75.54 79.98 63.82 C 76.99 63.81 73.99 63.81 71.00 63.81 C 70.99 72.60 71.02 81.39 70.98 90.18 C 50.31 90.26 29.62 90.27 8.95 90.17 C 8.87 81.40 8.90 72.62 8.93 63.84 C 5.95 63.81 2.98 63.78 0.00 63.75 L 0.00 0.00 Z" fill="#ffffff" />
<path d="M 57.38 0.00 L 57.74 0.00 L 57.89 0.21 C 66.43 12.13 75.42 23.73 84.11 35.54 C 81.72 37.23 79.36 38.96 76.99 40.68 C 68.16 28.90 59.35 17.11 50.55 5.30 C 52.81 3.62 55.07 1.95 57.22 0.14 L 57.38 0.00 Z" fill="#f48023" />
<path d="M 41.32 14.43 C 43.76 15.96 45.90 18.02 48.13 19.84 C 57.18 27.36 66.25 34.88 75.33 42.37 C 73.46 44.66 71.59 46.94 69.72 49.22 C 58.39 39.72 46.94 30.35 35.58 20.88 C 37.43 18.71 39.21 16.36 41.32 14.43 Z" fill="#f48023" />
<path d="M 398.64 29.65 C 398.65 32.17 398.65 34.69 398.67 37.21 C 396.57 37.42 394.21 37.34 392.34 38.31 C 391.76 40.41 391.75 42.78 391.62 44.96 C 393.96 44.96 396.31 44.96 398.65 44.96 C 398.65 47.32 398.65 49.67 398.65 52.03 C 396.36 52.04 394.06 52.03 391.77 52.02 C 391.82 61.74 391.67 71.46 391.85 81.17 C 389.19 80.50 386.50 80.01 383.79 79.57 C 383.39 64.82 383.95 50.06 383.50 35.32 C 386.79 28.96 392.51 29.72 398.64 29.65 Z" fill="#212325" />
<path d="M 211.88 29.76 C 213.58 29.76 215.29 29.76 217.00 29.76 C 216.90 40.41 217.21 51.09 216.85 61.74 C 216.00 58.20 215.77 54.62 215.87 51.00 C 216.03 44.23 215.99 37.46 215.87 30.69 C 214.99 30.95 214.10 31.22 213.22 31.50 C 212.81 47.63 213.11 63.83 213.10 79.98 C 214.01 79.98 214.93 79.98 215.85 79.98 C 215.88 76.30 215.85 72.68 216.31 69.03 L 217.01 68.29 C 217.00 72.64 217.00 76.98 217.00 81.33 C 215.29 81.33 213.58 81.33 211.87 81.33 C 211.88 64.14 211.87 46.95 211.88 29.76 Z" fill="#030507" />
<path d="M 403.00 29.85 C 405.64 30.54 408.31 31.06 411.00 31.52 C 411.16 39.35 411.09 47.18 411.08 55.00 C 411.08 60.29 410.80 65.86 411.50 71.08 L 412.43 71.99 C 413.02 72.54 413.63 73.06 414.26 73.58 L 414.94 74.04 C 415.89 74.64 416.85 75.23 417.82 75.80 C 417.87 77.08 417.91 78.36 417.96 79.64 C 415.32 80.05 412.69 80.46 410.07 80.96 C 405.54 79.01 403.44 75.97 403.15 71.04 C 402.92 57.32 403.26 43.57 403.00 29.85 Z" fill="#212325" />
<path d="M 403.00 29.85 C 406.12 29.72 409.23 29.72 412.35 29.71 C 412.36 43.80 412.22 57.90 412.43 71.99 L 411.50 71.08 C 410.80 65.86 411.08 60.29 411.08 55.00 C 411.09 47.18 411.16 39.35 411.00 31.52 C 408.31 31.06 405.64 30.54 403.00 29.85 Z" fill="#030507" />
<path d="M 213.22 31.50 C 214.10 31.22 214.99 30.95 215.87 30.69 C 215.99 37.46 216.03 44.23 215.87 51.00 C 215.77 54.62 216.00 58.20 216.85 61.74 C 222.20 56.26 227.86 51.07 233.33 45.71 C 235.50 45.71 237.67 45.71 239.85 45.69 C 235.54 49.91 231.29 54.19 226.99 58.41 C 232.01 66.04 236.95 73.72 241.89 81.40 C 239.74 81.38 237.59 81.37 235.43 81.36 C 231.49 74.86 227.38 68.46 223.45 61.94 C 221.33 64.08 219.16 66.17 217.01 68.29 L 216.31 69.03 C 215.85 72.68 215.88 76.30 215.85 79.98 C 214.93 79.98 214.01 79.98 213.10 79.98 C 213.11 63.83 212.81 47.63 213.22 31.50 Z" fill="#212325" />
<path d="M 28.27 32.86 C 31.59 33.92 34.72 35.65 37.89 37.09 C 48.06 41.79 58.21 46.52 68.38 51.21 C 67.15 53.88 65.92 56.55 64.72 59.23 C 51.30 53.02 37.94 46.70 24.46 40.62 C 25.63 38.03 26.76 35.27 28.27 32.86 Z" fill="#f48023" />
<path d="M 134.97 34.77 C 134.90 38.69 134.91 42.61 134.91 46.53 C 138.22 46.51 141.53 46.51 144.85 46.50 C 143.23 48.07 141.60 49.64 139.99 51.22 C 138.30 51.21 136.60 51.19 134.90 51.18 C 135.10 58.74 134.54 66.42 135.18 73.93 C 136.23 77.48 139.67 76.75 142.57 77.14 C 142.55 78.59 142.52 80.05 142.50 81.51 C 139.16 81.26 135.37 81.72 132.67 79.34 C 130.19 77.13 129.69 74.20 129.71 71.01 C 129.72 58.92 129.73 46.85 129.72 34.76 C 131.47 34.77 133.22 34.77 134.97 34.77 Z" fill="#212325" />
<path d="M 383.50 35.32 C 383.95 50.06 383.39 64.82 383.79 79.57 C 386.50 80.01 389.19 80.50 391.85 81.17 C 388.75 81.30 385.65 81.30 382.54 81.32 C 382.59 69.54 382.57 57.77 382.55 46.00 C 382.59 42.38 382.27 38.76 383.50 35.32 Z" fill="#030507" />
<path d="M 263.55 43.82 C 268.60 43.54 273.60 45.11 276.90 49.08 C 280.06 52.80 280.34 57.35 280.43 62.00 C 280.41 66.79 280.45 71.49 277.63 75.61 C 272.06 83.78 257.85 83.97 252.00 76.02 C 249.54 72.88 248.98 68.69 248.87 64.82 C 248.78 60.29 248.76 55.12 251.05 51.06 C 253.51 46.55 258.51 44.00 263.55 43.82 Z" fill="#212325" />
<path d="M 344.49 50.53 C 347.60 55.31 347.38 60.20 347.47 65.66 C 339.54 65.66 331.60 65.61 323.67 65.69 C 324.47 68.71 324.96 71.43 327.95 73.07 C 332.64 75.21 337.06 73.75 340.94 70.74 C 342.79 72.54 344.65 74.34 346.49 76.15 C 343.49 78.53 340.75 80.77 336.83 81.42 C 331.59 82.41 324.95 81.84 320.65 78.36 C 316.76 75.15 315.57 70.69 315.00 65.87 C 316.84 63.87 316.88 62.11 314.99 60.12 C 315.53 54.85 317.24 49.91 321.65 46.66 C 328.51 41.78 339.89 43.08 344.49 50.53 Z" fill="#212325" />
<path d="M 370.99 43.81 C 374.40 43.66 376.94 45.26 379.68 47.02 C 377.40 49.38 375.06 51.68 372.77 54.03 C 370.54 52.97 368.78 51.54 366.18 52.18 C 363.81 52.80 362.69 54.67 361.47 56.60 L 360.62 58.01 C 359.48 65.06 360.37 72.42 360.00 79.56 C 357.33 80.03 354.67 80.54 352.05 81.22 C 352.23 68.87 352.08 56.52 352.13 44.17 C 355.17 44.18 358.22 44.18 361.27 44.16 C 361.18 45.32 361.08 46.48 360.99 47.64 C 364.06 45.44 367.05 43.60 370.99 43.81 Z" fill="#212325" />
<path d="M 450.11 49.92 C 452.12 52.72 452.55 55.82 452.95 59.15 C 451.03 61.63 451.01 63.37 452.99 65.83 C 452.63 69.51 452.21 72.92 449.91 75.95 C 444.19 83.73 430.64 83.86 424.70 76.28 C 421.68 72.44 421.48 67.68 421.42 63.00 C 421.47 58.62 421.56 53.90 424.14 50.16 C 429.78 41.69 444.30 41.65 450.11 49.92 Z" fill="#212325" />
<path d="M 280.58 44.26 C 283.76 44.07 286.97 44.19 290.16 44.15 C 292.79 51.85 295.26 59.61 297.85 67.32 C 300.40 59.63 302.94 51.92 305.39 44.20 C 308.67 44.18 311.96 44.18 315.25 44.12 C 310.66 56.53 306.08 68.94 301.54 81.36 C 299.10 81.37 296.66 81.38 294.21 81.39 C 289.68 69.02 284.89 56.69 280.58 44.26 Z" fill="#212325" />
<path d="M 453.10 44.15 C 456.37 44.18 459.64 44.19 462.91 44.15 C 465.02 51.85 466.92 59.62 469.08 67.30 C 471.57 59.58 474.17 51.89 476.68 44.17 C 478.95 44.18 481.21 44.18 483.48 44.20 C 486.04 51.91 488.59 59.63 491.21 67.33 C 493.21 59.59 495.25 51.87 497.28 44.14 C 500.52 44.18 503.75 44.19 506.99 44.16 C 503.32 56.60 499.34 68.94 495.67 81.37 C 493.12 81.37 490.57 81.38 488.02 81.39 C 485.29 73.60 482.73 65.75 480.12 57.92 C 477.46 65.72 474.89 73.56 472.26 81.37 C 469.70 81.37 467.14 81.38 464.58 81.38 C 460.81 68.95 456.90 56.56 453.10 44.15 Z" fill="#212325" />
<path d="M 123.90 48.88 C 122.80 50.02 121.69 51.15 120.60 52.28 C 115.97 49.87 110.53 48.49 105.55 50.69 C 101.81 52.46 101.61 59.10 105.99 60.20 C 110.49 61.58 117.25 60.59 121.65 63.30 C 125.84 65.62 126.23 72.28 124.04 76.06 C 121.13 81.02 114.22 82.08 108.99 81.83 C 104.04 81.68 99.87 79.85 95.94 76.92 C 97.05 75.77 98.15 74.61 99.25 73.45 C 104.38 77.39 111.06 78.71 117.11 76.16 C 121.01 74.46 121.71 68.30 117.53 66.51 C 112.42 64.79 105.44 66.18 101.01 62.93 C 97.60 60.51 97.11 56.02 98.25 52.27 C 99.47 48.81 102.54 46.79 105.96 45.89 C 112.14 44.42 118.49 45.64 123.90 48.88 Z" fill="#212325" />
<path d="M 168.85 47.12 C 171.64 48.56 173.12 51.10 173.93 54.03 C 171.96 62.32 173.39 71.38 172.90 79.93 C 171.59 79.93 170.29 79.93 168.98 79.92 L 169.03 78.22 C 164.05 82.54 156.52 82.91 150.70 80.29 C 144.69 77.21 143.96 67.35 149.46 63.44 C 151.41 62.04 153.89 61.34 156.25 61.14 C 160.92 62.05 165.12 62.22 169.85 61.85 C 169.70 59.01 170.52 55.67 168.49 53.41 C 165.65 49.53 161.35 49.47 156.96 49.90 C 154.12 50.14 152.48 51.92 150.33 53.55 C 149.26 52.39 148.18 51.23 147.10 50.07 C 149.51 48.13 151.60 46.23 154.77 45.72 C 159.30 44.97 164.67 45.01 168.85 47.12 Z" fill="#212325" />
<path d="M 206.63 50.22 C 205.54 51.37 204.44 52.51 203.35 53.65 C 200.70 51.68 198.56 49.69 195.01 49.89 C 189.89 49.61 185.77 53.06 184.65 57.96 C 183.71 62.63 183.59 68.62 186.21 72.79 C 188.75 76.95 194.21 78.15 198.62 76.58 C 200.30 75.79 201.84 74.48 203.33 73.39 C 204.46 74.53 205.60 75.67 206.74 76.81 C 204.21 78.75 202.07 80.81 198.83 81.45 C 193.32 82.62 186.89 81.33 183.12 76.89 C 179.27 72.34 178.44 65.77 179.11 60.03 C 179.81 54.94 181.86 50.13 186.45 47.42 C 193.25 43.72 201.11 44.76 206.63 50.22 Z" fill="#212325" />
<path d="M 336.36 53.65 C 337.61 55.19 338.06 57.52 338.69 59.36 C 333.68 59.45 328.67 59.44 323.66 59.37 C 324.29 57.39 324.75 54.77 326.30 53.30 C 329.04 50.64 333.83 50.76 336.36 53.65 Z" fill="#ffffff" />
<path d="M 263.16 52.15 C 266.16 51.59 269.22 52.81 270.35 55.79 C 271.39 58.98 271.19 62.70 271.04 66.02 C 270.91 68.59 270.33 71.49 267.83 72.79 C 264.62 74.53 260.42 73.43 259.01 69.94 C 257.71 66.21 257.95 61.82 258.37 57.95 C 258.80 55.15 260.27 52.80 263.16 52.15 Z" fill="#ffffff" />
<path d="M 20.54 53.05 C 24.04 53.11 27.61 54.17 31.04 54.87 C 42.01 57.20 53.00 59.41 63.96 61.78 C 63.32 64.63 62.71 67.48 62.07 70.32 C 47.60 67.31 33.14 64.29 18.69 61.24 C 19.25 58.50 19.74 55.72 20.54 53.05 Z" fill="#f48023" />
<path d="M 433.36 53.29 C 436.92 50.54 442.47 52.41 443.27 56.97 C 444.07 61.26 444.29 66.46 442.56 70.55 C 440.37 74.70 433.62 74.61 431.72 70.27 C 430.61 67.41 430.53 64.03 430.65 60.99 C 430.94 58.22 430.95 55.16 433.36 53.29 Z" fill="#ffffff" />
<path d="M 168.49 53.41 C 170.52 55.67 169.70 59.01 169.85 61.85 C 165.12 62.22 160.92 62.05 156.25 61.14 C 160.53 60.85 164.84 61.03 169.12 61.01 C 169.01 58.46 168.92 55.93 168.49 53.41 Z" fill="#030507" />
<path d="M 173.93 54.03 C 174.37 63.11 174.01 72.24 174.13 81.33 C 172.40 81.33 170.67 81.33 168.94 81.33 L 168.98 79.92 C 170.29 79.93 171.59 79.93 172.90 79.93 C 173.39 71.38 171.96 62.32 173.93 54.03 Z" fill="#030507" />
<path d="M 360.62 58.01 L 361.47 56.60 C 361.17 64.84 361.40 73.11 361.34 81.36 C 358.24 81.34 355.14 81.34 352.05 81.22 C 354.67 80.54 357.33 80.03 360.00 79.56 C 360.37 72.42 359.48 65.06 360.62 58.01 Z" fill="#030507" />
<path d="M 452.95 59.15 C 453.17 61.36 453.16 63.62 452.99 65.83 C 451.01 63.37 451.03 61.63 452.95 59.15 Z" fill="#030507" />
<path d="M 314.99 60.12 C 316.88 62.11 316.84 63.87 315.00 65.87 C 314.76 63.98 314.75 62.01 314.99 60.12 Z" fill="#030507" />
<path d="M 0.00 63.75 C 2.98 63.78 5.95 63.81 8.93 63.84 C 8.90 72.62 8.87 81.40 8.95 90.17 C 29.62 90.27 50.31 90.26 70.98 90.18 C 71.02 81.39 70.99 72.60 71.00 63.81 C 73.99 63.81 76.99 63.81 79.98 63.82 C 80.01 75.54 80.01 87.27 79.98 99.00 L 0.00 99.00 L 0.00 63.75 Z" fill="#bcbbbc" />
<path d="M 156.94 65.07 C 160.96 64.92 164.99 65.04 169.00 65.00 C 168.86 67.95 169.45 72.09 167.57 74.57 C 165.53 77.04 161.99 77.45 158.99 77.47 C 156.84 77.39 154.08 77.09 152.40 75.59 C 150.59 73.98 150.62 71.24 151.08 69.05 C 151.75 66.57 154.50 65.09 156.94 65.07 Z" fill="#ffffff" />
<path d="M 17.85 72.67 C 32.62 72.66 47.38 72.66 62.15 72.67 C 62.14 75.56 62.14 78.44 62.15 81.33 C 47.38 81.34 32.62 81.34 17.85 81.33 C 17.86 78.44 17.86 75.56 17.85 72.67 Z" fill="#f48023" />
<path d="M 414.26 73.58 C 415.93 73.66 417.60 73.73 419.27 73.78 C 419.27 76.32 419.27 78.85 419.27 81.38 C 416.20 81.36 413.13 81.34 410.07 80.96 C 412.69 80.46 415.32 80.05 417.96 79.64 C 417.91 78.36 417.87 77.08 417.82 75.80 C 416.85 75.23 415.89 74.64 414.94 74.04 L 414.26 73.58 Z" fill="#030507" />
</svg>