<?xml version="1.0" encoding="UTF-8" standalone="no"?>
<!DOCTYPE svg PUBLIC "-//W3C//DTD SVG 1.1//EN" "http://www.w3.org/Graphics/SVG/1.1/DTD/svg11.dtd">
<svg xmlns="http://www.w3.org/2000/svg" version="1.1" viewBox="0 0 198 255" width="198.0pt" height="255.0pt">
<path d="M 0.00 0.00 L 198.00 0.00 L 198.00 255.00 L 0.00 255.00 L 0.00 0.00 Z" fill="#fffffe" />
<path d="M 124.36 15.55 C 129.98 16.47 135.09 15.53 140.33 18.68 C 150.37 25.02 160.06 33.84 165.58 44.48 C 173.78 54.42 180.30 66.57 184.26 78.82 C 185.65 84.98 184.29 91.04 186.88 97.12 C 189.28 103.96 189.32 109.95 188.20 117.00 C 188.24 132.85 180.12 146.83 167.87 156.48 L 167.47 156.86 C 165.79 158.57 164.14 160.32 162.43 161.99 C 160.68 158.48 160.13 162.09 157.36 161.54 C 153.36 161.04 151.26 165.79 147.03 166.10 C 143.19 167.64 139.60 167.92 135.62 168.64 C 132.30 169.40 133.44 173.38 133.24 175.86 C 135.52 176.48 135.75 174.44 137.13 173.15 C 137.49 179.25 127.51 183.64 123.13 186.67 C 124.83 187.04 126.53 187.38 128.22 187.78 C 117.74 188.81 106.59 188.94 96.00 188.92 C 94.38 187.08 93.28 186.19 90.97 187.71 C 87.10 186.61 83.30 185.31 79.51 183.96 C 79.38 183.92 79.25 183.90 79.12 183.89 C 78.06 183.77 77.00 183.67 75.94 183.59 C 71.27 180.92 65.93 175.08 61.07 174.06 C 62.01 181.13 65.41 178.91 68.42 183.55 C 72.04 184.12 73.79 184.25 76.31 187.12 C 72.11 188.39 68.41 188.43 64.37 186.62 C 53.54 182.57 47.51 172.10 42.63 162.33 C 33.91 153.80 33.62 143.73 29.33 132.84 C 29.33 125.50 25.69 119.32 24.85 112.11 C 25.23 111.03 24.92 110.30 23.91 109.92 C 24.12 107.61 24.45 105.32 24.70 103.01 C 23.60 103.98 22.57 105.03 21.67 106.19 L 21.39 106.83 C 21.17 108.21 20.99 109.61 20.86 111.01 C 19.33 111.69 19.34 112.35 20.88 112.99 C 21.03 115.69 21.38 118.36 21.65 121.05 C 18.48 117.10 17.45 111.56 14.83 107.13 C 11.98 102.17 12.88 95.66 8.01 92.76 C 10.63 86.34 15.59 77.02 22.51 74.61 C 21.42 69.33 24.64 65.05 23.23 59.92 C 22.98 55.29 21.70 58.23 18.97 58.83 C 20.76 54.64 25.28 48.50 30.16 48.02 C 32.80 41.52 40.42 36.86 46.29 33.45 C 49.91 33.53 51.98 37.61 54.24 32.17 C 58.98 27.58 58.86 21.35 64.97 18.94 C 72.13 14.62 79.75 7.60 88.38 7.34 C 99.80 3.29 114.16 10.61 124.36 15.55 Z" fill="#82c83a" />
<path d="M 59.90 30.10 C 60.51 33.62 58.14 33.36 55.89 35.02 C 57.21 35.80 58.57 36.48 59.87 37.29 C 58.60 40.26 56.14 36.29 54.16 38.18 C 53.06 38.53 49.88 41.54 51.49 38.43 C 55.19 35.88 55.16 28.98 59.90 30.10 Z" fill="#fcd405" />
<path d="M 96.12 38.19 C 104.23 36.88 113.04 39.61 120.54 42.56 C 124.69 45.09 127.90 47.98 132.82 49.12 C 139.01 50.48 142.68 54.77 146.60 59.36 C 145.24 65.77 149.33 69.33 152.56 74.40 C 161.21 78.94 160.69 86.78 163.87 95.03 C 166.15 104.39 159.81 111.00 161.79 119.87 C 161.33 123.40 159.27 125.56 157.38 128.36 C 154.39 132.63 152.68 137.33 148.72 140.70 C 142.07 146.08 137.73 152.43 129.13 155.12 C 120.18 157.00 112.59 160.27 103.26 159.17 C 93.04 159.01 83.80 156.73 74.00 153.84 C 71.72 152.74 69.14 154.18 67.05 152.94 C 56.80 145.95 45.85 145.82 39.04 133.98 C 36.47 124.37 36.30 113.41 32.38 104.08 C 32.01 100.61 31.94 97.14 31.69 93.65 C 31.60 87.22 34.73 83.46 39.04 79.21 C 41.23 79.46 42.44 80.02 43.51 77.61 C 45.31 72.55 47.34 67.88 49.92 63.17 C 53.61 58.39 54.35 51.66 58.21 47.22 C 66.67 40.98 73.07 46.06 83.00 44.06 C 89.27 44.86 90.47 39.29 96.12 38.19 Z" fill="#088cde" />
<path d="M 57.60 40.07 C 55.59 44.18 56.52 42.46 60.00 42.28 C 58.41 45.66 54.44 43.35 53.81 46.58 C 53.75 51.53 52.52 57.71 48.99 61.37 L 47.17 60.68 C 46.93 58.79 46.38 57.02 45.84 55.21 C 48.95 52.03 48.22 48.22 49.85 44.33 C 48.86 44.77 47.88 45.25 46.89 45.68 C 46.64 42.50 55.33 38.45 57.60 40.07 Z" fill="#fcd405" />
<path d="M 86.26 40.10 C 89.59 38.69 86.54 43.47 86.26 40.10 Z" fill="#fcd405" />
<path d="M 80.45 42.26 C 81.44 41.56 83.56 41.56 84.55 42.26 C 85.18 43.59 79.82 43.59 80.45 42.26 Z" fill="#fcd405" />
<path d="M 51.10 48.26 C 54.47 48.55 49.68 51.59 51.10 48.26 Z" fill="#82c83a" />
<path d="M 43.31 58.45 C 44.69 57.11 44.06 63.00 42.07 63.02 C 42.24 61.30 41.48 59.39 43.31 58.45 Z" fill="#fcd405" />
<path d="M 47.17 60.68 L 48.99 61.37 C 49.30 61.97 49.61 62.57 49.92 63.17 C 47.34 67.88 45.31 72.55 43.51 77.61 C 42.44 80.02 41.23 79.46 39.04 79.21 C 38.86 78.21 38.69 77.22 38.54 76.21 C 39.68 75.25 40.13 74.19 39.89 73.04 L 39.84 72.39 C 41.82 69.70 43.12 67.12 43.94 63.86 C 44.98 62.76 46.06 61.71 47.17 60.68 Z" fill="#fffffe" />
<path d="M 104.21 61.26 C 98.09 62.08 92.00 63.16 85.89 63.92 C 90.95 60.75 98.44 60.87 104.21 61.26 Z" fill="#82c83a" />
<path d="M 104.21 61.26 L 105.04 61.11 C 105.47 61.95 106.16 62.17 107.13 61.77 C 113.16 64.26 118.63 68.26 124.00 71.93 C 125.49 76.44 132.02 78.58 136.18 79.79 L 136.80 80.20 C 141.60 87.17 145.08 95.68 146.27 104.08 L 146.03 104.89 C 143.36 110.71 143.84 116.33 139.15 121.14 C 134.61 127.02 127.76 130.08 122.13 135.14 C 118.31 138.82 113.01 140.63 108.78 143.93 L 108.03 144.18 C 106.38 143.61 105.17 143.45 103.94 144.90 L 102.25 144.79 C 88.53 142.32 76.80 138.49 68.02 126.99 C 66.40 124.39 64.92 121.82 62.72 119.62 L 62.57 119.01 L 62.09 118.24 C 61.82 116.44 61.35 114.84 60.53 113.21 C 59.47 102.50 55.48 94.25 60.77 83.78 C 62.30 80.29 65.61 78.47 66.90 74.83 C 70.09 71.04 74.51 69.69 78.93 66.95 C 81.13 66.25 83.27 65.63 85.18 64.30 L 85.89 63.92 C 92.00 63.16 98.09 62.08 104.21 61.26 Z" fill="#fcd405" />
<path d="M 105.04 61.11 L 106.93 60.96 L 107.13 61.77 C 106.16 62.17 105.47 61.95 105.04 61.11 Z" fill="#82c83a" />
<path d="M 106.93 60.96 C 112.25 61.74 120.44 66.99 124.09 70.94 L 124.00 71.93 C 118.63 68.26 113.16 64.26 107.13 61.77 L 106.93 60.96 Z" fill="#fffffe" />
<path d="M 43.94 63.86 C 43.12 67.12 41.82 69.70 39.84 72.39 C 38.88 68.06 40.40 66.08 43.94 63.86 Z" fill="#fcd405" />
<path d="M 85.18 64.30 C 83.27 65.63 81.13 66.25 78.93 66.95 L 79.08 65.06 C 81.12 64.86 83.16 64.60 85.18 64.30 Z" fill="#82c83a" />
<path d="M 79.08 65.06 L 78.93 66.95 C 74.51 69.69 70.09 71.04 66.90 74.83 L 65.11 75.13 C 64.20 65.52 71.47 64.75 79.08 65.06 Z" fill="#fffffe" />
<path d="M 124.09 70.94 C 127.26 75.38 132.18 76.35 136.18 79.79 C 132.02 78.58 125.49 76.44 124.00 71.93 L 124.09 70.94 Z" fill="#82c83a" />
<path d="M 39.89 73.04 C 40.13 74.19 39.68 75.25 38.54 76.21 C 37.48 74.44 37.92 73.56 39.89 73.04 Z" fill="#fcd405" />
<path d="M 65.11 75.13 L 66.90 74.83 C 65.61 78.47 62.30 80.29 60.77 83.78 C 55.48 94.25 59.47 102.50 60.53 113.21 L 59.85 113.33 C 56.02 99.44 54.25 86.38 65.11 75.13 Z" fill="#82c83a" />
<path d="M 136.80 80.20 C 140.38 82.25 142.56 85.82 143.37 89.80 C 144.96 94.17 148.13 99.28 146.27 104.08 C 145.08 95.68 141.60 87.17 136.80 80.20 Z" fill="#82c83a" />
<path d="M 31.69 93.65 C 31.94 97.14 32.01 100.61 32.38 104.08 C 26.49 104.30 27.78 96.45 31.69 93.65 Z" fill="#fffffe" />
<path d="M 146.03 104.89 C 145.81 115.65 141.15 123.43 132.26 129.26 C 125.04 133.69 117.25 142.79 108.78 143.93 C 113.01 140.63 118.31 138.82 122.13 135.14 C 127.76 130.08 134.61 127.02 139.15 121.14 C 143.84 116.33 143.36 110.71 146.03 104.89 Z" fill="#82c83a" />
<path d="M 21.67 106.19 L 21.39 106.83 L 21.67 106.19 Z" fill="#fcd405" />
<path d="M 23.91 109.92 C 24.92 110.30 25.23 111.03 24.85 112.11 C 23.92 111.68 23.60 110.95 23.91 109.92 Z" fill="#fcd405" />
<path d="M 20.86 111.01 L 20.88 112.99 C 19.34 112.35 19.33 111.69 20.86 111.01 Z" fill="#fcd405" />
<path d="M 59.85 113.33 L 60.53 113.21 C 61.35 114.84 61.82 116.44 62.09 118.24 C 59.83 116.80 59.65 115.92 59.85 113.33 Z" fill="#fffffe" />
<path d="M 62.09 118.24 L 62.57 119.01 L 62.25 118.83 L 62.09 118.24 Z" fill="#82c83a" />
<path d="M 62.25 118.83 L 62.57 119.01 L 62.72 119.62 L 62.25 118.83 Z" fill="#fffffe" />
<path d="M 62.72 119.62 C 64.92 121.82 66.40 124.39 68.02 126.99 C 76.80 138.49 88.53 142.32 102.25 144.79 C 86.63 145.47 67.43 135.13 62.72 119.62 Z" fill="#82c83a" />
<path d="M 41.73 142.42 C 49.49 145.22 38.52 143.21 35.99 143.54 C 38.05 140.67 40.71 135.71 41.73 142.42 Z" fill="#fcd405" />
<path d="M 108.03 144.18 C 106.70 145.47 105.63 145.40 103.94 144.90 C 105.17 143.45 106.38 143.61 108.03 144.18 Z" fill="#82c83a" />
<path d="M 48.10 146.26 C 51.47 146.55 46.68 149.59 48.10 146.26 Z" fill="#fcd405" />
<path d="M 55.26 150.10 C 58.59 148.69 55.54 153.47 55.26 150.10 Z" fill="#fcd405" />
<path d="M 74.00 153.84 C 83.80 156.73 93.04 159.01 103.26 159.17 C 95.97 163.71 85.71 158.35 79.30 159.69 C 76.96 158.55 75.18 156.09 74.00 153.84 Z" fill="#fffffe" />
<path d="M 167.87 156.48 L 167.47 156.86 L 167.87 156.48 Z" fill="#fcd405" />
<path d="M 162.43 161.99 C 157.16 167.13 152.23 172.63 146.97 177.74 L 146.41 178.25 L 145.72 178.91 L 145.16 179.41 C 140.68 182.40 133.38 187.29 128.22 187.78 C 126.53 187.38 124.83 187.04 123.13 186.67 C 127.51 183.64 137.49 179.25 137.13 173.15 C 135.75 174.44 135.52 176.48 133.24 175.86 C 133.44 173.38 132.30 169.40 135.62 168.64 C 139.60 167.92 143.19 167.64 147.03 166.10 C 151.26 165.79 153.36 161.04 157.36 161.54 C 160.13 162.09 160.68 158.48 162.43 161.99 Z" fill="#fcd405" />
<path d="M 55.39 167.35 C 57.63 165.72 56.14 170.95 55.68 171.52 C 54.35 171.77 54.68 167.91 55.39 167.35 Z" fill="#fcd405" />
<path d="M 61.07 174.06 C 65.93 175.08 71.27 180.92 75.94 183.59 C 74.57 185.57 77.83 185.40 78.96 186.21 L 78.95 186.84 C 78.07 186.94 77.19 187.03 76.31 187.12 C 73.79 184.25 72.04 184.12 68.42 183.55 C 65.41 178.91 62.01 181.13 61.07 174.06 Z" fill="#fcd405" />
<path d="M 64.27 177.27 C 64.75 177.76 64.75 177.76 64.27 177.27 Z" fill="#82c83a" />
<path d="M 146.97 177.74 L 146.41 178.25 L 146.97 177.74 Z" fill="#82c83a" />
<path d="M 145.72 178.91 L 145.16 179.41 L 145.72 178.91 Z" fill="#82c83a" />
<path d="M 79.51 183.96 L 79.12 183.89 C 79.25 183.90 79.38 183.92 79.51 183.96 Z" fill="#fcd405" />
<path d="M 78.96 186.21 C 79.74 186.58 79.73 186.78 78.95 186.84 L 78.96 186.21 Z" fill="#82c83a" />
<path d="M 96.00 188.92 C 93.97 189.22 92.69 188.72 90.97 187.71 C 93.28 186.19 94.38 187.08 96.00 188.92 Z" fill="#fcd405" />
<path d="M 16.08 208.46 C 18.84 209.22 24.00 207.61 23.02 212.00 C 24.06 216.74 19.03 214.65 16.18 214.83 C 15.91 212.72 15.89 210.58 16.08 208.46 Z" fill="#088cde" />
<path d="M 47.19 208.39 C 49.41 208.48 51.63 208.59 53.86 208.64 C 54.07 220.66 54.18 232.82 53.80 244.84 C 49.75 246.32 47.06 242.45 43.70 244.65 C 39.41 247.18 33.90 245.98 30.70 242.30 C 25.80 237.01 25.64 226.73 30.24 221.25 C 35.95 216.43 40.82 217.43 46.80 220.97 C 47.22 216.79 46.77 212.56 47.19 208.39 Z" fill="#088cde" />
<path d="M 118.14 208.58 C 119.98 208.78 123.41 207.97 124.75 209.29 C 125.22 221.06 125.11 233.05 124.80 244.83 C 122.61 245.12 120.38 245.12 118.20 244.83 C 117.69 236.26 118.16 227.59 118.00 219.00 C 118.02 215.54 117.83 212.03 118.14 208.58 Z" fill="#088cde" />
<path d="M 136.27 208.48 C 139.30 208.74 138.80 216.41 134.02 215.05 C 128.59 215.79 130.01 206.96 136.27 208.48 Z" fill="#088cde" />
<path d="M 173.25 211.17 C 175.34 210.89 177.53 210.85 179.61 211.24 C 181.04 216.19 179.21 219.26 185.82 219.40 C 186.81 223.96 184.35 223.00 181.31 224.35 C 180.72 229.25 180.82 234.72 181.25 239.64 C 183.00 240.39 186.56 239.20 185.98 242.05 C 187.73 246.88 178.89 244.72 176.30 244.70 C 170.47 240.90 174.21 230.41 172.70 224.46 C 168.72 223.65 168.63 223.52 169.25 219.47 C 175.00 219.07 172.23 215.24 173.25 211.17 Z" fill="#088cde" />
<path d="M 76.72 219.26 C 82.27 221.66 84.64 228.12 83.86 233.80 C 77.65 234.42 71.28 233.57 65.07 234.21 C 64.90 236.44 66.18 240.36 69.00 240.02 C 75.33 241.51 76.65 235.40 82.92 237.17 C 82.58 244.92 69.81 248.32 63.99 243.99 C 57.40 240.29 57.54 233.80 58.15 227.11 C 60.64 219.54 69.47 215.54 76.72 219.26 Z" fill="#088cde" />
<path d="M 97.01 218.06 C 101.95 217.47 110.70 217.84 111.83 224.11 C 112.16 230.83 112.15 238.12 111.80 244.84 C 110.29 245.04 108.58 245.22 107.10 244.81 C 102.17 241.97 98.84 247.63 93.33 245.68 C 87.61 244.91 85.46 238.41 87.75 233.72 C 90.98 229.07 98.49 230.55 103.35 228.33 C 106.24 223.11 100.36 221.56 96.85 223.86 C 93.89 227.49 92.73 227.41 88.10 226.82 C 86.67 222.04 93.23 218.68 97.01 218.06 Z" fill="#088cde" />
<path d="M 165.68 226.06 L 165.17 226.35 C 159.22 227.23 158.52 221.92 153.01 222.97 C 151.30 222.77 148.76 224.75 150.74 226.24 C 154.65 230.62 165.50 227.59 166.93 235.12 C 169.19 247.61 147.91 248.92 143.30 240.68 C 140.99 234.99 148.59 236.40 150.62 239.38 C 152.77 243.07 162.23 239.98 158.80 236.22 C 154.18 232.39 146.39 234.93 143.03 227.89 C 140.50 215.06 165.58 214.16 165.68 226.06 Z" fill="#088cde" />
<path d="M 16.20 219.17 C 18.39 218.88 20.62 218.88 22.80 219.17 C 23.15 227.55 23.16 236.45 22.80 244.83 C 20.61 245.12 18.38 245.12 16.20 244.83 C 15.77 240.59 16.06 236.26 16.00 232.00 C 16.06 227.74 15.77 223.41 16.20 219.17 Z" fill="#088cde" />
<path d="M 131.20 219.17 C 133.39 218.88 135.62 218.88 137.80 219.17 C 138.23 223.41 137.94 227.74 138.00 232.00 C 137.95 236.26 138.23 240.59 137.80 244.83 C 135.61 245.12 133.38 245.12 131.20 244.83 C 130.85 236.45 130.84 227.55 131.20 219.17 Z" fill="#088cde" />
<path d="M 44.14 224.34 L 44.68 224.81 C 47.76 228.71 48.18 237.88 42.91 239.91 C 35.61 242.17 32.82 234.21 34.54 228.58 C 35.31 224.19 40.41 221.98 44.14 224.34 Z" fill="#fffffe" />
<path d="M 70.31 223.37 C 71.90 223.17 74.90 223.88 75.39 225.65 C 78.95 231.22 67.68 228.46 65.03 228.79 C 65.77 225.23 66.68 224.12 70.31 223.37 Z" fill="#fffffe" />
<path d="M 44.14 224.34 L 44.68 224.81 L 44.14 224.34 Z" fill="#82c83a" />
<path d="M 165.17 226.35 L 165.68 226.06 C 165.82 226.37 165.65 226.46 165.17 226.35 Z" fill="#82c83a" />
<path d="M 100.36 233.34 C 102.39 233.33 104.36 231.88 104.02 235.03 C 105.34 240.96 98.12 242.39 94.22 239.69 C 92.92 235.01 96.71 234.02 100.36 233.34 Z" fill="#fffffe" />
</svg>