<?xml version="1.0" standalone="no"?>
<!DOCTYPE svg PUBLIC "-//W3C//DTD SVG 20010904//EN"
 "http://www.w3.org/TR/2001/REC-SVG-20010904/DTD/svg10.dtd">
<svg version="1.0" xmlns="http://www.w3.org/2000/svg"
 width="317.000000pt" height="159.000000pt" viewBox="0 0 317.000000 159.000000"
 preserveAspectRatio="xMidYMid meet">
<metadata>
Created by potrace 1.15, written by Peter Selinger 2001-2017
</metadata>
<g transform="translate(0.000000,159.000000) scale(0.100000,-0.100000)"
fill="#000000" stroke="none">
<path d="M751 1264 c-12 -15 -21 -34 -21 -44 0 -10 9 -29 21 -44 40 -50 119
-21 119 44 0 65 -79 94 -119 44z"/>
<path d="M751 1054 c-27 -35 -26 -59 4 -89 45 -46 115 -19 115 45 0 65 -79 94
-119 44z"/>
<path d="M1077 873 c-4 -3 -7 -84 -7 -180 l0 -173 40 0 40 0 0 70 0 70 61 0
c54 0 64 3 90 29 58 58 31 158 -49 181 -41 11 -165 14 -175 3z"/>
<path d="M1934 870 c-33 -13 -64 -59 -64 -96 0 -51 34 -81 120 -107 66 -20 75
-26 78 -49 4 -29 -28 -58 -63 -58 -29 0 -65 28 -65 51 0 16 -7 19 -40 19 -44
0 -51 -15 -28 -65 17 -37 57 -55 123 -55 98 0 155 44 155 120 0 42 -38 75
-103 90 -69 16 -97 35 -97 65 0 48 75 62 108 20 23 -29 82 -36 82 -9 0 26 -19
53 -50 69 -31 16 -122 19 -156 5z"/>
<path d="M2700 700 l0 -180 35 0 35 0 0 180 0 180 -35 0 -35 0 0 -180z"/>
<path d="M132 854 c-16 -11 -22 -25 -22 -54 0 -29 6 -43 22 -54 48 -34 108 -4
108 54 0 58 -60 88 -108 54z"/>
<path d="M549 852 c-47 -39 -16 -122 45 -122 33 0 66 36 66 70 0 60 -64 89
-111 52z"/>
<path d="M754 844 c-20 -19 -24 -31 -20 -52 14 -59 76 -80 114 -39 27 29 28
71 2 97 -27 27 -66 25 -96 -6z"/>
<path d="M1415 773 c-26 -7 -65 -43 -65 -60 0 -19 66 -17 74 3 9 25 60 14 64
-13 3 -17 -2 -23 -15 -23 -36 0 -94 -22 -113 -42 -65 -70 34 -165 115 -112 15
10 25 12 25 5 0 -6 15 -11 33 -11 l32 0 -3 104 c-3 92 -6 106 -25 124 -23 22
-87 35 -122 25z"/>
<path d="M2480 762 c-22 -10 -36 -26 -38 -39 -3 -20 1 -23 31 -23 22 0 37 6
41 15 7 20 52 19 60 -1 11 -28 7 -32 -45 -39 -68 -9 -103 -40 -103 -90 0 -66
76 -99 134 -58 17 12 25 13 28 5 2 -7 17 -12 33 -12 l29 0 0 89 c0 110 -10
138 -55 156 -45 19 -72 19 -115 -3z"/>
<path d="M2895 766 c-49 -22 -68 -51 -73 -111 -8 -98 31 -145 118 -145 44 0
77 13 97 39 22 28 15 41 -22 41 -19 0 -35 -4 -35 -10 0 -5 -9 -14 -21 -20 -28
-16 -69 11 -69 45 0 25 1 25 85 25 95 0 100 5 71 73 -27 64 -91 91 -151 63z"/>
<path d="M1589 748 c94 -244 92 -234 76 -279 -8 -23 -15 -43 -15 -45 0 -2 15
-4 34 -4 34 0 35 2 57 68 12 37 39 112 60 166 22 55 39 103 39 108 0 4 -15 8
-33 8 -32 0 -33 -1 -61 -85 -15 -47 -29 -85 -31 -85 -2 0 -15 38 -30 85 l-26
85 -39 0 c-37 0 -39 -2 -31 -22z"/>
<path d="M2243 760 c-71 -29 -82 -178 -16 -229 38 -31 103 -28 142 5 43 36 42
64 -3 64 -26 0 -36 -5 -41 -20 -8 -26 -41 -26 -55 -1 -5 11 -10 42 -10 70 0
73 41 106 65 53 13 -29 75 -32 75 -4 -1 55 -88 89 -157 62z"/>
<path d="M132 644 c-29 -20 -30 -76 -2 -104 43 -43 110 -10 110 54 0 38 -28
66 -65 66 -11 0 -31 -7 -43 -16z"/>
<path d="M347 649 c-26 -15 -38 -54 -27 -83 26 -70 130 -50 130 25 0 54 -56
85 -103 58z"/>
<path d="M557 649 c-26 -15 -38 -54 -27 -83 26 -70 130 -50 130 25 0 54 -56
85 -103 58z"/>
<path d="M754 634 c-30 -29 -27 -67 8 -96 27 -23 49 -23 82 3 32 25 35 70 6
99 -27 27 -66 25 -96 -6z"/>
<path d="M337 433 c-29 -34 -26 -87 8 -109 45 -30 105 3 105 57 0 58 -76 93
-113 52z"/>
<path d="M540 423 c-25 -32 -20 -69 12 -95 27 -23 49 -23 82 3 32 25 35 70 6
99 -29 29 -74 26 -100 -7z"/>
<path d="M750 423 c-25 -32 -20 -69 12 -95 27 -23 49 -23 82 3 32 25 35 70 6
99 -29 29 -74 26 -100 -7z"/>
</g>
</svg>
