<?xml version="1.0" encoding="UTF-8" standalone="no"?>
<!DOCTYPE svg PUBLIC "-//W3C//DTD SVG 1.1//EN" "http://www.w3.org/Graphics/SVG/1.1/DTD/svg11.dtd">
<svg xmlns="http://www.w3.org/2000/svg" version="1.1" viewBox="0 0 290 174" width="290.0pt" height="174.0pt">
<path d="M 0.00 0.00 L 290.00 0.00 L 290.00 174.00 L 0.00 174.00 L 0.00 0.00 Z" fill="#ffffff" />
<path d="M 39.47 62.67 C 40.81 62.54 42.18 62.56 43.52 62.69 C 46.44 64.67 46.58 67.73 44.21 70.25 C 42.00 71.31 38.28 71.24 37.62 68.31 C 36.58 66.32 37.78 63.87 39.47 62.67 Z" fill="#da8e79" />
<path d="M 55.40 63.45 C 57.34 62.06 60.27 62.28 61.36 64.62 C 63.40 67.76 59.92 71.83 56.48 70.47 C 53.46 69.71 52.70 65.06 55.40 63.45 Z" fill="#474644" />
<path d="M 44.62 65.97 C 44.42 67.62 43.44 68.98 42.00 69.78 C 40.58 68.71 39.36 67.43 38.25 66.04 C 39.24 62.79 43.64 62.92 44.62 65.97 Z" fill="#fc6024" />
<path d="M 31.99 64.99 C 34.13 64.57 36.03 65.47 34.85 67.82 C 33.98 68.30 33.01 68.38 31.94 68.06 C 31.70 67.08 31.72 66.06 31.99 64.99 Z" fill="#919aa0" />
<path d="M 48.00 64.96 C 49.01 64.70 49.99 64.64 50.95 64.78 C 51.53 65.45 51.88 66.17 52.02 66.94 C 51.65 67.63 51.19 68.20 50.65 68.68 C 49.91 68.72 49.16 68.69 48.40 68.60 C 47.50 67.59 47.37 66.38 48.00 64.96 Z" fill="#a19f9e" />
<path d="M 64.32 65.31 C 65.53 64.67 66.63 64.69 67.62 65.37 C 68.26 66.89 68.07 67.77 66.58 68.57 C 64.70 68.76 62.99 67.13 64.32 65.31 Z" fill="#afb4b5" />
<path d="M 36.82 74.15 C 37.15 75.89 36.12 76.99 34.91 78.03 C 33.98 78.07 33.05 78.08 32.13 78.07 C 29.50 76.57 29.15 73.29 31.78 71.73 C 33.67 70.62 36.52 71.95 36.82 74.15 Z" fill="#454240" />
<path d="M 67.18 72.70 C 68.49 74.23 68.57 74.84 67.59 76.62 C 66.55 76.97 65.51 76.95 64.48 76.56 C 63.05 74.84 64.00 74.33 64.76 72.62 C 65.59 72.53 66.40 72.56 67.18 72.70 Z" fill="#c26f57" />
<path d="M 95.16 77.67 C 94.22 78.26 93.25 78.75 92.25 79.12 C 90.66 74.14 81.44 73.11 80.50 78.94 C 81.26 80.65 82.09 81.68 84.01 82.01 C 87.92 83.06 92.77 83.14 94.99 87.13 C 96.01 90.09 95.35 93.78 92.39 95.35 C 87.05 98.49 78.28 97.40 75.93 90.95 C 76.54 90.08 77.88 89.78 78.80 89.28 C 80.65 93.82 85.92 95.31 90.06 93.01 C 92.05 91.73 92.63 88.95 90.56 87.45 C 86.93 85.12 82.31 86.35 78.77 83.19 C 75.94 80.00 77.11 74.71 81.06 73.03 C 86.20 70.87 92.80 72.15 95.16 77.67 Z" fill="#434240" />
<path d="M 99.47 72.59 C 102.60 71.74 103.49 75.82 100.86 76.73 C 98.02 77.26 97.10 74.06 99.47 72.59 Z" fill="#404040" />
<path d="M 193.23 72.63 C 194.44 72.66 195.66 72.66 196.87 72.64 C 196.91 80.35 196.91 88.08 196.90 95.79 L 196.62 96.37 C 195.55 96.48 194.47 96.48 193.36 96.37 C 192.92 93.03 193.23 89.34 193.25 85.94 C 189.98 85.04 185.65 85.76 182.16 85.57 C 182.07 89.13 182.18 92.71 182.18 96.28 C 180.95 96.39 179.72 96.48 178.49 96.53 C 178.39 88.75 178.49 80.96 178.44 73.18 L 178.70 72.54 C 179.87 72.60 181.02 72.69 182.18 72.81 C 182.16 75.96 182.01 79.16 182.17 82.31 C 185.84 82.22 189.51 82.26 193.18 82.27 C 193.23 79.06 193.16 75.84 193.23 72.63 Z" fill="#434240" />
<path d="M 202.99 72.27 C 203.64 72.55 204.27 72.86 204.88 73.20 C 205.54 75.08 204.99 76.57 203.01 77.14 C 201.08 76.24 200.13 75.43 201.09 73.18 C 201.70 72.82 202.34 72.52 202.99 72.27 Z" fill="#595959" />
<path d="M 50.90 72.96 C 52.18 74.93 51.95 75.66 49.98 76.87 C 49.26 76.61 48.56 76.29 47.88 75.91 C 47.47 73.54 48.52 72.48 50.90 72.96 Z" fill="#5d5c5a" />
<path d="M 57.24 73.47 C 58.85 72.65 59.86 74.70 58.81 75.89 C 57.09 77.10 55.76 74.61 57.24 73.47 Z" fill="#adacaa" />
<path d="M 152.70 72.75 C 153.87 72.70 155.04 72.67 156.21 72.66 C 155.96 78.76 156.29 84.88 156.05 90.98 C 156.24 91.78 156.53 92.55 156.92 93.30 C 158.08 93.68 159.33 93.77 160.67 93.55 C 160.63 94.54 160.57 95.53 160.50 96.52 C 158.30 96.82 156.30 96.88 154.32 95.71 C 153.12 94.41 152.75 92.76 152.76 91.03 C 152.76 84.94 152.85 78.84 152.70 72.75 Z" fill="#474242" />
<path d="M 250.08 72.69 C 251.25 72.68 252.41 72.68 253.57 72.69 C 253.17 80.55 253.47 88.54 253.41 96.42 C 251.45 96.40 250.81 96.76 249.45 95.26 C 246.75 97.72 241.85 97.32 239.47 94.53 C 236.53 91.30 236.73 85.69 239.20 82.23 C 241.77 79.09 247.29 78.63 250.07 81.75 C 250.20 78.74 250.03 75.71 250.08 72.69 Z" fill="#474141" />
<path d="M 40.32 74.05 C 41.63 72.54 43.80 73.90 42.67 75.68 C 41.53 76.96 39.57 75.53 40.32 74.05 Z" fill="#b0b1b3" />
<path d="M 40.50 79.65 C 41.38 79.49 42.28 79.52 43.22 79.74 C 45.82 81.09 45.29 86.08 42.04 86.34 C 38.11 87.09 36.56 80.46 40.50 79.65 Z" fill="#ed6139" />
<path d="M 61.39 83.07 C 60.28 84.02 59.15 84.95 57.94 85.78 C 55.84 84.72 55.36 82.95 54.57 80.93 C 57.37 78.55 60.75 79.05 61.39 83.07 Z" fill="#ed6538" />
<path d="M 32.45 80.49 C 33.61 80.22 35.68 80.72 35.77 82.14 C 36.30 84.23 34.04 86.27 32.11 85.09 C 30.48 83.52 30.63 81.80 32.45 80.49 Z" fill="#8a9495" />
<path d="M 48.54 80.70 C 50.07 79.96 52.45 81.17 52.29 83.02 C 51.98 84.40 50.59 86.07 49.05 85.23 C 46.92 84.94 46.58 81.45 48.54 80.70 Z" fill="#94949c" />
<path d="M 67.53 80.61 C 68.41 82.09 69.00 83.19 67.64 84.65 C 65.87 86.22 62.53 84.39 63.71 81.97 C 64.32 79.82 65.83 80.72 67.53 80.61 Z" fill="#939192" />
<path d="M 98.75 79.95 C 99.85 79.97 100.95 79.99 102.05 80.01 C 102.11 85.43 102.04 90.84 102.10 96.26 C 100.98 96.40 99.84 96.43 98.70 96.36 C 98.79 90.89 98.70 85.42 98.75 79.95 Z" fill="#494343" />
<path d="M 105.99 80.00 C 107.00 79.98 108.01 79.98 109.01 80.00 C 109.17 80.66 109.33 81.33 109.48 81.99 C 111.94 78.77 116.41 78.90 118.95 81.97 C 121.61 78.97 127.60 78.46 129.18 82.76 C 129.91 87.19 129.35 91.92 129.49 96.41 C 128.42 96.42 127.35 96.38 126.28 96.32 C 125.73 92.38 126.64 88.12 125.83 84.20 C 124.05 81.36 120.45 82.98 119.68 85.75 C 119.02 89.11 119.58 92.99 119.46 96.44 C 118.32 96.43 117.19 96.38 116.06 96.29 C 115.93 92.32 116.32 88.17 115.80 84.24 C 114.17 81.56 110.46 82.86 109.61 85.45 C 108.97 89.03 109.40 92.80 109.35 96.43 C 108.21 96.44 107.08 96.37 105.96 96.23 C 106.03 90.82 105.91 85.41 105.99 80.00 Z" fill="#434140" />
<path d="M 133.60 80.01 C 135.77 79.90 136.26 79.72 137.66 81.44 C 140.04 77.98 147.05 79.77 148.60 83.46 C 150.26 87.44 150.13 92.65 146.45 95.46 C 143.60 97.52 139.47 97.34 136.79 94.94 C 136.75 97.60 136.92 100.26 136.80 102.92 C 135.72 102.96 134.65 102.95 133.57 102.88 C 133.57 95.28 133.43 87.60 133.60 80.01 Z" fill="#454341" />
<path d="M 159.87 80.01 C 161.15 79.93 162.40 79.97 163.64 80.12 C 164.76 84.27 166.55 88.18 167.66 92.33 C 169.42 88.48 170.51 84.04 171.96 80.00 C 173.08 79.98 174.20 79.98 175.32 80.01 C 173.17 86.54 170.93 93.08 168.55 99.54 C 167.37 102.76 164.18 103.93 161.00 102.97 C 160.93 101.97 160.91 100.96 160.93 99.95 C 161.90 100.08 162.88 100.19 163.86 100.30 C 164.98 99.43 166.43 97.77 165.85 96.23 C 163.97 90.81 161.82 85.42 159.87 80.01 Z" fill="#464543" />
<path d="M 201.42 79.97 C 202.53 79.97 203.64 79.99 204.75 80.05 C 204.73 85.38 204.76 90.72 204.75 96.06 C 203.82 96.47 202.71 96.57 201.44 96.36 C 201.33 90.91 201.39 85.43 201.42 79.97 Z" fill="#41403e" />
<path d="M 208.70 80.01 C 209.77 79.98 210.85 79.98 211.92 80.00 L 211.96 82.33 C 213.39 80.33 217.11 78.64 218.75 81.14 C 218.45 81.87 218.13 82.59 217.80 83.31 C 215.30 82.66 213.07 83.60 212.37 86.17 C 211.68 89.40 212.21 92.91 212.05 96.21 C 210.92 96.40 209.78 96.45 208.61 96.37 C 208.75 90.91 208.63 85.46 208.70 80.01 Z" fill="#4b4243" />
<path d="M 233.40 82.62 C 234.73 84.36 234.68 86.85 234.74 88.94 C 230.66 89.33 226.64 88.65 222.62 89.16 C 222.94 91.28 223.96 93.17 226.18 93.74 C 228.87 94.45 230.82 93.08 232.32 90.95 C 233.22 91.39 234.11 91.85 234.99 92.34 C 232.60 96.85 226.76 98.21 222.52 95.49 C 218.85 93.15 218.38 87.78 219.88 84.03 C 221.81 78.74 230.32 78.19 233.40 82.62 Z" fill="#433d3d" />
<path d="M 54.57 80.93 C 55.36 82.95 55.84 84.72 57.94 85.78 C 59.15 84.95 60.28 84.02 61.39 83.07 C 61.54 85.88 59.56 86.04 57.60 87.18 C 55.18 85.58 53.02 84.18 54.57 80.93 Z" fill="#dca187" />
<path d="M 227.80 82.35 C 230.21 82.69 230.79 84.33 231.74 86.25 C 228.75 86.61 225.69 86.48 222.69 86.45 C 223.00 83.94 225.12 81.69 227.80 82.35 Z" fill="#fffdfd" />
<path d="M 139.22 83.24 C 140.10 82.88 140.99 82.63 141.90 82.52 C 147.54 83.36 147.67 93.26 141.97 93.87 C 136.35 94.54 134.96 85.54 139.22 83.24 Z" fill="#fefdfb" />
<path d="M 243.28 83.29 C 245.13 82.19 246.69 82.45 248.43 83.61 C 250.26 86.12 250.95 90.23 248.61 92.61 C 246.79 94.93 242.59 94.17 241.63 91.39 C 240.20 89.19 240.75 84.47 243.28 83.29 Z" fill="#fffbfb" />
<path d="M 68.43 88.58 C 70.08 90.04 69.58 92.67 67.88 93.95 C 65.30 94.91 62.60 94.09 62.59 91.00 C 62.14 87.98 66.58 86.40 68.43 88.58 Z" fill="#454445" />
<path d="M 31.55 89.53 C 33.25 87.85 33.61 88.91 35.40 89.66 C 35.48 90.30 35.53 90.94 35.55 91.58 C 35.02 92.22 34.46 92.83 33.86 93.41 C 33.06 93.17 32.30 92.82 31.57 92.35 C 31.42 91.38 31.41 90.43 31.55 89.53 Z" fill="#c76459" />
<path d="M 49.97 88.77 C 50.61 89.24 51.21 89.78 51.76 90.37 C 51.50 92.20 51.33 93.26 49.09 93.05 C 46.92 92.11 47.74 89.09 49.97 88.77 Z" fill="#626668" />
<path d="M 40.40 90.31 C 41.59 88.79 43.69 90.22 42.84 91.87 C 41.67 92.85 39.24 92.04 40.40 90.31 Z" fill="#a5acae" />
<path d="M 57.01 90.23 C 58.20 89.67 58.90 89.95 59.12 91.05 C 58.74 93.27 55.70 91.92 57.01 90.23 Z" fill="#93949a" />
<path d="M 44.22 95.77 C 45.38 97.45 46.40 99.13 45.00 101.03 C 44.18 102.95 42.01 103.63 40.14 102.80 C 37.25 102.05 36.45 97.69 38.96 95.95 C 40.63 94.48 42.40 94.83 44.22 95.77 Z" fill="#494345" />
<path d="M 60.04 95.65 C 58.55 96.35 57.12 96.30 55.74 95.51 C 56.84 94.40 58.94 94.64 60.04 95.65 Z" fill="#cd897b" />
<path d="M 54.94 96.20 L 55.74 95.51 C 57.12 96.30 58.55 96.35 60.04 95.65 L 61.31 96.57 C 60.44 98.22 59.78 100.10 58.64 101.58 C 56.07 102.25 55.60 97.78 54.95 96.30 C 52.58 99.14 54.11 101.64 56.77 103.44 L 59.11 103.21 C 57.70 103.26 56.20 103.92 55.01 102.94 C 53.04 101.48 53.51 99.44 53.60 97.28 C 53.58 96.32 54.03 95.96 54.94 96.20 Z" fill="#fa602b" />
<path d="M 32.53 97.54 C 34.45 95.88 36.27 99.15 34.55 100.56 C 32.50 102.22 30.72 98.77 32.53 97.54 Z" fill="#afaaab" />
<path d="M 50.89 96.99 C 52.03 98.80 52.34 99.26 50.91 101.06 C 50.04 101.29 49.14 101.19 48.21 100.77 C 46.70 98.45 48.15 96.36 50.89 96.99 Z" fill="#9d9c9f" />
<path d="M 54.95 96.30 C 55.60 97.78 56.07 102.25 58.64 101.58 C 59.78 100.10 60.44 98.22 61.31 96.57 C 63.01 99.00 61.80 102.20 59.11 103.21 L 56.77 103.44 C 54.11 101.64 52.58 99.14 54.95 96.30 Z" fill="#c97e5c" />
<path d="M 68.06 99.02 C 67.68 99.92 66.99 100.69 65.98 101.34 C 64.53 100.34 62.83 99.38 64.64 97.62 C 66.02 96.18 67.39 97.75 68.06 99.02 Z" fill="#a9a9a8" />
</svg>