<?xml version="1.0" encoding="UTF-8" standalone="no"?>
<!DOCTYPE svg PUBLIC "-//W3C//DTD SVG 1.1//EN" "http://www.w3.org/Graphics/SVG/1.1/DTD/svg11.dtd">
<svg xmlns="http://www.w3.org/2000/svg" version="1.1" viewBox="0 0 300 130" width="300.0pt" height="130.0pt">
<path d="M 0.00 0.00 L 300.00 0.00 L 300.00 130.00 L 0.00 130.00 L 0.00 0.00 Z" fill="#ffffff" />
<path d="M 145.58 50.65 C 146.57 50.17 147.55 49.68 148.54 49.20 C 148.80 53.35 148.91 57.49 148.47 61.64 C 145.57 58.97 145.50 54.75 142.54 52.44 C 139.53 50.03 135.14 50.94 132.58 53.56 C 130.03 56.24 129.13 60.40 128.99 63.99 C 128.85 68.59 130.01 73.30 133.71 76.34 C 137.04 79.22 142.65 78.92 145.58 75.61 C 146.92 74.08 148.06 72.36 149.31 70.76 C 150.41 74.18 147.99 76.61 145.62 78.67 C 139.80 82.84 130.65 81.43 126.59 75.43 C 121.39 68.21 122.80 55.51 130.92 50.91 C 135.59 48.13 140.74 48.61 145.58 50.65 Z" fill="#235b79" />
<path d="M 30.50 50.75 C 39.25 50.75 48.00 50.75 56.75 50.75 C 56.75 52.75 56.75 54.75 56.75 56.75 C 53.58 56.75 50.42 56.75 47.25 56.75 C 47.25 64.58 47.25 72.42 47.25 80.25 C 44.92 80.25 42.58 80.25 40.25 80.25 C 40.25 72.42 40.25 64.58 40.25 56.75 C 37.00 56.75 33.75 56.75 30.51 56.75 C 30.50 54.75 30.50 52.75 30.50 50.75 Z" fill="#235b79" />
<path d="M 99.50 50.75 C 101.59 50.75 103.67 50.75 105.76 50.75 C 105.76 54.23 105.76 57.71 105.68 61.18 C 108.82 59.18 111.66 57.42 115.54 58.61 C 118.50 59.48 119.66 62.12 120.00 64.96 C 120.54 70.01 120.16 75.17 120.24 80.24 C 117.99 80.25 115.75 80.25 113.50 80.26 C 113.27 75.35 114.14 69.93 112.91 65.18 C 110.66 62.81 106.16 64.79 106.13 67.98 C 105.79 72.04 106.04 76.17 106.01 80.25 C 103.84 80.25 101.67 80.25 99.50 80.25 C 99.50 70.42 99.50 60.58 99.50 50.75 Z" fill="#235b79" />
<path d="M 72.94 61.98 C 75.01 64.70 75.02 68.23 75.50 71.47 C 70.23 71.54 65.00 71.38 59.74 71.71 C 60.94 72.89 62.21 74.89 63.96 75.26 C 66.79 75.88 70.09 75.24 72.93 74.84 C 73.31 76.45 73.68 78.07 74.05 79.68 C 68.68 80.77 63.37 81.62 58.45 78.55 C 51.91 74.38 52.74 63.03 59.53 59.49 C 63.79 57.27 69.97 57.95 72.94 61.98 Z" fill="#235b79" />
<path d="M 95.35 59.07 C 95.00 60.67 94.65 62.27 94.30 63.87 C 91.83 63.74 88.58 63.07 86.34 64.33 C 82.83 66.37 82.77 72.60 86.40 74.59 C 88.55 76.02 91.87 75.19 94.31 75.07 C 94.65 76.67 94.99 78.27 95.32 79.88 C 90.19 80.86 85.44 81.44 81.08 77.94 C 75.33 73.48 75.92 63.85 82.21 60.17 C 86.44 57.54 90.72 58.16 95.35 59.07 Z" fill="#235b79" />
<path d="M 167.92 61.19 C 169.89 66.09 167.81 72.41 169.18 77.50 C 170.44 78.12 171.72 78.70 173.02 79.23 C 171.35 79.94 169.93 81.00 168.05 80.77 C 166.63 80.74 165.39 79.24 164.30 78.45 C 161.46 80.18 158.85 81.50 155.41 80.52 C 151.15 79.22 150.86 72.70 154.49 70.51 C 157.70 68.66 161.50 67.78 164.94 66.40 C 164.49 64.79 164.18 63.03 163.43 61.53 C 162.06 59.58 159.94 60.50 157.91 60.49 C 157.59 62.46 158.78 65.60 155.92 65.94 C 153.08 66.78 152.16 62.65 154.05 61.05 C 157.09 57.59 165.32 56.92 167.92 61.19 Z" fill="#235b79" />
<path d="M 208.48 60.51 C 210.87 62.76 210.76 65.96 211.25 68.99 C 206.40 69.02 201.55 68.98 196.70 69.02 C 197.15 71.30 197.31 74.27 198.92 76.07 C 200.72 78.33 204.15 78.93 206.62 77.60 C 207.95 76.67 209.05 75.34 210.17 74.18 L 211.77 75.74 C 208.71 79.12 205.84 81.51 200.95 80.75 C 192.55 80.09 190.26 69.22 194.01 62.99 C 196.81 57.92 204.21 56.61 208.48 60.51 Z" fill="#235b79" />
<path d="M 230.21 60.81 C 232.29 62.87 232.12 66.25 232.47 68.97 C 227.62 69.02 222.78 68.95 217.94 69.08 C 218.48 71.29 218.83 74.00 220.13 75.90 C 221.64 78.00 224.53 78.66 226.96 78.09 C 228.77 77.41 230.20 75.54 231.57 74.23 C 232.11 74.63 232.66 75.03 233.21 75.44 C 231.42 77.31 229.44 79.96 226.80 80.54 C 222.74 81.28 218.40 80.67 215.87 77.10 C 212.72 72.46 212.89 65.02 216.98 60.97 C 220.39 57.48 226.76 57.26 230.21 60.81 Z" fill="#235b79" />
<path d="M 265.41 58.88 C 266.22 58.52 267.02 58.16 267.83 57.80 C 268.07 60.50 268.22 63.20 268.24 65.92 C 265.96 63.86 263.82 59.42 260.19 60.27 C 257.72 60.67 256.81 62.76 257.88 64.98 C 260.82 67.33 266.02 67.62 268.38 70.57 C 271.10 74.61 268.40 79.81 263.82 80.62 C 260.41 80.93 256.90 80.09 253.47 80.03 C 253.37 77.31 253.32 74.60 253.41 71.88 C 255.04 73.81 256.45 76.04 258.30 77.77 C 260.15 79.38 263.01 79.38 264.96 77.96 C 266.02 76.72 266.17 74.33 264.80 73.26 C 262.02 71.33 257.86 70.92 255.39 68.60 C 252.73 66.07 253.52 61.41 256.53 59.52 C 259.37 57.65 262.29 58.47 265.41 58.88 Z" fill="#235b79" />
<path d="M 173.42 59.19 C 176.13 59.00 178.83 58.82 181.54 58.66 C 181.49 59.66 181.43 60.66 181.37 61.65 C 182.81 60.58 184.33 59.28 186.01 58.62 C 187.80 58.26 189.98 58.36 190.57 60.46 C 191.20 62.14 190.42 65.28 188.13 64.72 C 185.99 64.82 186.06 62.33 185.17 60.91 C 183.96 61.92 182.74 62.94 181.53 63.96 C 181.56 68.28 181.21 72.70 181.73 76.99 C 183.16 78.22 184.95 79.07 186.56 80.07 C 182.40 80.07 177.13 81.13 173.33 79.17 C 174.61 78.78 175.89 78.38 177.17 78.00 C 177.18 73.03 177.57 67.95 177.05 63.00 C 176.31 61.48 174.58 60.42 173.42 59.19 Z" fill="#235b79" />
<path d="M 234.43 59.17 C 237.15 58.99 239.86 58.82 242.58 58.67 C 242.49 59.60 242.40 60.53 242.31 61.46 C 244.60 59.97 246.98 57.68 249.93 58.69 C 252.50 59.51 252.40 65.09 249.13 64.77 C 247.03 64.74 246.96 62.25 246.02 60.83 C 244.48 62.44 242.26 63.41 242.51 65.94 C 242.42 69.60 242.26 73.34 242.72 76.97 C 243.63 78.32 245.91 78.75 247.22 79.61 C 242.97 80.59 238.78 80.28 234.47 80.17 C 235.66 79.15 237.05 78.22 238.05 77.01 C 238.44 72.77 238.45 67.21 238.05 62.98 C 237.07 61.55 235.63 60.42 234.43 59.17 Z" fill="#235b79" />
<path d="M 201.99 60.20 C 205.91 60.15 205.91 64.14 206.83 66.93 C 203.42 67.01 200.01 67.02 196.60 66.96 C 197.60 63.89 198.11 60.57 201.99 60.20 Z" fill="#ffffff" />
<path d="M 226.44 61.56 C 227.37 63.14 227.69 65.15 228.18 66.90 C 224.75 67.01 221.33 67.02 217.90 66.94 C 218.42 65.47 218.92 63.94 219.61 62.55 C 220.78 60.09 224.69 59.27 226.44 61.56 Z" fill="#ffffff" />
<path d="M 64.98 63.23 C 67.18 63.15 68.28 65.74 69.50 67.17 C 66.32 67.27 63.15 67.26 59.97 67.15 C 61.50 65.44 62.31 63.10 64.98 63.23 Z" fill="#ffffff" />
<path d="M 164.44 68.45 C 164.49 71.02 164.51 73.59 164.54 76.16 C 162.61 77.11 160.43 79.17 158.21 77.86 C 156.28 77.17 156.45 74.69 157.04 73.12 C 158.22 70.55 162.08 69.56 164.44 68.45 Z" fill="#ffffff" />
</svg>