<?xml version="1.0" encoding="UTF-8" standalone="no"?>
<!DOCTYPE svg PUBLIC "-//W3C//DTD SVG 1.1//EN" "http://www.w3.org/Graphics/SVG/1.1/DTD/svg11.dtd">
<svg xmlns="http://www.w3.org/2000/svg" version="1.1" viewBox="0 0 364 364" width="364.0pt" height="364.0pt">
<path d="M 0.00 0.00 L 364.00 0.00 L 364.00 364.00 L 0.00 364.00 L 0.00 0.00 Z" fill="#ffffff" />
<path d="M 87.00 99.13 C 89.25 99.40 91.45 100.40 93.58 101.14 C 101.97 104.14 110.35 107.18 118.78 110.07 C 108.23 113.96 97.59 117.63 87.01 121.45 C 78.79 118.49 70.55 115.58 62.32 112.63 C 62.31 114.45 62.26 116.31 62.39 118.12 C 62.67 120.75 64.77 123.29 64.14 125.94 C 63.76 127.89 62.61 129.25 61.46 130.79 C 60.17 128.40 58.14 125.69 58.64 122.84 C 59.26 121.33 60.20 120.13 61.14 118.82 C 61.21 116.70 61.25 114.58 61.31 112.47 C 59.32 111.64 57.32 110.83 55.33 110.03 C 63.49 107.28 71.58 104.30 79.70 101.41 C 82.08 100.60 84.51 99.46 87.00 99.13 Z" fill="#0a0a0a" />
<path d="M 87.00 106.65 C 87.87 106.94 88.74 107.26 89.60 107.59 C 89.50 108.24 89.39 108.90 89.28 109.56 C 87.77 109.52 86.25 109.51 84.74 109.55 C 84.63 108.90 84.53 108.25 84.43 107.60 C 85.28 107.27 86.14 106.95 87.00 106.65 Z" fill="#ffffff" />
<path d="M 68.90 119.03 C 73.94 120.53 78.80 122.40 83.73 124.20 C 85.58 124.77 86.99 125.72 88.95 124.86 C 94.37 123.04 99.70 120.94 105.15 119.18 C 105.16 123.29 105.15 127.39 105.18 131.50 C 103.10 130.84 100.88 130.06 98.71 129.84 C 93.96 129.74 89.83 131.54 87.01 135.43 C 82.79 129.49 75.52 128.60 69.13 131.50 C 68.82 127.34 68.77 123.20 68.90 119.03 Z" fill="#0a0a0a" />
<path d="M 49.02 134.97 C 53.42 138.89 55.36 144.08 56.44 149.74 C 52.32 149.80 48.20 149.80 44.08 149.73 C 43.07 147.17 42.25 144.76 40.14 142.86 C 34.33 136.94 22.74 138.41 19.17 146.15 C 16.21 151.74 16.07 158.87 16.62 165.03 C 17.28 170.55 19.32 176.71 24.67 179.32 C 29.66 181.57 36.85 180.90 40.53 176.51 C 42.38 174.43 43.15 171.80 44.05 169.22 C 48.16 169.15 52.27 169.16 56.38 169.22 C 54.50 176.95 51.08 183.92 43.89 187.96 C 35.63 192.63 24.70 192.18 16.58 187.42 C 9.01 182.98 4.80 173.99 4.12 165.48 C 3.15 155.86 4.70 144.75 11.17 137.14 C 20.22 126.50 38.75 125.70 49.02 134.97 Z" fill="#0a0a0a" />
<path d="M 299.59 131.42 C 306.49 134.62 311.50 140.88 312.16 148.58 C 308.11 148.62 304.05 148.63 300.00 148.58 C 298.00 140.75 289.43 137.15 282.06 139.34 C 275.77 141.06 272.09 146.70 270.88 152.83 C 269.83 158.86 269.87 165.85 272.56 171.48 C 274.36 175.37 277.72 178.84 281.86 180.18 C 287.36 181.60 293.29 180.51 297.19 176.18 C 299.64 173.76 300.42 170.74 300.92 167.45 C 296.51 167.38 292.11 167.42 287.71 167.40 C 287.71 164.14 287.71 160.88 287.71 157.63 C 295.91 157.61 304.11 157.61 312.30 157.62 C 312.30 168.16 312.32 178.69 312.30 189.23 C 308.93 189.23 305.57 189.24 302.20 189.28 C 302.12 187.51 302.01 185.73 301.85 183.96 C 293.23 193.72 276.61 193.48 267.52 184.49 C 255.86 173.28 254.51 152.69 263.57 139.56 C 271.53 128.21 287.50 125.90 299.59 131.42 Z" fill="#0a0a0a" />
<path d="M 122.42 130.49 C 126.49 130.49 130.56 130.49 134.63 130.49 C 134.64 146.50 134.64 162.52 134.63 178.54 C 144.32 178.56 154.00 178.55 163.69 178.54 C 163.70 182.11 163.70 185.68 163.67 189.24 C 149.93 189.24 136.19 189.23 122.45 189.25 C 122.39 169.66 122.44 150.07 122.42 130.49 Z" fill="#0a0a0a" />
<path d="M 166.26 130.49 C 170.34 130.49 174.41 130.49 178.48 130.49 C 178.47 146.51 178.48 162.53 178.48 178.55 C 188.16 178.54 197.85 178.55 207.53 178.54 C 207.54 182.11 207.54 185.68 207.51 189.24 C 193.77 189.24 180.03 189.24 166.30 189.24 C 166.24 169.66 166.30 150.08 166.26 130.49 Z" fill="#0a0a0a" />
<path d="M 211.72 130.61 C 226.08 130.59 240.43 130.61 254.78 130.60 C 254.77 133.96 254.77 137.33 254.78 140.70 C 244.40 140.69 234.02 140.69 223.64 140.70 C 223.63 144.89 223.63 149.09 223.64 153.28 C 233.23 153.31 242.82 153.26 252.41 153.31 C 252.40 156.75 252.40 160.18 252.40 163.62 C 242.81 163.64 233.22 163.62 223.64 163.64 C 223.63 168.67 223.63 173.70 223.63 178.73 C 234.53 178.75 245.42 178.73 256.31 178.74 C 256.33 182.24 256.33 185.74 256.31 189.23 C 241.45 189.24 226.60 189.25 211.74 189.23 C 211.71 169.69 211.74 150.15 211.72 130.61 Z" fill="#0a0a0a" />
<path d="M 318.32 130.59 C 332.68 130.61 347.04 130.59 361.40 130.60 C 361.40 133.96 361.40 137.32 361.41 140.68 C 351.03 140.71 340.65 140.69 330.27 140.69 C 330.24 144.89 330.24 149.09 330.25 153.29 C 339.77 153.28 349.29 153.29 358.81 153.29 C 358.81 156.73 358.81 160.18 358.82 163.63 C 349.29 163.63 339.77 163.63 330.25 163.62 C 330.24 168.66 330.24 173.70 330.25 178.74 C 341.07 178.73 351.88 178.74 362.70 178.74 C 362.73 182.24 362.73 185.74 362.70 189.25 C 347.91 189.24 333.12 189.24 318.33 189.24 C 318.29 169.69 318.32 150.14 318.32 130.59 Z" fill="#0a0a0a" />
<path d="M 86.01 138.34 C 86.66 138.38 87.30 138.41 87.95 138.44 C 89.73 136.39 91.56 135.06 94.21 134.42 C 98.38 133.09 101.60 134.89 106.05 134.73 C 113.19 141.25 115.54 150.63 115.60 160.00 C 115.75 168.21 114.21 177.22 108.47 183.47 C 103.16 189.18 95.57 191.08 88.02 191.26 C 80.59 191.20 73.21 189.58 67.71 184.25 C 61.65 178.40 59.67 170.17 59.44 162.00 C 59.18 153.49 60.79 144.13 66.41 137.43 C 68.04 135.20 70.38 134.93 72.88 134.28 C 77.53 133.16 82.96 134.51 86.01 138.34 Z" fill="#0a0a0a" />
<path d="M 81.45 140.57 C 87.09 138.35 94.83 139.32 98.87 144.16 C 102.41 148.39 103.48 154.64 103.48 160.00 C 103.59 165.50 102.53 171.51 98.81 175.77 C 94.00 181.34 84.80 181.91 78.71 178.28 C 74.13 175.42 72.49 170.57 71.79 165.47 C 71.28 159.59 71.40 153.31 73.91 147.86 C 75.44 144.57 78.03 141.87 81.45 140.57 Z" fill="#ffffff" />
<path d="M 125.41 200.58 C 128.24 203.58 129.40 207.27 130.09 211.26 C 126.95 211.28 123.81 211.29 120.68 211.29 C 119.43 208.84 118.53 206.41 116.19 204.78 C 112.19 201.83 106.26 202.30 102.69 205.68 C 99.67 208.78 98.67 213.83 98.54 218.00 C 98.40 222.42 98.93 227.75 101.53 231.48 C 104.49 236.05 111.49 236.72 115.84 233.95 C 118.56 232.17 119.38 229.29 120.63 226.47 C 123.78 226.48 126.93 226.49 130.07 226.52 C 128.58 234.01 124.32 240.48 116.82 242.94 C 109.28 244.91 100.59 243.88 95.00 238.00 C 88.62 231.26 87.57 220.76 89.42 212.03 C 90.81 205.23 94.68 199.16 101.20 196.30 C 108.91 192.92 119.55 194.17 125.41 200.58 Z" fill="#741a19" />
<path d="M 4.36 196.24 C 10.22 195.95 16.12 196.25 22.00 196.13 C 27.22 196.24 31.89 195.39 36.42 198.62 C 43.63 203.55 43.82 216.15 35.37 220.02 C 37.84 221.55 40.00 222.76 40.37 225.93 C 40.91 231.36 40.48 236.89 40.60 242.34 C 37.46 242.34 34.32 242.34 31.18 242.34 C 31.09 237.91 31.43 233.41 31.00 229.00 C 30.73 226.97 30.17 225.47 28.13 224.70 C 23.42 223.81 18.38 224.38 13.59 224.25 C 13.58 230.28 13.59 236.31 13.58 242.34 C 10.48 242.34 7.37 242.34 4.27 242.35 C 4.32 226.99 4.12 211.57 4.36 196.24 Z" fill="#741a19" />
<path d="M 48.47 196.24 C 59.76 195.99 71.10 196.21 82.39 196.15 C 82.38 198.82 82.37 201.48 82.35 204.14 C 74.13 204.16 65.91 204.12 57.69 204.17 C 57.69 207.42 57.68 210.66 57.66 213.91 C 65.23 214.37 72.84 214.03 80.42 214.14 C 80.41 216.83 80.41 219.53 80.40 222.22 C 72.83 222.24 65.25 222.20 57.68 222.25 C 57.69 226.17 57.68 230.10 57.67 234.03 C 66.26 234.32 74.87 234.11 83.46 234.16 C 83.46 236.89 83.46 239.62 83.45 242.34 C 71.77 242.34 60.08 242.33 48.39 242.35 C 48.44 227.00 48.24 211.58 48.47 196.24 Z" fill="#741a19" />
<path d="M 135.78 196.17 C 143.87 196.14 151.95 196.10 160.04 196.16 C 165.74 196.08 171.18 199.57 172.80 205.16 C 174.58 211.02 172.74 217.23 167.06 220.04 C 169.23 221.44 171.27 222.34 171.82 225.12 C 172.86 230.70 172.11 236.66 172.32 242.33 C 169.12 242.34 165.92 242.34 162.72 242.33 C 162.61 237.63 162.98 232.85 162.52 228.17 C 162.28 226.08 160.56 224.66 158.51 224.45 C 154.14 223.99 149.67 224.32 145.28 224.24 C 145.28 230.27 145.28 236.30 145.28 242.34 C 142.11 242.34 138.95 242.34 135.79 242.33 C 135.78 226.94 135.79 211.56 135.78 196.17 Z" fill="#741a19" />
<path d="M 180.23 196.23 C 183.41 196.00 186.62 196.15 189.80 196.15 C 189.83 206.12 189.76 216.09 189.82 226.06 C 189.89 230.09 191.04 234.05 195.20 235.51 C 198.25 236.13 202.37 236.09 204.85 233.92 C 207.16 231.85 207.39 228.92 207.44 226.00 C 207.43 216.04 207.42 206.09 207.43 196.13 C 210.73 196.14 214.03 196.14 217.33 196.15 C 217.31 206.43 217.35 216.73 217.33 227.01 C 217.26 232.19 215.79 237.22 211.43 240.37 C 206.21 244.15 200.20 244.01 194.04 243.61 C 189.23 243.10 184.11 240.54 181.85 236.09 C 179.81 232.41 180.17 228.06 180.12 224.00 C 180.24 214.75 179.97 205.47 180.23 196.23 Z" fill="#741a19" />
<path d="M 224.65 196.15 C 227.89 196.14 231.12 196.14 234.35 196.14 C 234.35 211.54 234.36 226.94 234.35 242.34 C 231.12 242.34 227.89 242.34 224.66 242.33 C 224.65 226.94 224.66 211.55 224.65 196.15 Z" fill="#741a19" />
<path d="M 240.52 196.24 C 253.04 196.03 265.63 196.13 278.16 196.21 C 277.85 198.35 279.00 202.67 277.19 204.04 C 272.77 204.34 268.31 204.04 263.87 204.21 C 263.88 216.92 263.88 229.63 263.87 242.34 C 260.71 242.34 257.55 242.34 254.40 242.34 C 254.37 229.61 254.39 216.88 254.38 204.15 C 249.74 204.15 245.09 204.16 240.45 204.10 C 240.43 201.49 240.30 198.84 240.52 196.24 Z" fill="#741a19" />
<path d="M 284.34 196.24 C 295.62 196.01 306.94 196.18 318.22 196.17 C 318.24 198.70 318.27 201.24 318.30 203.77 C 310.10 204.56 301.79 203.96 293.55 204.15 C 293.55 207.48 293.55 210.80 293.59 214.13 C 301.15 214.15 308.72 214.11 316.29 214.16 C 316.28 216.85 316.28 219.53 316.27 222.22 C 308.70 222.24 301.13 222.22 293.56 222.22 C 293.55 226.21 293.54 230.19 293.59 234.17 C 302.17 234.18 310.74 234.16 319.32 234.18 C 319.32 236.90 319.32 239.62 319.31 242.33 C 307.63 242.35 295.94 242.34 284.25 242.34 C 284.32 226.99 284.11 211.57 284.34 196.24 Z" fill="#741a19" />
<path d="M 325.30 196.24 C 333.20 196.00 341.13 196.19 349.03 196.15 C 353.69 196.08 358.29 198.19 360.74 202.25 C 364.27 208.38 363.12 216.76 356.29 220.01 C 358.68 221.51 360.75 222.68 361.23 225.72 C 361.91 231.18 361.38 236.83 361.53 242.34 C 358.40 242.34 355.28 242.34 352.16 242.34 C 352.04 237.61 352.53 232.67 351.71 228.00 C 351.45 226.05 350.01 224.76 348.09 224.50 C 343.61 223.96 339.00 224.32 334.49 224.25 C 334.50 230.28 334.50 236.31 334.49 242.34 C 331.40 242.34 328.30 242.34 325.21 242.34 C 325.27 226.99 325.06 211.57 325.30 196.24 Z" fill="#741a19" />
<path d="M 13.59 204.15 C 17.74 204.18 21.89 204.07 26.04 204.15 C 27.64 204.26 29.38 204.17 30.65 205.31 C 34.26 208.28 33.13 215.57 27.97 216.09 C 23.24 216.63 18.37 216.21 13.60 216.32 C 13.58 212.26 13.58 208.20 13.59 204.15 Z" fill="#ffffff" />
<path d="M 145.29 204.14 C 150.41 204.31 155.71 203.75 160.79 204.47 C 165.95 206.22 165.60 214.96 160.01 216.01 C 155.19 216.70 150.16 216.18 145.30 216.32 C 145.27 212.26 145.27 208.20 145.29 204.14 Z" fill="#ffffff" />
<path d="M 334.50 204.15 C 339.57 204.29 344.78 203.79 349.82 204.43 C 354.94 205.76 354.95 214.45 349.85 215.83 C 344.92 216.87 339.54 216.11 334.51 216.32 C 334.49 212.26 334.49 208.20 334.50 204.15 Z" fill="#ffffff" />
</svg>