<?xml version="1.0" encoding="UTF-8" standalone="no"?>
<!DOCTYPE svg PUBLIC "-//W3C//DTD SVG 1.1//EN" "http://www.w3.org/Graphics/SVG/1.1/DTD/svg11.dtd">
<svg xmlns="http://www.w3.org/2000/svg" version="1.1" viewBox="0 0 300 130" width="300.0pt" height="130.0pt">
<path d="M 0.00 0.00 L 300.00 0.00 L 300.00 130.00 L 0.00 130.00 L 0.00 0.00 Z" fill="#ffffff" />
<path d="M 118.64 36.96 C 118.57 37.60 118.50 38.25 118.43 38.90 C 116.42 39.92 111.15 40.50 112.17 43.79 C 113.44 49.45 119.74 53.81 124.14 57.10 L 123.00 58.86 C 117.99 55.00 111.29 49.45 109.96 42.99 C 110.36 39.06 115.64 38.18 118.64 36.96 Z" fill="#d5d5d8" />
<path d="M 187.40 50.15 C 188.09 50.45 188.77 50.76 189.45 51.07 C 189.43 51.54 189.40 52.01 189.37 52.49 C 192.08 57.59 192.92 64.28 189.07 69.04 C 185.44 73.96 180.28 76.07 174.62 77.78 C 176.65 80.19 178.72 82.56 180.91 84.84 C 183.77 84.35 186.27 83.38 188.96 85.07 C 192.83 87.33 193.44 93.15 190.20 96.20 C 187.09 99.23 181.36 98.60 179.14 94.80 C 177.47 92.15 178.57 89.47 179.07 86.65 C 178.60 85.89 178.13 85.14 177.67 84.38 L 176.90 83.18 C 176.47 83.07 176.04 82.98 175.61 82.89 C 174.38 81.27 173.15 79.65 171.88 78.05 C 170.35 78.22 168.82 78.40 167.29 78.61 L 167.34 77.65 C 162.71 77.40 158.13 76.80 153.63 75.65 C 150.80 74.91 147.91 74.26 145.57 72.40 C 143.27 70.69 141.64 68.38 139.49 66.60 C 137.29 65.26 133.89 65.46 131.43 65.38 L 134.45 63.88 L 129.74 64.62 L 131.05 63.01 C 129.68 62.75 128.30 62.51 126.93 62.28 L 127.82 61.82 C 126.19 60.86 124.57 59.92 123.00 58.86 L 124.14 57.10 C 127.48 59.49 131.17 62.82 135.26 63.67 C 137.65 64.12 140.05 63.23 140.98 60.86 C 142.32 57.49 140.49 52.97 139.65 49.59 C 140.40 49.48 141.15 49.36 141.90 49.24 C 142.34 51.17 142.83 53.10 143.18 55.05 C 143.82 58.66 142.67 62.63 142.86 66.22 C 144.44 69.05 147.65 71.12 150.49 72.54 C 156.81 75.76 163.52 76.25 170.49 76.04 C 167.09 69.47 165.05 62.67 168.63 55.64 C 171.92 48.72 180.91 45.17 187.40 50.15 Z" fill="#0055a5" />
<path d="M 176.25 51.21 C 180.77 49.05 186.63 50.38 189.15 54.89 C 191.66 59.25 189.36 64.85 186.43 68.41 C 182.89 72.67 178.21 74.18 173.09 75.68 C 171.34 72.18 169.53 68.97 169.15 65.00 C 168.62 59.64 171.25 53.61 176.25 51.21 Z" fill="#ffffff" />
<path d="M 101.00 81.25 C 102.25 81.25 103.50 81.25 104.75 81.25 C 104.75 86.67 104.75 92.08 104.75 97.50 C 103.50 97.50 102.25 97.50 101.00 97.50 C 101.00 92.08 101.00 86.66 101.00 81.25 Z" fill="#0055a5" />
<path d="M 113.75 81.25 C 115.09 81.25 116.43 81.25 117.77 81.26 C 117.75 83.32 117.73 85.38 117.69 87.44 C 119.35 87.41 121.06 87.18 122.70 87.41 C 125.59 89.13 124.50 94.67 124.84 97.48 C 123.52 97.49 122.21 97.50 120.89 97.51 C 120.76 94.89 120.84 92.32 120.13 89.77 C 116.43 90.68 118.15 94.66 117.65 97.52 C 116.35 97.51 115.05 97.50 113.75 97.49 C 113.75 92.07 113.75 86.66 113.75 81.25 Z" fill="#0055a5" />
<path d="M 192.75 81.24 C 194.02 81.25 195.28 81.26 196.54 81.26 C 196.51 83.34 196.46 85.41 196.40 87.49 C 198.04 87.44 199.95 87.02 201.56 87.50 C 205.91 89.15 205.51 96.85 200.82 97.77 C 198.14 97.88 195.43 97.44 192.75 97.39 C 192.75 92.01 192.75 86.62 192.75 81.24 Z" fill="#231f20" />
<path d="M 219.76 82.23 C 220.03 83.37 219.99 84.49 219.62 85.60 C 218.60 85.71 217.55 85.72 216.48 85.62 C 216.17 84.37 215.93 83.10 215.77 81.81 C 217.14 81.83 218.45 81.76 219.76 82.23 Z" fill="#231f20" />
<path d="M 73.75 82.74 C 73.75 87.66 73.75 92.58 73.75 97.50 C 72.42 97.50 71.09 97.50 69.75 97.50 C 69.75 95.58 69.75 93.67 69.74 91.75 C 68.00 91.75 66.25 91.75 64.50 91.75 C 64.50 93.67 64.50 95.58 64.50 97.50 C 63.08 97.50 61.67 97.50 60.25 97.51 C 60.25 92.59 60.25 87.67 60.25 82.75 C 61.67 82.75 63.08 82.75 64.50 82.75 C 64.50 84.67 64.50 86.58 64.50 88.50 C 66.25 88.50 68.00 88.50 69.75 88.50 C 69.75 86.59 69.75 84.67 69.75 82.75 C 71.08 82.75 72.41 82.75 73.75 82.74 Z" fill="#0055a5" />
<path d="M 173.54 82.49 L 175.61 82.89 C 176.04 82.98 176.47 83.07 176.90 83.18 L 177.67 84.38 C 177.54 87.56 177.64 90.77 177.34 93.94 C 177.07 96.16 175.93 97.46 173.76 97.95 C 171.34 98.47 169.89 96.99 167.91 95.91 C 170.11 94.24 170.39 93.76 173.29 94.17 C 173.53 90.28 173.51 86.39 173.54 82.49 Z" fill="#231f20" />
<path d="M 110.83 84.09 C 110.90 85.22 110.97 86.34 111.04 87.46 L 113.01 87.53 C 113.01 88.51 113.01 89.49 113.01 90.47 L 111.00 90.54 C 111.00 92.86 111.00 95.18 111.00 97.50 C 109.77 97.51 108.55 97.51 107.33 97.51 C 107.26 95.67 107.18 93.82 107.04 91.98 C 106.33 89.78 105.65 88.45 106.94 86.25 C 107.53 84.15 109.11 84.69 110.83 84.09 Z" fill="#0055a5" />
<path d="M 222.56 84.81 C 223.65 84.56 224.74 84.35 225.85 84.18 C 225.92 85.28 225.98 86.38 226.04 87.49 L 228.00 87.51 C 228.00 88.50 228.00 89.49 228.00 90.48 L 226.00 90.52 C 226.00 92.84 226.00 95.17 226.00 97.49 C 224.81 97.51 223.62 97.52 222.43 97.53 C 222.44 92.56 220.30 89.07 222.56 84.81 Z" fill="#231f20" />
<path d="M 183.38 86.35 C 187.12 84.89 190.90 88.07 190.23 92.00 C 189.55 96.18 184.24 97.46 181.43 94.53 C 179.05 91.96 180.03 87.53 183.38 86.35 Z" fill="#c0c6ce" />
<path d="M 84.14 87.92 C 85.76 88.81 86.04 91.56 86.76 93.12 C 83.85 93.20 80.95 93.29 78.06 93.66 C 81.04 95.52 83.64 94.22 86.98 94.34 C 84.74 96.90 82.83 98.75 79.17 97.78 C 74.83 96.99 74.05 91.53 76.57 88.56 C 78.50 86.76 81.89 86.76 84.14 87.92 Z" fill="#0055a5" />
<path d="M 90.36 87.45 C 93.20 87.13 96.14 87.56 99.00 87.55 C 99.00 90.83 99.00 94.12 99.00 97.41 C 96.15 97.45 93.16 98.01 90.34 97.64 C 85.87 96.05 85.87 88.95 90.36 87.45 Z" fill="#0055a5" />
<path d="M 133.43 87.35 C 133.98 88.23 134.46 89.16 134.86 90.13 C 133.16 90.44 131.64 90.42 130.11 91.18 C 130.04 92.12 130.01 93.06 130.03 94.00 C 131.61 94.48 133.23 94.74 134.85 95.00 C 133.89 96.54 134.06 97.92 131.95 97.98 C 128.54 98.19 125.56 95.56 125.99 92.02 C 126.43 88.20 129.86 86.43 133.43 87.35 Z" fill="#0055a5" />
<path d="M 138.45 87.52 C 141.29 86.99 144.38 87.58 147.25 87.58 C 147.25 90.85 147.25 94.12 147.25 97.39 C 144.58 97.48 141.86 97.88 139.18 97.74 C 134.49 96.94 134.10 89.07 138.45 87.52 Z" fill="#0055a5" />
<path d="M 149.40 87.72 C 151.93 87.48 154.47 87.51 157.00 87.34 C 157.00 88.32 157.00 89.30 157.00 90.28 C 155.90 90.76 154.67 90.98 153.61 91.54 C 153.15 93.46 153.26 95.54 153.07 97.50 C 151.79 97.50 150.52 97.50 149.25 97.50 C 149.26 94.25 149.09 90.95 149.40 87.72 Z" fill="#0055a5" />
<path d="M 165.53 87.54 C 167.92 88.17 168.31 91.21 169.27 93.15 C 166.38 93.23 163.50 93.28 160.62 93.40 C 161.29 93.95 161.97 94.50 162.64 95.05 C 164.86 94.65 167.06 94.34 169.30 94.22 C 166.96 96.90 165.08 98.84 161.26 97.73 C 156.99 96.91 156.14 90.72 159.30 88.24 C 160.95 86.91 163.60 86.92 165.53 87.54 Z" fill="#0055a5" />
<path d="M 214.61 87.49 C 213.37 89.87 212.10 89.82 209.60 90.18 C 211.33 91.04 213.17 91.52 214.45 92.90 C 214.67 94.69 214.27 96.53 212.52 97.38 C 210.17 98.48 207.73 97.61 205.30 97.23 C 205.68 96.26 206.06 95.30 206.45 94.33 C 208.07 94.65 209.69 94.93 211.32 95.19 C 209.63 94.08 207.74 93.16 206.19 91.87 C 206.19 90.44 206.11 89.24 207.28 88.22 C 209.02 86.56 212.46 87.48 214.61 87.49 Z" fill="#231f20" />
<path d="M 216.00 87.50 C 217.33 87.50 218.67 87.50 220.00 87.50 C 220.00 90.83 220.00 94.17 220.00 97.50 C 218.67 97.50 217.33 97.50 216.00 97.50 C 216.00 94.17 216.00 90.83 216.00 87.50 Z" fill="#231f20" />
<path d="M 237.14 87.91 C 238.82 88.80 239.23 91.52 239.95 93.13 C 236.99 93.21 234.05 93.25 231.11 93.65 C 234.05 95.69 236.58 94.17 239.95 94.30 C 237.99 96.70 236.44 98.48 233.05 97.92 C 229.15 97.62 227.18 93.53 228.70 90.08 C 230.06 86.90 234.38 86.46 237.14 87.91 Z" fill="#231f20" />
<path d="M 184.46 88.36 C 185.56 87.58 188.57 89.62 187.99 90.98 C 188.30 92.86 186.09 94.58 184.37 93.71 C 181.78 93.17 181.92 88.91 184.46 88.36 Z" fill="#231f20" />
<path d="M 83.30 90.39 C 81.82 91.60 80.11 91.69 78.63 90.41 C 80.16 89.05 81.74 89.11 83.30 90.39 Z" fill="#97badb" />
<path d="M 162.18 89.46 C 163.65 89.16 164.62 89.47 165.08 90.41 C 164.68 92.40 159.07 90.98 162.18 89.46 Z" fill="#9abcdc" />
<path d="M 236.11 90.42 C 235.54 92.13 232.76 91.20 231.71 90.43 C 232.84 89.56 235.40 88.66 236.11 90.42 Z" fill="#a3a2a2" />
<path d="M 93.02 90.19 C 93.61 90.46 94.20 90.73 94.79 91.01 C 95.06 91.93 95.26 92.87 95.38 93.84 C 94.57 94.18 93.75 94.53 92.94 94.89 C 92.18 94.47 91.41 94.05 90.65 93.62 C 90.88 92.80 91.11 91.98 91.36 91.16 C 91.90 90.82 92.45 90.50 93.02 90.19 Z" fill="#d6e4f1" />
<path d="M 140.51 90.54 C 143.16 89.78 144.79 93.06 142.44 94.37 C 139.74 95.48 137.95 92.10 140.51 90.54 Z" fill="#ffffff" />
<path d="M 199.00 90.21 C 199.85 90.97 200.69 91.75 201.51 92.54 C 200.15 93.30 198.44 95.93 197.05 93.95 C 195.45 91.85 197.16 91.02 199.00 90.21 Z" fill="#ffffff" />
</svg>