<?xml version="1.0" encoding="UTF-8" standalone="no"?>
<!DOCTYPE svg PUBLIC "-//W3C//DTD SVG 1.1//EN" "http://www.w3.org/Graphics/SVG/1.1/DTD/svg11.dtd">
<svg xmlns="http://www.w3.org/2000/svg" version="1.1" viewBox="0 0 425 215" width="425.0pt" height="215.0pt">
<path d="M 0.00 0.00 L 425.00 0.00 L 425.00 215.00 L 0.00 215.00 L 0.00 0.00 Z" fill="#ffffff" />
<path d="M 40.00 64.00 C 66.37 64.01 92.73 64.00 119.09 64.01 C 119.12 68.55 119.16 73.10 119.21 77.65 C 116.63 75.87 113.03 76.81 110.00 76.72 C 93.00 76.84 76.00 76.71 59.00 76.77 C 52.54 76.88 46.39 76.18 39.99 77.55 C 40.00 73.03 40.00 68.52 40.00 64.00 Z" fill="#28a7e0" />
<path d="M 119.21 77.65 C 119.25 81.30 119.18 84.96 119.21 88.62 C 114.45 86.17 110.19 87.51 105.11 87.18 C 98.78 86.91 92.60 87.71 86.30 86.77 C 83.90 84.33 81.00 82.85 77.51 83.59 C 74.63 83.98 72.94 85.80 71.22 87.94 C 70.78 87.45 70.33 86.96 69.89 86.47 C 64.21 87.81 58.75 86.90 53.00 87.01 C 48.43 87.09 44.41 86.04 40.00 87.73 C 40.00 84.33 40.00 80.94 39.99 77.55 C 46.39 76.18 52.54 76.88 59.00 76.77 C 76.00 76.71 93.00 76.84 110.00 76.72 C 113.03 76.81 116.63 75.87 119.21 77.65 Z" fill="#2998d5" />
<path d="M 77.51 83.59 C 81.00 82.85 83.90 84.33 86.30 86.77 C 88.68 90.81 88.33 94.32 85.67 98.08 C 83.16 99.98 80.65 101.36 77.39 100.59 C 74.20 99.84 72.50 97.62 70.62 95.16 C 70.53 92.72 70.69 90.33 71.22 87.94 C 72.94 85.80 74.63 83.98 77.51 83.59 Z" fill="#f7f7f7" />
<path d="M 53.00 87.01 C 58.75 86.90 64.21 87.81 69.89 86.47 C 70.33 86.96 70.78 87.45 71.22 87.94 C 70.69 90.33 70.53 92.72 70.62 95.16 C 70.02 94.77 69.42 94.38 68.80 94.01 C 68.77 94.88 68.74 95.74 68.72 96.61 C 63.05 95.88 57.69 95.59 52.00 96.20 C 47.66 96.67 43.59 95.20 39.97 97.65 C 40.00 94.34 40.02 91.03 40.00 87.73 C 44.41 86.04 48.43 87.09 53.00 87.01 Z" fill="#2b85c7" />
<path d="M 105.11 87.18 C 110.19 87.51 114.45 86.17 119.21 88.62 C 119.20 93.13 119.17 97.63 119.15 102.14 C 118.72 101.29 118.29 100.44 117.84 99.60 C 109.47 99.62 101.12 99.26 92.75 99.53 C 90.20 99.69 88.00 99.09 85.67 98.08 C 88.33 94.32 88.68 90.81 86.30 86.77 C 92.60 87.71 98.78 86.91 105.11 87.18 Z" fill="#2b81c5" />
<path d="M 131.15 87.19 C 132.92 87.18 134.68 87.18 136.45 87.17 C 136.45 88.74 136.45 90.31 136.46 91.88 C 134.72 91.87 132.97 91.87 131.23 91.87 C 131.21 90.31 131.18 88.75 131.15 87.19 Z" fill="#1a1716" />
<path d="M 251.92 87.46 C 251.90 90.39 251.86 93.32 251.74 96.24 C 254.15 94.59 256.05 93.79 259.02 94.11 C 262.04 94.08 264.74 97.00 264.61 99.98 C 264.80 104.68 264.63 109.41 264.59 114.12 C 262.85 114.12 261.12 114.12 259.39 114.12 C 259.11 109.44 259.78 104.51 259.00 99.91 C 257.72 96.72 252.79 98.02 252.18 101.12 C 251.49 105.35 252.02 109.82 251.83 114.10 C 250.12 114.11 248.41 114.11 246.71 114.11 C 246.76 105.22 246.70 96.33 246.70 87.44 C 248.44 87.44 250.18 87.45 251.92 87.46 Z" fill="#221e1f" />
<path d="M 266.66 87.29 C 268.37 87.14 270.10 87.17 271.82 87.15 C 271.81 88.71 271.80 90.28 271.79 91.84 C 270.02 91.85 268.25 91.86 266.48 91.87 C 266.52 90.34 266.53 88.81 266.66 87.29 Z" fill="#161212" />
<path d="M 158.31 88.96 C 159.99 88.83 161.70 88.88 163.39 88.88 C 163.39 90.69 163.39 92.50 163.39 94.31 C 167.01 94.32 170.63 94.32 174.25 94.32 C 174.25 95.51 174.24 96.71 174.23 97.90 C 170.62 97.86 167.02 97.86 163.41 97.86 C 163.42 101.24 163.15 104.71 163.59 108.06 C 163.92 110.28 166.89 111.01 168.27 109.22 C 169.81 107.16 169.11 103.59 169.32 101.18 C 171.01 101.15 172.70 101.14 174.39 101.13 C 174.27 104.41 174.55 108.78 172.70 111.67 C 169.25 116.87 159.33 115.30 158.36 108.85 C 158.02 102.31 158.09 95.51 158.31 88.96 Z" fill="#1f1b1b" />
<path d="M 68.80 94.01 C 69.42 94.38 70.02 94.77 70.62 95.16 C 72.50 97.62 74.20 99.84 77.39 100.59 C 80.65 101.36 83.16 99.98 85.67 98.08 C 88.00 99.09 90.20 99.69 92.75 99.53 C 101.12 99.26 109.47 99.62 117.84 99.60 C 118.29 100.44 118.72 101.29 119.15 102.14 C 119.20 104.48 119.19 106.81 119.18 109.15 C 110.50 110.15 101.66 109.70 92.94 109.68 C 90.70 109.81 89.77 107.79 88.21 106.49 C 82.23 106.41 76.23 106.27 70.26 106.57 L 70.19 106.58 C 70.13 107.89 70.12 109.21 70.10 110.53 C 60.23 108.65 50.03 110.61 40.01 109.24 C 40.01 105.38 39.99 101.52 39.97 97.65 C 43.59 95.20 47.66 96.67 52.00 96.20 C 57.69 95.59 63.05 95.88 68.72 96.61 C 68.74 95.74 68.77 94.88 68.80 94.01 Z" fill="#2a74b9" />
<path d="M 131.28 94.36 C 133.01 94.23 134.76 94.28 136.50 94.28 C 136.44 100.89 136.48 107.50 136.46 114.12 C 134.71 114.11 132.95 114.11 131.20 114.10 C 131.24 107.53 130.99 100.92 131.28 94.36 Z" fill="#211d1e" />
<path d="M 143.68 94.22 L 143.49 96.76 C 145.92 94.45 148.55 93.09 151.99 93.94 C 154.79 94.42 156.43 97.32 156.49 99.97 C 156.68 104.68 156.49 109.41 156.49 114.12 C 154.73 114.11 152.97 114.11 151.21 114.10 C 151.09 108.55 151.68 103.59 150.55 98.34 C 149.13 98.31 147.64 98.16 146.24 98.40 C 144.56 98.98 143.91 100.50 143.84 102.16 C 143.67 106.14 143.86 110.13 143.72 114.11 C 142.02 114.11 140.31 114.11 138.61 114.11 C 138.59 107.53 138.65 100.94 138.57 94.36 C 140.28 94.31 141.98 94.27 143.68 94.22 Z" fill="#221e1f" />
<path d="M 189.21 94.77 C 193.21 97.01 193.25 101.48 193.83 105.50 C 189.15 105.48 184.47 105.41 179.78 105.55 C 180.84 107.62 181.31 109.90 183.98 110.36 C 185.57 111.00 187.38 108.95 188.63 108.15 C 190.32 108.17 192.01 108.21 193.70 108.28 C 192.59 110.06 191.79 111.78 190.00 113.00 C 185.12 116.31 176.66 114.40 175.42 108.04 C 174.93 104.63 174.45 99.69 177.00 96.95 C 179.55 93.27 185.50 92.99 189.21 94.77 Z" fill="#221e1f" />
<path d="M 195.25 94.32 C 197.50 94.45 199.73 93.30 200.51 96.13 C 202.27 94.37 204.06 93.98 206.44 93.50 C 206.45 95.27 206.44 97.04 206.42 98.81 C 204.06 99.31 201.80 98.93 200.67 101.51 C 199.91 105.56 200.48 109.95 200.30 114.08 C 198.59 114.09 196.89 114.11 195.18 114.12 C 195.19 107.53 194.96 100.90 195.25 94.32 Z" fill="#211e1e" />
<path d="M 208.25 94.38 C 209.88 94.25 211.52 94.27 213.15 94.26 L 213.08 96.57 C 215.25 94.95 217.14 93.44 220.05 93.72 C 223.17 93.81 225.44 95.94 225.85 98.99 C 226.39 104.00 226.11 109.14 225.83 114.17 C 224.13 114.14 222.42 114.11 220.72 114.09 C 220.45 108.89 221.32 103.21 219.88 98.23 C 218.41 98.26 216.87 98.18 215.42 98.45 C 214.09 99.18 213.46 100.52 213.37 101.99 C 213.11 106.01 213.33 110.06 213.28 114.09 C 211.58 114.10 209.88 114.10 208.17 114.10 C 208.20 107.54 207.97 100.93 208.25 94.38 Z" fill="#201c1d" />
<path d="M 241.94 95.07 C 243.92 96.32 244.31 98.21 245.08 100.27 C 243.45 100.28 241.83 100.27 240.20 100.26 C 238.80 98.91 238.22 97.42 235.98 97.66 C 234.47 97.34 233.51 99.15 232.48 100.00 C 235.80 101.32 239.41 101.83 242.66 103.27 C 246.67 105.09 245.90 111.44 242.31 113.29 C 236.80 116.18 228.44 114.62 226.81 107.77 C 228.58 107.73 230.35 107.70 232.12 107.68 C 233.23 108.82 234.10 110.70 235.93 110.59 C 237.69 110.84 240.20 110.18 240.27 108.05 C 237.16 106.35 233.49 106.12 230.40 104.61 C 226.72 102.54 227.52 96.92 230.94 94.96 C 234.18 93.24 238.77 93.07 241.94 95.07 Z" fill="#221e1f" />
<path d="M 273.92 94.23 C 276.01 94.58 278.54 93.44 279.54 95.84 C 283.52 91.92 289.49 93.57 291.96 98.24 C 294.20 102.97 293.60 110.79 288.67 113.70 C 284.89 115.60 281.99 114.33 279.15 111.65 C 279.22 114.72 279.22 117.79 279.21 120.86 C 277.44 120.85 275.66 120.83 273.89 120.81 C 273.91 111.95 273.93 103.09 273.92 94.23 Z" fill="#221e1f" />
<path d="M 308.75 95.21 C 310.58 96.38 310.89 98.39 311.71 100.26 C 310.05 100.28 308.40 100.29 306.74 100.29 C 306.15 99.52 305.52 98.77 304.87 98.05 C 302.65 97.08 301.07 98.16 299.04 98.95 C 301.82 102.58 307.44 101.07 310.65 104.38 C 313.08 106.84 311.96 111.41 309.16 113.17 C 303.58 116.24 295.07 114.70 293.42 107.71 C 295.18 107.70 296.94 107.70 298.70 107.71 C 299.69 108.66 300.70 110.52 302.19 110.58 C 304.19 110.80 306.68 110.49 306.98 108.06 C 303.71 106.32 299.78 106.11 296.59 104.37 C 293.27 101.84 294.33 96.64 297.79 94.77 C 301.12 93.25 305.62 93.14 308.75 95.21 Z" fill="#221e1f" />
<path d="M 334.27 94.63 C 336.81 95.83 337.79 98.07 339.16 100.35 L 339.80 100.16 C 341.17 101.03 342.53 101.90 343.90 102.77 C 343.28 103.96 342.65 105.14 341.98 106.30 C 341.37 105.85 340.75 105.41 340.13 104.97 C 339.87 105.51 339.62 106.06 339.37 106.61 C 339.01 107.37 338.65 108.12 338.28 108.88 L 339.04 107.30 C 339.39 105.02 339.13 103.05 338.45 100.87 C 336.93 101.04 335.41 101.20 333.89 101.35 C 332.69 99.96 332.05 98.11 330.01 97.97 C 328.06 98.13 327.34 99.66 326.26 101.03 C 324.52 100.63 322.78 100.23 321.04 99.82 C 321.99 98.14 323.09 95.82 324.84 94.86 C 327.73 93.55 331.33 93.38 334.27 94.63 Z" fill="#2999d5" />
<path d="M 353.61 94.39 C 356.33 95.43 357.93 97.63 359.12 100.19 C 357.20 100.07 355.29 99.90 353.37 99.75 C 351.58 98.47 350.52 98.06 348.28 98.20 C 347.36 98.63 346.45 99.06 345.55 99.49 C 343.81 99.63 342.14 99.36 340.43 99.17 C 342.70 93.75 348.52 92.92 353.61 94.39 Z" fill="#27a1db" />
<path d="M 361.21 94.53 C 362.73 94.38 364.28 94.33 365.81 94.27 L 365.87 96.70 C 367.88 95.26 369.29 93.45 372.02 93.78 C 374.18 93.84 375.57 95.23 377.30 96.34 C 378.46 95.49 379.66 94.45 380.99 93.90 C 384.82 93.11 388.76 95.38 389.17 99.45 C 389.49 104.29 389.27 109.18 389.42 114.03 C 387.60 114.07 385.78 114.11 383.97 114.14 C 383.88 110.09 384.23 106.03 384.04 101.99 C 383.84 100.39 383.62 98.68 381.87 98.10 C 379.71 97.91 378.33 98.94 377.98 101.11 C 377.48 105.40 377.87 109.82 377.73 114.14 C 377.62 112.15 377.51 110.16 377.40 108.17 C 375.81 108.61 374.23 109.05 372.64 109.48 C 372.63 105.71 372.80 102.02 371.94 98.31 C 370.33 98.30 368.73 98.30 367.12 98.29 C 365.41 103.42 366.94 108.46 366.14 113.57 C 366.25 111.67 366.03 109.74 365.86 107.85 C 364.51 107.53 363.15 107.26 361.79 106.99 C 361.49 109.29 361.05 111.42 361.81 113.70 C 360.79 112.14 361.14 109.82 361.04 108.00 C 361.16 103.51 361.00 99.01 361.21 94.53 Z" fill="#297dc1" />
<path d="M 266.56 94.21 C 268.34 94.27 270.12 94.33 271.91 94.40 C 271.75 100.97 271.88 107.53 271.81 114.11 C 270.05 114.11 268.29 114.11 266.53 114.10 C 266.56 107.47 266.53 100.84 266.56 94.21 Z" fill="#211d1e" />
<path d="M 183.97 97.68 C 186.81 98.09 187.54 99.88 188.78 102.14 C 185.85 102.22 182.92 102.20 180.00 102.13 C 181.13 100.25 181.68 98.39 183.97 97.68 Z" fill="#ffffff" />
<path d="M 281.46 98.55 C 282.72 98.06 284.21 98.10 285.46 98.61 C 288.52 100.85 288.51 107.22 285.55 109.51 C 282.99 111.66 279.20 108.92 279.13 106.02 C 279.02 103.27 278.71 100.15 281.46 98.55 Z" fill="#ffffff" />
<path d="M 330.01 97.97 C 332.05 98.11 332.69 99.96 333.89 101.35 C 335.41 101.20 336.93 101.04 338.45 100.87 C 339.13 103.05 339.39 105.02 339.04 107.30 C 337.36 107.12 335.68 106.94 333.99 106.77 C 333.00 107.85 331.71 110.53 329.99 110.20 C 327.60 110.30 327.13 108.40 325.92 106.79 C 325.92 104.87 326.06 102.95 326.26 101.03 C 327.34 99.66 328.06 98.13 330.01 97.97 Z" fill="#ffffff" />
<path d="M 340.43 99.17 C 342.14 99.36 343.81 99.63 345.55 99.49 C 344.64 103.43 343.87 106.73 347.07 109.87 C 345.43 110.59 343.80 111.33 342.18 112.08 C 340.96 110.40 340.13 108.53 339.37 106.61 C 339.62 106.06 339.87 105.51 340.13 104.97 C 340.75 105.41 341.37 105.85 341.98 106.30 C 342.65 105.14 343.28 103.96 343.90 102.77 C 342.53 101.90 341.17 101.03 339.80 100.16 C 340.01 99.83 340.22 99.50 340.43 99.17 Z" fill="#2b56a5" />
<path d="M 348.28 98.20 C 350.52 98.06 351.58 98.47 353.37 99.75 C 353.79 101.78 354.09 103.81 354.08 105.88 C 353.75 106.91 353.39 107.92 353.00 108.92 C 350.82 110.02 349.54 110.40 347.07 109.87 C 343.87 106.73 344.64 103.43 345.55 99.49 C 346.45 99.06 347.36 98.63 348.28 98.20 Z" fill="#ffffff" />
<path d="M 321.04 99.82 C 322.78 100.23 324.52 100.63 326.26 101.03 C 326.06 102.95 325.92 104.87 325.92 106.79 C 324.28 107.51 322.70 108.31 321.09 109.10 C 320.59 106.04 320.55 102.88 321.04 99.82 Z" fill="#2a71b7" />
<path d="M 353.37 99.75 C 355.29 99.90 357.20 100.07 359.12 100.19 C 359.23 101.11 359.32 102.02 359.40 102.94 C 357.61 103.90 355.84 104.88 354.08 105.88 C 354.09 103.81 353.79 101.78 353.37 99.75 Z" fill="#3082c4" />
<path d="M 359.40 102.94 C 359.52 105.90 359.06 108.25 357.69 110.86 C 356.14 110.17 354.60 109.49 353.00 108.92 C 353.39 107.92 353.75 106.91 354.08 105.88 C 355.84 104.88 357.61 103.90 359.40 102.94 Z" fill="#2b5eab" />
<path d="M 70.19 106.58 L 70.26 106.57 C 73.94 108.70 77.55 110.96 81.15 113.22 C 81.21 125.27 81.23 137.33 81.14 149.39 C 77.41 147.15 73.76 144.79 70.16 142.35 C 70.18 137.14 70.18 131.92 70.22 126.71 C 70.22 123.76 70.16 120.82 70.12 117.88 C 70.10 115.43 70.10 112.98 70.10 110.53 C 70.12 109.21 70.13 107.89 70.19 106.58 Z" fill="#2d87c8" />
<path d="M 88.21 106.49 C 89.77 107.79 90.70 109.81 92.94 109.68 C 101.66 109.70 110.50 110.15 119.18 109.15 C 119.17 111.87 119.17 114.60 119.16 117.33 C 109.66 118.56 99.94 118.62 90.38 118.10 C 89.68 115.92 88.96 113.77 88.33 111.56 C 88.28 109.87 88.25 108.18 88.21 106.49 Z" fill="#2c63af" />
<path d="M 325.92 106.79 C 327.13 108.40 327.60 110.30 329.99 110.20 C 331.71 110.53 333.00 107.85 333.99 106.77 C 335.68 106.94 337.36 107.12 339.04 107.30 L 338.28 108.88 C 336.36 113.33 331.68 115.63 326.96 114.39 C 324.06 113.66 322.56 111.51 321.09 109.10 C 322.70 108.31 324.28 107.51 325.92 106.79 Z" fill="#2b479b" />
<path d="M 361.79 106.99 C 363.15 107.26 364.51 107.53 365.86 107.85 C 366.03 109.74 366.25 111.67 366.14 113.57 C 364.91 114.34 363.47 114.38 361.81 113.70 C 361.05 111.42 361.49 109.29 361.79 106.99 Z" fill="#2b499c" />
<path d="M 313.49 108.52 C 315.28 108.37 317.10 108.42 318.90 108.40 C 318.88 110.21 318.88 112.02 318.88 113.83 C 317.07 113.84 315.26 113.86 313.46 113.87 C 313.44 112.09 313.37 110.29 313.49 108.52 Z" fill="#171313" />
<path d="M 377.40 108.17 C 377.51 110.16 377.62 112.15 377.73 114.14 C 376.05 114.12 374.36 114.10 372.68 114.08 C 372.67 112.55 372.65 111.02 372.64 109.48 C 374.23 109.05 375.81 108.61 377.40 108.17 Z" fill="#2b4398" />
<path d="M 40.01 109.24 C 50.03 110.61 60.23 108.65 70.10 110.53 C 70.10 112.98 70.10 115.43 70.12 117.88 C 60.64 117.69 51.18 117.99 41.70 117.59 C 41.09 118.57 40.54 119.58 40.04 120.63 C 40.03 116.83 40.00 113.04 40.01 109.24 Z" fill="#2c63ae" />
<path d="M 353.00 108.92 C 354.60 109.49 356.14 110.17 357.69 110.86 C 353.38 115.39 347.18 115.66 342.18 112.08 C 343.80 111.33 345.43 110.59 347.07 109.87 C 349.54 110.40 350.82 110.02 353.00 108.92 Z" fill="#2b4196" />
<path d="M 88.33 111.56 C 88.96 113.77 89.68 115.92 90.38 118.10 C 99.94 118.62 109.66 118.56 119.16 117.33 C 119.17 125.26 119.15 133.20 119.12 141.13 C 118.72 140.56 118.32 139.99 117.90 139.42 C 108.79 139.98 99.66 139.07 90.62 140.17 C 90.22 138.61 89.77 137.06 89.34 135.51 C 89.09 137.75 88.88 140.00 88.72 142.25 L 88.26 142.23 C 88.36 132.00 88.29 121.78 88.33 111.56 Z" fill="#2b4a9c" />
<path d="M 41.70 117.59 C 51.18 117.99 60.64 117.69 70.12 117.88 C 70.16 120.82 70.22 123.76 70.22 126.71 C 69.52 126.65 68.83 126.58 68.13 126.52 C 67.80 127.29 67.46 128.06 67.13 128.83 C 62.90 127.03 59.16 128.88 54.84 128.09 C 50.27 127.28 45.67 127.79 41.10 126.94 C 40.69 128.36 40.33 129.80 40.03 131.26 C 40.03 127.73 39.96 124.17 40.04 120.63 C 40.54 119.58 41.09 118.57 41.70 117.59 Z" fill="#2b55a5" />
<path d="M 285.82 118.38 C 285.92 119.81 286.00 121.23 286.06 122.66 C 287.19 122.57 288.31 122.48 289.44 122.40 C 290.19 125.51 290.41 128.38 288.01 130.83 C 287.99 128.40 288.07 125.97 288.13 123.53 C 284.04 124.70 285.81 128.37 282.89 130.85 C 283.30 126.87 283.30 121.67 285.82 118.38 Z" fill="#aeacac" />
<path d="M 315.19 118.38 C 314.91 122.28 314.27 126.13 313.69 129.99 C 311.95 130.01 309.81 130.61 308.19 129.95 C 306.07 128.81 306.70 125.53 308.06 124.01 C 309.32 122.32 310.97 122.60 312.82 122.35 C 313.60 121.02 314.39 119.69 315.19 118.38 Z" fill="#b0aeae" />
<path d="M 332.75 118.81 C 332.84 122.53 332.82 126.24 332.88 129.96 C 331.03 130.05 328.94 130.49 327.14 129.98 C 326.46 128.98 325.93 127.88 325.55 126.67 C 323.44 126.83 321.34 127.03 319.23 127.29 C 320.94 128.59 322.80 129.01 324.85 129.52 C 322.68 130.28 320.70 131.09 318.92 129.07 C 316.78 127.17 318.82 124.44 319.53 122.36 C 320.22 122.85 320.91 123.35 321.59 123.84 L 319.63 125.22 C 320.72 125.31 321.81 125.40 322.90 125.49 C 322.44 124.31 321.99 123.12 321.56 121.93 C 323.11 122.82 324.31 124.15 325.16 125.92 C 325.98 124.83 326.77 123.65 327.76 122.70 C 328.76 122.50 329.79 122.43 330.82 122.34 C 331.21 120.49 330.59 119.47 332.75 118.81 Z" fill="#b1afaf" />
<path d="M 380.97 119.50 C 383.09 119.76 386.14 119.06 387.60 120.92 C 388.41 120.39 389.20 119.84 389.98 119.28 C 390.01 120.81 390.03 122.33 390.04 123.86 C 388.36 123.96 386.67 124.04 384.99 124.15 C 385.00 123.06 385.00 121.97 385.00 120.88 L 384.10 120.92 C 384.00 122.17 383.89 123.43 383.77 124.68 C 382.77 123.00 381.81 121.28 380.97 119.50 Z" fill="#8c8a8a" />
<path d="M 292.87 120.13 C 294.37 118.96 295.37 121.36 293.65 121.84 C 292.67 121.63 292.42 121.06 292.87 120.13 Z" fill="#bdbaba" />
<path d="M 362.02 120.09 C 363.57 118.99 364.46 121.40 362.72 121.83 C 361.75 121.59 361.52 121.01 362.02 120.09 Z" fill="#b8b6b6" />
<path d="M 357.85 120.88 C 358.85 121.67 359.84 122.47 360.82 123.28 C 360.04 123.81 359.26 124.35 358.48 124.88 C 359.04 126.90 359.69 128.87 360.40 130.84 C 356.14 129.87 357.10 126.31 356.37 122.90 C 356.85 122.22 357.34 121.55 357.85 120.88 Z" fill="#afadad" />
<path d="M 300.35 122.53 C 299.36 123.48 298.36 124.42 297.36 125.37 C 296.81 127.54 296.67 129.47 294.79 130.96 C 294.91 128.18 295.22 125.45 295.97 122.77 C 297.43 122.64 298.89 122.57 300.35 122.53 Z" fill="#b7b5b5" />
<path d="M 304.58 122.30 C 306.70 123.16 305.98 125.01 306.40 126.88 C 304.40 126.99 302.39 127.11 300.40 127.30 C 301.99 128.46 303.73 129.01 305.61 129.54 C 303.73 130.26 302.12 130.88 300.22 129.79 C 298.03 126.55 300.48 121.76 304.58 122.30 Z" fill="#b8b6b6" />
<path d="M 348.87 123.29 C 347.43 123.89 345.23 124.06 344.14 125.29 C 343.14 128.53 346.84 128.79 348.86 130.08 C 346.32 130.08 344.10 131.00 342.69 128.26 C 340.86 124.45 345.39 120.60 348.87 123.29 Z" fill="#afadad" />
<path d="M 352.05 122.30 C 353.16 122.36 354.19 123.33 355.15 123.82 C 355.14 125.93 355.16 128.04 355.18 130.15 C 352.15 130.27 350.65 130.57 348.38 128.28 C 349.16 127.30 349.93 126.32 350.71 125.34 C 351.26 125.78 351.81 126.22 352.36 126.67 L 350.72 129.40 C 351.56 129.03 352.38 128.62 353.17 128.17 C 353.58 126.97 352.85 125.33 352.75 124.09 C 351.57 123.92 350.39 123.75 349.21 123.58 C 350.13 123.08 351.08 122.66 352.05 122.30 Z" fill="#acaaaa" />
<path d="M 378.45 122.68 C 380.95 123.84 379.82 127.87 380.12 130.12 L 378.76 130.19 C 378.59 128.08 378.42 125.97 378.23 123.86 C 377.29 124.04 376.34 124.21 375.40 124.39 C 375.32 126.52 375.19 128.65 374.97 130.77 C 372.86 129.12 373.85 125.10 373.60 122.71 C 375.18 122.67 376.89 122.38 378.45 122.68 Z" fill="#a8a5a5" />
<path d="M 293.98 122.18 C 293.46 124.80 293.88 129.29 291.14 130.70 C 291.64 128.16 291.18 123.37 293.98 122.18 Z" fill="#adabab" />
<path d="M 334.64 122.19 L 335.93 122.83 C 336.23 124.87 336.14 127.22 337.02 129.08 L 338.77 128.65 C 339.39 126.44 339.52 124.07 339.89 121.80 C 341.68 123.92 340.93 127.39 341.07 130.02 C 339.27 130.13 337.47 130.24 335.67 130.37 C 334.20 127.68 334.38 125.14 334.64 122.19 Z" fill="#b2afaf" />
<path d="M 362.08 122.01 C 364.28 123.93 364.29 128.90 362.14 130.86 C 361.84 127.88 361.83 125.00 362.08 122.01 Z" fill="#bdbaba" />
<path d="M 366.55 122.44 C 367.19 122.83 367.84 123.23 368.49 123.62 C 367.26 124.90 365.88 125.49 366.54 127.46 C 366.90 129.17 369.43 129.55 370.11 128.09 C 371.70 126.45 369.00 123.68 368.46 121.99 C 369.73 122.64 370.89 123.42 371.92 124.31 C 372.46 126.67 372.48 129.02 369.90 130.04 C 366.55 131.42 364.57 128.26 364.93 125.21 C 365.45 124.28 365.99 123.36 366.55 122.44 Z" fill="#a7a4a4" />
<path d="M 302.27 124.18 C 303.08 123.69 303.83 123.70 304.54 124.21 C 305.47 126.13 300.71 126.23 302.27 124.18 Z" fill="#efefef" />
<path d="M 310.16 123.95 C 311.06 123.92 311.88 124.07 312.62 124.42 C 313.22 126.58 311.77 129.60 309.17 128.91 C 308.15 126.91 308.84 125.54 310.16 123.95 Z" fill="#fbfbfc" />
<path d="M 330.97 123.85 C 330.67 126.18 331.91 128.27 329.00 129.16 C 327.77 128.17 326.83 127.19 327.51 125.53 C 328.10 123.66 329.40 124.20 330.97 123.85 Z" fill="#ffffff" />
<path d="M 41.10 126.94 C 45.67 127.79 50.27 127.28 54.84 128.09 C 59.16 128.88 62.90 127.03 67.13 128.83 C 67.46 128.06 67.80 127.29 68.13 126.52 C 68.83 126.58 69.52 126.65 70.22 126.71 C 70.18 131.92 70.18 137.14 70.16 142.35 C 60.11 142.28 50.05 142.31 40.00 142.33 C 40.01 138.64 39.98 134.95 40.03 131.26 C 40.33 129.80 40.69 128.36 41.10 126.94 Z" fill="#2b4095" />
<path d="M 89.34 135.51 C 89.77 137.06 90.22 138.61 90.62 140.17 C 99.66 139.07 108.79 139.98 117.90 139.42 C 118.32 139.99 118.72 140.56 119.12 141.13 L 119.21 142.31 C 109.05 142.26 98.88 142.37 88.72 142.25 C 88.88 140.00 89.09 137.75 89.34 135.51 Z" fill="#28328d" />
</svg>