<?xml version="1.0" encoding="UTF-8" standalone="no"?>
<!DOCTYPE svg PUBLIC "-//W3C//DTD SVG 1.1//EN" "http://www.w3.org/Graphics/SVG/1.1/DTD/svg11.dtd">
<svg xmlns="http://www.w3.org/2000/svg" version="1.1" viewBox="0 0 400 35" width="400.0pt" height="35.0pt">
<path d="M 0.00 0.00 L 34.08 0.00 C 32.46 0.91 31.10 1.80 30.07 3.38 C 32.12 2.59 34.59 1.06 36.84 1.22 C 41.39 1.99 44.41 6.52 43.20 11.04 C 41.90 17.03 34.21 19.95 32.34 25.20 C 31.11 29.51 33.79 32.21 36.59 35.00 L 0.00 35.00 L 0.00 22.47 C 1.39 28.67 6.52 33.18 13.02 32.84 C 19.36 32.88 23.53 26.75 27.83 22.90 C 24.08 20.79 20.46 18.67 17.40 15.58 C 14.36 12.66 12.27 9.18 10.14 5.59 C 6.16 9.84 1.63 12.73 0.00 18.59 L 0.00 0.00 Z" fill="#ffffff" />
<path d="M 34.08 0.00 L 38.04 0.00 C 40.42 1.31 42.59 2.60 43.83 5.14 C 45.68 9.05 44.38 13.46 41.57 16.54 C 39.06 19.52 34.61 22.19 33.37 25.94 C 32.41 29.23 35.96 32.68 37.87 35.00 L 36.59 35.00 C 33.79 32.21 31.11 29.51 32.34 25.20 C 34.21 19.95 41.90 17.03 43.20 11.04 C 44.41 6.52 41.39 1.99 36.84 1.22 C 34.59 1.06 32.12 2.59 30.07 3.38 C 31.10 1.80 32.46 0.91 34.08 0.00 Z" fill="#6d6e72" />
<path d="M 38.04 0.00 L 400.00 0.00 L 400.00 35.00 L 37.87 35.00 C 35.96 32.68 32.41 29.23 33.37 25.94 C 34.61 22.19 39.06 19.52 41.57 16.54 C 44.38 13.46 45.68 9.05 43.83 5.14 C 42.59 2.60 40.42 1.31 38.04 0.00 Z" fill="#ffffff" />
<path d="M 18.96 0.32 C 22.74 -0.26 26.33 0.94 29.32 3.24 C 27.40 6.19 24.08 6.21 21.63 8.62 C 20.10 10.22 19.13 12.55 18.03 14.45 C 14.36 11.98 12.79 8.47 10.57 4.83 C 13.23 2.85 15.53 0.80 18.96 0.32 Z" fill="#6d6e72" />
<path d="M 155.14 3.58 C 156.36 3.50 157.59 3.41 158.82 3.33 C 158.79 10.68 158.83 18.04 158.78 25.40 C 159.71 25.87 160.64 26.35 161.57 26.83 C 159.43 26.84 157.30 26.85 155.17 26.86 C 156.04 26.41 156.92 25.97 157.80 25.52 C 157.70 18.65 157.74 11.77 157.76 4.89 C 156.88 4.46 156.01 4.02 155.14 3.58 Z" fill="#6d6e72" />
<path d="M 311.82 3.16 C 311.93 9.45 311.68 15.75 311.85 22.04 C 311.72 24.24 313.01 25.24 314.18 26.95 C 311.37 27.11 308.64 27.06 305.86 26.58 C 306.83 25.89 307.80 25.21 308.78 24.53 C 308.74 18.34 308.76 12.14 308.75 5.95 C 307.85 5.21 306.96 4.47 306.07 3.72 C 307.98 3.49 309.90 3.32 311.82 3.16 Z" fill="#6d6e72" />
<path d="M 56.46 4.58 C 58.13 4.04 59.70 6.99 57.89 7.90 C 55.49 9.90 52.98 5.06 56.46 4.58 Z" fill="#6d6e72" />
<path d="M 80.27 3.42 C 82.10 3.38 83.93 3.34 85.76 3.30 C 85.74 6.16 85.72 9.02 85.67 11.87 C 89.38 10.83 92.54 9.52 96.14 11.85 C 101.20 15.05 101.21 22.97 96.17 26.19 C 93.00 28.24 90.01 27.23 86.58 26.68 C 84.25 26.86 81.98 26.81 79.65 26.59 C 80.64 25.82 81.64 25.06 82.64 24.30 C 82.53 18.42 82.83 12.51 82.45 6.64 C 81.74 5.56 81.01 4.49 80.27 3.42 Z" fill="#6d6e72" />
<path d="M 319.45 4.60 C 321.04 4.38 321.45 4.78 322.49 5.98 C 322.12 6.80 321.69 7.60 321.21 8.35 C 318.62 8.59 317.17 6.54 319.45 4.60 Z" fill="#6d6e72" />
<path d="M 30.00 4.24 C 32.56 6.54 33.75 10.70 33.28 14.05 C 32.85 17.39 30.69 19.81 28.81 22.46 C 25.03 20.44 21.42 18.97 18.93 15.29 C 22.94 13.19 26.07 11.22 27.85 6.86 C 28.44 5.91 29.16 5.04 30.00 4.24 Z" fill="#6d6e72" />
<path d="M 165.31 5.48 C 167.10 4.32 168.25 7.06 166.13 7.48 C 165.00 7.17 164.73 6.50 165.31 5.48 Z" fill="#6d6e72" />
<path d="M 214.03 5.49 C 215.82 4.31 216.97 7.05 214.87 7.48 C 213.73 7.17 213.45 6.51 214.03 5.49 Z" fill="#6d6e72" />
<path d="M 205.18 5.80 L 206.21 5.88 C 206.20 7.51 206.19 9.14 206.17 10.78 C 207.21 10.80 208.24 10.81 209.28 10.83 L 209.31 11.74 C 208.28 11.74 207.24 11.74 206.21 11.74 C 206.19 16.53 206.16 21.33 206.36 26.12 C 207.82 26.38 209.28 26.66 210.74 26.94 C 209.17 27.00 206.71 27.96 205.49 26.65 C 204.78 22.07 205.26 17.24 205.28 12.61 C 204.46 12.25 203.63 11.89 202.80 11.53 C 203.61 11.13 204.41 10.73 205.22 10.33 C 205.20 8.82 205.19 7.31 205.18 5.80 Z" fill="#6d6e72" />
<path d="M 10.14 5.59 C 12.27 9.18 14.36 12.66 17.40 15.58 C 20.46 18.67 24.08 20.79 27.83 22.90 C 23.53 26.75 19.36 32.88 13.02 32.84 C 6.52 33.18 1.39 28.67 0.00 22.47 L 0.00 18.59 C 1.63 12.73 6.16 9.84 10.14 5.59 Z" fill="#6d6e72" />
<path d="M 27.00 6.07 C 26.05 10.11 23.35 12.06 20.02 14.13 C 20.20 9.51 23.27 7.89 27.00 6.07 Z" fill="#6d6e72" />
<path d="M 109.80 10.50 C 112.45 10.70 115.00 12.35 115.33 15.16 C 115.69 18.54 115.46 22.01 115.42 25.40 C 116.50 26.02 117.58 26.65 118.65 27.28 C 116.90 26.92 115.16 26.56 113.42 26.18 C 110.61 26.82 107.94 28.14 105.17 26.67 C 101.03 24.97 101.02 17.97 105.18 16.28 C 108.74 14.46 111.74 16.51 115.10 17.67 C 113.89 15.35 113.81 12.70 111.00 11.86 C 108.46 11.51 105.68 12.51 103.15 12.81 C 105.30 11.66 107.23 10.23 109.80 10.50 Z" fill="#6d6e72" />
<path d="M 129.55 10.60 C 136.78 12.41 136.99 24.83 130.01 27.08 C 126.46 28.30 124.29 26.25 121.51 24.48 C 121.59 26.71 121.64 28.94 121.68 31.17 C 122.50 31.69 123.33 32.22 124.16 32.74 C 122.09 32.70 120.02 32.67 117.96 32.63 C 118.81 32.16 119.66 31.69 120.51 31.21 C 120.49 24.94 120.48 18.67 120.55 12.39 C 119.63 11.93 118.70 11.47 117.78 11.00 C 119.11 11.07 120.45 11.13 121.78 11.19 L 121.36 13.47 C 124.07 11.71 126.04 9.71 129.55 10.60 Z" fill="#6d6e72" />
<path d="M 148.50 10.71 C 155.60 12.87 155.37 25.52 148.05 27.24 C 144.71 28.10 142.67 26.03 139.89 24.61 C 140.16 27.75 140.45 30.62 141.82 33.48 C 140.10 33.37 138.39 33.28 136.68 33.18 C 137.52 32.45 138.35 31.73 139.19 31.01 C 139.22 24.92 139.20 18.84 139.21 12.75 C 138.29 11.96 137.37 11.15 136.46 10.33 C 137.99 11.08 139.49 11.87 140.95 12.76 C 143.41 11.14 145.38 9.71 148.50 10.71 Z" fill="#6d6e72" />
<path d="M 183.93 10.42 C 183.89 11.78 183.86 13.14 183.82 14.50 C 183.27 13.49 182.71 12.47 182.16 11.45 C 180.04 11.71 177.52 11.67 175.58 12.63 C 171.16 15.16 171.14 22.84 175.57 25.38 C 178.22 27.22 182.19 25.63 185.18 25.41 C 182.22 27.16 179.50 28.36 176.09 26.92 C 170.00 24.67 169.46 15.11 174.81 11.78 C 177.29 10.15 181.06 10.62 183.93 10.42 Z" fill="#6d6e72" />
<path d="M 194.80 10.49 C 197.45 10.69 200.03 12.34 200.35 15.15 C 200.71 18.53 200.48 21.99 200.44 25.38 C 201.52 26.01 202.59 26.64 203.66 27.28 C 201.92 26.92 200.18 26.55 198.45 26.17 C 195.70 26.81 192.97 28.13 190.25 26.70 C 186.05 24.98 185.98 18.05 190.19 16.29 C 193.76 14.44 196.74 16.51 200.11 17.68 C 198.91 15.34 198.84 12.71 196.01 11.84 C 193.41 11.62 190.70 12.41 188.11 12.68 C 190.16 11.69 192.44 10.28 194.80 10.49 Z" fill="#6d6e72" />
<path d="M 215.48 10.76 C 215.51 15.67 215.52 20.59 215.44 25.50 C 216.34 25.95 217.23 26.40 218.13 26.86 C 215.95 26.84 213.78 26.82 211.60 26.81 C 212.52 26.37 213.44 25.94 214.36 25.51 C 214.31 21.13 214.47 16.70 214.16 12.33 C 213.35 11.84 212.53 11.35 211.71 10.86 C 212.97 10.82 214.23 10.79 215.48 10.76 Z" fill="#6d6e72" />
<path d="M 225.55 10.76 C 228.89 9.75 232.25 10.91 234.19 13.81 C 237.04 18.04 235.78 24.69 230.88 26.80 C 226.29 28.84 221.11 25.67 220.36 20.84 C 219.62 16.62 221.31 12.23 225.55 10.76 Z" fill="#6d6e72" />
<path d="M 241.05 11.24 C 242.84 10.99 244.75 10.48 246.56 10.56 C 248.33 10.81 250.19 12.34 250.49 14.16 C 251.00 17.87 250.70 21.74 250.68 25.48 C 251.61 25.93 252.54 26.40 253.48 26.86 C 251.27 26.84 249.06 26.83 246.85 26.81 C 247.78 26.40 248.70 25.98 249.63 25.56 C 249.54 21.72 249.90 17.69 249.22 13.90 C 247.66 10.48 242.61 10.98 240.87 13.98 C 240.22 17.75 240.58 21.73 240.50 25.54 C 241.43 25.97 242.36 26.40 243.30 26.83 C 241.08 26.83 238.85 26.83 236.63 26.83 C 237.55 26.40 238.47 25.96 239.39 25.52 C 239.34 21.23 239.47 16.94 239.32 12.66 C 238.48 12.04 237.63 11.44 236.77 10.85 C 238.19 11.01 239.61 11.17 241.05 11.24 Z" fill="#6d6e72" />
<path d="M 265.22 10.70 C 265.24 11.97 265.26 13.25 265.29 14.52 C 263.25 12.71 262.00 10.92 258.92 11.57 C 256.83 12.01 256.80 14.48 255.97 16.09 C 258.67 17.30 261.78 18.12 264.20 19.84 C 266.51 21.68 265.45 25.67 262.85 26.66 C 260.34 27.54 257.23 26.69 254.60 26.56 C 254.78 25.15 254.96 23.74 255.15 22.33 C 255.70 23.48 256.25 24.63 256.80 25.78 C 258.97 25.78 261.02 25.85 263.17 25.45 C 263.85 24.38 264.31 23.17 264.55 21.84 C 262.55 19.36 258.53 18.93 255.99 16.98 C 254.54 14.82 255.32 11.83 257.83 10.89 C 260.15 10.25 262.83 10.69 265.22 10.70 Z" fill="#6d6e72" />
<path d="M 301.42 12.54 C 303.28 15.85 302.34 20.85 302.50 24.57 C 303.48 25.24 304.45 25.91 305.42 26.59 C 302.29 27.15 299.61 27.15 296.48 26.61 C 297.47 25.90 298.46 25.19 299.46 24.49 C 299.40 21.37 299.64 18.10 299.07 15.03 C 298.19 11.80 292.21 12.98 291.80 15.92 C 291.43 18.74 291.55 21.65 291.52 24.49 C 292.51 25.20 293.49 25.90 294.48 26.61 C 291.36 27.14 288.68 27.14 285.57 26.61 C 286.54 25.91 287.51 25.21 288.49 24.52 C 288.17 20.06 289.73 14.43 286.26 11.03 C 288.22 11.07 290.21 11.13 292.17 11.03 C 295.53 10.71 298.94 9.40 301.42 12.54 Z" fill="#6d6e72" />
<path d="M 321.85 10.53 C 321.90 15.23 321.87 19.92 321.88 24.62 C 322.91 25.26 323.95 25.90 324.98 26.55 C 321.80 27.18 319.11 27.20 315.93 26.58 C 316.88 25.89 317.85 25.21 318.81 24.53 C 318.79 20.80 318.79 17.07 318.81 13.34 C 317.86 12.73 316.91 12.13 315.97 11.52 C 317.92 11.16 319.89 10.84 321.85 10.53 Z" fill="#6d6e72" />
<path d="M 341.74 13.27 C 342.88 16.74 342.30 20.91 342.37 24.54 C 343.34 25.22 344.31 25.90 345.28 26.59 C 342.49 27.04 339.75 27.10 336.93 26.96 C 340.20 23.81 339.46 20.04 339.15 15.95 C 339.00 11.69 332.11 12.58 331.63 16.14 C 331.31 18.91 331.44 21.76 331.43 24.55 C 332.41 25.23 333.39 25.90 334.36 26.59 C 331.26 27.14 328.57 27.13 325.46 26.65 C 326.44 25.89 327.42 25.14 328.41 24.39 C 328.00 20.17 329.74 14.09 326.05 11.16 C 328.04 11.07 330.03 10.97 332.02 10.82 C 335.57 10.66 339.68 9.39 341.74 13.27 Z" fill="#6d6e72" />
<path d="M 52.86 10.84 C 54.68 10.82 56.50 10.80 58.31 10.78 C 58.12 17.14 58.76 23.66 58.02 29.97 C 57.60 32.68 53.98 33.18 51.97 34.22 C 53.03 31.60 55.19 28.88 55.21 26.02 C 55.40 21.95 55.34 17.67 55.02 13.61 C 54.31 12.68 53.59 11.76 52.86 10.84 Z" fill="#6d6e72" />
<path d="M 66.41 11.44 C 69.85 9.68 74.11 10.46 76.71 13.29 C 80.05 16.78 79.55 22.83 75.71 25.74 C 71.62 29.01 65.30 27.79 62.81 23.18 C 60.43 18.99 62.16 13.59 66.41 11.44 Z" fill="#6d6e72" />
<path d="M 162.91 10.79 C 164.17 10.95 165.43 11.12 166.70 11.28 C 166.64 16.02 166.66 20.76 166.62 25.51 C 167.54 25.94 168.47 26.37 169.39 26.81 C 167.21 26.82 165.03 26.84 162.85 26.85 C 163.75 26.40 164.64 25.95 165.53 25.50 C 165.47 21.21 165.60 16.90 165.41 12.62 C 164.58 12.00 163.75 11.39 162.91 10.79 Z" fill="#6d6e72" />
<path d="M 272.30 11.32 C 276.48 9.32 281.69 11.11 283.72 15.27 C 285.69 19.22 284.20 24.14 280.42 26.37 C 276.40 28.80 271.01 27.47 268.60 23.44 C 265.96 19.16 267.76 13.40 272.30 11.32 Z" fill="#6d6e72" />
<path d="M 360.46 12.53 C 362.44 14.39 362.84 17.61 363.53 20.11 C 358.52 20.14 353.52 20.05 348.51 20.34 C 349.77 21.72 351.04 23.46 352.70 24.36 C 356.17 25.24 358.84 22.72 361.84 25.49 C 358.25 26.97 355.05 28.44 351.18 26.79 C 346.39 24.83 344.81 18.76 347.41 14.45 C 350.04 10.04 356.70 9.03 360.46 12.53 Z" fill="#6d6e72" />
<path d="M 125.14 12.11 C 127.52 10.95 130.61 11.62 132.26 13.73 C 134.09 16.03 134.23 19.57 133.32 22.26 C 132.23 25.19 129.18 27.08 126.08 26.03 C 120.46 24.18 120.11 14.83 125.14 12.11 Z" fill="#ffffff" />
<path d="M 144.10 11.95 C 145.57 11.39 147.46 11.41 148.88 12.13 C 154.01 14.83 153.70 24.31 147.94 26.09 C 144.46 27.17 141.10 24.46 140.47 21.09 C 139.87 17.57 140.46 13.53 144.10 11.95 Z" fill="#ffffff" />
<path d="M 225.15 12.13 C 227.05 11.26 229.70 11.33 231.44 12.57 C 235.78 15.52 235.56 23.36 230.69 25.68 C 227.85 27.12 224.32 26.03 222.59 23.44 C 220.32 19.83 221.09 14.14 225.15 12.13 Z" fill="#ffffff" />
<path d="M 354.96 13.29 C 357.88 13.20 358.94 15.65 360.63 17.55 C 356.57 17.77 352.56 17.77 348.51 17.54 C 350.47 15.47 351.69 13.06 354.96 13.29 Z" fill="#ffffff" />
<path d="M 67.31 14.28 C 71.41 11.66 76.82 15.21 76.02 19.97 C 75.20 23.88 70.74 25.92 67.29 23.73 C 63.77 21.57 63.76 16.43 67.31 14.28 Z" fill="#ffffff" />
<path d="M 88.27 14.24 C 90.68 12.76 93.82 13.22 95.67 15.36 C 97.76 17.78 97.28 21.80 94.58 23.57 C 91.86 25.52 87.93 24.56 86.31 21.68 C 84.84 19.12 85.74 15.75 88.27 14.24 Z" fill="#ffffff" />
<path d="M 273.15 14.13 C 276.88 12.04 281.71 14.67 281.69 19.00 C 281.71 23.68 276.20 26.28 272.49 23.46 C 269.27 21.05 269.62 16.06 273.15 14.13 Z" fill="#ffffff" />
<path d="M 106.09 17.08 C 109.62 15.60 114.52 17.81 114.19 22.03 C 113.23 26.34 107.35 27.73 104.35 24.64 C 102.21 22.28 103.01 18.21 106.09 17.08 Z" fill="#ffffff" />
<path d="M 191.10 17.09 C 194.64 15.60 199.51 17.80 199.23 22.03 C 198.25 26.33 192.35 27.75 189.37 24.61 C 187.24 22.25 188.04 18.24 191.10 17.09 Z" fill="#ffffff" />
<path d="M 382.46 18.60 C 384.99 17.88 387.51 19.27 387.67 22.01 C 387.78 23.93 387.64 26.95 384.99 26.70 C 383.49 26.62 381.27 27.31 380.51 25.60 C 379.89 23.26 379.50 19.50 382.46 18.60 Z" fill="#6d6e72" />
<path d="M 386.06 19.80 C 386.97 21.60 386.81 23.86 386.93 25.84 C 384.96 25.97 383.24 26.43 381.34 25.70 C 380.74 24.16 380.24 22.71 380.97 21.11 C 381.51 18.71 384.31 19.07 386.06 19.80 Z" fill="#ffffff" />
<path d="M 367.26 23.65 C 369.91 23.28 370.17 27.15 367.81 27.38 C 365.30 27.91 364.55 23.87 367.26 23.65 Z" fill="#6d6e72" />
</svg>