<?xml version="1.0" encoding="UTF-8" standalone="no"?>
<!DOCTYPE svg PUBLIC "-//W3C//DTD SVG 1.1//EN" "http://www.w3.org/Graphics/SVG/1.1/DTD/svg11.dtd">
<svg xmlns="http://www.w3.org/2000/svg" version="1.1" viewBox="0 0 432 117" width="432.0pt" height="117.0pt">
<path d="M 0.00 0.00 L 432.00 0.00 L 432.00 117.00 L 0.00 117.00 L 0.00 0.00 Z" fill="#ffffff" />
<path d="M 325.97 2.76 C 357.59 2.67 389.38 2.74 421.02 2.72 C 424.13 2.61 426.95 3.72 428.67 6.39 C 430.47 9.16 429.95 12.83 430.02 16.00 C 429.97 44.00 430.01 72.00 430.01 100.00 C 429.93 103.13 430.31 106.45 429.69 109.53 C 428.56 113.45 425.04 115.66 421.02 115.49 C 389.41 115.46 357.54 115.52 325.97 115.46 C 321.29 115.66 317.33 111.73 317.62 107.02 C 317.59 77.46 317.63 47.59 317.60 18.00 C 317.62 15.01 317.43 11.94 317.82 8.97 C 318.58 5.21 322.16 2.57 325.97 2.76 Z" fill="#006699" />
<path d="M 60.49 22.61 C 63.91 21.22 68.25 21.41 71.24 23.72 C 75.44 26.87 75.45 34.10 71.21 37.24 C 67.35 40.11 61.00 39.95 57.64 36.34 C 53.88 32.15 55.08 24.78 60.49 22.61 Z" fill="#000000" />
<path d="M 339.18 22.26 C 343.96 20.47 349.94 21.92 352.05 26.89 C 354.00 31.05 352.14 36.08 348.11 38.15 C 343.62 40.12 337.66 39.57 334.87 35.10 C 331.99 30.39 333.98 24.18 339.18 22.26 Z" fill="#ffffff" />
<path d="M 2.75 23.27 C 8.35 23.31 13.95 23.32 19.55 23.25 C 19.50 42.81 19.54 62.37 19.53 81.93 C 29.51 81.88 39.49 81.93 49.48 81.90 C 49.45 86.99 49.45 92.08 49.48 97.17 C 33.90 97.17 18.33 97.17 2.76 97.18 C 2.76 72.54 2.77 47.90 2.75 23.27 Z" fill="#000000" />
<path d="M 140.01 23.28 C 145.70 23.29 151.39 23.31 157.07 23.27 C 157.04 37.39 157.10 51.50 157.04 65.62 C 161.99 58.33 167.19 51.23 172.33 44.07 C 179.10 44.06 185.88 44.16 192.64 43.99 C 186.19 51.26 179.57 58.39 173.06 65.62 C 180.62 76.09 187.93 86.73 195.49 97.20 C 188.56 97.15 181.63 97.17 174.70 97.18 C 170.21 89.89 165.77 82.57 161.32 75.25 C 159.97 77.06 158.06 78.91 157.17 80.97 C 156.87 86.35 157.17 91.78 157.06 97.17 C 151.38 97.17 145.69 97.17 140.01 97.17 C 140.02 72.54 140.02 47.91 140.01 23.28 Z" fill="#000000" />
<path d="M 283.55 23.26 C 289.14 23.32 294.74 23.31 300.33 23.26 C 300.29 41.51 300.33 59.75 300.31 78.00 C 300.33 84.37 300.34 90.82 300.85 97.17 C 295.86 97.17 290.87 97.17 285.87 97.17 C 285.65 94.46 285.41 91.74 285.19 89.03 C 283.53 91.18 282.06 93.25 279.78 94.82 C 271.78 100.15 260.25 99.40 253.13 92.87 C 246.62 87.06 244.15 78.53 244.47 69.99 C 244.46 61.16 247.94 52.46 255.24 47.20 C 263.32 41.36 276.86 40.93 283.60 49.09 C 283.51 40.48 283.60 31.87 283.55 23.26 Z" fill="#000000" />
<path d="M 211.02 43.38 C 219.58 41.84 228.93 43.22 234.95 50.00 C 241.34 57.34 242.03 66.69 241.00 75.98 C 229.15 75.80 217.28 75.82 205.43 75.81 C 206.65 81.15 209.56 83.84 214.75 85.29 C 221.70 86.83 229.41 85.95 236.18 83.89 C 236.97 87.58 237.71 91.28 238.43 94.98 C 230.34 97.86 221.54 98.86 213.01 97.89 C 205.16 96.84 197.79 93.38 193.53 86.45 C 188.54 78.20 188.44 66.93 192.35 58.24 C 195.71 50.55 202.74 44.86 211.02 43.38 Z" fill="#000000" />
<path d="M 127.86 51.12 C 131.74 55.58 133.09 62.24 133.07 68.00 C 133.08 77.72 133.05 87.45 133.08 97.17 C 127.40 97.18 121.72 97.17 116.04 97.17 C 116.26 88.79 116.07 80.39 116.16 72.00 C 116.09 68.47 116.30 64.82 114.24 61.77 C 112.36 58.67 108.09 57.58 104.78 58.78 C 100.85 59.97 98.12 63.88 98.17 67.96 C 98.07 77.69 98.17 87.44 98.13 97.17 C 92.51 97.18 86.89 97.17 81.27 97.17 C 81.42 80.22 81.69 63.24 81.29 46.28 C 86.91 46.34 92.53 46.34 98.15 46.28 C 98.14 48.68 98.10 51.08 98.03 53.48 C 100.64 50.31 103.12 47.42 107.18 46.10 C 114.07 43.89 123.06 45.34 127.86 51.12 Z" fill="#000000" />
<path d="M 406.88 50.12 C 411.20 54.45 412.88 61.04 412.90 67.00 C 412.93 77.06 412.85 87.12 412.93 97.18 C 407.25 97.18 401.56 97.19 395.88 97.17 C 395.85 88.44 395.87 79.72 395.88 70.99 C 395.84 67.72 395.63 64.12 393.70 61.34 C 391.90 58.85 388.88 58.19 385.97 58.52 C 381.46 58.96 377.93 63.52 378.02 67.95 C 377.94 77.69 378.04 87.44 377.99 97.18 C 372.33 97.18 366.67 97.18 361.01 97.18 C 361.09 80.15 361.03 63.12 361.05 46.10 C 366.70 46.10 372.35 46.12 378.00 46.07 C 378.00 48.48 377.99 50.89 377.95 53.30 C 380.31 50.04 382.92 47.25 386.84 45.94 C 393.45 43.80 401.88 44.98 406.88 50.12 Z" fill="#ffffff" />
<path d="M 56.49 46.28 C 62.08 46.35 67.67 46.34 73.27 46.29 C 73.28 63.25 73.25 80.21 73.29 97.17 C 67.69 97.17 62.09 97.17 56.49 97.17 C 56.53 80.21 56.54 63.24 56.49 46.28 Z" fill="#000000" />
<path d="M 334.56 46.06 C 340.27 46.14 345.99 46.08 351.70 46.12 C 351.73 63.14 351.71 80.16 351.72 97.17 C 346.00 97.18 340.28 97.18 334.56 97.17 C 334.57 80.14 334.56 63.10 334.56 46.06 Z" fill="#ffffff" />
<path d="M 223.75 57.34 C 225.24 59.32 225.59 62.18 226.03 64.57 C 219.14 64.60 212.24 64.62 205.35 64.56 C 206.14 61.96 206.61 59.55 208.36 57.39 C 211.84 52.66 220.39 52.27 223.75 57.34 Z" fill="#ffffff" />
<path d="M 268.49 56.52 C 273.24 54.35 278.98 55.65 281.83 60.13 C 284.03 63.52 283.52 67.17 283.60 71.01 C 283.53 74.95 283.69 78.76 280.89 81.89 C 276.93 86.52 269.12 86.41 265.13 81.89 C 261.46 77.81 260.78 71.11 261.95 65.96 C 262.71 62.02 264.76 58.33 268.49 56.52 Z" fill="#ffffff" />
</svg>