<?xml version="1.0" standalone="no"?>
<!DOCTYPE svg PUBLIC "-//W3C//DTD SVG 20010904//EN"
 "http://www.w3.org/TR/2001/REC-SVG-20010904/DTD/svg10.dtd">
<svg version="1.0" xmlns="http://www.w3.org/2000/svg"
 width="225.000000pt" height="225.000000pt" viewBox="0 0 225.000000 225.000000"
 preserveAspectRatio="xMidYMid meet">
<metadata>
Created by potrace 1.15, written by Peter Selinger 2001-2017
</metadata>
<g transform="translate(0.000000,225.000000) scale(0.100000,-0.100000)"
fill="#000000" stroke="none">
<path d="M240 1520 l0 -100 33 0 33 0 124 -395 124 -395 162 0 162 0 11 33 c5
17 55 181 111 362 56 182 106 345 111 363 l11 32 74 0 74 0 0 -295 0 -295 -45
0 -45 0 0 -101 0 -101 313 4 c303 3 313 4 365 27 94 42 142 117 142 222 0 118
-44 194 -134 234 l-50 22 34 18 c117 59 157 182 103 317 -18 46 -87 109 -140
128 -30 11 -142 15 -525 17 l-488 4 0 -100 0 -101 40 0 c22 0 40 -5 40 -10 0
-11 -136 -514 -147 -540 -3 -8 -38 111 -77 265 l-72 280 43 3 43 3 0 100 0 99
-215 0 -215 0 0 -100z m1419 -101 c63 -22 80 -107 32 -161 -25 -29 -35 -32
-95 -36 l-66 -4 0 106 0 106 49 0 c26 0 62 -5 80 -11z m52 -418 c32 -32 38
-79 18 -124 -16 -35 -49 -47 -129 -47 l-70 0 0 100 0 100 76 0 c70 0 78 -2
105 -29z"/>
</g>
</svg>
