<svg id="svg" version="1.1" width="400" height="200" viewBox="0 0 400 200" xmlns="http://www.w3.org/2000/svg" xmlns:xlink="http://www.w3.org/1999/xlink" ><g id="svgg"><path id="path0" d="M131.300 54.395 C 130.428 54.554,127.912 55.680,127.349 56.163 C 127.155 56.329,126.797 56.564,126.553 56.686 C 126.308 56.808,126.005 57.115,125.879 57.368 C 125.752 57.621,125.465 57.957,125.240 58.114 C 125.016 58.272,124.775 58.658,124.706 58.973 C 124.637 59.288,124.421 59.717,124.226 59.927 C 123.531 60.673,123.512 61.466,123.406 95.700 L 123.300 130.100 122.873 131.200 C 122.638 131.805,122.331 132.750,122.190 133.300 C 122.050 133.850,121.779 134.526,121.588 134.802 C 121.397 135.078,121.142 135.671,121.022 136.120 C 120.901 136.569,120.614 137.106,120.384 137.314 C 120.155 137.522,119.842 137.991,119.689 138.357 C 119.172 139.595,115.279 143.358,114.145 143.717 C 113.900 143.794,113.430 144.055,113.100 144.295 C 112.770 144.536,112.106 144.845,111.625 144.982 C 109.100 145.701,109.031 145.700,197.893 145.700 L 284.566 145.700 285.175 145.250 C 285.510 145.003,285.917 144.800,286.080 144.800 C 286.243 144.800,286.432 144.710,286.500 144.600 C 286.568 144.490,286.795 144.400,287.004 144.400 C 287.213 144.400,287.563 144.208,287.782 143.974 C 288.000 143.739,288.377 143.447,288.620 143.324 C 288.862 143.201,289.160 142.924,289.280 142.708 C 289.401 142.492,289.703 142.148,289.950 141.944 C 290.197 141.739,290.400 141.431,290.400 141.260 C 290.400 141.089,290.693 140.443,291.050 139.824 L 291.700 138.700 291.700 99.991 C 291.700 61.727,291.695 61.276,291.303 60.691 C 290.732 59.840,290.400 59.189,290.400 58.922 C 290.400 58.716,289.692 57.793,288.956 57.037 C 288.399 56.466,287.129 55.600,286.847 55.600 C 286.683 55.600,286.043 55.308,285.424 54.950 L 284.300 54.300 208.200 54.274 C 166.345 54.260,131.740 54.314,131.300 54.395 M185.742 83.226 C 186.599 83.351,187.390 83.515,187.500 83.593 C 187.610 83.670,188.240 83.856,188.900 84.007 C 192.151 84.749,193.347 88.031,192.029 92.600 C 191.823 93.315,191.539 94.710,191.397 95.700 C 191.255 96.690,190.981 97.838,190.787 98.252 C 190.593 98.665,190.329 99.835,190.200 100.852 C 190.071 101.868,189.756 103.420,189.500 104.300 C 189.245 105.180,188.928 106.575,188.796 107.400 C 188.567 108.832,187.785 111.618,187.357 112.529 C 186.716 113.891,184.511 115.583,182.935 115.921 C 180.720 116.396,167.759 116.308,167.313 115.814 C 166.856 115.309,167.044 112.930,167.702 110.891 C 167.952 110.116,168.307 108.458,168.490 107.205 C 168.674 105.953,168.924 104.742,169.046 104.514 C 169.168 104.286,169.435 103.065,169.638 101.800 C 169.842 100.535,170.195 98.960,170.423 98.300 C 170.650 97.640,170.915 96.425,171.011 95.600 C 171.108 94.775,171.273 93.740,171.378 93.300 C 171.483 92.860,171.758 91.555,171.990 90.400 C 172.221 89.245,172.585 87.715,172.799 87.000 C 173.013 86.285,173.291 85.277,173.417 84.760 C 173.657 83.776,174.029 83.307,174.700 83.144 C 175.522 82.944,184.243 83.009,185.742 83.226 M204.005 83.225 C 204.941 83.506,205.368 85.825,204.573 86.317 C 204.478 86.375,204.400 86.576,204.399 86.762 C 204.398 86.948,204.182 87.370,203.918 87.700 L 203.438 88.300 199.851 88.300 C 194.886 88.300,194.586 88.074,195.633 85.121 C 196.390 82.984,196.357 83.000,200.062 83.000 C 201.848 83.000,203.584 83.099,204.005 83.225 M249.475 83.886 C 250.903 85.255,250.837 87.616,249.350 88.384 C 249.048 88.540,248.800 88.742,248.800 88.834 C 248.800 89.153,247.068 88.997,246.255 88.604 C 245.629 88.301,245.306 87.955,244.897 87.148 L 244.361 86.088 245.101 84.826 C 246.333 82.723,247.908 82.385,249.475 83.886 M217.267 88.894 C 219.442 89.205,220.987 90.020,221.793 91.283 C 222.010 91.622,222.348 92.120,222.544 92.389 C 223.020 93.043,223.024 97.694,222.549 98.820 C 222.167 99.726,221.837 99.800,218.184 99.800 C 214.369 99.800,213.754 99.426,214.473 97.541 C 214.969 96.242,215.082 94.968,214.742 94.514 C 214.080 93.631,212.991 95.739,212.679 98.508 C 212.605 99.163,212.386 100.150,212.193 100.700 C 212.000 101.250,211.735 102.555,211.603 103.600 C 211.471 104.645,211.148 106.148,210.886 106.941 C 210.228 108.923,210.101 109.877,210.398 110.594 L 210.646 111.193 211.400 110.651 C 212.119 110.134,212.171 110.021,212.504 108.204 C 212.871 106.205,213.336 105.182,214.109 104.676 C 214.623 104.339,219.446 104.393,220.373 104.746 C 221.048 105.003,221.454 106.233,221.053 106.806 C 220.891 107.038,220.628 107.784,220.470 108.464 C 219.920 110.822,217.911 113.925,216.413 114.731 C 216.035 114.934,215.568 115.252,215.374 115.439 C 215.181 115.625,214.635 115.882,214.161 116.009 C 213.688 116.137,212.943 116.390,212.506 116.571 C 211.378 117.039,207.383 117.035,206.400 116.565 C 206.015 116.381,205.400 116.169,205.033 116.095 C 201.566 115.396,200.744 109.640,203.020 102.000 C 203.233 101.285,203.495 99.989,203.602 99.121 C 203.710 98.252,204.014 97.068,204.278 96.491 C 204.543 95.913,204.820 95.166,204.893 94.830 C 205.052 94.107,206.501 91.800,206.797 91.800 C 206.910 91.800,207.205 91.566,207.451 91.280 C 207.698 90.994,208.340 90.522,208.877 90.230 C 209.414 89.939,210.060 89.586,210.312 89.446 C 210.710 89.226,213.755 88.685,214.900 88.631 C 215.120 88.621,216.185 88.739,217.267 88.894 M237.888 88.826 C 240.028 89.224,242.212 90.516,242.749 91.700 C 242.849 91.920,243.127 92.505,243.366 93.000 C 243.945 94.199,243.964 96.838,243.408 98.986 C 243.193 99.819,242.916 101.020,242.793 101.655 C 242.444 103.460,242.351 103.492,237.309 103.542 C 234.994 103.565,232.856 103.587,232.558 103.592 C 231.972 103.601,232.018 103.499,231.299 106.400 C 231.122 107.115,230.894 108.015,230.793 108.400 C 230.307 110.251,230.596 111.169,231.535 110.757 C 232.288 110.425,232.338 110.336,232.723 108.616 C 233.102 106.923,233.779 105.155,234.265 104.587 C 234.778 103.988,240.798 103.998,241.400 104.600 C 241.742 104.942,241.937 105.835,241.812 106.486 C 241.792 106.588,241.690 107.123,241.586 107.674 C 241.481 108.226,241.270 108.869,241.116 109.104 C 240.962 109.339,240.697 110.000,240.526 110.574 C 240.356 111.147,240.010 111.892,239.758 112.228 C 239.103 113.101,237.363 114.800,237.124 114.800 C 237.013 114.800,236.692 115.013,236.411 115.273 C 236.130 115.533,235.460 115.852,234.923 115.983 C 234.386 116.113,233.602 116.395,233.181 116.610 C 231.922 117.252,229.166 117.159,226.933 116.400 C 225.963 116.070,225.063 115.799,224.934 115.798 C 224.312 115.791,222.620 113.771,222.291 112.642 C 221.780 110.890,222.424 103.887,223.241 102.300 C 223.411 101.970,223.613 101.070,223.691 100.300 C 223.768 99.530,224.095 98.138,224.416 97.208 C 224.737 96.277,225.000 95.382,225.000 95.220 C 225.000 93.803,228.223 90.450,230.600 89.393 C 231.951 88.792,236.010 88.476,237.888 88.826 M202.628 89.205 C 203.789 89.527,203.909 89.802,203.519 91.253 C 203.334 91.939,203.045 93.265,202.877 94.200 C 202.708 95.135,202.435 96.440,202.270 97.100 C 202.105 97.760,201.761 99.433,201.506 100.819 C 201.251 102.204,200.905 103.604,200.736 103.930 C 200.568 104.256,200.328 105.462,200.202 106.611 C 200.077 107.760,199.836 109.105,199.666 109.600 C 199.186 111.000,198.983 111.968,198.805 113.692 C 198.550 116.181,198.512 116.200,193.803 116.200 L 190.029 116.200 189.625 115.686 C 189.296 115.268,189.258 115.072,189.423 114.639 C 189.535 114.345,189.718 113.339,189.831 112.403 C 189.944 111.466,190.201 110.205,190.402 109.600 C 190.603 108.995,190.875 107.915,191.006 107.200 C 191.138 106.485,191.377 105.315,191.538 104.600 C 191.698 103.885,191.990 102.399,192.187 101.297 C 192.383 100.196,192.728 98.711,192.953 97.997 C 193.178 97.284,193.469 95.845,193.599 94.800 C 193.859 92.714,194.826 89.643,195.346 89.250 C 195.757 88.939,201.544 88.903,202.628 89.205 M181.416 89.969 C 181.297 90.192,181.200 90.667,181.200 91.027 C 181.200 91.386,180.985 92.404,180.723 93.290 C 180.460 94.175,180.138 95.620,180.008 96.500 C 179.877 97.380,179.639 98.550,179.479 99.100 C 179.060 100.542,178.600 102.811,178.600 103.443 C 178.600 103.742,178.479 104.372,178.330 104.843 C 178.040 105.767,177.687 107.266,177.490 108.419 C 177.292 109.575,177.862 110.007,178.622 109.279 C 179.274 108.654,179.501 108.048,179.799 106.142 C 179.915 105.395,180.143 104.392,180.305 103.914 C 180.468 103.436,180.781 102.067,181.003 100.872 C 181.224 99.678,181.627 97.845,181.899 96.800 C 182.172 95.755,182.396 94.657,182.397 94.360 C 182.399 94.063,182.535 93.301,182.700 92.668 C 183.223 90.661,183.091 89.931,182.164 89.698 C 181.752 89.595,181.584 89.655,181.416 89.969 M234.244 94.562 C 234.000 94.774,233.800 95.071,233.800 95.223 C 233.800 95.376,233.632 95.950,233.427 96.500 C 232.967 97.732,233.050 98.000,233.892 98.000 C 234.765 98.000,234.936 97.744,235.095 96.200 C 235.266 94.538,234.957 93.943,234.244 94.562 " stroke="none" fill="#cb2323" fill-rule="evenodd"></path><path id="path1" d="M0.000 100.000 L 0.000 200.000 200.000 200.000 L 400.000 200.000 400.000 100.000 L 400.000 0.000 200.000 0.000 L 0.000 0.000 0.000 100.000 M286.044 53.809 C 286.453 53.923,286.903 54.178,287.044 54.377 C 287.185 54.576,287.633 54.848,288.040 54.981 C 288.842 55.245,290.868 57.264,291.113 58.045 C 291.191 58.295,291.455 58.687,291.700 58.914 C 291.967 59.164,292.198 59.690,292.280 60.237 C 292.355 60.737,292.545 61.316,292.702 61.523 C 293.123 62.079,293.145 137.902,292.725 138.505 C 292.574 138.722,292.384 139.297,292.302 139.782 C 292.221 140.267,291.955 140.863,291.712 141.106 C 291.469 141.349,291.158 141.818,291.022 142.148 C 290.579 143.216,288.461 145.200,287.763 145.200 C 287.553 145.200,287.181 145.432,286.938 145.715 C 286.157 146.623,287.373 146.612,196.433 146.555 L 109.565 146.500 109.058 145.911 L 108.551 145.321 109.063 144.881 C 109.362 144.624,109.996 144.383,110.586 144.302 C 111.302 144.204,111.780 143.993,112.220 143.581 C 112.562 143.262,113.022 143.000,113.241 143.000 C 113.460 143.000,113.894 142.752,114.206 142.450 C 114.517 142.148,115.081 141.640,115.459 141.323 C 115.837 141.006,116.316 140.574,116.523 140.364 C 116.730 140.153,117.147 139.740,117.450 139.446 C 117.753 139.152,118.000 138.794,118.000 138.651 C 118.000 138.508,118.214 138.294,118.474 138.175 C 118.772 138.040,119.038 137.663,119.186 137.168 C 119.316 136.733,119.599 136.201,119.814 135.986 C 120.029 135.771,120.301 135.123,120.419 134.547 C 120.536 133.971,120.816 133.241,121.040 132.925 C 121.937 131.663,121.987 129.676,121.994 94.731 C 122.000 63.273,122.013 62.144,122.373 61.631 C 122.578 61.339,122.810 60.666,122.888 60.136 C 122.970 59.573,123.204 58.996,123.450 58.750 C 123.681 58.519,124.057 57.995,124.285 57.587 C 124.801 56.663,126.678 55.000,127.205 55.000 C 127.421 55.000,127.833 54.735,128.122 54.411 C 128.411 54.087,128.839 53.784,129.073 53.738 C 130.087 53.539,285.326 53.609,286.044 53.809 M174.670 84.799 C 174.224 84.979,174.158 85.222,173.891 87.700 C 173.820 88.360,173.595 89.267,173.392 89.715 C 173.188 90.163,172.929 91.434,172.816 92.539 C 172.605 94.592,172.376 95.467,171.909 96.000 C 171.746 96.185,171.594 97.142,171.512 98.500 C 171.379 100.699,171.169 101.622,170.668 102.215 C 170.509 102.403,170.324 103.478,170.210 104.883 C 170.078 106.504,169.893 107.496,169.618 108.068 C 169.399 108.526,169.121 109.696,169.001 110.669 C 168.882 111.642,168.608 112.902,168.392 113.469 C 167.613 115.518,167.410 115.467,175.835 115.370 C 181.697 115.302,181.929 115.285,182.457 114.869 C 182.758 114.633,183.454 114.331,184.002 114.199 C 184.551 114.068,185.000 113.893,185.000 113.811 C 185.000 113.729,185.225 113.401,185.500 113.081 C 185.775 112.761,186.000 112.348,186.000 112.161 C 186.000 111.975,186.165 111.705,186.366 111.561 C 186.849 111.216,187.199 110.159,187.206 109.020 C 187.210 108.458,187.404 107.711,187.704 107.100 C 187.975 106.550,188.198 105.740,188.200 105.300 C 188.205 103.921,188.600 101.921,188.968 101.400 C 189.211 101.057,189.427 100.026,189.656 98.122 C 189.892 96.156,190.088 95.234,190.327 94.970 C 190.552 94.721,190.716 94.045,190.816 92.948 C 190.899 92.042,191.031 90.698,191.111 89.963 C 191.304 88.177,190.892 86.225,190.273 85.990 C 190.034 85.899,189.663 85.636,189.449 85.407 C 189.201 85.140,188.632 84.919,187.880 84.796 C 186.424 84.557,175.262 84.560,174.670 84.799 M196.726 85.050 C 196.570 85.633,196.568 86.483,196.721 86.884 C 196.894 87.332,201.609 87.343,202.676 86.897 C 203.371 86.607,203.400 86.554,203.400 85.597 L 203.400 84.600 200.123 84.600 C 196.894 84.600,196.845 84.607,196.726 85.050 M183.400 89.059 C 184.348 89.538,184.305 93.551,183.330 95.610 C 183.150 95.990,182.924 97.083,182.828 98.039 C 182.714 99.164,182.495 100.079,182.206 100.633 C 181.914 101.193,181.705 102.076,181.600 103.194 C 181.376 105.560,181.193 106.419,180.789 107.000 C 180.597 107.275,180.387 107.938,180.321 108.473 C 180.071 110.510,177.618 111.818,176.377 110.577 C 175.904 110.104,175.965 108.498,176.488 107.694 C 176.633 107.471,176.863 106.301,177.000 105.094 C 177.256 102.841,177.466 102.006,177.837 101.777 C 177.953 101.705,178.160 100.566,178.295 99.244 C 178.487 97.380,178.638 96.708,178.971 96.240 C 179.279 95.808,179.400 95.341,179.400 94.586 C 179.400 92.308,180.303 89.238,181.065 88.928 C 181.537 88.735,182.913 88.812,183.400 89.059 M212.004 89.948 C 211.841 90.012,211.589 90.182,211.445 90.327 C 211.300 90.471,210.804 90.694,210.341 90.823 C 209.878 90.951,209.302 91.269,209.060 91.528 C 208.817 91.788,208.535 92.000,208.433 92.000 C 208.091 92.000,206.600 93.642,206.600 94.019 C 206.600 94.223,206.375 94.538,206.100 94.718 C 205.776 94.931,205.600 95.232,205.600 95.573 C 205.599 96.515,205.055 98.987,204.743 99.463 C 204.575 99.718,204.336 100.776,204.211 101.814 C 204.087 102.851,203.763 104.345,203.492 105.134 C 203.052 106.415,203.000 106.896,203.000 109.657 C 203.000 113.001,203.068 113.235,204.348 114.265 C 204.598 114.466,204.945 114.774,205.120 114.949 C 205.975 115.804,213.109 115.649,214.174 114.752 C 214.513 114.467,215.040 114.179,215.345 114.112 C 215.671 114.040,216.040 113.744,216.241 113.395 C 216.428 113.068,216.721 112.800,216.891 112.800 C 217.069 112.800,217.200 112.627,217.200 112.391 C 217.200 112.152,217.434 111.847,217.760 111.660 C 218.174 111.422,218.379 111.088,218.548 110.377 C 218.674 109.848,218.971 109.152,219.209 108.830 C 219.512 108.420,219.650 107.925,219.671 107.173 L 219.700 106.100 217.014 106.100 L 214.327 106.100 213.997 107.457 C 213.815 108.204,213.561 108.919,213.433 109.047 C 213.305 109.175,213.199 109.420,213.199 109.590 C 213.196 110.262,212.759 111.422,212.373 111.782 C 211.360 112.726,209.600 112.379,209.600 111.235 C 209.600 110.930,209.490 110.570,209.355 110.435 C 209.162 110.242,209.162 110.107,209.355 109.798 C 209.490 109.582,209.600 108.905,209.600 108.294 C 209.600 106.950,210.123 104.303,210.504 103.722 C 210.656 103.490,210.872 102.355,210.985 101.200 C 211.259 98.388,211.466 97.334,211.866 96.724 C 212.050 96.444,212.200 95.936,212.200 95.597 C 212.200 94.841,212.712 93.800,213.084 93.800 C 213.234 93.800,213.410 93.663,213.474 93.495 C 213.639 93.064,214.424 92.808,214.867 93.040 C 215.607 93.428,215.853 94.519,215.702 96.744 L 215.562 98.800 218.347 98.800 L 221.133 98.800 221.378 98.050 C 221.804 96.745,221.899 94.114,221.547 93.360 C 221.377 92.997,221.107 92.381,220.946 91.991 C 220.721 91.443,220.472 91.222,219.849 91.016 C 219.406 90.870,218.795 90.537,218.491 90.275 C 217.944 89.806,213.002 89.556,212.004 89.948 M231.505 90.406 C 230.848 90.733,230.176 91.000,230.013 91.000 C 229.849 91.000,229.487 91.227,229.208 91.505 C 228.928 91.782,228.273 92.425,227.750 92.934 C 227.228 93.442,226.800 94.012,226.800 94.201 C 226.800 94.390,226.583 94.864,226.318 95.254 C 226.014 95.702,225.753 96.506,225.611 97.432 C 225.487 98.239,225.204 99.260,224.982 99.700 C 224.731 100.197,224.473 101.378,224.299 102.820 C 224.145 104.096,223.869 105.536,223.685 106.020 C 222.892 108.113,222.916 112.157,223.728 112.977 C 223.987 113.240,224.200 113.566,224.200 113.703 C 224.200 113.840,224.474 114.065,224.808 114.203 C 225.142 114.342,225.535 114.625,225.681 114.833 C 226.301 115.719,233.882 115.730,234.873 114.846 C 235.108 114.636,235.615 114.342,236.000 114.192 C 236.863 113.855,238.261 112.457,238.809 111.383 C 239.034 110.942,239.341 110.534,239.490 110.476 C 239.663 110.410,239.813 109.865,239.901 108.989 C 239.977 108.228,240.193 107.306,240.380 106.939 C 240.872 105.974,240.379 105.800,237.164 105.800 C 234.259 105.800,234.628 105.531,234.234 107.930 C 234.025 109.199,232.997 111.588,232.471 112.024 C 232.070 112.357,230.288 112.368,229.960 112.040 C 229.308 111.387,229.888 105.148,230.742 103.640 C 231.415 102.451,231.656 102.400,236.568 102.400 L 240.909 102.400 241.278 101.650 C 241.481 101.238,241.793 100.630,241.972 100.300 C 242.238 99.811,242.299 99.058,242.299 96.234 L 242.300 92.769 241.750 92.368 C 241.447 92.147,241.200 91.796,241.200 91.587 C 241.200 91.339,241.009 91.161,240.650 91.072 C 240.079 90.932,239.293 90.490,238.836 90.053 C 238.230 89.474,232.860 89.733,231.505 90.406 M195.960 90.136 C 195.727 90.197,195.581 90.520,195.496 91.163 C 195.221 93.221,194.990 94.279,194.684 94.875 C 194.508 95.219,194.287 96.355,194.194 97.400 C 194.020 99.341,193.759 100.512,193.300 101.400 C 193.157 101.675,192.944 102.867,192.826 104.049 C 192.699 105.321,192.446 106.587,192.206 107.149 C 191.982 107.672,191.723 108.865,191.630 109.800 C 191.514 110.957,191.286 111.866,190.917 112.645 C 190.553 113.416,190.396 114.038,190.438 114.545 L 190.500 115.300 193.786 115.300 L 197.073 115.300 197.391 114.000 C 197.567 113.285,197.792 112.569,197.892 112.410 C 197.991 112.250,198.231 111.004,198.424 109.640 C 198.645 108.072,198.891 107.031,199.092 106.808 C 199.308 106.571,199.471 105.785,199.597 104.378 C 199.831 101.765,199.964 101.074,200.406 100.200 C 200.612 99.793,200.857 98.578,200.991 97.300 C 201.135 95.919,201.363 94.823,201.604 94.356 C 202.027 93.535,202.325 91.326,202.122 90.517 L 201.992 90.000 199.146 90.023 C 197.581 90.036,196.147 90.087,195.960 90.136 M235.625 93.655 C 235.753 93.900,235.980 94.172,236.129 94.260 C 236.479 94.466,236.478 95.399,236.127 95.905 C 235.977 96.122,235.790 96.840,235.711 97.500 C 235.498 99.281,235.225 99.600,233.910 99.600 C 232.181 99.600,231.964 99.057,232.375 95.768 C 232.654 93.544,234.825 92.131,235.625 93.655 " stroke="none" fill="#fbfbfb" fill-rule="evenodd"></path><path id="path2" d="M130.500 53.985 C 130.060 54.060,129.465 54.251,129.177 54.411 C 128.889 54.570,128.199 54.945,127.642 55.246 C 125.652 56.319,123.670 58.858,123.072 61.100 C 122.854 61.914,122.804 68.212,122.802 95.041 C 122.801 114.347,122.725 128.171,122.618 128.441 C 122.518 128.693,122.326 129.575,122.192 130.400 C 121.889 132.269,121.432 133.956,121.190 134.106 C 121.088 134.169,120.865 134.701,120.695 135.289 C 120.524 135.876,120.200 136.569,119.974 136.829 C 119.749 137.088,119.447 137.570,119.304 137.900 C 118.810 139.034,114.162 143.400,113.449 143.400 C 113.324 143.400,113.105 143.568,112.961 143.773 C 112.818 143.978,112.395 144.213,112.021 144.295 C 109.421 144.867,109.274 145.804,111.722 146.205 C 113.325 146.467,281.754 146.458,283.800 146.195 C 285.346 145.997,286.400 145.671,286.400 145.392 C 286.400 145.305,286.816 145.074,287.324 144.880 C 288.302 144.507,290.800 142.193,290.800 141.661 C 290.800 141.502,291.093 140.951,291.450 140.436 L 292.100 139.500 292.100 100.082 L 292.100 60.665 291.450 59.619 C 291.093 59.044,290.800 58.509,290.800 58.431 C 290.800 58.208,289.399 56.606,288.697 56.026 C 288.336 55.727,286.712 54.794,285.600 54.245 C 284.873 53.887,132.579 53.631,130.500 53.985 M285.424 54.950 C 286.043 55.308,286.683 55.600,286.847 55.600 C 287.129 55.600,288.399 56.466,288.956 57.037 C 289.692 57.793,290.400 58.716,290.400 58.922 C 290.400 59.189,290.732 59.840,291.303 60.691 C 291.695 61.276,291.700 61.727,291.700 99.991 L 291.700 138.700 291.050 139.824 C 290.693 140.443,290.400 141.089,290.400 141.260 C 290.400 141.431,290.197 141.739,289.950 141.944 C 289.703 142.148,289.401 142.492,289.280 142.708 C 289.160 142.924,288.862 143.201,288.620 143.324 C 288.377 143.447,288.000 143.739,287.782 143.974 C 287.563 144.208,287.213 144.400,287.004 144.400 C 286.795 144.400,286.568 144.490,286.500 144.600 C 286.432 144.710,286.243 144.800,286.080 144.800 C 285.917 144.800,285.510 145.003,285.175 145.250 L 284.566 145.700 197.893 145.700 C 109.031 145.700,109.100 145.701,111.625 144.982 C 112.106 144.845,112.770 144.536,113.100 144.295 C 113.430 144.055,113.900 143.794,114.145 143.717 C 115.279 143.358,119.172 139.595,119.689 138.357 C 119.842 137.991,120.155 137.522,120.384 137.314 C 120.614 137.106,120.901 136.569,121.022 136.120 C 121.142 135.671,121.397 135.078,121.588 134.802 C 121.779 134.526,122.050 133.850,122.190 133.300 C 122.331 132.750,122.638 131.805,122.873 131.200 L 123.300 130.100 123.406 95.700 C 123.512 61.466,123.531 60.673,124.226 59.927 C 124.421 59.717,124.637 59.288,124.706 58.973 C 124.775 58.658,125.016 58.272,125.240 58.114 C 125.465 57.957,125.752 57.621,125.879 57.368 C 126.005 57.115,126.308 56.808,126.553 56.686 C 126.797 56.564,127.155 56.329,127.349 56.163 C 127.912 55.680,130.428 54.554,131.300 54.395 C 131.740 54.314,166.345 54.260,208.200 54.274 L 284.300 54.300 285.424 54.950 M174.700 83.144 C 174.029 83.307,173.657 83.776,173.417 84.760 C 173.291 85.277,173.013 86.285,172.799 87.000 C 172.585 87.715,172.221 89.245,171.990 90.400 C 171.758 91.555,171.483 92.860,171.378 93.300 C 171.273 93.740,171.108 94.775,171.011 95.600 C 170.915 96.425,170.650 97.640,170.423 98.300 C 170.195 98.960,169.842 100.535,169.638 101.800 C 169.435 103.065,169.168 104.286,169.046 104.514 C 168.924 104.742,168.674 105.953,168.490 107.205 C 168.307 108.458,167.952 110.116,167.702 110.891 C 167.044 112.930,166.856 115.309,167.313 115.814 C 167.759 116.308,180.720 116.396,182.935 115.921 C 184.511 115.583,186.716 113.891,187.357 112.529 C 187.785 111.618,188.567 108.832,188.796 107.400 C 188.928 106.575,189.245 105.180,189.500 104.300 C 189.756 103.420,190.071 101.868,190.200 100.852 C 190.329 99.835,190.593 98.665,190.787 98.252 C 190.981 97.838,191.255 96.690,191.397 95.700 C 191.539 94.710,191.823 93.315,192.029 92.600 C 193.347 88.031,192.151 84.749,188.900 84.007 C 188.240 83.856,187.610 83.670,187.500 83.593 C 186.826 83.120,176.312 82.751,174.700 83.144 M196.468 83.450 C 195.946 84.033,195.200 86.145,195.200 87.037 C 195.200 88.172,195.669 88.300,199.851 88.300 L 203.438 88.300 203.918 87.700 C 204.182 87.370,204.398 86.948,204.399 86.762 C 204.400 86.576,204.478 86.375,204.573 86.317 C 205.368 85.825,204.941 83.506,204.005 83.225 C 202.476 82.767,196.930 82.933,196.468 83.450 M246.470 83.290 C 246.043 83.476,245.603 83.969,245.101 84.826 L 244.361 86.088 244.897 87.148 C 245.306 87.955,245.629 88.301,246.255 88.604 C 247.068 88.997,248.800 89.153,248.800 88.834 C 248.800 88.742,249.048 88.540,249.350 88.384 C 250.229 87.930,250.387 87.590,250.394 86.136 C 250.405 83.800,248.490 82.411,246.470 83.290 M185.246 84.013 C 189.350 84.615,189.368 84.619,190.186 85.267 C 191.899 86.624,192.458 89.051,191.600 91.400 C 191.380 92.002,191.200 92.766,191.200 93.097 C 191.200 93.857,190.690 96.321,190.288 97.506 C 190.119 98.002,189.900 99.103,189.800 99.954 C 189.699 100.804,189.431 102.024,189.202 102.664 C 188.974 103.304,188.698 104.474,188.590 105.264 C 188.225 107.935,187.272 111.354,186.580 112.479 C 185.235 114.663,183.748 115.367,179.903 115.635 C 176.733 115.856,168.496 115.769,167.924 115.508 C 167.468 115.301,167.571 112.879,168.069 112.119 C 168.228 111.877,168.508 110.800,168.690 109.726 C 168.873 108.653,169.186 107.128,169.385 106.337 C 169.584 105.547,169.860 104.135,169.999 103.200 C 170.138 102.265,170.369 101.211,170.512 100.858 C 170.781 100.197,171.272 97.684,171.486 95.873 C 171.553 95.308,171.735 94.588,171.890 94.273 C 172.045 93.958,172.325 92.620,172.512 91.300 C 172.699 89.980,173.009 88.585,173.201 88.200 C 173.392 87.815,173.611 86.915,173.687 86.200 C 173.837 84.791,174.031 84.417,174.800 84.060 C 175.451 83.757,183.262 83.722,185.246 84.013 M203.689 84.245 C 204.371 85.219,203.763 87.477,202.764 87.677 C 201.401 87.950,196.662 87.815,196.397 87.496 C 196.061 87.092,196.255 84.951,196.686 84.293 C 197.168 83.558,203.179 83.517,203.689 84.245 M246.756 85.115 C 246.853 85.288,247.143 85.535,247.400 85.665 C 248.201 86.067,248.123 86.400,247.228 86.400 C 246.378 86.400,245.800 85.896,245.800 85.155 C 245.800 84.708,246.512 84.678,246.756 85.115 M246.350 86.904 C 246.350 87.453,246.102 87.728,245.901 87.401 C 245.747 87.153,245.963 86.400,246.188 86.400 C 246.277 86.400,246.350 86.627,246.350 86.904 M212.635 88.921 C 211.609 89.071,210.563 89.307,210.312 89.446 C 210.060 89.586,209.414 89.939,208.877 90.230 C 208.340 90.522,207.698 90.994,207.451 91.280 C 207.205 91.566,206.910 91.800,206.797 91.800 C 206.501 91.800,205.052 94.107,204.893 94.830 C 204.820 95.166,204.543 95.913,204.278 96.491 C 204.014 97.068,203.710 98.252,203.602 99.121 C 203.495 99.989,203.233 101.285,203.020 102.000 C 202.089 105.125,201.394 110.406,201.719 111.885 C 202.145 113.826,203.723 115.831,205.033 116.095 C 205.400 116.169,206.015 116.381,206.400 116.565 C 207.383 117.035,211.378 117.039,212.506 116.571 C 212.943 116.390,213.688 116.137,214.161 116.009 C 214.635 115.882,215.181 115.625,215.374 115.439 C 215.568 115.252,216.035 114.934,216.413 114.731 C 217.911 113.925,219.920 110.822,220.470 108.464 C 220.628 107.784,220.891 107.038,221.053 106.806 C 221.454 106.233,221.048 105.003,220.373 104.746 C 219.446 104.393,214.623 104.339,214.109 104.676 C 213.336 105.182,212.871 106.205,212.504 108.204 C 212.171 110.021,212.119 110.134,211.400 110.651 L 210.646 111.193 210.398 110.594 C 210.101 109.877,210.228 108.923,210.886 106.941 C 211.148 106.148,211.471 104.645,211.603 103.600 C 211.735 102.555,212.000 101.250,212.193 100.700 C 212.386 100.150,212.605 99.163,212.679 98.508 C 212.991 95.739,214.080 93.631,214.742 94.514 C 215.082 94.968,214.969 96.242,214.473 97.541 C 213.754 99.426,214.369 99.800,218.184 99.800 C 221.837 99.800,222.167 99.726,222.549 98.820 C 223.024 97.694,223.020 93.043,222.544 92.389 C 222.348 92.120,222.010 91.622,221.793 91.283 C 220.441 89.165,217.021 88.283,212.635 88.921 M232.900 88.907 C 230.502 89.258,229.527 89.716,227.598 91.402 C 226.622 92.254,225.000 94.638,225.000 95.220 C 225.000 95.382,224.737 96.277,224.416 97.208 C 224.095 98.138,223.768 99.530,223.691 100.300 C 223.613 101.070,223.411 101.970,223.241 102.300 C 222.424 103.887,221.780 110.890,222.291 112.642 C 222.620 113.771,224.312 115.791,224.934 115.798 C 225.063 115.799,225.963 116.070,226.933 116.400 C 229.166 117.159,231.922 117.252,233.181 116.610 C 233.602 116.395,234.386 116.113,234.923 115.983 C 235.460 115.852,236.130 115.533,236.411 115.273 C 236.692 115.013,237.013 114.800,237.124 114.800 C 237.363 114.800,239.103 113.101,239.758 112.228 C 240.010 111.892,240.356 111.147,240.526 110.574 C 240.697 110.000,240.962 109.339,241.116 109.104 C 241.270 108.869,241.481 108.226,241.586 107.674 C 241.690 107.123,241.792 106.588,241.812 106.486 C 241.937 105.835,241.742 104.942,241.400 104.600 C 240.798 103.998,234.778 103.988,234.265 104.587 C 233.779 105.155,233.102 106.923,232.723 108.616 C 232.338 110.336,232.288 110.425,231.535 110.757 C 230.596 111.169,230.307 110.251,230.793 108.400 C 230.894 108.015,231.122 107.115,231.299 106.400 C 232.018 103.499,231.972 103.601,232.558 103.592 C 232.856 103.587,234.994 103.565,237.309 103.542 C 242.351 103.492,242.444 103.460,242.793 101.655 C 242.916 101.020,243.193 99.819,243.408 98.986 C 243.964 96.838,243.945 94.199,243.366 93.000 C 243.127 92.505,242.849 91.920,242.749 91.700 C 241.687 89.359,237.642 88.212,232.900 88.907 M181.261 89.386 C 181.012 89.618,180.805 90.150,180.722 90.773 C 180.649 91.329,180.514 91.830,180.423 91.886 C 180.250 91.993,179.963 93.318,179.598 95.700 C 179.480 96.470,179.253 97.382,179.094 97.726 C 178.934 98.070,178.675 99.334,178.517 100.533 C 178.360 101.733,178.092 103.071,177.922 103.507 C 177.618 104.288,176.800 108.795,176.800 109.691 C 176.800 110.338,177.854 110.787,178.355 110.355 C 178.545 110.191,178.934 109.859,179.221 109.618 C 179.577 109.317,179.820 108.820,179.991 108.040 C 180.129 107.413,180.450 106.090,180.704 105.100 C 180.958 104.110,181.270 102.625,181.398 101.800 C 181.526 100.975,181.797 99.850,182.001 99.300 C 182.205 98.750,182.526 97.220,182.715 95.900 C 182.903 94.580,183.135 93.400,183.229 93.279 C 183.510 92.917,183.771 91.176,183.653 90.448 C 183.475 89.353,182.000 88.698,181.261 89.386 M195.346 89.250 C 194.826 89.643,193.859 92.714,193.599 94.800 C 193.469 95.845,193.178 97.284,192.953 97.997 C 192.728 98.711,192.383 100.196,192.187 101.297 C 191.990 102.399,191.698 103.885,191.538 104.600 C 191.377 105.315,191.138 106.485,191.006 107.200 C 190.875 107.915,190.603 108.995,190.402 109.600 C 190.201 110.205,189.944 111.466,189.831 112.403 C 189.718 113.339,189.535 114.345,189.423 114.639 C 189.258 115.072,189.296 115.268,189.625 115.686 L 190.029 116.200 193.803 116.200 C 198.512 116.200,198.550 116.181,198.805 113.692 C 198.983 111.968,199.186 111.000,199.666 109.600 C 199.836 109.105,200.077 107.760,200.202 106.611 C 200.328 105.462,200.568 104.256,200.736 103.930 C 200.905 103.604,201.251 102.204,201.506 100.819 C 201.761 99.433,202.105 97.760,202.270 97.100 C 202.435 96.440,202.708 95.135,202.877 94.200 C 203.045 93.265,203.334 91.939,203.519 91.253 C 203.909 89.802,203.789 89.527,202.628 89.205 C 201.544 88.903,195.757 88.939,195.346 89.250 M218.290 89.622 C 218.725 89.742,219.363 90.057,219.709 90.321 C 220.055 90.584,220.441 90.800,220.566 90.800 C 220.810 90.800,221.728 92.120,222.148 93.073 C 222.449 93.758,222.472 96.545,222.186 97.784 C 221.878 99.123,221.705 99.186,218.374 99.194 C 214.894 99.201,214.803 99.155,215.168 97.575 C 215.531 96.003,215.465 94.652,214.992 93.989 L 214.584 93.415 213.803 93.958 C 213.374 94.256,212.939 94.725,212.838 95.000 C 212.529 95.839,212.200 97.374,212.200 97.976 C 212.200 98.290,212.025 98.986,211.810 99.523 C 211.596 100.060,211.286 101.580,211.122 102.900 C 210.958 104.220,210.684 105.577,210.514 105.915 C 210.105 106.730,209.735 109.470,209.892 110.519 C 210.262 112.983,212.379 111.834,212.935 108.867 C 213.097 108.005,213.312 107.214,213.414 107.110 C 213.516 107.005,213.600 106.786,213.600 106.623 C 213.600 105.391,219.272 104.679,220.066 105.812 C 220.429 106.331,219.931 108.906,219.239 110.078 C 218.998 110.488,218.800 110.934,218.800 111.070 C 218.800 111.206,218.507 111.632,218.150 112.018 C 217.793 112.404,217.275 112.994,217.000 113.328 C 216.725 113.663,216.230 114.103,215.900 114.305 C 215.570 114.508,215.120 114.824,214.900 115.007 C 214.680 115.190,214.095 115.439,213.600 115.560 C 209.867 116.471,209.023 116.471,205.447 115.563 C 204.476 115.316,203.204 114.168,202.775 113.151 C 202.238 111.879,202.535 105.726,203.231 103.700 C 203.423 103.142,203.602 102.347,204.289 99.000 C 204.435 98.285,204.693 97.295,204.861 96.800 C 205.029 96.305,205.277 95.540,205.413 95.100 C 205.548 94.660,205.871 94.022,206.130 93.681 C 206.388 93.341,206.600 92.959,206.600 92.834 C 206.600 92.708,206.960 92.378,207.400 92.100 C 207.840 91.822,208.200 91.524,208.200 91.437 C 208.200 91.228,210.905 89.867,211.800 89.625 C 212.782 89.360,217.339 89.358,218.290 89.622 M238.901 89.653 C 242.408 90.734,243.548 93.530,242.693 98.952 C 242.030 103.152,242.266 103.000,236.398 103.000 C 231.106 103.000,231.542 102.814,230.862 105.366 C 229.590 110.138,229.854 112.383,231.604 111.678 C 232.437 111.342,232.765 110.870,233.114 109.508 C 233.945 106.262,234.439 105.248,235.266 105.093 C 236.586 104.846,240.797 105.071,241.005 105.400 C 241.311 105.886,241.228 107.053,240.832 107.803 C 240.630 108.186,240.315 109.103,240.132 109.841 C 239.950 110.578,239.598 111.410,239.350 111.690 C 239.103 111.969,238.630 112.520,238.300 112.914 C 237.970 113.307,237.610 113.715,237.500 113.820 C 235.861 115.382,231.193 116.707,229.100 116.204 C 228.550 116.072,227.521 115.838,226.814 115.685 C 225.221 115.339,224.224 114.695,223.364 113.456 L 222.700 112.500 222.722 110.100 C 222.743 107.744,223.076 105.369,223.688 103.212 C 223.858 102.614,224.087 101.407,224.197 100.529 C 224.307 99.652,224.521 98.746,224.671 98.515 C 224.822 98.285,225.099 97.422,225.285 96.598 C 225.472 95.774,225.774 94.875,225.957 94.600 C 226.140 94.325,226.472 93.773,226.695 93.373 C 226.918 92.973,227.415 92.388,227.800 92.074 C 228.185 91.760,228.621 91.387,228.769 91.247 C 228.917 91.106,229.322 90.847,229.669 90.670 C 230.016 90.494,230.424 90.249,230.576 90.125 C 231.381 89.469,237.230 89.138,238.901 89.653 M182.845 90.066 C 183.080 90.436,183.025 91.418,182.700 92.668 C 182.535 93.301,182.399 94.063,182.397 94.360 C 182.396 94.657,182.172 95.755,181.899 96.800 C 181.627 97.845,181.224 99.678,181.003 100.872 C 180.781 102.067,180.468 103.436,180.305 103.914 C 180.143 104.392,179.915 105.395,179.799 106.142 C 179.501 108.048,179.274 108.654,178.622 109.279 C 177.862 110.007,177.292 109.575,177.490 108.419 C 177.687 107.266,178.040 105.767,178.330 104.843 C 178.479 104.372,178.600 103.742,178.600 103.443 C 178.600 102.811,179.060 100.542,179.479 99.100 C 179.639 98.550,179.877 97.380,180.008 96.500 C 180.138 95.620,180.460 94.175,180.723 93.290 C 180.985 92.404,181.200 91.386,181.200 91.027 C 181.200 89.737,182.247 89.126,182.845 90.066 M202.350 89.726 C 202.666 89.811,202.800 89.997,202.800 90.351 C 202.800 91.196,202.012 95.648,201.712 96.500 C 201.557 96.940,201.375 97.705,201.308 98.200 C 201.011 100.408,200.737 101.772,200.404 102.700 C 200.207 103.250,199.937 104.555,199.805 105.600 C 199.672 106.645,199.392 108.040,199.184 108.700 C 198.976 109.360,198.711 110.620,198.595 111.500 C 198.052 115.624,197.861 115.800,193.916 115.800 C 189.355 115.800,189.458 116.020,191.077 109.700 C 191.359 108.600,191.592 107.464,191.595 107.176 C 191.598 106.888,191.770 106.120,191.978 105.469 C 192.186 104.818,192.506 103.262,192.690 102.010 C 192.873 100.759,193.163 99.465,193.334 99.134 C 193.505 98.804,193.812 97.356,194.016 95.917 C 194.220 94.478,194.567 92.805,194.787 92.200 C 195.007 91.595,195.190 90.937,195.193 90.737 C 195.213 89.654,195.382 89.600,198.757 89.603 C 200.486 89.604,202.103 89.660,202.350 89.726 M233.727 94.286 C 232.276 95.737,232.248 98.843,233.685 98.963 C 234.916 99.067,235.495 98.087,235.613 95.700 C 235.709 93.755,234.880 93.133,233.727 94.286 M235.095 96.200 C 234.936 97.744,234.765 98.000,233.892 98.000 C 233.050 98.000,232.967 97.732,233.427 96.500 C 233.632 95.950,233.800 95.376,233.800 95.223 C 233.800 95.071,234.000 94.774,234.244 94.562 C 234.957 93.943,235.266 94.538,235.095 96.200 " stroke="none" fill="#e79b9f" fill-rule="evenodd"></path><path id="path3" d="M129.073 53.738 C 128.839 53.784,128.411 54.087,128.122 54.411 C 127.833 54.735,127.421 55.000,127.205 55.000 C 126.657 55.000,124.791 56.680,124.242 57.669 C 123.990 58.122,123.656 58.565,123.500 58.652 C 123.199 58.821,122.794 60.030,122.814 60.700 C 122.821 60.920,122.941 60.740,123.081 60.300 C 123.589 58.703,126.543 55.201,127.381 55.200 C 127.536 55.200,127.985 54.953,128.379 54.650 C 128.778 54.343,129.583 54.001,130.197 53.876 L 131.300 53.651 130.400 53.653 C 129.905 53.654,129.308 53.692,129.073 53.738 M285.000 53.887 C 285.605 54.022,286.450 54.373,286.878 54.666 C 287.306 54.960,287.765 55.200,287.898 55.200 C 288.262 55.200,290.621 57.609,290.932 58.299 C 291.082 58.629,291.384 59.125,291.604 59.401 C 292.378 60.369,292.398 61.355,292.399 100.113 C 292.400 139.066,292.385 139.835,291.607 140.700 C 291.409 140.920,291.088 141.415,290.893 141.800 C 290.420 142.737,288.547 144.559,287.688 144.918 C 287.308 145.077,286.815 145.363,286.594 145.553 C 286.372 145.744,285.811 146.011,285.346 146.146 L 284.500 146.393 285.493 146.316 C 286.258 146.257,286.590 146.120,286.934 145.720 C 287.180 145.434,287.553 145.200,287.763 145.200 C 288.461 145.200,290.579 143.216,291.022 142.148 C 291.158 141.818,291.469 141.349,291.712 141.106 C 291.955 140.863,292.221 140.267,292.302 139.782 C 292.384 139.297,292.574 138.722,292.725 138.505 C 293.145 137.902,293.123 62.079,292.702 61.523 C 292.545 61.316,292.355 60.737,292.280 60.237 C 292.198 59.690,291.967 59.164,291.700 58.914 C 291.455 58.687,291.191 58.295,291.113 58.045 C 290.868 57.264,288.842 55.245,288.040 54.981 C 287.633 54.848,287.185 54.576,287.044 54.377 C 286.743 53.951,285.588 53.594,284.600 53.622 C 283.988 53.639,284.038 53.672,285.000 53.887 M122.349 61.653 C 122.021 62.154,122.000 64.108,121.994 94.743 C 121.987 129.675,121.937 131.663,121.040 132.925 C 120.816 133.241,120.536 133.971,120.419 134.547 C 120.301 135.123,120.029 135.771,119.814 135.986 C 119.599 136.201,119.316 136.733,119.186 137.168 C 119.038 137.663,118.772 138.040,118.474 138.175 C 118.214 138.294,118.000 138.508,118.000 138.651 C 118.000 138.794,117.753 139.152,117.450 139.446 C 117.147 139.740,116.730 140.153,116.523 140.364 C 116.316 140.574,115.839 141.006,115.465 141.323 C 114.103 142.476,113.760 142.827,113.878 142.945 C 114.025 143.091,114.317 142.831,117.050 140.122 C 118.233 138.949,119.200 137.864,119.200 137.710 C 119.200 137.557,119.414 137.176,119.675 136.865 C 119.937 136.554,120.297 135.868,120.476 135.340 C 120.655 134.812,120.969 134.047,121.174 133.640 C 121.523 132.945,121.677 132.242,122.191 128.977 C 122.330 128.099,122.400 116.798,122.400 95.357 C 122.400 72.709,122.465 62.874,122.616 62.439 C 122.953 61.474,122.786 60.986,122.349 61.653 M174.550 84.514 C 174.248 84.679,173.997 84.877,173.994 84.956 C 173.949 86.001,173.527 88.251,173.276 88.778 C 173.099 89.152,172.871 90.052,172.770 90.779 C 172.668 91.505,172.517 92.606,172.432 93.224 C 172.348 93.843,172.127 94.582,171.940 94.867 C 171.557 95.452,171.474 96.302,171.820 96.087 C 172.255 95.819,172.608 94.569,172.813 92.566 C 172.929 91.438,173.188 90.165,173.395 89.712 C 173.600 89.262,173.862 88.047,173.977 87.013 C 174.257 84.509,173.702 84.709,180.554 84.641 C 187.017 84.577,188.820 84.732,189.446 85.403 C 189.662 85.635,190.034 85.899,190.273 85.990 C 190.855 86.211,191.297 88.153,191.128 89.749 C 191.062 90.382,190.964 91.620,190.911 92.500 L 190.816 94.100 191.086 92.600 C 191.234 91.775,191.471 90.598,191.612 89.985 C 191.919 88.646,191.267 86.150,190.509 85.760 C 190.284 85.644,189.901 85.369,189.658 85.148 C 188.709 84.284,175.961 83.749,174.550 84.514 M196.620 84.830 C 195.804 87.170,196.270 87.600,199.627 87.600 C 203.130 87.600,203.302 87.536,203.596 86.121 C 203.992 84.212,203.970 84.200,200.113 84.200 L 196.839 84.200 196.620 84.830 M203.400 85.597 C 203.400 86.984,202.861 87.200,199.397 87.200 C 196.628 87.200,196.597 87.187,196.603 86.034 C 196.610 84.550,196.488 84.600,200.123 84.600 L 203.400 84.600 203.400 85.597 M181.065 88.928 C 180.318 89.232,179.369 92.406,179.424 94.416 C 179.445 95.178,179.481 95.092,179.689 93.800 C 179.822 92.975,180.081 91.952,180.265 91.526 C 180.449 91.100,180.600 90.557,180.600 90.320 C 180.600 89.073,182.462 88.462,183.400 89.400 C 183.943 89.943,183.954 92.156,183.421 93.642 C 183.212 94.224,182.893 95.713,182.711 96.951 C 182.529 98.189,182.206 99.584,181.994 100.051 C 181.782 100.518,181.614 101.170,181.620 101.500 C 181.626 101.830,181.675 101.965,181.728 101.800 C 181.782 101.635,182.012 101.105,182.240 100.623 C 182.480 100.117,182.729 99.017,182.829 98.023 C 182.925 97.075,183.150 95.990,183.330 95.610 C 183.808 94.600,184.280 91.107,184.071 90.120 C 183.838 89.019,182.319 88.416,181.065 88.928 M234.100 89.608 C 233.000 89.703,233.318 89.737,235.583 89.765 C 237.169 89.784,238.429 89.767,238.383 89.728 C 238.203 89.571,235.423 89.493,234.100 89.608 M213.858 89.748 C 214.605 89.787,215.775 89.787,216.458 89.748 C 217.141 89.709,216.530 89.677,215.100 89.678 C 213.670 89.678,213.111 89.710,213.858 89.748 M195.420 90.430 C 195.299 90.776,195.200 91.270,195.200 91.528 C 195.200 91.785,195.020 92.469,194.800 93.048 C 194.580 93.626,194.355 94.550,194.299 95.100 C 194.244 95.650,194.252 95.965,194.317 95.800 C 194.382 95.635,194.575 95.191,194.744 94.814 C 194.914 94.437,195.181 93.269,195.337 92.220 C 195.687 89.866,195.285 90.111,198.909 90.036 L 201.985 89.972 202.119 90.503 C 202.316 91.288,202.027 93.628,201.664 94.182 C 201.349 94.664,200.804 97.696,200.801 98.983 C 200.799 100.107,200.990 99.571,201.206 97.845 C 201.318 96.955,201.531 95.929,201.680 95.564 C 202.153 94.403,202.639 90.930,202.412 90.332 L 202.210 89.800 198.925 89.800 L 195.639 89.800 195.420 90.430 M210.700 90.295 C 210.260 90.566,209.763 90.790,209.596 90.794 C 208.854 90.809,205.284 94.551,205.657 94.923 C 205.823 95.090,206.600 94.340,206.600 94.012 C 206.600 93.640,208.094 92.000,208.433 92.000 C 208.535 92.000,208.817 91.788,209.060 91.528 C 209.302 91.269,209.878 90.951,210.341 90.823 C 210.804 90.694,211.300 90.471,211.445 90.327 C 211.589 90.182,211.841 90.012,212.004 89.948 C 212.217 89.864,212.188 89.827,211.900 89.817 C 211.680 89.809,211.140 90.024,210.700 90.295 M218.491 90.275 C 218.795 90.537,219.406 90.870,219.849 91.016 C 220.472 91.222,220.721 91.443,220.946 91.991 C 221.107 92.381,221.377 92.997,221.547 93.360 C 221.899 94.114,221.804 96.745,221.378 98.050 L 221.133 98.800 218.347 98.800 L 215.562 98.800 215.702 96.744 C 215.853 94.519,215.607 93.428,214.867 93.040 C 214.424 92.808,213.639 93.064,213.474 93.495 C 213.410 93.663,213.234 93.800,213.084 93.800 C 212.693 93.800,212.196 94.864,212.224 95.640 C 212.247 96.276,212.255 96.269,212.456 95.435 C 212.617 94.764,212.865 94.416,213.565 93.882 L 214.467 93.193 214.930 93.628 C 215.549 94.209,215.663 94.966,215.439 97.000 C 215.336 97.935,215.328 98.783,215.421 98.885 C 215.617 99.100,220.488 99.134,221.131 98.925 C 222.374 98.521,222.683 94.329,221.600 92.569 C 221.270 92.033,220.996 91.528,220.992 91.447 C 220.982 91.257,218.490 89.800,218.176 89.800 C 218.045 89.800,218.187 90.014,218.491 90.275 M230.900 90.295 C 230.460 90.566,229.960 90.790,229.788 90.794 C 229.389 90.802,226.600 93.488,226.600 93.863 C 226.600 94.019,226.416 94.380,226.191 94.667 C 225.965 94.953,225.647 95.831,225.483 96.619 C 225.318 97.406,225.053 98.303,224.894 98.612 C 224.734 98.921,224.504 99.832,224.382 100.637 C 224.261 101.442,223.983 102.820,223.765 103.700 C 223.264 105.724,223.084 107.263,223.411 106.735 C 223.793 106.117,224.001 105.192,224.296 102.800 C 224.469 101.388,224.734 100.191,224.982 99.700 C 225.204 99.260,225.487 98.239,225.611 97.432 C 225.753 96.506,226.014 95.702,226.318 95.254 C 226.583 94.864,226.800 94.390,226.800 94.201 C 226.800 94.012,227.228 93.442,227.750 92.934 C 228.273 92.425,228.928 91.782,229.208 91.505 C 229.487 91.227,229.849 91.000,230.013 91.000 C 230.176 91.000,230.848 90.733,231.505 90.406 C 232.418 89.953,232.582 89.811,232.200 89.807 C 231.925 89.804,231.340 90.024,230.900 90.295 M238.836 90.053 C 239.293 90.490,240.079 90.932,240.650 91.072 C 241.009 91.161,241.200 91.339,241.200 91.587 C 241.200 91.796,241.447 92.147,241.750 92.368 L 242.300 92.769 242.299 96.234 C 242.299 99.058,242.238 99.811,241.972 100.300 C 241.793 100.630,241.481 101.238,241.278 101.650 L 240.909 102.400 236.568 102.400 C 234.180 102.400,232.007 102.483,231.738 102.585 C 230.674 102.990,229.769 105.645,229.824 108.200 L 229.848 109.300 230.094 107.800 C 230.932 102.695,230.799 102.801,236.385 102.797 C 241.195 102.794,241.084 102.812,241.715 101.900 C 242.890 100.204,243.052 92.761,241.930 92.052 C 241.798 91.968,241.533 91.653,241.341 91.350 C 241.148 91.048,240.875 90.800,240.734 90.800 C 240.593 90.800,240.173 90.575,239.800 90.300 C 239.076 89.766,238.337 89.576,238.836 90.053 M234.400 92.958 C 233.502 93.269,232.517 94.636,232.375 95.768 C 231.964 99.054,232.182 99.600,233.903 99.600 C 235.093 99.600,235.600 99.183,235.600 98.205 C 235.599 97.738,235.573 97.753,235.250 98.399 C 234.501 99.895,232.400 99.398,232.400 97.724 C 232.400 96.273,232.843 94.924,233.573 94.150 C 234.928 92.715,235.897 93.538,235.751 96.000 C 235.702 96.825,235.700 97.235,235.747 96.912 C 235.793 96.588,235.959 96.141,236.116 95.917 C 236.476 95.403,236.484 94.469,236.129 94.260 C 235.980 94.172,235.753 93.900,235.625 93.655 C 235.344 93.119,234.811 92.816,234.400 92.958 M190.623 94.384 C 190.610 94.541,190.463 94.820,190.295 95.006 C 190.095 95.227,189.873 96.307,189.656 98.122 C 189.427 100.026,189.211 101.057,188.968 101.400 C 188.584 101.943,188.189 104.018,188.226 105.300 C 188.243 105.890,188.322 105.662,188.527 104.434 C 188.681 103.518,188.942 102.506,189.108 102.185 C 189.274 101.864,189.544 100.634,189.708 99.451 C 189.873 98.268,190.193 96.739,190.419 96.053 C 190.645 95.367,190.789 94.647,190.738 94.453 C 190.681 94.235,190.638 94.208,190.623 94.384 M205.312 95.952 C 205.231 96.420,204.993 97.271,204.784 97.843 C 204.575 98.415,204.266 99.815,204.097 100.954 C 203.928 102.092,203.612 103.491,203.395 104.062 C 203.178 104.633,203.002 105.415,203.004 105.800 C 203.012 107.059,203.953 103.970,204.205 101.860 C 204.331 100.803,204.589 99.692,204.790 99.336 C 205.170 98.664,205.715 95.837,205.554 95.373 C 205.502 95.223,205.393 95.483,205.312 95.952 M178.919 96.300 C 178.650 96.709,178.467 97.579,178.294 99.263 C 178.159 100.574,177.953 101.705,177.837 101.777 C 177.466 102.006,177.256 102.841,177.000 105.094 C 176.863 106.301,176.633 107.471,176.488 107.694 C 175.965 108.498,175.904 110.104,176.377 110.577 C 177.618 111.818,180.071 110.510,180.321 108.473 C 180.387 107.938,180.598 107.274,180.792 106.997 C 181.182 106.438,181.612 104.294,181.578 103.084 C 181.558 102.399,181.523 102.465,181.298 103.600 C 181.157 104.315,180.860 105.530,180.638 106.300 C 180.416 107.070,180.178 108.035,180.109 108.445 C 179.982 109.200,178.883 110.475,178.155 110.712 C 177.627 110.883,176.370 110.216,176.483 109.825 C 176.644 109.273,177.004 107.173,177.206 105.617 C 177.312 104.802,177.614 103.497,177.878 102.717 C 178.142 101.938,178.420 100.539,178.496 99.608 C 178.582 98.560,178.785 97.622,179.029 97.143 C 179.544 96.134,179.458 95.477,178.919 96.300 M193.931 97.683 C 193.756 99.108,193.462 100.000,193.168 100.000 C 193.076 100.000,193.003 100.383,193.006 100.850 C 193.012 101.615,193.040 101.664,193.288 101.337 C 193.716 100.773,194.232 98.382,194.162 97.287 L 194.100 96.300 193.931 97.683 M211.770 96.850 C 211.455 97.432,211.201 98.767,211.096 100.400 L 211.012 101.700 211.267 100.500 C 211.407 99.840,211.624 99.113,211.750 98.885 C 212.005 98.418,212.317 96.400,212.133 96.400 C 212.068 96.400,211.904 96.603,211.770 96.850 M171.400 97.450 C 171.399 98.384,170.900 100.774,170.522 101.644 C 170.345 102.053,170.213 102.683,170.230 103.044 L 170.260 103.700 170.347 103.100 C 170.394 102.770,170.546 102.365,170.684 102.200 C 171.234 101.540,171.967 96.800,171.519 96.800 C 171.453 96.800,171.400 97.093,171.400 97.450 M200.369 100.300 C 199.989 101.000,199.530 103.630,199.635 104.500 C 199.687 104.924,199.775 104.680,199.934 103.671 C 200.059 102.886,200.311 101.926,200.495 101.538 C 200.679 101.150,200.799 100.578,200.762 100.267 L 200.695 99.700 200.369 100.300 M192.730 103.100 C 192.646 103.870,192.407 104.995,192.198 105.600 C 191.989 106.205,191.761 107.105,191.691 107.600 C 191.426 109.476,190.977 111.465,190.694 112.012 C 190.532 112.325,190.401 112.832,190.402 113.140 C 190.408 114.417,191.452 111.578,191.629 109.805 C 191.723 108.867,191.974 107.692,192.186 107.194 C 192.606 106.211,193.077 103.200,192.956 102.274 C 192.911 101.928,192.821 102.257,192.730 103.100 M210.800 102.655 C 210.800 103.016,210.672 103.493,210.516 103.716 C 210.149 104.241,209.593 106.937,209.624 108.042 C 209.645 108.777,209.686 108.685,209.908 107.400 C 210.050 106.575,210.310 105.562,210.486 105.149 C 210.820 104.366,211.152 102.000,210.928 102.000 C 210.858 102.000,210.800 102.295,210.800 102.655 M169.841 105.150 C 169.715 105.892,169.478 106.975,169.315 107.556 C 169.153 108.136,168.925 109.293,168.809 110.127 C 168.693 110.962,168.457 111.942,168.284 112.306 C 167.476 114.008,167.608 115.581,168.538 115.340 C 168.825 115.266,168.806 115.242,168.450 115.223 C 167.889 115.194,167.876 114.826,168.392 113.469 C 168.608 112.902,168.882 111.642,169.001 110.669 C 169.121 109.696,169.405 108.513,169.632 108.040 C 170.004 107.266,170.439 103.800,170.164 103.800 C 170.113 103.800,169.968 104.408,169.841 105.150 M234.574 105.731 C 234.424 105.912,234.195 106.520,234.067 107.081 C 233.608 109.087,232.717 111.252,232.200 111.615 C 230.922 112.514,230.097 112.131,229.797 110.500 L 229.614 109.500 229.714 110.697 C 229.837 112.166,229.966 112.304,231.197 112.286 C 232.660 112.264,233.787 110.647,234.234 107.930 C 234.628 105.531,234.259 105.800,237.164 105.800 C 240.412 105.800,240.861 105.966,240.373 106.985 C 240.185 107.378,239.981 108.285,239.920 109.000 L 239.808 110.300 240.089 109.200 C 240.243 108.595,240.511 107.830,240.684 107.500 C 241.205 106.503,241.101 105.874,240.370 105.620 C 239.306 105.249,234.905 105.333,234.574 105.731 M199.427 105.984 C 199.412 106.251,199.259 106.624,199.087 106.814 C 198.892 107.029,198.642 108.096,198.424 109.640 C 198.231 111.004,197.991 112.250,197.892 112.410 C 197.792 112.569,197.567 113.285,197.392 114.000 L 197.073 115.300 194.287 115.409 L 191.500 115.517 194.236 115.559 C 197.261 115.604,197.450 115.539,197.709 114.359 C 197.787 114.004,197.926 113.575,198.018 113.407 C 198.109 113.238,198.325 112.155,198.496 111.000 C 198.667 109.845,198.992 108.340,199.218 107.655 C 199.444 106.971,199.590 106.206,199.542 105.955 C 199.456 105.508,199.454 105.508,199.427 105.984 M214.249 105.850 C 214.139 105.988,213.983 106.325,213.902 106.600 C 213.822 106.875,213.641 107.370,213.501 107.700 C 213.362 108.030,213.141 108.812,213.012 109.438 C 212.523 111.804,210.600 112.961,209.886 111.320 L 209.616 110.700 209.608 111.245 C 209.592 112.378,211.364 112.722,212.373 111.782 C 212.759 111.422,213.196 110.262,213.199 109.590 C 213.199 109.419,213.305 109.175,213.433 109.047 C 213.561 108.919,213.815 108.204,213.997 107.457 L 214.327 106.100 217.014 106.100 L 219.700 106.100 219.807 106.800 L 219.914 107.500 220.040 106.900 C 220.278 105.770,219.881 105.600,216.993 105.600 C 215.198 105.600,214.390 105.674,214.249 105.850 M187.639 107.267 C 187.398 107.798,187.200 108.617,187.200 109.087 C 187.200 110.159,186.842 111.221,186.366 111.561 C 186.165 111.705,186.000 111.975,186.000 112.161 C 186.000 112.348,185.775 112.761,185.500 113.081 C 185.225 113.401,185.000 113.729,185.000 113.811 C 185.000 113.893,184.551 114.068,184.002 114.199 C 183.454 114.331,182.795 114.604,182.539 114.805 C 182.283 115.007,181.719 115.208,181.287 115.252 L 180.500 115.333 181.411 115.366 C 182.879 115.421,185.353 114.128,185.980 112.980 C 186.244 112.496,186.582 111.957,186.731 111.782 C 186.881 111.608,187.174 110.682,187.384 109.725 C 187.593 108.768,187.868 107.859,187.996 107.704 C 188.124 107.550,188.195 107.171,188.154 106.862 C 188.082 106.328,188.056 106.348,187.639 107.267 M202.725 108.068 C 202.260 112.232,203.206 114.877,205.309 115.287 C 205.634 115.350,205.767 115.342,205.604 115.269 C 205.441 115.196,205.194 115.022,205.055 114.883 C 204.916 114.744,204.599 114.464,204.351 114.259 C 203.123 113.248,203.107 113.194,203.000 109.730 C 202.902 106.578,202.896 106.538,202.725 108.068 M222.928 108.150 C 222.627 109.973,222.882 112.633,223.420 113.276 C 223.523 113.399,223.763 113.681,223.954 113.902 C 225.999 116.273,232.586 116.625,236.038 114.546 C 237.104 113.904,238.800 112.350,238.800 112.015 C 238.800 111.931,239.025 111.601,239.300 111.281 C 239.844 110.648,239.942 110.321,239.550 110.447 C 239.413 110.491,239.073 110.926,238.794 111.414 C 238.109 112.615,236.849 113.870,236.000 114.196 C 235.615 114.344,235.108 114.636,234.873 114.846 C 233.882 115.730,226.301 115.719,225.681 114.833 C 225.535 114.625,225.142 114.342,224.808 114.203 C 224.474 114.065,224.200 113.840,224.200 113.703 C 224.200 113.566,223.953 113.207,223.650 112.904 C 223.103 112.358,223.100 112.340,223.147 109.877 C 223.195 107.307,223.140 106.871,222.928 108.150 M219.627 107.923 C 219.612 108.156,219.417 108.579,219.192 108.864 C 218.968 109.150,218.680 109.823,218.552 110.361 C 218.379 111.088,218.176 111.421,217.760 111.660 C 217.434 111.847,217.200 112.152,217.200 112.391 C 217.200 112.627,217.069 112.800,216.891 112.800 C 216.721 112.800,216.428 113.068,216.241 113.395 C 216.040 113.744,215.671 114.040,215.345 114.112 C 215.040 114.179,214.545 114.438,214.245 114.687 C 213.945 114.936,213.565 115.192,213.400 115.254 C 213.195 115.332,213.237 115.373,213.535 115.384 C 213.774 115.393,214.237 115.175,214.564 114.900 C 214.890 114.625,215.295 114.400,215.462 114.400 C 215.629 114.400,216.111 114.024,216.533 113.564 C 216.955 113.105,217.593 112.416,217.950 112.034 C 218.308 111.651,218.600 111.239,218.600 111.116 C 218.600 110.994,218.876 110.329,219.213 109.638 C 219.550 108.947,219.787 108.184,219.740 107.941 C 219.657 107.513,219.654 107.512,219.627 107.923 M209.267 109.913 C 209.201 110.086,209.249 110.329,209.373 110.453 C 209.542 110.622,209.600 110.542,209.600 110.140 C 209.600 109.538,209.450 109.436,209.267 109.913 M190.200 114.688 C 190.200 114.957,190.274 115.222,190.364 115.278 C 190.454 115.333,190.489 115.114,190.441 114.789 C 190.336 114.075,190.200 114.017,190.200 114.688 M170.759 115.549 C 171.672 115.586,173.112 115.586,173.959 115.548 C 174.807 115.511,174.060 115.481,172.300 115.481 C 170.540 115.481,169.847 115.512,170.759 115.549 M177.150 115.541 C 177.398 115.589,177.803 115.589,178.050 115.541 C 178.298 115.493,178.095 115.454,177.600 115.454 C 177.105 115.454,176.903 115.493,177.150 115.541 M206.600 115.638 C 207.510 115.860,211.498 115.859,212.400 115.636 C 212.872 115.519,211.926 115.464,209.500 115.465 C 207.093 115.466,206.132 115.524,206.600 115.638 M112.350 143.423 C 111.818 143.820,111.628 144.200,111.962 144.200 C 112.052 144.200,112.300 144.036,112.515 143.837 C 112.729 143.637,113.084 143.369,113.302 143.243 C 113.699 143.013,113.699 143.012,113.300 143.012 C 113.080 143.013,112.653 143.197,112.350 143.423 M110.026 144.400 C 108.809 144.687,108.470 145.226,109.067 145.921 L 109.565 146.500 196.933 146.501 L 284.300 146.502 197.500 146.401 C 130.695 146.323,110.604 146.245,110.284 146.061 C 109.178 145.426,109.497 144.769,111.096 144.386 C 111.624 144.259,111.637 144.241,111.200 144.241 C 110.925 144.241,110.397 144.313,110.026 144.400 " stroke="none" fill="#eccccc" fill-rule="evenodd"></path><path id="path4" d="M130.711 53.774 C 130.174 53.889,239.410 53.869,270.800 53.748 C 278.115 53.720,249.720 53.686,207.700 53.672 C 165.680 53.659,131.035 53.704,130.711 53.774 M128.400 54.630 C 127.996 54.984,127.900 55.129,128.173 54.972 C 128.434 54.822,128.929 54.547,129.273 54.360 C 129.762 54.094,129.812 54.019,129.500 54.018 C 129.280 54.017,128.785 54.292,128.400 54.630 M285.808 54.366 C 288.249 55.656,288.652 55.912,289.320 56.600 C 290.017 57.316,290.800 58.303,290.800 58.464 C 290.800 58.560,290.995 58.912,291.233 59.246 C 291.471 59.580,291.790 60.179,291.942 60.577 L 292.218 61.300 292.107 60.600 C 292.046 60.215,291.817 59.675,291.600 59.400 C 291.382 59.125,291.082 58.629,290.932 58.299 C 290.622 57.611,288.263 55.200,287.900 55.200 C 287.768 55.200,287.264 54.932,286.780 54.604 C 286.296 54.276,285.723 54.006,285.508 54.004 C 285.230 54.001,285.318 54.107,285.808 54.366 M125.878 56.350 C 124.065 58.056,122.306 61.173,122.850 61.717 C 122.906 61.773,123.016 61.477,123.094 61.059 C 123.406 59.397,125.451 56.573,127.049 55.599 C 127.407 55.380,127.565 55.201,127.400 55.201 C 127.235 55.201,126.550 55.718,125.878 56.350 M292.298 100.100 C 292.298 121.220,292.321 129.830,292.350 119.234 C 292.379 108.638,292.379 91.358,292.350 80.834 C 292.321 70.310,292.298 78.980,292.298 100.100 M122.603 62.200 C 122.550 62.255,122.448 77.285,122.377 95.600 C 122.306 113.915,122.198 129.350,122.136 129.900 L 122.024 130.900 122.224 130.000 C 122.335 129.505,122.513 128.785,122.620 128.400 C 122.817 127.695,122.799 61.996,122.603 62.200 M174.800 84.060 C 174.150 84.362,173.808 84.802,173.834 85.300 C 173.851 85.640,173.867 85.633,173.941 85.248 C 174.138 84.227,174.755 84.143,181.085 84.274 C 184.283 84.340,187.305 84.435,187.800 84.484 C 188.834 84.586,187.486 84.340,185.146 83.998 C 183.236 83.719,175.433 83.765,174.800 84.060 M196.711 84.245 C 196.540 84.489,196.407 84.826,196.416 84.995 C 196.424 85.163,196.522 85.053,196.632 84.750 L 196.833 84.200 200.110 84.200 C 203.971 84.200,203.992 84.212,203.596 86.121 C 203.302 87.537,203.131 87.600,199.611 87.600 C 196.505 87.600,196.471 87.585,196.349 86.196 L 196.270 85.300 196.235 86.310 C 196.185 87.762,196.266 87.800,199.415 87.800 C 203.173 87.800,203.307 87.764,203.689 86.642 C 204.552 84.108,204.174 83.800,200.200 83.800 C 197.143 83.800,197.011 83.817,196.711 84.245 M189.112 84.853 C 190.838 85.887,190.920 85.978,191.366 87.348 C 191.887 88.949,191.896 89.203,191.488 90.578 C 191.071 91.981,191.220 92.583,191.657 91.262 C 192.566 88.513,191.012 84.585,189.022 84.603 C 188.774 84.605,188.794 84.662,189.112 84.853 M245.800 85.155 C 245.800 85.896,246.378 86.400,247.228 86.400 C 248.123 86.400,248.201 86.067,247.400 85.665 C 247.143 85.535,246.853 85.288,246.756 85.115 C 246.512 84.678,245.800 84.708,245.800 85.155 M173.650 86.700 C 173.653 87.140,173.694 87.296,173.741 87.048 C 173.789 86.799,173.787 86.439,173.737 86.248 C 173.687 86.056,173.648 86.260,173.650 86.700 M245.901 86.798 C 245.761 87.237,245.935 87.664,246.189 87.507 C 246.399 87.377,246.399 86.400,246.188 86.400 C 246.100 86.400,245.970 86.579,245.901 86.798 M173.145 88.291 C 172.955 88.688,172.807 89.213,172.816 89.457 C 172.826 89.749,172.869 89.797,172.940 89.600 C 173.000 89.435,173.181 89.011,173.343 88.658 C 173.506 88.304,173.605 87.915,173.564 87.792 C 173.523 87.669,173.334 87.893,173.145 88.291 M180.911 89.445 C 180.740 89.689,180.600 90.087,180.600 90.328 C 180.600 90.569,180.420 91.187,180.200 91.700 C 179.980 92.213,179.808 92.873,179.818 93.167 C 179.834 93.644,179.856 93.626,180.025 93.000 C 180.129 92.615,180.301 92.120,180.408 91.900 C 180.515 91.680,180.681 91.068,180.777 90.539 C 180.876 90.000,181.116 89.455,181.326 89.296 C 181.532 89.140,181.593 89.010,181.461 89.006 C 181.330 89.003,181.083 89.200,180.911 89.445 M182.525 89.217 C 183.257 89.429,183.527 89.713,183.654 90.400 C 183.744 90.891,183.746 90.890,183.773 90.350 C 183.808 89.645,183.162 88.995,182.450 89.018 L 181.900 89.036 182.525 89.217 M212.037 89.570 C 211.783 89.641,213.088 89.700,214.937 89.700 L 218.300 89.700 219.642 90.500 C 220.380 90.940,220.988 91.369,220.992 91.454 C 220.996 91.539,221.248 91.989,221.550 92.454 C 222.027 93.188,222.115 93.566,222.214 95.300 L 222.328 97.300 222.364 95.473 C 222.386 94.360,222.301 93.422,222.148 93.073 C 221.728 92.120,220.810 90.800,220.566 90.800 C 220.441 90.800,220.055 90.584,219.709 90.321 C 218.619 89.489,213.950 89.032,212.037 89.570 M232.300 89.597 C 231.970 89.679,232.510 89.701,233.500 89.645 C 234.490 89.590,235.338 89.512,235.383 89.472 C 235.537 89.339,232.908 89.445,232.300 89.597 M236.217 89.474 C 236.263 89.514,236.930 89.593,237.700 89.649 C 238.501 89.708,238.929 89.683,238.700 89.590 C 238.311 89.433,236.050 89.327,236.217 89.474 M195.407 89.987 C 195.293 90.200,195.207 90.492,195.216 90.637 C 195.224 90.782,195.323 90.650,195.434 90.345 L 195.637 89.790 198.962 89.845 L 202.288 89.900 202.528 90.700 L 202.769 91.500 202.785 90.673 C 202.804 89.616,202.767 89.606,198.757 89.603 C 195.853 89.600,195.598 89.629,195.407 89.987 M210.100 90.305 C 209.660 90.576,209.435 90.796,209.600 90.793 C 209.765 90.790,210.260 90.566,210.700 90.295 C 211.140 90.024,211.365 89.804,211.200 89.807 C 211.035 89.810,210.540 90.034,210.100 90.305 M230.220 90.317 C 229.332 90.948,229.867 90.931,230.900 90.295 C 231.459 89.950,231.580 89.807,231.300 89.818 C 231.080 89.827,230.594 90.052,230.220 90.317 M239.800 90.300 C 240.173 90.575,240.557 90.800,240.654 90.800 C 240.751 90.800,240.563 90.575,240.236 90.300 C 239.910 90.025,239.525 89.800,239.382 89.800 C 239.239 89.800,239.427 90.025,239.800 90.300 M172.535 91.078 C 172.455 91.726,172.430 92.297,172.480 92.347 C 172.613 92.479,172.852 90.709,172.759 90.273 C 172.716 90.068,172.615 90.430,172.535 91.078 M208.274 91.362 C 207.958 91.671,207.453 92.078,207.150 92.266 C 206.847 92.455,206.600 92.711,206.600 92.836 C 206.600 92.960,206.366 93.369,206.080 93.744 C 205.794 94.119,205.609 94.475,205.668 94.535 C 205.728 94.595,206.091 94.154,206.474 93.555 C 206.857 92.955,207.380 92.318,207.635 92.139 C 208.549 91.497,209.296 90.802,209.074 90.801 C 208.949 90.800,208.589 91.053,208.274 91.362 M228.888 91.150 C 228.674 91.343,228.185 91.759,227.800 92.075 C 226.830 92.871,225.378 95.351,225.418 96.144 C 225.428 96.340,225.525 96.190,225.634 95.812 C 225.742 95.433,226.004 94.903,226.216 94.635 C 226.427 94.366,226.600 94.019,226.600 93.863 C 226.600 93.708,227.247 92.955,228.038 92.190 C 229.312 90.958,229.909 90.227,228.888 91.150 M241.328 91.300 C 241.528 91.630,241.798 91.968,241.930 92.052 C 242.464 92.389,242.700 93.716,242.684 96.300 C 242.674 98.035,242.720 98.634,242.823 98.100 C 243.334 95.444,242.909 92.861,241.746 91.568 C 241.170 90.926,241.061 90.856,241.328 91.300 M194.650 92.598 C 194.403 93.337,194.210 94.158,194.223 94.421 C 194.243 94.828,194.260 94.840,194.339 94.500 C 194.391 94.280,194.614 93.592,194.835 92.972 C 195.057 92.351,195.207 91.711,195.169 91.548 C 195.131 91.385,194.898 91.858,194.650 92.598 M183.630 91.870 C 183.613 92.183,183.457 92.740,183.283 93.108 C 183.109 93.475,183.001 93.939,183.043 94.138 C 183.163 94.704,183.841 92.499,183.744 91.857 L 183.660 91.300 183.630 91.870 M202.300 92.600 C 202.222 93.164,202.201 93.668,202.253 93.719 C 202.304 93.771,202.408 93.350,202.483 92.783 C 202.558 92.217,202.580 91.713,202.531 91.664 C 202.481 91.615,202.378 92.036,202.300 92.600 M190.935 93.678 C 190.855 94.326,190.830 94.897,190.880 94.947 C 191.013 95.079,191.252 93.309,191.159 92.873 C 191.116 92.668,191.015 93.030,190.935 93.678 M172.232 93.170 C 172.214 93.428,172.053 93.949,171.874 94.327 C 171.459 95.200,171.660 95.451,172.097 94.606 C 172.277 94.258,172.388 93.689,172.344 93.337 C 172.289 92.898,172.254 92.846,172.232 93.170 M213.533 93.906 C 213.020 94.298,212.606 94.772,212.614 94.959 C 212.625 95.245,212.659 95.236,212.828 94.900 C 212.939 94.680,213.378 94.257,213.804 93.959 L 214.580 93.418 214.984 93.959 C 215.206 94.257,215.390 94.403,215.394 94.285 C 215.397 94.167,215.190 93.872,214.933 93.631 L 214.467 93.193 213.533 93.906 M233.573 94.150 C 232.406 95.386,232.011 98.029,232.865 98.883 C 233.895 99.913,235.644 98.828,235.580 97.200 C 235.565 96.838,235.509 96.919,235.375 97.490 C 235.008 99.054,233.267 99.696,232.771 98.450 C 231.840 96.107,234.416 92.313,235.477 94.465 C 235.650 94.814,235.793 94.955,235.795 94.777 C 235.814 93.488,234.538 93.128,233.573 94.150 M179.514 95.014 C 179.438 95.690,179.416 96.283,179.467 96.333 C 179.517 96.383,179.622 95.873,179.700 95.200 C 179.778 94.527,179.800 93.933,179.748 93.881 C 179.696 93.829,179.591 94.339,179.514 95.014 M202.027 94.356 C 202.012 94.607,201.867 95.130,201.705 95.518 C 201.543 95.906,201.366 96.691,201.312 97.262 C 201.227 98.156,201.239 98.203,201.395 97.600 C 201.494 97.215,201.718 96.405,201.892 95.800 C 202.067 95.195,202.174 94.520,202.132 94.300 C 202.065 93.953,202.051 93.960,202.027 94.356 M182.846 95.200 C 182.846 95.585,182.888 95.743,182.938 95.550 C 182.988 95.358,182.988 95.043,182.938 94.850 C 182.888 94.658,182.846 94.815,182.846 95.200 M215.457 95.500 C 215.459 96.050,215.498 96.251,215.544 95.947 C 215.589 95.643,215.588 95.193,215.541 94.947 C 215.493 94.701,215.456 94.950,215.457 95.500 M205.325 95.108 C 205.256 95.286,205.208 95.583,205.217 95.766 C 205.227 95.950,205.314 95.835,205.411 95.510 C 205.599 94.879,205.532 94.566,205.325 95.108 M190.357 96.210 C 190.065 97.143,189.649 99.472,189.877 98.900 C 190.226 98.022,190.816 95.731,190.764 95.459 C 190.728 95.272,190.545 95.610,190.357 96.210 M194.046 95.800 C 194.046 96.185,194.088 96.343,194.138 96.150 C 194.188 95.958,194.188 95.642,194.138 95.450 C 194.088 95.258,194.046 95.415,194.046 95.800 M212.311 96.111 C 212.236 96.512,212.219 96.886,212.274 96.941 C 212.329 96.996,212.436 96.712,212.511 96.311 C 212.586 95.910,212.603 95.536,212.548 95.481 C 212.493 95.426,212.386 95.710,212.311 96.111 M171.446 96.200 C 171.446 96.585,171.488 96.743,171.538 96.550 C 171.588 96.358,171.588 96.043,171.538 95.850 C 171.488 95.658,171.446 95.815,171.446 96.200 M182.492 97.092 C 182.415 97.712,182.397 98.263,182.452 98.318 C 182.507 98.373,182.615 97.912,182.692 97.292 C 182.770 96.673,182.788 96.121,182.733 96.066 C 182.678 96.011,182.570 96.473,182.492 97.092 M204.712 97.296 C 204.522 97.793,204.403 98.309,204.447 98.441 C 204.491 98.573,204.684 98.203,204.875 97.619 C 205.305 96.304,205.183 96.062,204.712 97.296 M178.945 97.291 C 178.755 97.688,178.610 98.258,178.623 98.557 C 178.641 98.972,178.669 99.006,178.743 98.700 C 178.796 98.480,178.974 98.011,179.139 97.658 C 179.304 97.304,179.405 96.915,179.364 96.792 C 179.323 96.669,179.134 96.893,178.945 97.291 M193.846 97.200 C 193.846 97.585,193.888 97.743,193.938 97.550 C 193.988 97.358,193.988 97.043,193.938 96.850 C 193.888 96.658,193.846 96.815,193.846 97.200 M225.129 97.279 C 225.042 97.708,224.843 98.254,224.687 98.492 C 224.530 98.731,224.357 99.370,224.301 99.913 L 224.200 100.900 224.474 99.900 C 224.624 99.350,224.900 98.553,225.085 98.130 C 225.271 97.706,225.392 97.166,225.355 96.930 C 225.307 96.630,225.239 96.736,225.129 97.279 M215.099 97.807 C 214.936 98.770,215.218 99.210,215.974 99.176 C 216.481 99.154,216.479 99.148,215.900 99.023 C 215.323 98.899,215.303 98.858,215.368 97.947 C 215.451 96.789,215.285 96.703,215.099 97.807 M171.100 98.437 C 171.022 99.022,170.787 99.992,170.579 100.593 C 170.099 101.976,170.093 102.556,170.570 101.500 C 170.953 100.651,171.532 97.666,171.350 97.483 C 171.290 97.423,171.177 97.853,171.100 98.437 M212.023 98.000 C 212.002 98.275,211.857 98.725,211.700 99.000 C 211.543 99.275,211.417 99.680,211.421 99.900 C 211.425 100.143,211.583 99.951,211.823 99.409 C 212.041 98.919,212.183 98.289,212.139 98.009 L 212.060 97.500 212.023 98.000 M221.845 98.171 C 221.706 98.485,221.391 98.839,221.146 98.958 C 220.875 99.089,220.817 99.176,221.000 99.180 C 221.468 99.191,221.960 98.728,222.108 98.138 C 222.284 97.437,222.163 97.452,221.845 98.171 M193.401 98.921 C 193.237 99.349,193.072 99.767,193.034 99.850 C 192.997 99.933,193.053 100.000,193.159 100.000 C 193.418 100.000,193.852 98.918,193.768 98.487 C 193.724 98.263,193.595 98.416,193.401 98.921 M181.950 99.450 C 181.465 100.633,181.517 101.102,182.012 100.012 C 182.233 99.523,182.389 99.005,182.357 98.860 C 182.326 98.714,182.143 98.980,181.950 99.450 M200.891 99.691 C 200.814 100.201,200.797 100.663,200.852 100.718 C 200.907 100.773,201.014 100.401,201.091 99.891 C 201.167 99.381,201.185 98.918,201.130 98.863 C 201.075 98.808,200.967 99.181,200.891 99.691 M204.134 99.378 C 204.060 99.748,204.010 100.241,204.022 100.475 C 204.034 100.709,204.124 100.495,204.221 100.000 C 204.318 99.505,204.369 99.011,204.333 98.903 C 204.298 98.795,204.208 99.009,204.134 99.378 M218.146 99.144 C 218.501 99.189,219.131 99.189,219.546 99.146 C 219.960 99.103,219.670 99.067,218.900 99.066 C 218.130 99.065,217.790 99.100,218.146 99.144 M242.309 100.109 C 242.233 100.619,242.211 101.078,242.261 101.128 C 242.311 101.178,242.414 100.801,242.491 100.291 C 242.567 99.781,242.589 99.322,242.539 99.272 C 242.489 99.222,242.386 99.599,242.309 100.109 M178.450 100.100 C 178.453 100.540,178.494 100.696,178.541 100.448 C 178.589 100.199,178.587 99.839,178.537 99.648 C 178.487 99.456,178.448 99.660,178.450 100.100 M189.558 100.539 C 189.483 101.111,189.284 101.844,189.116 102.168 C 188.949 102.493,188.763 103.150,188.704 103.629 C 188.576 104.673,188.614 104.592,189.299 102.375 C 189.592 101.426,189.800 100.391,189.763 100.075 C 189.712 99.651,189.658 99.773,189.558 100.539 M211.093 101.693 C 211.015 102.422,210.995 103.061,211.048 103.114 C 211.100 103.167,211.205 102.612,211.280 101.880 C 211.355 101.148,211.376 100.509,211.326 100.459 C 211.276 100.409,211.171 100.965,211.093 101.693 M192.708 101.708 C 192.630 102.327,192.609 102.875,192.659 102.926 C 192.710 102.977,192.815 102.512,192.892 101.892 C 192.970 101.273,192.991 100.725,192.941 100.674 C 192.890 100.623,192.785 101.088,192.708 101.708 M181.292 102.292 C 181.215 102.912,181.197 103.463,181.252 103.518 C 181.307 103.573,181.415 103.112,181.492 102.492 C 181.570 101.873,181.588 101.321,181.533 101.266 C 181.478 101.211,181.370 101.673,181.292 102.292 M200.414 101.700 C 200.277 102.030,200.124 102.615,200.074 103.000 C 199.991 103.639,200.019 103.613,200.394 102.700 C 200.620 102.150,200.773 101.565,200.734 101.400 C 200.689 101.211,200.570 101.323,200.414 101.700 M203.717 102.000 C 203.627 102.495,203.423 103.154,203.264 103.464 C 203.106 103.773,203.009 104.223,203.049 104.464 C 203.098 104.753,203.276 104.416,203.577 103.463 C 203.827 102.672,203.997 101.817,203.956 101.563 C 203.903 101.237,203.833 101.366,203.717 102.000 M177.841 102.823 C 177.588 103.579,177.343 104.670,177.296 105.249 L 177.210 106.300 177.400 105.400 C 177.504 104.905,177.781 103.898,178.016 103.163 C 178.250 102.427,178.410 101.741,178.371 101.637 C 178.332 101.533,178.093 102.067,177.841 102.823 M223.920 102.300 C 223.833 102.850,223.635 103.603,223.481 103.974 C 223.156 104.755,223.088 105.712,223.395 105.187 C 223.671 104.716,224.242 102.057,224.154 101.653 C 224.112 101.459,224.006 101.750,223.920 102.300 M241.659 101.950 C 241.117 102.802,241.167 102.794,236.385 102.797 C 231.955 102.800,231.862 102.809,231.472 103.250 C 231.046 103.732,230.100 106.801,230.244 107.233 C 230.332 107.496,231.200 104.531,231.200 103.967 C 231.200 103.090,231.691 103.000,236.481 103.000 L 241.031 103.000 241.615 102.415 C 241.937 102.094,242.200 101.734,242.200 101.615 C 242.200 101.262,242.030 101.367,241.659 101.950 M169.908 103.708 C 169.830 104.327,169.809 104.875,169.859 104.926 C 169.910 104.977,170.015 104.512,170.092 103.892 C 170.170 103.273,170.191 102.725,170.141 102.674 C 170.090 102.623,169.985 103.088,169.908 103.708 M192.430 103.724 C 192.413 103.957,192.220 104.711,192.000 105.400 C 191.780 106.089,191.610 106.843,191.623 107.076 C 191.645 107.479,191.651 107.480,191.739 107.100 C 191.791 106.880,192.012 106.196,192.232 105.579 C 192.452 104.963,192.593 104.198,192.546 103.879 C 192.489 103.496,192.450 103.443,192.430 103.724 M210.800 103.993 C 210.800 104.209,210.620 104.842,210.400 105.400 C 210.180 105.958,210.008 106.614,210.018 106.857 C 210.031 107.170,210.095 107.095,210.236 106.600 C 210.346 106.215,210.518 105.801,210.618 105.680 C 210.837 105.414,211.107 103.600,210.927 103.600 C 210.857 103.600,210.800 103.777,210.800 103.993 M180.629 105.361 C 180.379 106.275,180.218 107.130,180.271 107.261 C 180.329 107.403,180.375 107.372,180.384 107.183 C 180.393 107.009,180.585 106.303,180.811 105.614 C 181.037 104.925,181.191 104.213,181.152 104.031 C 181.114 103.849,180.878 104.448,180.629 105.361 M188.323 105.773 C 188.244 106.364,188.223 106.889,188.275 106.942 C 188.408 107.075,188.661 105.282,188.554 104.963 C 188.505 104.818,188.401 105.183,188.323 105.773 M199.646 105.600 C 199.646 105.985,199.688 106.142,199.738 105.950 C 199.788 105.758,199.788 105.442,199.738 105.250 C 199.688 105.058,199.646 105.215,199.646 105.600 M234.878 105.188 C 234.646 105.286,234.394 105.527,234.319 105.722 C 234.191 106.057,234.204 106.058,234.557 105.739 C 234.865 105.460,235.357 105.400,237.336 105.400 C 241.035 105.400,241.501 105.721,240.618 107.661 C 240.408 108.122,240.184 108.860,240.120 109.300 L 240.004 110.100 240.278 109.200 C 240.428 108.705,240.696 108.030,240.874 107.700 C 241.232 107.037,241.298 105.865,241.005 105.400 C 240.785 105.052,235.624 104.873,234.878 105.188 M169.410 106.161 C 169.270 106.744,169.198 107.264,169.250 107.317 C 169.394 107.460,169.857 105.669,169.754 105.365 C 169.705 105.219,169.550 105.577,169.410 106.161 M202.741 105.975 C 202.664 106.346,202.611 106.976,202.623 107.375 C 202.643 107.987,202.675 107.928,202.829 107.002 C 203.033 105.770,202.961 104.926,202.741 105.975 M214.040 105.858 C 213.798 106.115,213.600 106.472,213.600 106.651 C 213.600 106.830,213.520 107.026,213.423 107.086 C 213.210 107.217,212.705 109.772,212.861 109.927 C 212.921 109.987,213.033 109.601,213.110 109.068 C 213.187 108.536,213.317 108.010,213.399 107.900 C 213.481 107.790,213.661 107.340,213.800 106.900 C 214.211 105.596,214.201 105.600,216.962 105.600 C 219.285 105.600,219.512 105.634,219.978 106.050 L 220.482 106.500 220.167 106.000 C 219.685 105.235,214.733 105.120,214.040 105.858 M222.908 106.962 C 222.825 107.657,222.805 108.272,222.862 108.329 C 223.003 108.470,223.267 106.299,223.151 105.964 C 223.100 105.819,222.991 106.268,222.908 106.962 M233.922 106.893 C 233.836 107.329,233.646 107.917,233.500 108.200 C 233.354 108.483,233.177 109.071,233.107 109.507 C 232.991 110.235,233.015 110.210,233.399 109.200 C 234.039 107.515,234.232 106.809,234.152 106.439 C 234.112 106.252,234.008 106.457,233.922 106.893 M176.909 107.509 C 176.833 108.019,176.811 108.478,176.861 108.528 C 176.911 108.578,177.014 108.201,177.091 107.691 C 177.167 107.181,177.189 106.722,177.139 106.672 C 177.089 106.622,176.986 106.999,176.909 107.509 M219.900 107.400 C 219.823 107.855,219.802 108.269,219.854 108.320 C 219.905 108.371,220.007 108.038,220.080 107.580 C 220.153 107.122,220.174 106.708,220.126 106.660 C 220.079 106.612,219.977 106.945,219.900 107.400 M199.157 107.810 C 198.970 108.409,198.770 109.305,198.715 109.800 C 198.659 110.295,198.661 110.520,198.719 110.300 C 198.778 110.080,199.007 109.339,199.228 108.653 C 199.449 107.967,199.601 107.252,199.564 107.063 C 199.528 106.874,199.345 107.210,199.157 107.810 M168.900 108.400 C 168.823 108.855,168.802 109.269,168.854 109.320 C 168.905 109.371,169.007 109.038,169.080 108.580 C 169.153 108.122,169.174 107.708,169.126 107.660 C 169.079 107.612,168.977 107.945,168.900 108.400 M187.818 108.024 C 187.556 108.657,187.168 110.634,187.283 110.750 C 187.333 110.800,187.437 110.494,187.514 110.070 C 187.591 109.647,187.788 108.959,187.952 108.542 C 188.273 107.725,188.145 107.233,187.818 108.024 M209.690 108.921 C 209.366 111.952,210.794 113.096,212.382 111.077 C 213.065 110.209,212.857 110.136,212.097 110.977 C 210.616 112.616,209.888 112.081,209.923 109.378 C 209.950 107.261,209.882 107.128,209.690 108.921 M179.894 108.460 C 179.820 108.854,179.530 109.356,179.231 109.608 C 178.939 109.855,178.545 110.191,178.355 110.355 C 177.742 110.884,176.800 110.331,176.800 109.442 C 176.800 108.613,176.706 108.645,176.537 109.531 C 176.406 110.226,177.406 110.955,178.155 110.712 C 179.128 110.395,180.576 108.310,180.132 107.865 C 180.074 107.807,179.967 108.074,179.894 108.460 M229.900 109.250 C 229.686 111.577,230.300 112.498,231.680 111.921 C 232.321 111.653,233.172 110.705,232.961 110.494 C 232.909 110.443,232.749 110.621,232.605 110.890 C 232.461 111.160,232.018 111.512,231.622 111.674 C 230.435 112.157,230.089 111.649,230.139 109.492 C 230.186 107.417,230.079 107.308,229.900 109.250 M191.059 109.733 C 190.823 110.705,190.573 111.725,190.504 112.000 L 190.377 112.500 190.681 111.976 C 191.002 111.424,191.670 108.511,191.556 108.167 C 191.519 108.057,191.295 108.761,191.059 109.733 M219.238 109.542 C 218.984 110.037,218.820 110.487,218.874 110.541 C 219.001 110.668,219.843 109.022,219.762 108.806 C 219.728 108.716,219.492 109.048,219.238 109.542 M202.469 110.300 C 202.469 111.180,202.504 111.515,202.547 111.045 C 202.589 110.574,202.588 109.854,202.545 109.445 C 202.502 109.035,202.468 109.420,202.469 110.300 M222.667 110.200 C 222.667 111.025,222.703 111.363,222.746 110.950 C 222.789 110.538,222.789 109.863,222.746 109.450 C 222.703 109.038,222.667 109.375,222.667 110.200 M168.505 110.733 C 168.428 111.247,168.239 111.860,168.083 112.097 C 167.928 112.334,167.760 113.106,167.709 113.814 C 167.617 115.090,167.618 115.092,167.787 114.047 C 167.880 113.468,168.102 112.688,168.280 112.314 C 168.604 111.631,168.946 109.800,168.750 109.800 C 168.692 109.800,168.582 110.220,168.505 110.733 M239.800 110.450 C 239.800 110.588,239.575 110.961,239.300 111.281 C 239.025 111.601,238.800 111.929,238.800 112.010 C 238.800 112.531,236.274 114.568,234.800 115.236 C 234.537 115.355,234.537 115.374,234.807 115.386 C 234.975 115.394,235.605 115.089,236.207 114.709 C 237.439 113.929,237.473 113.900,238.300 112.914 C 238.630 112.520,239.102 111.970,239.348 111.692 C 239.783 111.201,240.168 110.200,239.922 110.200 C 239.855 110.200,239.800 110.313,239.800 110.450 M198.327 111.973 C 198.243 112.673,198.096 113.393,198.000 113.573 C 197.725 114.089,197.389 115.256,197.487 115.354 C 197.788 115.655,198.731 111.876,198.557 111.066 C 198.514 110.865,198.410 111.273,198.327 111.973 M187.016 111.184 C 187.007 111.341,186.880 111.611,186.734 111.784 C 186.587 111.958,186.222 112.550,185.921 113.100 C 185.306 114.225,185.800 113.700,186.666 112.308 C 186.978 111.807,187.187 111.286,187.132 111.149 C 187.061 110.972,187.027 110.982,187.016 111.184 M217.231 112.786 C 216.774 113.328,216.400 113.840,216.400 113.924 C 216.400 114.008,216.648 113.770,216.950 113.395 C 217.253 113.019,217.698 112.507,217.941 112.256 C 218.183 112.005,218.310 111.800,218.222 111.800 C 218.134 111.800,217.689 112.244,217.231 112.786 M222.800 112.255 C 222.800 112.542,222.894 112.834,223.008 112.905 C 223.144 112.989,223.169 112.838,223.080 112.467 C 222.896 111.700,222.800 111.628,222.800 112.255 M202.623 112.400 C 202.614 112.675,202.693 113.035,202.800 113.200 C 203.047 113.582,203.047 113.171,202.800 112.400 L 202.640 111.900 202.623 112.400 M190.127 113.728 C 189.931 115.161,189.964 115.319,190.509 115.568 C 191.076 115.826,196.915 115.899,197.070 115.650 C 197.121 115.567,196.063 115.527,194.719 115.561 C 193.374 115.594,191.830 115.546,191.287 115.453 L 190.300 115.284 190.365 114.042 C 190.442 112.581,190.308 112.405,190.127 113.728 M223.538 113.729 C 223.907 114.292,225.320 115.400,225.669 115.400 C 225.856 115.400,225.497 115.104,224.218 114.205 C 223.987 114.043,223.748 113.751,223.686 113.555 C 223.624 113.360,223.487 113.200,223.382 113.200 C 223.277 113.200,223.347 113.438,223.538 113.729 M183.704 114.715 C 182.936 115.092,182.416 115.400,182.549 115.400 C 182.873 115.400,184.980 114.394,185.116 114.175 C 185.257 113.947,185.315 113.924,183.704 114.715 M203.911 114.625 C 204.235 115.023,204.725 115.404,205.000 115.471 C 207.212 116.007,208.457 116.222,209.400 116.229 C 210.475 116.238,213.584 115.694,213.794 115.460 C 213.852 115.396,213.585 115.405,213.200 115.482 C 209.365 116.243,205.430 115.837,204.011 114.533 L 203.321 113.900 203.911 114.625 M214.539 114.906 C 213.802 115.555,214.266 115.549,215.036 114.900 C 215.363 114.625,215.511 114.403,215.365 114.406 C 215.219 114.410,214.847 114.635,214.539 114.906 M168.525 115.626 C 169.294 115.795,177.811 115.790,180.200 115.619 C 181.313 115.540,179.170 115.487,175.025 115.492 C 171.134 115.496,168.209 115.557,168.525 115.626 M226.700 115.615 C 227.140 115.728,228.032 115.959,228.681 116.129 C 230.210 116.529,231.649 116.384,233.900 115.604 C 234.325 115.456,234.354 115.424,234.000 115.495 C 231.900 115.911,230.120 116.019,228.762 115.812 C 226.114 115.410,225.770 115.377,226.700 115.615 M121.711 131.911 C 121.636 132.312,121.619 132.686,121.674 132.741 C 121.729 132.796,121.836 132.512,121.911 132.111 C 121.986 131.710,122.003 131.336,121.948 131.281 C 121.893 131.226,121.786 131.510,121.711 131.911 M121.046 133.893 C 120.433 135.155,120.482 135.481,121.108 134.304 C 121.388 133.778,121.588 133.264,121.554 133.162 C 121.520 133.059,121.291 133.388,121.046 133.893 M120.291 135.835 C 120.211 136.091,119.933 136.554,119.673 136.865 C 119.413 137.176,119.200 137.550,119.200 137.696 C 119.200 138.053,115.480 141.948,114.989 142.103 C 114.775 142.171,114.498 142.416,114.374 142.648 C 114.217 142.942,114.442 142.833,115.125 142.286 C 116.739 140.991,119.005 138.555,119.438 137.650 C 119.661 137.183,119.913 136.800,119.998 136.800 C 120.198 136.800,120.687 135.620,120.545 135.479 C 120.485 135.419,120.371 135.579,120.291 135.835 M291.342 140.572 C 291.044 141.023,290.803 141.506,290.806 141.646 C 290.809 141.786,290.912 141.720,291.033 141.500 C 291.155 141.280,291.432 140.904,291.649 140.664 C 291.866 140.425,292.007 140.122,291.964 139.991 C 291.920 139.860,291.640 140.122,291.342 140.572 M289.541 143.216 C 288.857 143.928,287.998 144.587,287.445 144.824 C 286.930 145.045,286.461 145.295,286.404 145.380 C 286.347 145.465,286.120 145.636,285.900 145.761 C 285.600 145.931,285.578 145.989,285.812 145.994 C 285.984 145.997,286.312 145.825,286.542 145.611 C 286.771 145.397,287.286 145.086,287.685 144.919 C 288.480 144.587,291.245 141.958,290.750 142.005 C 290.723 142.007,290.178 142.552,289.541 143.216 M113.302 143.243 C 112.598 143.651,112.088 144.200,112.414 144.200 C 112.573 144.200,112.816 144.020,112.954 143.800 C 113.091 143.580,113.332 143.400,113.490 143.400 C 113.647 143.400,113.832 143.310,113.900 143.200 C 114.063 142.937,113.797 142.956,113.302 143.243 M110.045 144.826 C 109.064 145.455,110.202 146.435,111.844 146.376 C 112.382 146.357,112.326 146.324,111.531 146.190 C 109.850 145.908,109.458 145.239,110.665 144.711 C 111.014 144.558,111.165 144.427,111.000 144.420 C 110.835 144.413,110.405 144.596,110.045 144.826 M283.700 146.200 L 282.700 146.337 283.600 146.349 C 284.095 146.355,284.725 146.288,285.000 146.200 C 285.622 146.001,285.153 146.001,283.700 146.200 " stroke="none" fill="#f2bec4" fill-rule="evenodd"></path></g></svg>