<?xml version="1.0" encoding="UTF-8"?>
<svg width="1750px" height="291px" viewBox="0 0 1750 291" version="1.1" xmlns="http://www.w3.org/2000/svg" xmlns:xlink="http://www.w3.org/1999/xlink">
    <!-- Generator: Sketch 48.1 (47250) - http://www.bohemiancoding.com/sketch -->
    <title>Untitled</title>
    <desc>Created with Sketch.</desc>
    <defs></defs>
    <g id="Page-1" stroke="none" stroke-width="1" fill="none" fill-rule="evenodd">
        <g id="Multi-Tagline-Horizontal">
            <g id="fj-logo-w-tagline2" fill-rule="nonzero">
                <path d="M123.795,1.77 C143.005,-0.78 162.695,0.8 181.365,5.92 C219.055,17.06 253.025,39.07 280.685,66.76 C284.295,69.77 285.595,75.46 282.775,79.41 C279.795,83.77 272.725,83.91 269.315,79.99 C253.515,64.43 235.775,50.8 216.485,39.83 C191.355,25.59 162.495,16.22 133.335,18.4 C105.645,20.69 79.425,31.87 56.265,46.82 C41.765,56.34 28.035,67.11 15.825,79.45 C12.655,83.19 6.295,84.19 2.705,80.55 C-1.405,77.01 -0.515,70.35 3.395,67.01 C18.995,51.28 36.745,37.69 55.835,26.45 C68.015,19.2 80.965,13.22 94.435,8.79 C103.865,5.162 113.815,3.102 123.795,1.77" id="Shape" fill="#F7961D"></path>
                <path d="M88.545,54.25 C97.145,50.66 106.865,50.98 115.865,52.7 C115.155,57.47 114.715,62.27 113.955,67.03 C108.435,65.74 102.175,64.53 96.955,67.42 C92.245,70.16 91.275,76 91.075,80.98 C90.865,88.75 91.045,96.52 91.005,104.29 C97.385,104.31 103.765,104.3 110.155,104.3 C110.145,109.01 110.155,113.73 110.145,118.44 C103.725,118.44 97.305,118.43 90.885,118.44 L90.885,189.54 L74.695,189.54 C74.705,165.84 74.695,142.15 74.695,118.45 C68.535,118.42 62.365,118.46 56.205,118.41 C56.195,113.72 56.195,109.02 56.195,104.33 C62.355,104.28 68.525,104.31 74.685,104.3 C75.175,92.62 73.385,80.65 76.545,69.23 C78.225,62.88 82.305,56.82 88.545,54.25 Z M125.715,189.542 C125.725,144.262 125.675,98.972 125.735,53.682 C131.115,53.692 136.495,53.692 141.885,53.692 C141.915,98.972 141.885,144.262 141.895,189.542 L125.715,189.542 Z M348.935,72.63 C353.935,70.62 360.195,73.46 361.385,78.85 C363.515,85.79 355.205,92.66 348.775,89.26 C341.635,86.63 341.815,75.182 348.935,72.63 Z M583.405,105.03 C593.965,100.96 606.215,101.18 616.555,105.85 C621.475,107.91 625.175,111.88 628.265,116.1 C624.055,119.37 619.815,122.58 615.545,125.75 C612.345,122.45 608.755,119.21 604.165,118.11 C598.405,116.72 591.775,117.1 586.845,120.66 C583.065,123.5 583.035,129.64 586.375,132.83 C591.055,137.42 597.775,138.54 603.965,139.7 C611.495,141.34 619.575,143.51 624.985,149.39 C630.675,155.36 631.515,164.5 629.505,172.19 C626.985,181.12 618.875,187.52 610.115,189.81 C600.025,192.47 589.095,192.41 579.165,189.14 C572.455,186.95 567.035,182.09 562.935,176.48 C567.075,173.16 571.185,169.78 575.265,166.38 C580.125,170.83 585.525,175.47 592.345,176.25 C598.335,176.85 604.975,176.18 609.855,172.32 C613.525,169.55 614.255,163.61 611.095,160.19 C607.665,156.33 602.465,154.92 597.635,153.77 C588.885,151.75 579.305,150.18 572.495,143.83 C566.625,138.24 565.665,129.36 567.415,121.8 C569.425,113.912 575.975,107.9 583.405,105.03 Z M245.965,104.34 C252.975,104.28 259.995,104.29 267.005,104.32 C273.795,114.36 280.675,124.33 287.495,134.34 C294.265,124.36 300.965,114.34 307.685,104.34 C314.275,104.29 320.875,104.26 327.465,104.36 C317.785,117.56 308.075,130.76 298.445,144.01 C309.815,159.25 321.435,174.31 332.855,189.52 C325.845,189.56 318.845,189.542 311.835,189.542 C303.495,177.682 295.245,165.742 286.765,153.982 C278.375,165.802 270.085,177.692 261.735,189.542 C255.015,189.532 248.295,189.572 241.575,189.512 C253.135,174.372 264.625,159.192 276.105,143.992 C266.005,130.812 256.005,117.562 245.965,104.342 L245.965,104.34 Z" id="Shape" fill="#2D67B0"></path>
                <path d="M344.625,104.3 L360.875,104.3 L360.875,194.902 C360.785,202.472 361.435,210.312 358.815,217.582 C356.495,224.382 350.655,229.992 343.625,231.662 C337.325,233.202 330.705,232.762 324.465,231.202 C324.785,226.152 325.565,221.142 326.105,216.112 C330.595,217.292 335.855,218.402 339.915,215.422 C343.935,212.282 344.395,206.672 344.625,201.962 L344.625,104.302 L344.625,104.3 Z M189.405,152.8 L244.195,152.8 C244.365,144.77 244.295,136.56 241.525,128.91 C238.135,118.19 229.905,109.04 219.385,104.95 C212.415,102.08 204.725,101.89 197.325,102.45 C185.705,103.67 174.595,109.78 167.695,119.27 C158.305,131.84 156.545,149.12 161.615,163.78 C164.645,172.72 170.745,180.71 178.945,185.49 C189.455,191.87 202.445,192.88 214.305,190.56 C224.675,188.56 234.165,182.6 240.505,174.16 C236.415,171.06 232.345,167.93 228.255,164.84 C223.455,170.24 217.735,175.54 210.415,176.99 C201.955,178.62 192.895,176.5 185.945,171.46 C180.225,167.21 176.425,160.5 176.045,153.36 C180.445,152.47 184.945,152.832 189.405,152.8 Z M175.935,139.662 C176.695,133.262 179.375,127.062 184.065,122.572 C193.115,113.682 208.935,112.582 218.895,120.542 C224.625,125.162 226.595,132.682 227.155,139.712 C210.085,139.752 193.005,139.842 175.935,139.662 Z M408.915,102.75 C418.035,101.45 427.625,102.26 436.005,106.28 C449.085,112.18 458.935,124.77 461.385,138.92 C463.165,149.07 461.535,159.86 456.405,168.83 C450.055,180.34 438.295,188.54 425.415,190.93 C414.945,192.8 403.785,191.26 394.495,185.992 C382.285,179.412 373.615,166.762 371.905,153.002 C371.025,144.792 371.775,136.262 375.355,128.732 C381.255,115.172 394.335,105.142 408.915,102.752 L408.915,102.75 Z M409.635,118.152 C400.795,120.022 393.395,126.932 390.675,135.512 C387.195,146.102 388.495,158.802 395.865,167.482 C406.735,180.142 429.455,179.392 439.165,165.682 C447.095,154.002 446.695,136.792 437.405,125.962 C430.605,118.292 419.375,115.932 409.635,118.152 Z M471.555,53.682 C476.935,53.692 482.315,53.682 487.695,53.692 C487.715,74.652 487.695,95.612 487.705,116.572 C494.295,107.112 505.965,102.062 517.325,102.212 C526.295,101.932 535.355,104.452 542.765,109.542 C552.245,115.952 558.315,126.662 560.115,137.852 C562.185,150.542 560.055,164.372 552.275,174.862 C545.815,184.002 535.305,189.922 524.255,191.282 C510.775,193.292 495.935,188.512 487.705,177.292 C487.705,181.372 487.695,185.452 487.705,189.532 C482.305,189.552 476.915,189.542 471.535,189.542 C471.545,144.252 471.505,98.972 471.555,53.682 Z M506.695,118.612 C499.965,120.612 494.155,125.472 491.045,131.772 C487.375,139.222 486.805,148.012 488.805,156.022 C490.645,163.502 495.645,170.342 502.725,173.612 C514.385,179.312 530.425,176.542 538.025,165.572 C546.385,153.202 545.445,134.512 534.365,124.082 C526.945,117.492 516.055,115.922 506.695,118.612 Z" id="Shape" fill="#2D67B0"></path>
                <path d="M394.875,209.572 C398.645,207.182 403.675,208.622 406.585,211.722 C418.085,223.382 430.955,233.642 444.525,242.792 C463.225,254.992 483.615,265.092 505.515,270.002 C523.805,274.282 543.075,274.192 561.335,269.752 C577.375,266.132 592.605,259.532 606.915,251.522 C625.865,240.862 643.355,227.582 658.745,212.222 C661.055,210.012 664.015,207.992 667.395,208.422 C671.685,208.612 675.345,212.632 675.065,216.942 C675.245,220.832 672.155,223.712 669.695,226.292 C644.605,250.602 614.875,270.712 581.675,282.092 C562.395,288.772 541.755,291.522 521.405,289.922 C488.995,287.322 458.525,273.522 431.855,255.492 C417.975,245.952 404.855,235.222 393.225,223.032 C389.295,219.362 389.965,212.082 394.875,209.572" id="Shape" fill="#F7961D"></path>
            </g>
            <path d="M701,125.082264 L728.42,125.082264 L728.42,131.922264 L708.56,131.922264 L708.56,143.082264 L727.28,143.082264 L727.28,149.922264 L708.56,149.922264 L708.56,167.562264 L701,167.562264 L701,125.082264 Z M741.57,125.082264 L749.13,125.082264 L749.13,167.562264 L741.57,167.562264 L741.57,125.082264 Z M764.74,125.082264 L774.76,125.082264 L795.34,156.642264 L795.46,156.642264 L795.46,125.082264 L803.02,125.082264 L803.02,167.562264 L793.42,167.562264 L772.42,134.982264 L772.3,134.982264 L772.3,167.562264 L764.74,167.562264 L764.74,125.082264 Z M818.81,125.082264 L835.55,125.082264 C838.350014,125.082264 841.049987,125.51226 843.65,126.372264 C846.250013,127.232268 848.54999,128.542255 850.55,130.302264 C852.55001,132.062273 854.149994,134.272251 855.35,136.932264 C856.550006,139.592277 857.15,142.722246 857.15,146.322264 C857.15,149.962282 856.460007,153.112251 855.08,155.772264 C853.699993,158.432277 851.920011,160.632255 849.74,162.372264 C847.559989,164.112273 845.140013,165.41226 842.48,166.272264 C839.819987,167.132268 837.210013,167.562264 834.65,167.562264 L818.81,167.562264 L818.81,125.082264 Z M832.01,160.722264 C834.370012,160.722264 836.599989,160.452267 838.7,159.912264 C840.80001,159.372261 842.629992,158.53227 844.19,157.392264 C845.750008,156.252258 846.979995,154.772273 847.88,152.952264 C848.780004,151.132255 849.23,148.922277 849.23,146.322264 C849.23,143.762251 848.830004,141.562273 848.03,139.722264 C847.229996,137.882255 846.120007,136.39227 844.7,135.252264 C843.279993,134.112258 841.60001,133.272267 839.66,132.732264 C837.71999,132.192261 835.590011,131.922264 833.27,131.922264 L826.37,131.922264 L826.37,160.722264 L832.01,160.722264 Z M908.47,125.082264 L915.01,125.082264 L933.31,167.562264 L924.67,167.562264 L920.71,157.842264 L902.29,157.842264 L898.45,167.562264 L889.99,167.562264 L908.47,125.082264 Z M918.07,151.362264 L911.53,134.082264 L904.87,151.362264 L918.07,151.362264 Z M1244.5,125.082264 L1252.78,125.082264 L1260.76,155.682264 L1260.88,155.682264 L1270.42,125.082264 L1277.86,125.082264 L1287.22,155.682264 L1287.34,155.682264 L1295.68,125.082264 L1303.36,125.082264 L1291,167.562264 L1283.8,167.562264 L1273.96,135.222264 L1273.84,135.222264 L1264,167.562264 L1257.04,167.562264 L1244.5,125.082264 Z M1326.65,125.082264 L1333.19,125.082264 L1351.49,167.562264 L1342.85,167.562264 L1338.89,157.842264 L1320.47,157.842264 L1316.63,167.562264 L1308.17,167.562264 L1326.65,125.082264 Z M1336.25,151.362264 L1329.71,134.082264 L1323.05,151.362264 L1336.25,151.362264 Z M1368.48,149.382264 L1352.52,125.082264 L1362,125.082264 L1372.44,142.002264 L1383,125.082264 L1392,125.082264 L1376.04,149.382264 L1376.04,167.562264 L1368.48,167.562264 L1368.48,149.382264 Z M1434.98,131.922264 L1421.96,131.922264 L1421.96,125.082264 L1455.56,125.082264 L1455.56,131.922264 L1442.54,131.922264 L1442.54,167.562264 L1434.98,167.562264 L1434.98,131.922264 Z M1464.75,146.502264 C1464.75,143.102247 1465.30999,140.012278 1466.43,137.232264 C1467.55,134.45225 1469.09999,132.082274 1471.08,130.122264 C1473.06001,128.162254 1475.41999,126.652269 1478.16,125.592264 C1480.90001,124.532259 1483.90998,124.002264 1487.19,124.002264 C1490.51002,123.962264 1493.54999,124.452259 1496.31,125.472264 C1499.07001,126.492269 1501.44999,127.982254 1503.45,129.942264 C1505.45001,131.902274 1507.00999,134.26225 1508.13,137.022264 C1509.25,139.782278 1509.81,142.862247 1509.81,146.262264 C1509.81,149.582281 1509.25,152.602251 1508.13,155.322264 C1507.00999,158.042278 1505.45001,160.382254 1503.45,162.342264 C1501.44999,164.302274 1499.07001,165.832259 1496.31,166.932264 C1493.54999,168.03227 1490.51002,168.602264 1487.19,168.642264 C1483.90998,168.642264 1480.90001,168.112269 1478.16,167.052264 C1475.41999,165.992259 1473.06001,164.492274 1471.08,162.552264 C1469.09999,160.612254 1467.55,158.282278 1466.43,155.562264 C1465.30999,152.842251 1464.75,149.822281 1464.75,146.502264 Z M1472.67,146.022264 C1472.67,148.302276 1473.02,150.402255 1473.72,152.322264 C1474.42,154.242274 1475.40999,155.902257 1476.69,157.302264 C1477.97001,158.702271 1479.49999,159.80226 1481.28,160.602264 C1483.06001,161.402268 1485.04999,161.802264 1487.25,161.802264 C1489.45001,161.802264 1491.44999,161.402268 1493.25,160.602264 C1495.05001,159.80226 1496.58999,158.702271 1497.87,157.302264 C1499.15001,155.902257 1500.14,154.242274 1500.84,152.322264 C1501.54,150.402255 1501.89,148.302276 1501.89,146.022264 C1501.89,143.902254 1501.54,141.922273 1500.84,140.082264 C1500.14,138.242255 1499.15001,136.632271 1497.87,135.252264 C1496.58999,133.872257 1495.05001,132.792268 1493.25,132.012264 C1491.44999,131.23226 1489.45001,130.842264 1487.25,130.842264 C1485.04999,130.842264 1483.06001,131.23226 1481.28,132.012264 C1479.49999,132.792268 1477.97001,133.872257 1476.69,135.252264 C1475.40999,136.632271 1474.42,138.242255 1473.72,140.082264 C1473.02,141.922273 1472.67,143.902254 1472.67,146.022264 Z M1542.65,125.082264 L1550.93,125.082264 L1558.91,155.682264 L1559.03,155.682264 L1568.57,125.082264 L1576.01,125.082264 L1585.37,155.682264 L1585.49,155.682264 L1593.83,125.082264 L1601.51,125.082264 L1589.15,167.562264 L1581.95,167.562264 L1572.11,135.222264 L1571.99,135.222264 L1562.15,167.562264 L1555.19,167.562264 L1542.65,125.082264 Z M1610.28,146.502264 C1610.28,143.102247 1610.83999,140.012278 1611.96,137.232264 C1613.08,134.45225 1614.62999,132.082274 1616.61,130.122264 C1618.59001,128.162254 1620.94999,126.652269 1623.69,125.592264 C1626.43001,124.532259 1629.43998,124.002264 1632.72,124.002264 C1636.04002,123.962264 1639.07998,124.452259 1641.84,125.472264 C1644.60001,126.492269 1646.97999,127.982254 1648.98,129.942264 C1650.98001,131.902274 1652.53999,134.26225 1653.66,137.022264 C1654.78,139.782278 1655.34,142.862247 1655.34,146.262264 C1655.34,149.582281 1654.78,152.602251 1653.66,155.322264 C1652.53999,158.042278 1650.98001,160.382254 1648.98,162.342264 C1646.97999,164.302274 1644.60001,165.832259 1641.84,166.932264 C1639.07998,168.03227 1636.04002,168.602264 1632.72,168.642264 C1629.43998,168.642264 1626.43001,168.112269 1623.69,167.052264 C1620.94999,165.992259 1618.59001,164.492274 1616.61,162.552264 C1614.62999,160.612254 1613.08,158.282278 1611.96,155.562264 C1610.83999,152.842251 1610.28,149.822281 1610.28,146.502264 Z M1618.2,146.022264 C1618.2,148.302276 1618.55,150.402255 1619.25,152.322264 C1619.95,154.242274 1620.93999,155.902257 1622.22,157.302264 C1623.50001,158.702271 1625.02999,159.80226 1626.81,160.602264 C1628.59001,161.402268 1630.57999,161.802264 1632.78,161.802264 C1634.98001,161.802264 1636.97999,161.402268 1638.78,160.602264 C1640.58001,159.80226 1642.11999,158.702271 1643.4,157.302264 C1644.68001,155.902257 1645.67,154.242274 1646.37,152.322264 C1647.07,150.402255 1647.42,148.302276 1647.42,146.022264 C1647.42,143.902254 1647.07,141.922273 1646.37,140.082264 C1645.67,138.242255 1644.68001,136.632271 1643.4,135.252264 C1642.11999,133.872257 1640.58001,132.792268 1638.78,132.012264 C1636.97999,131.23226 1634.98001,130.842264 1632.78,130.842264 C1630.57999,130.842264 1628.59001,131.23226 1626.81,132.012264 C1625.02999,132.792268 1623.50001,133.872257 1622.22,135.252264 C1620.93999,136.632271 1619.95,138.242255 1619.25,140.082264 C1618.55,141.922273 1618.2,143.902254 1618.2,146.022264 Z M1668.85,125.082264 L1683.61,125.082264 C1685.65001,125.082264 1687.61999,125.272262 1689.52,125.652264 C1691.42001,126.032266 1693.10999,126.68226 1694.59,127.602264 C1696.07001,128.522269 1697.24999,129.762256 1698.13,131.322264 C1699.01,132.882272 1699.45,134.862252 1699.45,137.262264 C1699.45,140.34228 1698.60001,142.922254 1696.9,145.002264 C1695.19999,147.082275 1692.77001,148.342262 1689.61,148.782264 L1700.89,167.562264 L1691.77,167.562264 L1681.93,149.562264 L1676.41,149.562264 L1676.41,167.562264 L1668.85,167.562264 L1668.85,125.082264 Z M1682.29,143.082264 C1683.37,143.082264 1684.44999,143.032265 1685.53,142.932264 C1686.61,142.832264 1687.59999,142.592266 1688.5,142.212264 C1689.4,141.832262 1690.13,141.252268 1690.69,140.472264 C1691.25,139.69226 1691.53,138.602271 1691.53,137.202264 C1691.53,135.962258 1691.27,134.962268 1690.75,134.202264 C1690.23,133.44226 1689.55,132.872266 1688.71,132.492264 C1687.86999,132.112262 1686.94,131.862265 1685.92,131.742264 C1684.89999,131.622264 1683.91,131.562264 1682.95,131.562264 L1676.41,131.562264 L1676.41,143.082264 L1682.29,143.082264 Z M1712.96,125.082264 L1720.52,125.082264 L1720.52,143.082264 L1720.88,143.082264 L1738.46,125.082264 L1748.66,125.082264 L1728.8,144.702264 L1749.98,167.562264 L1739.36,167.562264 L1720.94,146.682264 L1720.52,146.682264 L1720.52,167.562264 L1712.96,167.562264 L1712.96,125.082264 Z" id="FIND-A-BETTER-WAY-TO" fill="#1160BC"></path>
        </g>
        <path d="M968,125 L984.56,125 C986.160008,125 987.739992,125.189998 989.3,125.57 C990.860008,125.950002 992.249994,126.569996 993.47,127.43 C994.690006,128.290004 995.679996,129.399993 996.44,130.76 C997.200004,132.120007 997.58,133.75999 997.58,135.68 C997.58,138.080012 996.900007,140.059992 995.54,141.62 C994.179993,143.180008 992.400011,144.299997 990.2,144.98 L990.2,145.1 C991.520007,145.260001 992.749994,145.629997 993.89,146.21 C995.030006,146.790003 995.999996,147.529996 996.8,148.43 C997.600004,149.330005 998.229998,150.369994 998.69,151.55 C999.150002,152.730006 999.38,153.999993 999.38,155.36 C999.38,157.680012 998.920005,159.609992 998,161.15 C997.079995,162.690008 995.870007,163.929995 994.37,164.87 C992.869992,165.810005 991.15001,166.479998 989.21,166.88 C987.26999,167.280002 985.30001,167.48 983.3,167.48 L968,167.48 L968,125 Z M975.56,142.28 L982.46,142.28 C984.980013,142.28 986.869994,141.790005 988.13,140.81 C989.390006,139.829995 990.02,138.540008 990.02,136.94 C990.02,135.099991 989.370007,133.730005 988.07,132.83 C986.769993,131.929996 984.680014,131.48 981.8,131.48 L975.56,131.48 L975.56,142.28 Z M975.56,161 L982.52,161 C983.480005,161 984.509994,160.940001 985.61,160.82 C986.710005,160.699999 987.719995,160.420002 988.64,159.98 C989.560005,159.539998 990.319997,158.910004 990.92,158.09 C991.520003,157.269996 991.82,156.160007 991.82,154.76 C991.82,152.519989 991.090007,150.960004 989.63,150.08 C988.169993,149.199996 985.900015,148.76 982.82,148.76 L975.56,148.76 L975.56,161 Z M1013.19,125 L1041.33,125 L1041.33,131.84 L1020.75,131.84 L1020.75,142.28 L1040.25,142.28 L1040.25,149.12 L1020.75,149.12 L1020.75,160.64 L1042.41,160.64 L1042.41,167.48 L1013.19,167.48 L1013.19,125 Z M1064.86,131.84 L1051.84,131.84 L1051.84,125 L1085.44,125 L1085.44,131.84 L1072.42,131.84 L1072.42,167.48 L1064.86,167.48 L1064.86,131.84 Z M1105.61,131.84 L1092.59,131.84 L1092.59,125 L1126.19,125 L1126.19,131.84 L1113.17,131.84 L1113.17,167.48 L1105.61,167.48 L1105.61,131.84 Z M1137.66,125 L1165.8,125 L1165.8,131.84 L1145.22,131.84 L1145.22,142.28 L1164.72,142.28 L1164.72,149.12 L1145.22,149.12 L1145.22,160.64 L1166.88,160.64 L1166.88,167.48 L1137.66,167.48 L1137.66,125 Z M1180.63,125 L1195.39,125 C1197.43001,125 1199.39999,125.189998 1201.3,125.57 C1203.20001,125.950002 1204.88999,126.599995 1206.37,127.52 C1207.85001,128.440005 1209.03,129.679992 1209.91,131.24 C1210.79,132.800008 1211.23,134.779988 1211.23,137.18 C1211.23,140.260015 1210.38001,142.83999 1208.68,144.92 C1206.97999,147.00001 1204.55002,148.259998 1201.39,148.7 L1212.67,167.48 L1203.55,167.48 L1193.71,149.48 L1188.19,149.48 L1188.19,167.48 L1180.63,167.48 L1180.63,125 Z M1194.07,143 C1195.15001,143 1196.22999,142.95 1197.31,142.85 C1198.39001,142.75 1199.38,142.510002 1200.28,142.13 C1201.18,141.749998 1201.91,141.170004 1202.47,140.39 C1203.03,139.609996 1203.31,138.520007 1203.31,137.12 C1203.31,135.879994 1203.05,134.880004 1202.53,134.12 C1202.01,133.359996 1201.33,132.790002 1200.49,132.41 C1199.65,132.029998 1198.72,131.780001 1197.7,131.66 C1196.67999,131.539999 1195.69,131.48 1194.73,131.48 L1188.19,131.48 L1188.19,143 L1194.07,143 Z" id="BETTER" fill="#F7961D"></path>
    </g>
</svg>