<?xml version="1.0" standalone="no"?>
<!DOCTYPE svg PUBLIC "-//W3C//DTD SVG 20010904//EN"
 "http://www.w3.org/TR/2001/REC-SVG-20010904/DTD/svg10.dtd">
<svg version="1.0" xmlns="http://www.w3.org/2000/svg"
 width="150.000000pt" height="40.000000pt" viewBox="0 0 150.000000 40.000000"
 preserveAspectRatio="xMidYMid meet">
<metadata>
Created by potrace 1.15, written by Peter Selinger 2001-2017
</metadata>
<g transform="translate(0.000000,40.000000) scale(0.100000,-0.100000)"
fill="#000000" stroke="none">
<path d="M250 231 l0 -80 47 3 c26 1 49 8 51 14 2 8 8 7 19 -3 16 -16 60 -20
81 -6 9 5 12 24 10 52 l-3 44 -45 0 c-39 0 -45 -3 -51 -25 l-6 -25 -4 25 c-3
19 -11 26 -31 28 -22 3 -28 9 -28 28 0 17 -5 24 -20 24 -18 0 -20 -7 -20 -79z"/>
<path d="M650 230 l0 -80 55 0 c36 0 55 4 55 12 0 9 3 9 12 0 14 -14 57 -16
76 -3 9 5 12 24 10 52 l-3 44 -45 0 c-42 0 -45 -2 -48 -27 -3 -24 -8 -28 -33
-28 -29 0 -29 1 -29 55 0 52 -1 55 -25 55 -25 0 -25 -1 -25 -80z"/>
<path d="M1142 258 c-6 -13 -11 -17 -11 -10 -1 8 -17 12 -45 12 -26 0 -46 -5
-49 -12 -4 -10 -6 -10 -6 0 -1 6 -10 12 -21 12 -18 0 -20 -7 -20 -55 0 -48 2
-55 20 -55 12 0 20 7 20 18 1 16 1 16 11 0 22 -39 107 -11 96 30 -3 12 -1 25
4 28 5 3 9 -10 9 -29 0 -23 6 -37 16 -41 28 -11 53 -6 63 12 10 16 10 16 11 0
0 -28 40 -23 41 5 0 15 2 17 6 7 3 -8 11 -18 17 -22 19 -13 66 -9 72 7 5 13 8
13 21 0 16 -16 60 -20 81 -6 9 5 12 24 10 52 -3 43 -4 44 -41 47 -21 2 -44 -2
-52 -8 -9 -8 -15 -8 -20 0 -11 17 -73 12 -84 -7 -10 -17 -10 -17 -11 0 0 10
-8 17 -20 17 -15 0 -20 -7 -20 -29 0 -23 -5 -30 -25 -33 -19 -4 -25 -1 -25 13
0 12 7 19 20 19 11 0 20 7 20 15 0 8 -9 15 -20 15 -11 0 -20 5 -20 10 0 19
-37 10 -48 -12z"/>
<path d="M877 253 c-12 -11 -8 -78 6 -92 10 -11 10 -13 0 -7 -17 9 -17 -16 -1
-32 7 -7 27 -12 45 -12 41 0 53 21 53 94 l0 56 -48 0 c-27 0 -52 -3 -55 -7z"/>
<path d="M10 96 l0 -26 616 0 c407 0 613 3 609 10 -4 6 -76 10 -183 10 -169 0
-612 12 -904 25 l-138 6 0 -25z"/>
</g>
</svg>
