<?xml version="1.0" encoding="UTF-8" standalone="no"?>
<!DOCTYPE svg PUBLIC "-//W3C//DTD SVG 1.1//EN" "http://www.w3.org/Graphics/SVG/1.1/DTD/svg11.dtd">
<svg xmlns="http://www.w3.org/2000/svg" version="1.1" viewBox="0 0 300 129" width="300.0pt" height="129.0pt">
<path d="M 0.00 0.00 L 300.00 0.00 L 300.00 129.00 L 0.00 129.00 L 0.00 0.00 Z" fill="#ffffff" />
<path d="M 242.52 47.95 C 245.49 47.95 248.47 47.95 251.44 47.95 C 251.48 58.46 251.37 68.97 251.50 79.47 C 255.02 78.85 258.20 78.50 260.84 75.85 C 263.46 73.46 264.14 70.41 264.84 67.09 C 267.80 67.09 270.77 67.08 273.73 67.09 C 273.16 70.80 272.69 74.30 270.63 77.53 C 268.76 80.77 266.03 82.91 263.13 85.14 C 267.96 92.30 272.96 99.36 277.94 106.42 C 274.42 106.45 270.90 106.43 267.39 106.47 C 263.03 100.42 258.59 94.42 254.30 88.31 C 253.35 88.11 252.40 87.91 251.45 87.71 C 251.44 93.95 251.43 100.19 251.47 106.42 C 248.48 106.43 245.50 106.45 242.51 106.47 C 242.53 86.96 242.51 67.46 242.52 47.95 Z" fill="#4b4b4b" />
<path d="M 31.40 60.25 C 31.30 68.16 31.37 76.08 31.32 84.00 C 31.37 86.28 31.24 88.83 31.96 91.01 C 33.76 95.64 39.20 98.53 43.98 96.69 C 48.36 95.48 50.70 91.44 50.69 87.05 C 50.79 78.11 50.65 69.17 50.76 60.23 C 54.22 60.20 57.68 60.21 61.14 60.29 C 63.61 68.17 66.78 75.12 71.11 82.16 C 73.80 75.74 76.84 70.06 83.66 67.33 C 93.15 63.17 104.51 67.36 109.33 76.41 C 115.32 86.97 110.39 101.32 99.13 105.89 C 91.26 109.21 84.44 106.89 76.99 103.97 C 75.61 111.13 74.28 118.33 72.47 125.40 C 69.08 125.35 65.69 125.34 62.30 125.32 C 64.13 115.20 66.45 105.15 68.49 95.07 C 65.77 91.08 62.98 87.35 61.52 82.67 C 61.35 86.36 61.07 90.25 60.02 93.82 C 57.64 101.98 49.29 108.05 40.78 107.70 C 31.26 107.92 22.24 99.96 21.40 90.47 C 20.42 80.53 21.01 70.46 20.74 60.29 C 24.30 60.19 27.85 60.19 31.40 60.25 Z" fill="#6fda44" />
<path d="M 181.47 66.65 C 186.62 65.19 192.19 65.48 196.93 68.07 C 204.13 71.94 208.62 79.82 207.94 88.02 C 207.49 98.86 197.88 107.86 187.00 107.44 C 177.22 107.35 168.67 99.56 167.24 89.97 C 165.50 79.96 171.72 69.61 181.47 66.65 Z" fill="#4b4b4b" />
<path d="M 112.24 67.03 C 115.17 67.05 118.09 67.08 121.01 67.16 C 123.54 76.18 126.04 85.23 128.73 94.20 C 130.68 85.16 133.03 76.21 135.04 67.18 C 137.88 67.11 140.73 67.10 143.57 67.08 C 145.72 76.13 148.07 85.12 150.20 94.17 C 152.70 85.16 155.03 76.11 157.44 67.07 C 160.42 67.06 163.39 67.06 166.36 67.11 C 162.67 80.23 158.80 93.30 155.14 106.43 C 152.23 106.43 149.32 106.44 146.42 106.47 C 144.16 97.21 141.75 87.99 139.46 78.74 C 137.09 87.97 134.83 97.23 132.46 106.46 C 129.58 106.44 126.69 106.44 123.80 106.44 C 119.94 93.31 116.12 80.16 112.24 67.03 Z" fill="#4b4b4b" />
<path d="M 213.68 67.08 C 216.67 67.06 219.65 67.06 222.64 67.11 C 222.65 69.01 222.66 70.91 222.67 72.80 C 224.72 70.97 226.52 69.17 229.09 68.04 C 231.42 67.00 234.30 67.13 236.82 67.01 C 236.84 69.87 236.83 72.74 236.84 75.60 C 233.60 75.86 230.31 75.55 227.55 77.51 C 224.51 79.58 222.96 82.26 222.76 85.95 C 222.46 92.78 222.78 99.63 222.63 106.47 C 219.66 106.46 216.68 106.46 213.71 106.46 C 213.69 93.33 213.73 80.20 213.68 67.08 Z" fill="#4b4b4b" />
<path d="M 284.29 67.79 C 283.04 68.04 281.79 68.29 280.54 68.54 C 280.52 71.36 280.45 74.17 280.07 76.97 C 279.44 74.19 279.46 71.41 279.46 68.58 C 278.26 68.34 277.06 68.10 275.86 67.84 C 278.69 67.01 281.43 67.32 284.29 67.79 Z" fill="#4b4b4b" />
<path d="M 285.43 66.57 C 286.76 68.38 288.01 70.24 289.26 72.09 C 290.53 70.20 291.81 68.31 293.17 66.48 C 293.40 69.97 293.62 73.36 292.76 76.79 C 292.43 74.14 292.35 71.47 292.25 68.80 C 291.25 70.35 290.24 71.90 289.23 73.45 C 288.23 71.91 287.23 70.37 286.24 68.82 C 286.15 71.53 286.13 74.20 285.57 76.87 C 284.99 73.44 285.14 70.02 285.43 66.57 Z" fill="#4b4b4b" />
<path d="M 183.50 75.37 C 189.80 73.13 197.06 76.67 199.00 83.09 C 201.15 89.36 197.38 96.20 191.28 98.35 C 185.28 100.36 178.75 97.37 176.33 91.57 C 173.61 85.16 176.94 77.64 183.50 75.37 Z" fill="#ffffff" />
<path d="M 88.39 76.56 C 92.83 75.53 97.16 76.22 99.90 80.14 C 104.08 85.72 101.13 94.33 94.60 96.43 C 89.44 97.43 83.90 96.28 80.26 92.30 C 80.62 86.67 82.32 78.68 88.39 76.56 Z" fill="#ffffff" />
</svg>