<?xml version="1.0" standalone="no"?>
<!DOCTYPE svg PUBLIC "-//W3C//DTD SVG 20010904//EN"
 "http://www.w3.org/TR/2001/REC-SVG-20010904/DTD/svg10.dtd">
<svg version="1.0" xmlns="http://www.w3.org/2000/svg"
 width="300.000000pt" height="130.000000pt" viewBox="0 0 300.000000 130.000000"
 preserveAspectRatio="xMidYMid meet">
<metadata>
Created by potrace 1.15, written by Peter Selinger 2001-2017
</metadata>
<g transform="translate(0.000000,130.000000) scale(0.100000,-0.100000)"
fill="#000000" stroke="none">
<path d="M1302 790 c-86 -53 -95 -200 -16 -269 29 -26 43 -31 85 -31 59 0 99
18 118 53 23 43 3 50 -33 12 -40 -42 -73 -45 -115 -9 -91 77 -35 271 67 233
14 -5 31 -26 40 -49 25 -59 42 -52 42 18 l0 59 -77 1 c-63 2 -84 -2 -111 -18z"/>
<path d="M300 765 l0 -35 50 0 50 0 0 -120 0 -120 40 0 40 0 0 120 0 120 45 0
c45 0 45 0 45 35 l0 35 -135 0 -135 0 0 -35z"/>
<path d="M990 645 l0 -155 35 0 35 0 0 63 c0 69 15 101 46 95 16 -3 19 -13 22
-81 l3 -77 41 0 41 0 -5 95 c-4 73 -10 100 -23 115 -20 22 -74 27 -106 10 -18
-10 -19 -7 -19 40 l0 50 -35 0 -35 0 0 -155z"/>
<path d="M595 708 c-38 -20 -55 -51 -55 -101 0 -81 41 -117 134 -117 52 0 69
11 64 41 -3 21 -7 23 -54 20 -36 -2 -54 2 -63 13 -12 14 -5 16 63 16 54 0 76
4 76 13 0 35 -24 88 -47 107 -28 22 -85 26 -118 8z"/>
<path d="M834 710 c-67 -27 -86 -125 -36 -181 24 -27 37 -33 83 -36 64 -5 79
3 72 39 -5 24 -8 26 -39 21 -25 -4 -40 -1 -54 12 -43 39 -12 95 52 95 28 0 37
5 41 22 4 13 1 26 -6 30 -16 10 -86 9 -113 -2z"/>
<path d="M1552 704 c-12 -8 -22 -26 -22 -40 0 -19 5 -24 25 -24 20 0 25 5 25
25 0 20 5 25 24 25 16 0 27 -7 31 -20 9 -27 1 -37 -43 -51 -20 -6 -45 -18 -54
-27 -21 -17 -24 -72 -6 -90 15 -15 80 -16 96 0 8 8 15 8 26 -1 17 -15 68 -11
73 5 2 6 -5 14 -17 17 -18 5 -20 13 -20 85 0 64 -3 82 -18 95 -24 21 -90 22
-120 1z"/>
<path d="M1763 713 c-27 -5 -29 -16 -8 -33 11 -9 15 -33 15 -86 0 -59 -3 -74
-15 -74 -8 0 -15 -7 -15 -15 0 -12 13 -15 60 -15 44 0 60 4 60 14 0 7 -9 16
-20 19 -17 4 -20 14 -20 70 0 43 5 68 14 76 11 9 15 8 20 -4 10 -28 50 -14 54
18 4 33 -19 45 -59 30 -16 -7 -29 -7 -29 -2 0 9 -17 10 -57 2z"/>
<path d="M1957 696 c-49 -45 -50 -143 -2 -183 38 -33 107 -32 142 3 19 19 22
29 14 37 -8 8 -17 5 -34 -11 -13 -12 -30 -22 -39 -22 -24 0 -56 32 -64 63 l-6
27 71 0 71 0 0 30 c0 72 -97 108 -153 56z"/>
<path d="M2177 700 c-53 -42 -58 -136 -10 -185 20 -19 36 -25 68 -25 45 0 95
29 95 56 0 20 -17 17 -40 -6 -11 -11 -29 -20 -40 -20 -26 0 -60 38 -60 67 0
22 4 23 70 23 64 0 70 2 70 20 0 29 -26 76 -45 84 -33 12 -83 6 -108 -14z"/>
<path d="M2373 713 c-27 -5 -29 -16 -8 -33 11 -9 15 -32 15 -82 0 -52 -4 -70
-15 -74 -8 -4 -15 -12 -15 -20 0 -10 15 -14 60 -14 44 0 60 4 60 14 0 7 -9 16
-20 19 -17 4 -20 14 -20 70 0 43 5 68 14 76 11 9 15 8 20 -4 10 -28 50 -14 54
18 4 33 -19 45 -59 30 -16 -7 -29 -7 -29 -2 0 9 -17 10 -57 2z"/>
<path d="M2551 694 c-12 -15 -21 -32 -21 -39 0 -22 39 -63 67 -70 15 -3 34
-11 40 -17 20 -16 15 -45 -9 -51 -16 -5 -30 3 -54 28 -18 19 -35 35 -38 35 -3
0 -6 -20 -6 -44 l0 -43 62 -2 c51 -1 66 3 85 21 44 41 21 97 -52 121 -49 17
-56 50 -13 55 22 3 30 -2 40 -22 13 -30 38 -35 38 -8 -1 50 -10 59 -65 61 -47
1 -56 -2 -74 -25z"/>
</g>
</svg>
