<?xml version="1.0" encoding="UTF-8" standalone="no"?>
<!DOCTYPE svg PUBLIC "-//W3C//DTD SVG 1.1//EN" "http://www.w3.org/Graphics/SVG/1.1/DTD/svg11.dtd">
<svg xmlns="http://www.w3.org/2000/svg" version="1.1" viewBox="0 0 225 225" width="225.0pt" height="225.0pt">
<path d="M 0.00 0.00 L 225.00 0.00 L 225.00 225.00 L 0.00 225.00 L 0.00 0.00 Z" fill="#ffffff" />
<path d="M 86.81 15.98 C 90.35 16.71 93.16 19.99 95.29 22.72 C 100.09 29.18 103.59 36.82 106.85 44.15 C 112.77 57.88 117.32 71.94 122.25 86.01 C 127.76 70.15 132.95 54.60 140.50 39.52 C 143.34 34.09 146.56 28.24 150.86 23.83 C 152.74 21.91 155.19 19.95 157.94 19.57 C 162.38 19.16 166.93 20.66 169.84 24.13 C 173.61 28.53 174.04 34.51 173.33 40.03 C 172.14 48.15 169.56 56.23 167.27 64.11 C 163.75 75.37 159.92 86.54 155.89 97.62 C 161.77 99.06 167.24 100.98 171.24 105.78 C 175.52 111.21 176.69 118.28 177.23 124.98 C 177.98 136.38 177.13 148.35 173.58 159.27 C 168.79 174.89 158.20 188.68 144.44 197.46 C 132.34 205.12 118.23 208.15 104.01 207.70 C 88.31 207.07 72.52 200.87 61.42 189.59 C 51.45 180.14 44.45 168.00 43.90 154.03 C 43.75 147.15 44.98 139.10 50.00 133.97 C 53.93 129.82 58.83 128.34 64.15 126.79 C 62.73 123.05 60.96 119.01 60.51 115.02 C 60.16 110.74 62.24 107.07 64.96 103.96 C 68.14 100.36 72.19 96.82 77.08 96.01 C 81.46 95.45 85.85 97.67 89.64 99.57 C 83.29 81.77 77.00 63.86 72.14 45.59 C 70.44 38.70 68.90 30.82 72.10 24.14 C 74.73 18.51 80.67 15.33 86.81 15.98 Z" fill="#000000" />
<path d="M 82.07 24.96 C 86.85 22.93 90.11 27.18 92.15 30.85 C 96.63 39.80 99.71 49.55 103.01 58.99 C 106.74 69.66 110.39 80.35 114.10 91.03 C 109.78 90.80 105.34 89.98 101.04 90.37 C 99.15 90.49 98.10 91.64 96.72 92.76 C 90.30 74.86 83.01 56.68 78.97 38.08 C 78.19 33.47 77.29 27.73 82.07 24.96 Z" fill="#ffffff" />
<path d="M 163.46 30.54 C 166.28 34.21 165.14 38.90 164.10 42.99 C 159.16 60.80 152.81 78.25 146.47 95.60 C 140.94 94.47 135.38 93.59 129.82 92.66 C 134.83 77.81 139.97 63.00 145.19 48.22 C 147.56 42.25 150.09 35.31 154.64 30.64 C 157.12 28.02 161.01 27.74 163.46 30.54 Z" fill="#ffffff" />
<path d="M 108.98 98.39 C 124.36 98.58 139.90 100.51 154.46 105.68 C 159.53 107.71 164.51 109.90 166.40 115.49 C 168.73 122.58 168.66 130.63 168.21 138.01 C 167.25 151.82 162.81 165.19 154.16 176.10 C 146.03 186.60 134.80 194.62 121.72 197.51 C 107.68 200.64 91.80 199.03 79.25 191.74 C 69.05 185.97 61.56 176.93 56.36 166.55 C 54.38 162.33 52.85 157.68 52.49 153.02 C 52.13 146.56 55.01 140.07 60.49 136.50 C 62.47 135.38 65.07 134.60 67.16 135.85 C 70.60 137.74 73.43 141.08 76.00 144.00 C 80.38 149.30 84.91 154.92 88.00 161.09 C 88.92 163.25 90.01 165.30 88.45 167.47 C 85.62 170.92 80.96 170.67 77.35 168.65 C 70.33 164.59 66.48 157.16 61.18 151.33 C 58.06 159.47 63.26 166.72 68.96 172.05 C 72.97 175.82 77.50 178.77 83.00 179.79 C 89.05 181.01 95.81 177.44 97.91 171.57 C 98.80 168.72 98.16 166.03 97.76 163.15 C 101.23 163.90 103.46 164.22 106.64 162.35 C 106.49 169.61 107.31 177.98 112.17 183.75 C 114.04 186.02 116.54 186.72 119.28 187.37 C 119.12 179.34 114.30 173.36 115.23 164.97 C 116.48 154.89 123.42 145.40 131.26 139.24 C 137.94 133.82 145.80 132.85 152.77 128.08 C 151.88 125.52 151.47 122.61 148.08 122.62 C 137.54 122.62 127.38 122.55 116.94 120.48 C 112.42 119.55 107.70 117.97 104.22 114.81 C 100.75 111.70 99.14 106.22 100.91 101.85 C 102.10 98.81 106.20 98.53 108.98 98.39 Z" fill="#ffffff" />
<path d="M 77.47 105.53 C 81.15 104.09 85.04 107.00 87.57 109.41 C 93.08 115.05 96.91 122.57 100.44 129.55 C 102.96 135.17 105.60 140.99 106.93 147.02 C 107.68 150.51 105.11 153.94 101.75 154.72 C 99.40 154.99 96.85 153.31 95.00 152.02 C 88.33 147.02 82.90 139.69 78.07 132.95 C 74.94 128.27 71.81 123.21 70.17 117.79 C 68.29 112.93 73.37 107.42 77.47 105.53 Z" fill="#ffffff" />
<path d="M 108.44 127.05 C 115.11 129.50 122.02 130.47 129.07 130.97 C 123.57 134.43 118.91 138.93 114.90 144.02 C 113.44 138.10 111.06 132.54 108.44 127.05 Z" fill="#ffffff" />
</svg>