<?xml version="1.0" standalone="no"?>
<!DOCTYPE svg PUBLIC "-//W3C//DTD SVG 20010904//EN"
 "http://www.w3.org/TR/2001/REC-SVG-20010904/DTD/svg10.dtd">
<svg version="1.0" xmlns="http://www.w3.org/2000/svg"
 width="225.000000pt" height="225.000000pt" viewBox="0 0 225.000000 225.000000"
 preserveAspectRatio="xMidYMid meet">
<metadata>
Created by potrace 1.15, written by Peter Selinger 2001-2017
</metadata>
<g transform="translate(0.000000,225.000000) scale(0.100000,-0.100000)"
fill="#000000" stroke="none">
<path d="M0 1140 l0 -691 408 3 c394 4 409 5 471 27 206 73 300 225 271 433
-18 123 -89 221 -193 264 -26 10 -47 22 -47 25 0 3 11 11 25 17 52 24 114 93
136 150 17 47 20 73 17 142 -8 164 -77 248 -243 298 -39 12 -134 16 -447 19
l-398 5 0 -692z m671 449 c34 -7 64 -22 87 -44 33 -30 36 -38 39 -96 5 -82
-15 -124 -76 -156 -42 -22 -55 -23 -233 -23 l-188 0 0 165 0 165 160 0 c87 0
182 -5 211 -11z m64 -540 c115 -32 164 -202 87 -298 -48 -60 -95 -70 -324 -71
l-198 0 0 190 0 190 198 0 c112 0 214 -5 237 -11z"/>
<path d="M1470 1665 l0 -65 280 0 280 0 0 65 0 65 -280 0 -280 0 0 -65z"/>
<path d="M1608 1451 c-221 -73 -349 -258 -349 -506 1 -324 192 -520 506 -519
220 1 360 86 440 268 l25 56 -115 0 -115 0 -47 -49 c-64 -66 -138 -89 -230
-73 -35 5 -78 19 -96 31 -42 26 -85 109 -94 179 l-6 52 362 0 361 0 0 73 c-1
209 -107 389 -277 470 -63 30 -77 32 -188 34 -95 2 -132 -1 -177 -16z m248
-200 c62 -28 114 -109 114 -177 l0 -24 -225 0 c-124 0 -225 4 -225 8 0 24 30
104 49 130 52 73 195 105 287 63z"/>
</g>
</svg>
