<?xml version="1.0" encoding="UTF-8" standalone="no"?>
<!DOCTYPE svg PUBLIC "-//W3C//DTD SVG 1.1//EN" "http://www.w3.org/Graphics/SVG/1.1/DTD/svg11.dtd">
<svg xmlns="http://www.w3.org/2000/svg" version="1.1" viewBox="0 0 400 130" width="400.0pt" height="130.0pt">
<path d="M 0.00 0.00 L 140.40 0.00 C 138.40 2.73 135.12 5.34 135.54 9.00 C 135.54 35.42 135.63 61.85 135.50 88.27 C 131.52 91.21 129.60 94.33 128.37 99.11 C 126.45 106.98 126.74 116.18 130.52 123.48 C 132.05 126.48 134.26 128.49 137.24 130.00 L 0.00 130.00 L 0.00 69.75 C 0.76 76.42 2.70 82.75 7.09 87.96 C 12.01 93.98 19.29 97.51 26.99 98.18 C 34.43 98.97 41.42 97.41 48.46 95.20 C 48.49 92.84 48.52 90.48 48.55 88.11 C 41.15 90.77 33.90 92.62 25.98 91.17 C 19.50 90.05 13.90 86.05 10.67 80.33 C 7.09 74.03 6.55 65.89 7.77 58.87 C 9.32 50.19 15.23 42.38 23.88 39.87 C 32.24 37.54 39.68 39.83 47.45 42.84 C 47.39 40.27 47.34 37.71 47.27 35.15 C 39.43 33.00 32.07 31.19 23.89 32.87 C 15.78 34.46 8.93 39.78 4.80 46.86 C 2.10 51.36 1.00 56.16 0.00 61.24 L 0.00 0.00 Z" fill="#ffffff" />
<path d="M 140.40 0.00 L 142.88 0.00 C 142.88 26.33 142.88 52.67 142.88 79.00 C 142.90 81.99 142.68 85.04 143.04 88.01 C 144.75 90.40 146.88 92.17 148.12 94.93 C 151.56 102.27 151.91 111.10 149.67 118.84 C 148.17 123.71 145.75 128.08 140.75 130.00 L 137.24 130.00 C 134.26 128.49 132.05 126.48 130.52 123.48 C 126.74 116.18 126.45 106.98 128.37 99.11 C 129.60 94.33 131.52 91.21 135.50 88.27 C 135.63 61.85 135.54 35.42 135.54 9.00 C 135.12 5.34 138.40 2.73 140.40 0.00 Z" fill="#819115" />
<path d="M 142.88 0.00 L 400.00 0.00 L 400.00 61.40 C 398.92 53.61 395.87 46.36 390.10 40.89 C 378.32 29.09 356.88 29.32 345.33 41.33 C 335.70 50.70 333.52 65.64 337.97 77.99 C 341.42 87.15 349.36 94.67 358.87 97.21 C 364.63 98.77 371.37 98.76 377.13 97.19 C 385.67 94.87 392.80 88.62 396.68 80.72 C 398.35 77.31 399.24 73.52 400.00 69.81 L 400.00 130.00 L 140.75 130.00 C 145.75 128.08 148.17 123.71 149.67 118.84 C 151.91 111.10 151.56 102.27 148.12 94.93 C 146.88 92.17 144.75 90.40 143.04 88.01 C 142.68 85.04 142.90 81.99 142.88 79.00 C 142.88 52.67 142.88 26.33 142.88 0.00 Z" fill="#ffffff" />
<path d="M 160.86 0.48 C 163.15 0.45 165.44 0.43 167.72 0.40 C 167.79 4.32 167.76 8.24 167.68 12.17 C 165.41 12.14 163.15 12.12 160.88 12.10 C 160.88 8.23 160.87 4.35 160.86 0.48 Z" fill="#819115" />
<path d="M 261.87 11.89 C 262.54 19.00 262.08 26.23 262.14 33.37 C 269.09 33.49 276.05 33.45 283.00 33.39 C 283.06 35.28 283.12 37.17 283.17 39.06 C 276.17 39.07 269.18 39.05 262.18 39.08 C 262.21 51.72 262.16 64.36 262.20 77.00 C 262.30 80.72 262.23 84.95 263.54 88.48 C 264.51 90.69 266.82 91.22 268.99 91.55 C 274.12 92.17 278.44 90.48 283.10 88.68 C 283.12 90.84 283.14 93.01 283.16 95.17 C 277.01 98.00 269.53 99.80 263.05 96.99 C 258.50 94.96 255.66 90.96 255.49 85.93 C 255.33 70.32 255.53 54.66 255.40 39.04 C 249.71 39.06 244.02 39.13 238.32 38.97 C 238.35 37.13 238.37 35.28 238.40 33.43 C 244.07 33.44 249.75 33.44 255.43 33.43 C 255.47 29.62 255.41 25.81 255.39 22.00 C 254.72 17.93 258.23 13.32 261.87 11.89 Z" fill="#819115" />
<path d="M 47.27 35.15 C 47.34 37.71 47.39 40.27 47.45 42.84 C 39.68 39.83 32.24 37.54 23.88 39.87 C 15.23 42.38 9.32 50.19 7.77 58.87 C 6.55 65.89 7.09 74.03 10.67 80.33 C 13.90 86.05 19.50 90.05 25.98 91.17 C 33.90 92.62 41.15 90.77 48.55 88.11 C 48.52 90.48 48.49 92.84 48.46 95.20 C 41.42 97.41 34.43 98.97 26.99 98.18 C 19.29 97.51 12.01 93.98 7.09 87.96 C 2.70 82.75 0.76 76.42 0.00 69.75 L 0.00 61.24 C 1.00 56.16 2.10 51.36 4.80 46.86 C 8.93 39.78 15.78 34.46 23.89 32.87 C 32.07 31.19 39.43 33.00 47.27 35.15 Z" fill="#819115" />
<path d="M 231.72 40.30 C 236.03 45.74 237.09 52.23 237.12 59.00 C 237.13 71.71 237.13 84.44 237.12 97.15 C 234.84 97.12 232.56 97.08 230.28 97.05 C 230.28 84.04 230.42 71.01 230.22 58.00 C 229.85 50.65 227.55 42.79 219.96 40.01 C 208.92 36.09 197.22 42.68 192.76 52.93 C 192.46 67.58 192.68 82.37 192.66 97.04 C 190.38 97.08 188.10 97.12 185.82 97.16 C 185.88 75.90 185.65 54.63 185.94 33.38 C 188.17 33.40 190.40 33.43 192.63 33.46 C 192.61 37.04 192.62 40.61 192.69 44.19 C 194.46 42.12 196.14 40.00 198.12 38.14 C 207.13 29.48 224.03 30.28 231.72 40.30 Z" fill="#819115" />
<path d="M 323.88 32.53 C 328.55 33.68 332.19 36.71 335.79 39.73 C 334.47 41.86 333.17 43.99 331.86 46.13 C 328.74 43.58 325.41 40.59 321.52 39.32 C 317.71 38.16 314.04 39.81 311.03 42.08 C 306.60 45.50 303.13 50.42 300.14 55.11 C 298.85 56.93 298.85 58.86 298.84 61.00 C 298.92 73.04 298.86 85.08 298.88 97.11 C 296.63 97.11 294.37 97.11 292.12 97.11 C 292.10 75.90 292.17 54.68 292.08 33.47 C 294.36 33.47 296.64 33.47 298.92 33.47 C 298.87 39.05 298.80 44.61 298.99 50.19 C 302.96 44.56 306.47 39.22 312.27 35.24 C 315.72 32.91 319.70 31.58 323.88 32.53 Z" fill="#819115" />
<path d="M 390.10 40.89 C 395.87 46.36 398.92 53.61 400.00 61.40 L 400.00 69.81 C 399.24 73.52 398.35 77.31 396.68 80.72 C 392.80 88.62 385.67 94.87 377.13 97.19 C 371.37 98.76 364.63 98.77 358.87 97.21 C 349.36 94.67 341.42 87.15 337.97 77.99 C 333.52 65.64 335.70 50.70 345.33 41.33 C 356.88 29.32 378.32 29.09 390.10 40.89 Z" fill="#819115" />
<path d="M 73.42 33.49 C 73.30 45.66 73.42 57.83 73.36 70.00 C 73.34 74.12 73.43 78.06 75.09 81.92 C 76.79 85.87 80.08 89.08 84.13 90.58 C 88.38 92.10 93.24 91.98 97.53 90.68 C 103.06 88.98 107.33 84.07 110.30 79.32 C 111.33 77.77 111.07 75.79 111.16 74.00 C 111.05 60.49 111.19 46.98 111.08 33.47 C 113.36 33.47 115.64 33.47 117.92 33.47 C 117.83 54.67 117.90 75.88 117.88 97.08 C 115.66 97.12 113.43 97.16 111.20 97.19 C 111.25 93.71 111.09 90.23 110.88 86.76 C 107.51 91.12 104.38 95.08 98.99 97.02 C 90.29 99.81 79.83 98.54 73.26 91.74 C 68.19 86.66 66.69 79.98 66.59 73.00 C 66.49 59.83 66.64 46.65 66.52 33.47 C 68.82 33.48 71.12 33.48 73.42 33.49 Z" fill="#819115" />
<path d="M 160.99 33.39 C 163.24 33.41 165.49 33.43 167.74 33.45 C 167.78 54.65 167.72 75.86 167.77 97.07 C 165.48 97.09 163.18 97.12 160.88 97.15 C 160.94 75.90 160.72 54.63 160.99 33.39 Z" fill="#819115" />
<path d="M 361.52 39.69 C 367.37 38.28 373.99 38.75 379.35 41.64 C 386.06 45.28 390.90 52.01 392.29 59.52 C 393.34 65.39 392.88 71.86 390.36 77.32 C 387.26 83.99 381.24 89.33 374.00 90.99 C 367.88 92.38 360.99 91.69 355.53 88.46 C 350.11 85.25 345.94 79.95 344.17 73.89 C 342.66 68.73 342.63 63.11 343.86 57.89 C 345.96 49.28 352.84 41.85 361.52 39.69 Z" fill="#ffffff" />
</svg>