<?xml version="1.0" encoding="UTF-8" standalone="no"?>
<!DOCTYPE svg PUBLIC "-//W3C//DTD SVG 1.1//EN" "http://www.w3.org/Graphics/SVG/1.1/DTD/svg11.dtd">
<svg xmlns="http://www.w3.org/2000/svg" version="1.1" viewBox="0 0 250 81" width="250.0pt" height="81.0pt">
<path d="M 0.00 0.00 L 250.00 0.00 L 250.00 81.00 L 0.00 81.00 L 0.00 0.00 Z" fill="#ffffff" />
<path d="M 39.98 5.74 L 41.95 5.48 C 45.54 9.44 48.81 13.73 52.12 17.93 C 56.32 22.88 61.72 27.14 66.72 31.27 C 70.24 34.21 73.98 36.11 76.70 39.92 C 74.56 41.74 72.30 43.40 70.05 45.08 C 61.91 51.13 54.57 58.27 48.15 66.11 C 45.78 68.96 44.17 72.00 41.01 74.11 C 39.65 72.43 38.32 70.73 37.09 68.95 C 33.99 64.25 29.64 60.35 25.87 56.13 C 20.18 49.97 13.48 45.22 6.96 40.04 C 7.25 39.32 7.54 38.60 7.84 37.89 C 17.84 31.66 26.58 23.07 34.13 14.09 C 36.39 11.50 37.83 8.38 39.98 5.74 Z" fill="#0c1c8c" />
<path d="M 45.28 15.73 C 53.19 21.95 60.86 29.10 66.42 37.53 C 67.44 39.20 67.12 40.54 66.13 42.09 C 60.81 50.52 53.21 57.35 45.28 63.25 C 44.00 64.07 42.82 65.18 41.19 64.66 C 37.06 63.33 33.44 59.59 30.32 56.68 C 24.96 51.71 19.59 46.42 15.79 40.05 C 15.62 37.73 18.46 35.48 19.72 33.68 C 25.09 26.67 31.62 20.93 38.43 15.37 C 40.66 13.48 43.13 14.14 45.28 15.73 Z" fill="#ffffff" />
<path d="M 85.27 14.88 C 89.96 14.87 94.65 14.87 99.34 14.88 C 99.35 31.96 99.35 49.04 99.34 66.12 C 94.65 66.13 89.96 66.13 85.27 66.12 C 85.27 49.04 85.27 31.96 85.27 14.88 Z" fill="#0c1c8c" />
<path d="M 106.80 14.88 C 120.04 14.87 133.28 14.87 146.51 14.88 C 146.52 18.19 146.52 21.50 146.51 24.81 C 138.24 24.79 129.97 24.80 121.70 24.80 C 121.70 28.37 121.70 31.95 121.69 35.52 C 129.14 35.56 136.59 35.52 144.03 35.54 C 144.04 38.85 144.04 42.15 144.03 45.46 C 136.59 45.48 129.14 45.44 121.69 45.48 C 121.70 49.05 121.70 52.63 121.70 56.20 C 129.97 56.21 138.25 56.19 146.52 56.21 C 146.52 59.50 146.52 62.79 146.53 66.08 C 133.29 66.18 120.04 66.10 106.80 66.12 C 106.79 49.04 106.79 31.96 106.80 14.88 Z" fill="#0c1c8c" />
<path d="M 153.97 14.88 C 167.21 14.88 180.45 14.87 193.70 14.88 C 193.70 18.19 193.70 21.49 193.70 24.80 C 185.42 24.81 177.15 24.79 168.87 24.80 C 168.86 28.39 168.86 31.97 168.91 35.55 C 176.62 35.52 184.33 35.54 192.03 35.54 C 192.04 38.85 192.04 42.15 192.03 45.46 C 184.33 45.46 176.62 45.48 168.91 45.45 C 168.86 49.03 168.86 52.61 168.87 56.20 C 177.15 56.21 185.42 56.19 193.70 56.20 C 193.70 59.51 193.70 62.81 193.70 66.12 C 180.45 66.13 167.21 66.12 153.97 66.12 C 153.96 49.04 153.96 31.96 153.97 14.88 Z" fill="#0c1c8c" />
<path d="M 201.97 14.88 C 214.93 14.88 227.90 14.87 240.87 14.88 C 240.87 18.19 240.87 21.49 240.87 24.80 C 232.59 24.80 224.31 24.80 216.04 24.80 C 216.03 28.38 216.03 31.96 216.04 35.55 C 223.77 35.53 231.49 35.54 239.21 35.54 C 239.21 38.85 239.21 42.15 239.21 45.46 C 231.49 45.46 223.76 45.47 216.04 45.45 C 216.03 49.04 216.03 52.62 216.04 56.20 C 224.31 56.20 232.59 56.20 240.87 56.20 C 240.87 59.51 240.87 62.81 240.87 66.12 C 227.90 66.13 214.93 66.12 201.97 66.12 C 201.96 49.04 201.96 31.96 201.97 14.88 Z" fill="#0c1c8c" />
<path d="M 41.99 16.01 C 45.35 16.83 48.34 19.89 50.80 22.20 C 56.27 27.57 62.02 33.40 65.81 40.10 C 64.74 42.60 62.49 44.68 60.76 46.76 C 55.72 52.43 50.22 58.79 43.56 62.55 C 41.72 63.59 40.53 63.35 38.90 62.14 C 32.00 56.82 25.86 50.44 20.10 43.93 C 18.29 41.83 17.23 39.55 19.01 37.03 C 23.46 30.17 30.06 24.50 36.25 19.23 C 37.83 18.11 39.94 15.84 41.99 16.01 Z" fill="#0c1c8c" />
<path d="M 41.34 20.79 C 42.92 24.50 44.15 28.37 45.52 32.16 L 43.06 32.24 C 43.09 35.83 43.08 39.43 43.00 43.02 C 41.92 43.04 40.84 43.06 39.76 43.07 C 40.02 39.46 40.30 35.85 40.59 32.23 L 38.14 32.19 C 39.16 28.38 40.11 24.54 41.34 20.79 Z" fill="#ffffff" />
<path d="M 33.96 34.02 C 35.07 34.72 36.17 35.44 37.27 36.17 C 34.65 37.04 32.67 37.72 30.92 39.97 C 34.59 43.99 39.01 43.58 43.99 43.38 C 44.41 43.96 44.59 44.53 44.74 45.23 C 39.99 44.98 34.47 44.92 30.03 43.02 C 28.23 42.28 26.86 40.94 26.41 39.00 C 27.67 36.35 31.42 35.13 33.96 34.02 Z" fill="#ffffff" />
<path d="M 47.20 34.59 C 50.99 34.93 53.20 36.64 55.86 39.16 C 54.11 42.58 49.38 46.19 45.68 43.52 C 48.83 42.72 51.03 41.90 53.55 39.88 C 52.14 37.56 50.35 37.44 47.96 36.74 C 47.68 36.03 47.43 35.31 47.20 34.59 Z" fill="#ffffff" />
<path d="M 39.80 45.43 C 40.86 45.46 41.92 45.50 42.98 45.53 C 43.31 49.09 43.60 52.65 43.88 56.21 C 42.27 56.20 40.66 56.20 39.04 56.20 C 39.53 52.62 39.74 49.04 39.80 45.43 Z" fill="#ffffff" />
<path d="M 54.90 65.99 C 55.66 65.58 56.51 65.56 57.45 65.93 L 57.24 67.34 C 56.19 67.18 55.41 66.73 54.90 65.99 Z" fill="#0c1c8c" />
<path d="M 53.19 67.50 L 54.12 67.49 L 54.55 68.27 L 54.02 68.81 C 52.80 68.87 52.52 68.43 53.19 67.50 Z" fill="#0c1c8c" />
<path d="M 55.18 68.02 L 55.83 67.55 L 56.57 67.97 L 56.64 68.83 L 55.98 69.30 L 55.26 68.89 L 55.18 68.02 Z" fill="#0c1c8c" />
<path d="M 57.94 67.12 C 58.29 68.45 58.63 69.79 58.98 71.13 C 57.08 71.69 55.81 71.82 53.82 71.34 C 54.12 70.72 54.42 70.10 54.72 69.49 L 56.96 71.10 C 57.43 69.82 57.75 68.50 57.94 67.12 Z" fill="#0c1c8c" />
</svg>