<?xml version="1.0" standalone="no"?>
<!DOCTYPE svg PUBLIC "-//W3C//DTD SVG 20010904//EN"
 "http://www.w3.org/TR/2001/REC-SVG-20010904/DTD/svg10.dtd">
<svg version="1.0" xmlns="http://www.w3.org/2000/svg"
 width="768.000000pt" height="199.000000pt" viewBox="0 0 768.000000 199.000000"
 preserveAspectRatio="xMidYMid meet">
<metadata>
Created by potrace 1.15, written by Peter Selinger 2001-2017
</metadata>
<g transform="translate(0.000000,199.000000) scale(0.100000,-0.100000)"
fill="#000000" stroke="none">
<path d="M704 1970 c-208 -54 -408 -217 -547 -445 -51 -83 -110 -232 -136
-341 -21 -92 -29 -217 -12 -199 5 6 23 56 40 112 144 470 475 773 844 773 136
0 229 -29 365 -116 61 -39 82 -43 82 -13 0 76 -149 198 -285 234 -84 21 -260
19 -351 -5z"/>
<path d="M7463 1789 c-69 -21 -122 -111 -109 -183 16 -83 79 -136 164 -136 59
0 95 15 132 55 22 24 25 35 25 103 0 65 -4 82 -24 108 -12 18 -34 37 -48 43
-37 17 -103 22 -140 10z m112 -46 c44 -21 80 -88 70 -133 -9 -43 -50 -88 -91
-99 -69 -19 -143 27 -159 99 -9 43 26 112 68 133 42 21 68 21 112 0z"/>
<path d="M7440 1630 c0 -83 1 -90 20 -90 16 0 20 7 20 35 0 25 4 35 15 35 9 0
25 -16 36 -35 15 -25 28 -35 45 -35 29 0 30 4 3 41 -19 27 -19 31 -5 51 38 54
9 88 -75 88 l-59 0 0 -90z"/>
<path d="M3331 1682 c-19 -9 -44 -30 -55 -45 -20 -27 -21 -44 -24 -298 l-3
-270 -51 46 c-28 25 -85 62 -127 83 l-76 37 -140 0 -140 0 -86 -42 c-137 -67
-217 -171 -266 -343 -14 -51 -18 -99 -17 -225 0 -152 2 -165 32 -256 62 -185
179 -309 336 -354 46 -13 85 -16 167 -13 99 4 114 7 181 41 40 19 99 60 131
89 l57 54 0 -39 c0 -52 26 -105 64 -129 41 -26 144 -22 177 7 50 45 49 33 49
826 0 741 0 741 -22 780 -35 63 -119 86 -187 51z m-291 -703 c98 -44 163 -144
183 -280 41 -287 -132 -507 -350 -444 -75 22 -150 95 -184 181 -31 79 -34 268
-6 355 56 168 215 252 357 188z"/>
<path d="M7064 1690 c-19 -6 -43 -26 -60 -52 l-29 -41 -5 -258 -5 -259 -45 38
c-104 88 -196 122 -335 122 -163 0 -267 -42 -365 -147 -146 -156 -194 -423
-124 -698 40 -156 150 -296 280 -357 62 -29 80 -33 176 -36 166 -6 258 29 376
141 l42 41 0 -32 c0 -47 22 -94 59 -125 27 -22 42 -27 87 -27 72 0 111 21 135
73 18 40 19 76 19 772 0 695 -1 732 -19 772 -11 23 -30 49 -43 57 -31 20 -104
28 -144 16z m-298 -709 c59 -27 112 -84 147 -159 26 -56 31 -80 35 -169 6
-136 -9 -205 -62 -285 -30 -46 -55 -69 -95 -92 -101 -56 -237 -34 -311 50
-160 183 -111 567 84 655 54 25 148 25 202 0z"/>
<path d="M660 1578 c-69 -42 -107 -96 -121 -173 -21 -112 33 -224 135 -278 31
-16 59 -22 116 -22 64 0 82 4 122 27 81 48 138 142 138 228 0 50 -30 126 -65
167 -50 58 -108 83 -198 83 -64 0 -79 -4 -127 -32z"/>
<path d="M4140 1241 c-237 -33 -407 -180 -472 -407 -18 -64 -22 -104 -22 -214
0 -156 15 -225 70 -330 65 -125 165 -210 300 -256 104 -36 319 -45 429 -20
105 25 205 79 265 142 60 63 80 106 80 169 0 67 -31 95 -103 95 -54 0 -56 -1
-143 -76 -49 -42 -113 -88 -142 -101 -170 -79 -355 -3 -410 167 -11 36 -22 79
-24 97 l-4 32 360 3 c324 3 365 5 403 21 56 25 83 79 83 168 0 229 -150 425
-377 492 -64 19 -218 28 -293 18z m216 -249 c75 -38 129 -124 141 -222 l6 -50
-268 0 -268 0 7 40 c19 121 84 213 173 246 53 20 157 13 209 -14z"/>
<path d="M5360 1241 c-140 -20 -240 -69 -333 -162 -70 -70 -107 -135 -143
-254 -15 -47 -19 -91 -18 -210 0 -134 3 -158 27 -230 59 -179 180 -301 352
-356 96 -30 318 -38 419 -15 195 46 346 180 346 309 0 69 -30 97 -104 97 -53
0 -85 -16 -131 -66 -32 -34 -120 -97 -160 -115 -67 -30 -149 -35 -219 -15
-106 31 -191 139 -203 259 l-6 56 359 3 c336 3 362 4 398 23 60 30 80 64 84
144 5 88 -10 157 -54 249 -82 171 -251 275 -464 286 -52 2 -120 1 -150 -3z
m221 -252 c75 -42 120 -116 136 -226 l6 -43 -268 0 -268 0 7 48 c3 26 20 75
37 109 50 102 125 146 240 140 46 -3 80 -12 110 -28z"/>
<path d="M1227 1222 c-15 -9 -36 -35 -47 -58 -19 -38 -20 -63 -20 -540 0 -470
2 -501 20 -541 25 -57 69 -83 140 -83 66 0 111 24 137 72 16 29 19 71 23 373
6 377 8 386 79 467 84 96 251 111 323 31 47 -52 52 -88 58 -468 5 -328 7 -363
24 -399 26 -53 68 -76 136 -76 65 0 111 24 137 72 16 30 18 69 21 393 3 393
-4 491 -43 570 -34 70 -99 132 -175 169 -58 27 -77 31 -175 34 -159 6 -246
-26 -357 -130 l-46 -43 -7 49 c-5 39 -14 57 -44 88 -36 35 -42 38 -97 38 -38
0 -69 -7 -87 -18z"/>
<path d="M905 979 c-68 -30 -154 -49 -227 -49 l-48 0 0 -400 c0 -439 0 -439
59 -495 30 -28 37 -30 111 -30 76 0 80 1 115 35 19 19 40 50 46 70 6 22 9 194
7 466 l-3 430 -60 -27z"/>
</g>
</svg>
