<?xml version="1.0" standalone="no"?>
<!DOCTYPE svg PUBLIC "-//W3C//DTD SVG 20010904//EN"
 "http://www.w3.org/TR/2001/REC-SVG-20010904/DTD/svg10.dtd">
<svg version="1.0" xmlns="http://www.w3.org/2000/svg"
 width="300.000000pt" height="28.000000pt" viewBox="0 0 300.000000 28.000000"
 preserveAspectRatio="xMidYMid meet">
<metadata>
Created by potrace 1.15, written by Peter Selinger 2001-2017
</metadata>
<g transform="translate(0.000000,28.000000) scale(0.100000,-0.100000)"
fill="#000000" stroke="none">
<path d="M68 173 l-3 -108 -32 -3 c-29 -3 -33 -7 -33 -33 0 -28 2 -29 48 -29
77 0 86 17 90 161 l4 119 -36 0 -35 0 -3 -107z"/>
<path d="M1130 140 l0 -140 35 0 35 0 0 140 0 140 -35 0 -35 0 0 -140z"/>
<path d="M973 203 c-32 -4 -39 -16 -28 -45 4 -9 18 -12 44 -10 21 2 42 -1 45
-7 5 -7 -6 -11 -32 -11 -64 0 -101 -57 -72 -110 9 -17 22 -19 90 -19 l80 1 0
82 c0 66 -3 86 -17 98 -21 18 -65 27 -110 21z"/>
<path d="M170 173 c-18 -24 -21 -38 -18 -87 5 -73 21 -86 98 -86 77 0 90 15
90 103 0 80 -16 97 -96 97 -45 0 -56 -4 -74 -27z"/>
<path d="M360 126 c0 -41 4 -86 10 -100 9 -24 12 -25 95 -25 l85 0 0 100 0 99
-35 0 -35 0 0 -75 c0 -73 -1 -75 -25 -75 -23 0 -24 3 -27 73 l-3 72 -32 3 -33
3 0 -75z"/>
<path d="M580 99 l0 -99 36 0 35 0 -2 72 c-2 70 -2 73 22 77 25 3 39 17 39 38
0 8 -21 12 -65 12 l-65 0 0 -100z"/>
<path d="M720 99 l0 -99 35 0 35 0 0 75 c0 68 2 75 20 75 17 0 19 -8 22 -72
l3 -73 39 -3 39 -3 -5 85 c-2 47 -10 91 -17 100 -9 11 -33 15 -92 15 l-79 0 0
-100z"/>
<path d="M1220 101 l0 -101 38 0 37 0 0 98 0 97 -37 3 -38 3 0 -100z"/>
<path d="M1326 178 c-29 -41 -18 -63 60 -116 16 -11 12 -12 -29 -7 -48 5 -48
5 -45 -23 3 -26 6 -27 65 -30 57 -3 63 -1 79 22 24 38 11 72 -36 96 -51 26
-51 34 1 26 40 -6 40 -6 37 21 -3 27 -6 28 -60 31 -49 3 -58 0 -72 -20z"/>
<path d="M1480 99 l0 -99 35 0 35 0 0 76 c0 72 1 75 23 72 20 -3 22 -9 25 -75
l3 -73 34 0 35 0 0 76 c0 66 2 75 18 72 14 -3 18 -16 20 -76 l3 -72 34 0 35 0
0 78 c0 120 -1 120 -165 120 l-135 0 0 -99z"/>
<path d="M2694 104 c-14 -20 -15 -33 -8 -62 8 -35 12 -37 52 -40 56 -4 72 10
72 62 0 52 -13 66 -62 66 -29 0 -41 -6 -54 -26z"/>
<path d="M2820 65 c0 -63 1 -65 25 -65 23 0 25 4 25 45 0 25 5 45 10 45 6 0
10 -20 10 -45 0 -41 2 -45 25 -45 23 0 25 4 25 45 0 25 5 45 10 45 6 0 10 -20
10 -45 0 -39 3 -45 20 -45 19 0 21 5 18 62 l-3 63 -87 3 -88 2 0 -65z"/>
</g>
</svg>
