<?xml version="1.0" encoding="UTF-8" standalone="no"?>
<!DOCTYPE svg PUBLIC "-//W3C//DTD SVG 1.1//EN" "http://www.w3.org/Graphics/SVG/1.1/DTD/svg11.dtd">
<svg xmlns="http://www.w3.org/2000/svg" version="1.1" viewBox="0 0 487 157" width="487.0pt" height="157.0pt">
<path d="M 0.00 0.00 L 51.60 0.00 C 50.54 0.85 49.60 1.75 48.94 2.95 C 46.01 7.96 43.34 13.28 40.14 18.10 C 38.71 20.23 37.93 22.50 37.03 24.87 C 30.05 27.93 23.09 31.05 16.11 34.12 C 13.45 35.31 11.76 36.73 10.19 39.19 C 6.84 44.47 3.32 49.63 0.00 54.93 L 0.00 0.00 Z" fill="#ffffff" />
<path d="M 51.60 0.00 L 53.97 0.00 L 54.66 0.41 L 55.26 0.80 C 57.69 4.50 59.15 8.82 61.21 12.74 C 67.42 9.72 73.75 6.95 79.98 3.97 C 82.96 2.63 85.68 1.00 89.08 1.53 C 92.42 2.06 94.43 4.48 95.69 7.44 C 103.89 26.20 112.16 45.03 120.39 63.78 C 122.08 67.71 124.21 71.46 124.16 75.88 C 123.93 79.19 122.65 82.56 121.79 85.78 C 120.69 89.43 119.89 93.18 118.65 96.78 C 118.16 98.90 115.55 99.15 113.86 99.97 C 105.95 103.20 98.29 107.05 90.44 110.42 C 89.30 111.03 87.48 111.55 87.00 112.86 C 84.16 119.49 82.05 126.48 79.05 133.04 C 77.69 136.06 73.07 136.48 71.25 133.71 C 68.99 130.06 67.57 125.87 65.67 122.01 C 58.57 125.63 51.19 128.69 43.98 132.10 C 41.32 133.37 38.46 133.84 35.74 132.40 C 33.55 131.28 32.64 129.34 31.63 127.22 C 21.11 103.85 10.33 80.56 0.00 57.43 L 0.00 54.93 C 3.32 49.63 6.84 44.47 10.19 39.19 C 11.76 36.73 13.45 35.31 16.11 34.12 C 23.09 31.05 30.05 27.93 37.03 24.87 C 37.93 22.50 38.71 20.23 40.14 18.10 C 43.34 13.28 46.01 7.96 48.94 2.95 C 49.60 1.75 50.54 0.85 51.60 0.00 Z" fill="#01264c" />
<path d="M 53.97 0.00 L 487.00 0.00 L 487.00 157.00 L 0.00 157.00 L 0.00 57.43 C 10.33 80.56 21.11 103.85 31.63 127.22 C 32.64 129.34 33.55 131.28 35.74 132.40 C 38.46 133.84 41.32 133.37 43.98 132.10 C 51.19 128.69 58.57 125.63 65.67 122.01 C 67.57 125.87 68.99 130.06 71.25 133.71 C 73.07 136.48 77.69 136.06 79.05 133.04 C 82.05 126.48 84.16 119.49 87.00 112.86 C 87.48 111.55 89.30 111.03 90.44 110.42 C 98.29 107.05 105.95 103.20 113.86 99.97 C 115.55 99.15 118.16 98.90 118.65 96.78 C 119.89 93.18 120.69 89.43 121.79 85.78 C 122.65 82.56 123.93 79.19 124.16 75.88 C 124.21 71.46 122.08 67.71 120.39 63.78 C 112.16 45.03 103.89 26.20 95.69 7.44 C 94.43 4.48 92.42 2.06 89.08 1.53 C 85.68 1.00 82.96 2.63 79.98 3.97 C 73.75 6.95 67.42 9.72 61.21 12.74 C 59.15 8.82 57.69 4.50 55.26 0.80 L 54.66 0.41 L 53.97 0.00 Z" fill="#ffffff" />
<path d="M 52.84 3.39 C 54.99 7.93 57.10 12.49 59.24 17.04 C 56.78 21.92 54.07 26.66 51.55 31.52 C 49.13 27.10 47.81 21.81 44.56 18.02 C 47.26 13.11 50.06 8.25 52.84 3.39 Z" fill="#e4e76c" />
<path d="M 89.64 5.36 C 91.23 6.15 91.90 7.89 92.64 9.39 C 100.95 28.39 109.28 47.39 117.65 66.37 C 119.30 70.21 121.31 73.67 120.23 78.03 C 118.71 84.17 116.62 90.15 115.35 96.37 C 115.82 90.76 112.96 87.01 110.90 82.13 C 102.36 63.34 93.77 44.55 85.28 25.73 C 84.29 23.62 83.31 21.72 80.98 20.84 C 78.98 19.98 77.38 20.83 75.51 21.54 C 68.04 24.89 60.64 28.40 53.14 31.69 C 55.72 27.04 58.08 22.27 60.71 17.65 C 61.49 16.26 62.84 15.87 64.19 15.18 C 70.86 12.24 77.43 9.07 84.05 6.03 C 85.72 5.31 87.89 4.42 89.64 5.36 Z" fill="#e4e76c" />
<path d="M 43.09 19.78 C 44.99 20.47 45.29 22.22 46.16 23.85 C 47.76 27.50 49.42 31.12 51.07 34.74 C 59.63 30.67 68.17 26.71 76.84 22.86 C 78.71 21.99 80.06 22.05 81.79 23.19 C 83.46 25.30 84.39 28.09 85.53 30.51 C 93.64 48.38 101.82 66.23 109.91 84.11 C 111.15 86.98 112.93 89.90 113.53 92.98 C 113.81 95.77 111.91 96.73 109.76 97.78 C 102.09 101.18 94.50 104.77 86.82 108.16 C 88.73 102.69 91.08 97.39 92.94 91.92 C 93.88 89.43 92.40 86.92 90.05 85.96 C 84.78 83.76 79.30 82.03 73.96 80.01 C 71.58 75.01 69.39 69.93 67.06 64.92 C 66.61 63.79 65.71 62.94 64.38 62.38 C 65.37 68.60 69.63 73.06 70.62 79.32 C 65.91 78.32 61.70 76.39 57.19 74.81 C 48.64 71.72 40.13 68.51 31.56 65.48 C 29.54 64.58 27.54 64.44 26.99 61.92 C 27.46 59.39 28.60 56.93 29.51 54.54 C 32.78 46.10 35.98 37.63 39.24 29.19 C 40.46 26.07 41.49 22.72 43.09 19.78 Z" fill="#4eb3d1" />
<path d="M 223.01 29.25 C 223.52 32.49 223.17 35.92 223.30 39.20 C 221.69 40.56 220.25 42.24 218.04 42.48 C 214.87 42.87 212.10 40.19 212.24 37.03 C 212.34 33.46 211.24 29.01 214.71 26.69 C 217.78 24.80 221.14 26.61 223.01 29.25 Z" fill="#396e8e" />
<path d="M 155.51 27.00 C 159.17 26.99 162.83 27.00 166.49 27.00 C 166.51 49.00 166.49 70.99 166.49 92.98 C 180.33 93.03 194.16 92.99 208.00 93.00 C 208.00 96.33 208.01 99.67 208.00 103.00 C 190.50 103.00 173.01 102.99 155.51 103.00 C 155.50 77.67 155.51 52.33 155.51 27.00 Z" fill="#396e8e" />
<path d="M 286.24 27.01 C 289.91 27.00 293.58 27.00 297.24 27.01 C 297.25 41.06 297.26 55.11 297.23 69.15 C 307.97 61.90 318.78 54.77 329.49 47.46 C 330.53 46.86 331.71 45.87 332.95 45.85 C 337.21 45.84 341.48 46.13 345.75 46.02 C 345.75 47.33 345.75 48.63 345.75 49.93 C 335.77 56.45 325.72 62.86 315.74 69.38 C 327.11 80.58 338.58 91.68 349.83 102.99 C 344.87 103.01 339.91 103.00 334.94 103.01 C 328.59 97.33 322.96 91.06 316.74 85.25 C 313.31 82.03 310.08 78.66 306.73 75.35 C 303.59 77.43 300.46 79.53 297.30 81.58 C 297.18 88.72 297.29 95.85 297.24 102.99 C 293.58 103.01 289.91 103.00 286.25 102.99 C 286.26 77.66 286.26 52.34 286.24 27.01 Z" fill="#396e8e" />
<path d="M 345.76 27.01 C 349.42 26.98 353.08 26.99 356.75 27.01 C 356.75 42.68 356.76 58.34 356.73 74.00 C 356.77 78.06 357.41 81.95 359.54 85.46 C 361.50 88.60 364.56 90.79 368.04 91.99 C 373.37 93.91 379.35 93.96 384.95 93.67 C 390.32 93.25 396.02 91.89 399.96 87.96 C 403.74 84.34 404.80 79.05 404.77 74.01 C 404.74 58.34 404.74 42.67 404.76 27.00 C 408.43 26.99 412.09 26.99 415.75 27.01 C 415.73 43.34 415.79 59.69 415.73 76.02 C 415.57 84.31 412.54 92.65 405.60 97.60 C 397.90 103.10 388.17 103.93 379.00 103.78 C 370.38 103.71 360.61 101.91 354.01 95.96 C 348.02 90.66 345.80 82.78 345.74 75.00 C 345.74 66.65 345.76 58.29 345.75 49.93 C 345.75 48.63 345.75 47.33 345.75 46.02 C 345.76 39.68 345.74 33.34 345.76 27.01 Z" fill="#4eb3d1" />
<path d="M 37.56 28.60 C 35.97 32.92 34.32 37.22 32.65 41.51 C 24.83 45.09 17.00 48.66 9.16 52.18 C 7.31 53.02 5.60 54.07 3.90 55.17 C 7.39 50.48 10.30 45.35 13.61 40.55 C 15.05 38.31 17.21 37.57 19.53 36.51 C 25.57 33.94 31.50 31.14 37.56 28.60 Z" fill="#e4e76c" />
<path d="M 31.62 43.95 C 29.82 49.55 27.26 54.88 25.51 60.48 C 24.63 63.01 26.49 65.31 28.78 66.18 C 34.01 68.37 39.47 69.99 44.71 72.16 C 46.53 76.35 48.51 80.46 50.32 84.65 C 51.44 86.77 51.55 88.92 54.37 89.28 C 52.61 83.77 49.60 78.83 47.73 73.35 C 55.89 75.69 63.58 79.78 71.90 81.28 C 76.92 82.56 81.66 84.81 86.59 86.40 C 88.53 87.30 91.00 87.54 91.52 89.98 C 91.06 92.66 89.85 95.34 88.88 97.88 C 85.53 106.54 82.22 115.21 78.89 123.89 C 77.81 126.93 76.70 129.94 75.01 132.71 C 71.73 127.95 70.14 122.41 67.33 117.31 C 59.43 121.16 51.41 124.75 43.44 128.44 C 41.62 129.15 39.63 130.31 37.69 129.37 C 36.21 128.79 35.72 127.27 35.01 125.98 C 25.32 104.68 15.65 83.34 5.91 62.06 C 5.22 60.38 4.40 58.13 5.49 56.45 C 6.72 55.02 8.84 54.26 10.49 53.43 C 17.56 50.33 24.53 47.00 31.62 43.95 Z" fill="#396e8e" />
<path d="M 212.25 46.01 C 215.91 45.99 219.58 45.99 223.24 46.01 C 223.25 65.00 223.25 84.00 223.24 102.99 C 219.58 103.01 215.91 103.01 212.24 102.99 C 212.25 84.00 212.25 65.00 212.25 46.01 Z" fill="#396e8e" />
<path d="M 264.52 47.68 C 270.06 48.89 275.33 51.64 278.65 56.35 C 281.09 59.83 281.74 63.82 281.75 67.98 C 281.75 79.64 281.73 91.32 281.75 102.99 C 278.09 103.00 274.42 103.01 270.76 102.99 C 270.75 91.99 270.74 81.00 270.77 70.00 C 270.72 66.62 270.62 63.41 268.33 60.70 C 265.51 57.47 261.04 56.77 256.99 56.55 C 251.80 56.44 246.23 57.59 242.56 61.54 C 239.83 64.37 238.52 68.08 238.49 71.98 C 238.47 82.32 238.52 92.66 238.49 103.00 C 234.83 103.01 231.17 103.01 227.51 103.00 C 227.50 84.67 227.50 66.33 227.51 48.00 C 231.18 47.99 234.84 48.00 238.51 48.02 C 238.50 49.10 238.50 50.19 238.49 51.27 C 246.38 46.69 255.68 45.82 264.52 47.68 Z" fill="#396e8e" />
<path d="M 463.19 48.75 C 472.00 51.67 478.60 59.41 480.42 68.47 C 482.29 77.71 481.12 88.46 474.92 95.93 C 470.04 102.08 462.73 105.30 455.02 106.00 C 446.52 106.94 438.22 105.17 431.19 100.21 C 431.30 107.39 431.25 114.57 431.22 121.75 C 427.57 121.76 423.91 121.76 420.26 121.75 C 420.24 97.17 420.26 72.59 420.24 48.02 C 423.90 47.99 427.57 47.99 431.23 48.01 C 431.24 49.56 431.25 51.12 431.25 52.68 C 440.44 46.04 452.63 45.36 463.19 48.75 Z" fill="#4eb3d1" />
<path d="M 444.48 57.68 C 451.04 55.88 459.42 56.60 464.55 61.47 C 470.53 67.33 471.45 76.47 469.15 84.18 C 467.10 90.48 461.53 94.99 454.96 95.80 C 448.55 96.56 440.84 95.75 436.05 90.95 C 431.48 86.33 430.78 79.16 431.36 73.01 C 432.10 65.75 437.39 59.50 444.48 57.68 Z" fill="#ffffff" />
<path d="M 162.26 131.24 C 165.57 129.53 166.20 135.61 163.06 135.35 C 161.50 134.89 162.04 132.43 162.26 131.24 Z" fill="#396e8e" />
<path d="M 193.51 130.98 C 194.52 131.00 195.52 131.01 196.52 131.03 C 196.51 133.11 196.49 135.18 196.46 137.26 C 199.47 136.19 202.20 135.33 205.32 136.65 C 210.75 138.78 211.33 147.42 206.49 150.49 C 203.67 152.25 200.70 151.90 197.66 151.00 C 196.30 151.36 194.93 151.70 193.56 152.03 C 193.45 145.01 193.52 138.00 193.51 130.98 Z" fill="#396e8e" />
<path d="M 332.51 131.00 L 335.49 130.99 C 335.49 132.97 335.49 134.95 335.48 136.93 C 337.96 136.34 340.16 135.55 342.73 136.32 C 344.92 136.98 346.84 138.52 346.93 140.97 C 347.16 144.56 346.96 148.17 346.98 151.76 C 345.99 151.76 345.00 151.76 344.01 151.76 C 343.99 148.83 344.08 145.90 344.01 142.97 C 343.88 141.44 344.18 140.16 342.78 139.14 C 340.20 137.64 336.07 138.58 335.64 141.93 C 335.29 145.16 335.53 148.46 335.52 151.70 C 334.53 151.74 333.54 151.78 332.55 151.82 C 332.46 144.88 332.52 137.94 332.51 131.00 Z" fill="#396e8e" />
<path d="M 434.26 131.24 C 437.55 129.53 438.21 135.60 435.08 135.35 C 433.50 134.91 434.04 132.44 434.26 131.24 Z" fill="#396e8e" />
<path d="M 434.11 136.39 C 435.06 136.27 436.02 136.17 436.97 136.09 C 437.01 141.32 437.00 146.54 436.98 151.77 C 435.99 151.77 435.00 151.76 434.02 151.76 C 434.09 146.64 433.81 141.49 434.11 136.39 Z" fill="#396e8e" />
<path d="M 162.00 136.50 C 163.00 136.50 164.00 136.51 165.00 136.51 C 164.90 141.35 165.18 146.20 164.93 151.03 C 165.02 155.22 159.56 157.36 156.22 156.50 L 155.77 154.52 C 157.43 154.09 161.38 154.07 161.76 151.87 C 162.35 146.81 161.84 141.59 162.00 136.50 Z" fill="#396e8e" />
<path d="M 175.39 137.42 C 178.34 136.31 182.06 136.48 184.72 138.24 C 188.57 140.83 188.89 147.28 185.03 149.99 C 181.46 152.64 175.03 152.44 172.19 148.78 C 169.27 145.00 170.85 139.08 175.39 137.42 Z" fill="#396e8e" />
<path d="M 245.57 142.12 C 244.56 142.54 243.65 142.98 242.83 143.72 C 245.11 145.29 246.10 147.07 244.53 149.58 C 242.34 152.11 237.75 152.20 234.82 151.15 C 232.18 150.12 231.81 147.79 230.85 145.45 C 232.06 145.13 233.27 144.80 234.47 144.47 C 232.12 143.06 231.10 141.14 232.74 138.73 C 236.71 134.68 244.47 135.97 245.57 142.12 Z" fill="#396e8e" />
<path d="M 266.33 139.71 C 267.57 141.03 267.43 143.26 267.72 144.96 C 263.02 145.37 258.33 145.22 253.63 145.29 C 255.12 149.17 257.99 150.00 261.83 148.78 C 263.86 147.26 264.92 145.64 267.74 145.55 C 266.50 147.85 265.73 150.03 263.13 151.07 C 260.05 152.22 255.74 152.12 253.18 149.82 C 249.66 146.47 250.44 140.05 254.78 137.76 C 258.40 135.97 263.68 136.41 266.33 139.71 Z" fill="#396e8e" />
<path d="M 285.39 137.62 C 286.57 137.20 287.76 136.82 288.98 136.50 C 289.02 141.57 289.01 146.65 288.98 151.73 C 288.12 151.77 287.26 151.81 286.40 151.85 C 286.16 151.40 285.92 150.94 285.68 150.48 C 282.12 152.04 278.28 152.54 275.06 149.95 C 271.24 146.91 271.74 140.39 275.93 137.91 C 279.08 136.11 282.10 136.72 285.39 137.62 Z" fill="#396e8e" />
<path d="M 295.74 136.64 C 296.97 136.93 298.20 137.21 299.43 137.48 C 301.37 137.26 303.30 136.89 305.22 136.59 C 305.36 140.75 301.22 138.55 299.67 141.64 C 298.23 144.55 298.84 148.57 298.74 151.75 C 297.75 151.75 296.75 151.75 295.76 151.76 C 295.74 146.72 295.77 141.68 295.74 136.64 Z" fill="#396e8e" />
<path d="M 326.77 141.23 C 325.91 141.77 325.03 142.29 324.12 142.78 C 322.84 141.12 322.41 139.32 319.97 139.27 C 316.20 138.83 313.14 141.04 313.48 145.06 C 313.78 149.38 319.27 150.22 322.32 148.32 C 323.01 147.37 323.57 146.31 324.15 145.29 C 325.01 145.56 325.87 145.83 326.73 146.10 C 325.22 152.88 315.24 153.64 311.63 148.39 C 309.37 145.14 310.51 139.93 314.02 138.01 C 318.71 135.52 324.03 136.47 326.77 141.23 Z" fill="#396e8e" />
<path d="M 384.03 139.97 C 385.12 141.30 384.91 143.49 385.16 145.12 C 380.43 145.34 375.62 145.07 370.94 145.50 C 372.33 147.61 373.22 149.12 375.96 149.26 C 378.99 149.65 380.50 148.10 382.35 146.06 C 383.30 145.99 384.24 145.92 385.19 145.85 C 383.97 147.89 383.22 149.91 380.90 150.94 C 377.87 152.23 373.62 152.15 370.95 150.05 C 367.22 146.97 367.80 140.43 371.93 137.94 C 375.62 135.89 381.43 136.32 384.03 139.97 Z" fill="#396e8e" />
<path d="M 390.50 136.66 C 391.69 136.91 392.88 137.10 394.08 137.24 C 398.07 136.69 402.54 135.95 404.72 140.24 C 405.34 144.00 404.90 147.97 404.97 151.77 C 403.98 151.77 402.99 151.76 402.01 151.76 C 401.85 148.07 402.47 143.98 401.57 140.41 C 399.40 138.51 394.83 138.79 393.83 141.82 C 393.12 144.96 393.74 148.40 393.36 151.61 L 390.56 151.96 C 390.45 146.86 390.53 141.76 390.50 136.66 Z" fill="#396e8e" />
<path d="M 423.94 137.48 C 425.12 137.17 426.30 136.87 427.49 136.58 C 427.36 141.69 427.78 146.87 427.32 151.96 C 426.53 156.90 419.80 157.52 416.00 156.16 C 413.27 155.27 412.93 153.21 412.25 150.73 C 413.15 150.74 414.04 150.75 414.93 150.77 C 410.86 148.03 410.23 142.21 413.78 138.78 C 416.83 136.06 420.27 136.62 423.94 137.48 Z" fill="#396e8e" />
<path d="M 444.00 136.64 C 445.22 136.87 446.44 137.05 447.66 137.19 C 451.54 136.69 455.91 136.01 458.15 140.04 C 458.91 143.83 458.37 147.93 458.45 151.78 L 455.51 151.77 C 455.37 148.18 455.90 144.32 455.19 140.81 C 453.63 138.20 447.78 138.83 447.24 142.16 C 446.77 145.30 447.02 148.58 447.00 151.75 C 446.00 151.76 445.01 151.76 444.02 151.77 C 443.98 146.72 444.01 141.68 444.00 136.64 Z" fill="#396e8e" />
<path d="M 480.03 139.97 C 481.11 141.30 480.91 143.49 481.16 145.13 C 476.44 145.34 471.63 145.07 466.94 145.50 C 468.33 147.61 469.22 149.12 471.96 149.26 C 474.99 149.65 476.50 148.10 478.35 146.06 C 479.30 145.99 480.24 145.92 481.19 145.86 C 479.97 147.89 479.22 149.91 476.90 150.94 C 473.87 152.23 469.62 152.15 466.95 150.05 C 463.22 146.97 463.80 140.42 467.93 137.94 C 471.63 135.89 477.43 136.32 480.03 139.97 Z" fill="#396e8e" />
<path d="M 177.39 139.43 C 181.27 138.45 185.12 140.51 184.76 144.86 C 184.38 149.98 176.50 150.83 174.31 146.69 C 172.83 143.88 174.18 140.16 177.39 139.43 Z" fill="#ffffff" />
<path d="M 198.36 139.37 C 200.24 138.15 202.75 138.17 204.67 139.29 C 207.20 141.03 207.40 145.28 205.60 147.58 C 203.29 150.47 198.00 149.57 196.80 146.02 C 196.14 143.98 196.43 140.68 198.36 139.37 Z" fill="#ffffff" />
<path d="M 239.86 139.09 C 241.85 139.21 242.75 141.80 241.95 143.38 C 239.61 143.03 237.29 142.60 235.02 141.92 C 234.67 138.96 237.68 138.75 239.86 139.09 Z" fill="#ffffff" />
<path d="M 259.02 139.21 C 261.87 138.99 263.17 140.58 265.01 142.43 C 261.28 142.92 257.40 142.83 253.66 142.60 C 255.17 140.76 256.39 139.18 259.02 139.21 Z" fill="#ffffff" />
<path d="M 278.48 139.59 C 281.87 138.42 285.99 139.99 286.04 144.02 C 286.23 148.61 281.08 150.55 277.49 148.47 C 274.43 146.39 274.89 140.87 278.48 139.59 Z" fill="#ffffff" />
<path d="M 376.97 139.21 C 379.70 139.14 380.87 140.73 382.42 142.64 C 378.70 142.79 374.98 142.80 371.27 142.71 C 372.75 140.47 374.10 139.07 376.97 139.21 Z" fill="#ffffff" />
<path d="M 417.49 139.60 C 419.21 138.95 421.20 139.12 422.67 140.27 C 425.17 142.23 425.19 146.66 422.51 148.46 C 420.60 149.64 417.64 149.63 415.93 148.08 C 413.48 145.64 414.16 140.92 417.49 139.60 Z" fill="#ffffff" />
<path d="M 472.98 139.21 C 475.70 139.14 476.87 140.73 478.42 142.64 C 474.70 142.79 470.98 142.80 467.27 142.71 C 468.75 140.47 470.10 139.07 472.98 139.21 Z" fill="#ffffff" />
<path d="M 234.83 144.68 C 236.63 145.53 242.16 145.27 242.40 147.91 C 240.41 150.06 235.12 149.93 234.19 146.64 C 234.40 145.98 234.61 145.33 234.83 144.68 Z" fill="#ffffff" />
<path d="M 425.11 150.57 C 423.33 155.41 417.18 155.59 414.59 151.36 C 416.94 151.50 419.13 151.79 421.47 151.55 C 422.68 151.23 423.90 150.90 425.11 150.57 Z" fill="#ffffff" />
</svg>