<?xml version="1.0" encoding="UTF-8" standalone="no"?>
<!DOCTYPE svg PUBLIC "-//W3C//DTD SVG 1.1//EN" "http://www.w3.org/Graphics/SVG/1.1/DTD/svg11.dtd">
<svg xmlns="http://www.w3.org/2000/svg" version="1.1" viewBox="0 0 311 162" width="311.0pt" height="162.0pt">
<path d="M 0.00 0.00 L 311.00 0.00 L 311.00 162.00 L 0.00 162.00 L 0.00 0.00 Z" fill="#ffffff" />
<path d="M 8.28 56.46 C 14.03 55.98 19.86 56.39 25.63 56.28 C 29.01 65.21 32.47 74.10 35.81 83.04 C 39.25 74.13 42.56 65.16 46.01 56.25 C 51.81 56.29 57.61 56.29 63.41 56.24 C 63.43 72.46 63.42 88.68 63.41 104.89 C 59.25 104.86 55.08 104.86 50.91 104.88 C 50.91 94.23 50.89 83.57 50.95 72.91 C 46.66 83.47 42.74 94.19 38.65 104.83 C 36.80 104.86 34.95 104.89 33.10 104.91 C 28.92 94.26 24.94 83.52 20.71 72.88 C 20.68 83.54 20.70 94.20 20.70 104.86 C 16.52 104.86 12.33 104.86 8.14 104.86 C 8.25 88.75 7.92 72.53 8.28 56.46 Z" fill="#42a8de" />
<path d="M 136.92 56.25 C 140.63 56.27 144.34 56.27 148.05 56.25 C 148.08 62.06 148.11 67.86 147.99 73.67 C 150.85 71.60 153.43 69.62 157.04 69.07 C 161.21 68.47 166.00 68.71 169.17 71.83 C 171.93 74.63 171.99 78.31 172.05 82.00 C 172.00 89.62 171.99 97.24 172.00 104.85 C 168.26 104.86 164.51 104.86 160.77 104.89 C 160.66 97.92 160.97 90.94 160.70 83.98 C 160.59 81.51 159.65 79.44 157.01 78.93 C 153.28 78.00 150.86 79.84 148.00 81.83 C 148.13 89.51 148.05 97.20 148.07 104.88 C 144.35 104.86 140.63 104.86 136.91 104.88 C 136.91 88.67 136.91 72.46 136.92 56.25 Z" fill="#42a8de" />
<path d="M 212.51 56.24 C 216.28 56.27 220.04 56.27 223.80 56.28 C 223.80 61.97 223.86 67.65 223.71 73.34 C 225.73 71.85 227.82 70.08 230.25 69.34 C 235.38 67.95 241.13 69.27 244.83 73.18 C 248.57 77.12 249.88 82.70 249.73 88.01 C 249.55 92.98 248.27 98.03 244.60 101.61 C 241.01 105.20 235.59 106.44 230.72 105.27 C 228.09 104.57 225.87 102.73 223.69 101.18 C 223.74 102.40 223.79 103.63 223.83 104.86 C 220.06 104.86 216.29 104.86 212.52 104.89 C 212.50 88.67 212.51 72.46 212.51 56.24 Z" fill="#42a8de" />
<path d="M 252.02 56.28 C 255.75 56.27 259.49 56.27 263.23 56.25 C 263.22 72.46 263.25 88.67 263.22 104.89 C 259.48 104.86 255.75 104.86 252.02 104.86 C 252.02 88.67 252.02 72.48 252.02 56.28 Z" fill="#42a8de" />
<path d="M 80.97 68.97 C 86.64 68.47 93.40 68.98 97.46 73.50 C 100.22 76.51 100.39 80.11 100.51 83.99 C 100.54 90.96 100.47 97.92 100.48 104.89 C 96.71 104.87 92.93 104.86 89.16 104.86 C 89.22 103.87 89.28 102.87 89.34 101.88 C 86.99 103.25 84.84 104.66 82.16 105.30 C 77.56 106.38 72.44 105.39 69.11 101.88 C 64.48 96.98 65.29 87.70 71.47 84.43 C 77.67 81.28 84.06 82.90 89.67 86.43 C 88.99 83.85 89.46 80.60 86.66 79.28 C 81.38 76.73 76.67 79.18 72.13 81.91 C 70.75 79.29 69.36 76.67 67.96 74.06 C 72.00 71.49 76.11 69.37 80.97 68.97 Z" fill="#42a8de" />
<path d="M 122.05 69.03 C 126.24 69.50 129.69 71.31 133.36 73.22 C 131.94 75.87 130.50 78.51 129.06 81.15 C 125.22 78.97 121.60 76.99 116.98 77.69 C 115.55 78.19 113.49 78.74 114.27 80.66 C 119.04 82.75 125.73 82.38 130.40 85.62 C 135.81 89.18 136.01 97.99 131.03 101.99 C 126.74 105.63 120.05 106.11 114.70 105.45 C 109.99 104.97 105.92 102.97 101.91 100.58 C 103.44 97.87 104.98 95.18 106.50 92.47 C 110.82 94.81 114.93 97.19 120.04 96.99 C 121.77 97.01 123.00 96.09 124.28 95.05 C 123.83 93.88 123.09 93.18 122.07 92.94 C 117.32 91.43 111.68 91.58 107.37 88.64 C 102.14 85.16 102.12 76.73 106.72 72.71 C 110.92 68.93 116.66 68.43 122.05 69.03 Z" fill="#42a8de" />
<path d="M 188.07 69.09 C 193.28 68.46 199.67 68.70 204.01 72.02 C 207.17 74.42 208.45 78.08 208.54 81.94 C 208.69 89.59 208.50 97.24 208.57 104.89 C 204.82 104.87 201.08 104.86 197.34 104.86 C 197.39 103.85 197.45 102.83 197.50 101.82 C 192.17 105.49 186.02 107.30 179.99 104.01 C 172.69 100.35 172.26 88.38 179.50 84.46 C 185.78 81.27 192.22 82.89 197.89 86.48 C 197.45 84.56 197.31 82.35 196.39 80.58 C 194.96 78.79 192.20 78.17 190.01 78.21 C 186.30 78.27 183.34 80.12 180.23 81.89 C 178.87 79.27 177.47 76.66 176.07 74.06 C 179.81 71.68 183.59 69.65 188.07 69.09 Z" fill="#42a8de" />
<path d="M 298.88 75.11 C 302.72 79.81 303.09 85.18 303.21 91.00 C 294.63 91.05 286.05 90.87 277.47 91.12 C 279.34 93.36 280.68 95.61 283.72 96.32 C 288.18 97.52 291.74 95.72 295.69 93.96 C 297.28 96.42 298.89 98.87 300.49 101.33 C 296.31 103.81 291.95 105.60 287.02 105.68 C 280.35 106.04 273.72 103.87 269.69 98.30 C 264.74 91.32 265.32 80.54 271.37 74.38 C 278.44 66.82 292.37 66.78 298.88 75.11 Z" fill="#42a8de" />
<path d="M 288.60 78.42 C 290.56 79.10 291.71 81.59 292.88 83.16 C 287.69 83.33 282.50 83.33 277.31 83.16 C 278.49 81.62 279.69 79.34 281.50 78.49 C 283.65 77.68 286.43 77.70 288.60 78.42 Z" fill="#ffffff" />
<path d="M 236.01 80.98 C 239.74 85.00 238.86 93.30 233.28 95.32 C 229.59 96.78 226.96 94.91 223.79 93.30 C 223.85 89.38 223.43 85.24 224.19 81.38 C 227.22 78.19 232.86 77.72 236.01 80.98 Z" fill="#ffffff" />
<path d="M 89.56 91.99 C 89.28 93.50 89.08 95.08 88.59 96.55 C 86.06 98.71 80.73 99.12 78.28 96.67 C 76.46 94.58 77.45 91.93 79.80 90.84 C 83.17 89.26 86.35 90.93 89.56 91.99 Z" fill="#ffffff" />
<path d="M 188.49 90.59 C 192.17 89.47 198.79 90.57 197.35 95.90 C 194.95 98.75 188.98 99.32 186.34 96.60 C 184.36 94.18 185.87 91.51 188.49 90.59 Z" fill="#ffffff" />
</svg>