<?xml version="1.0" encoding="UTF-8" standalone="no"?>
<!DOCTYPE svg PUBLIC "-//W3C//DTD SVG 1.1//EN" "http://www.w3.org/Graphics/SVG/1.1/DTD/svg11.dtd">
<svg xmlns="http://www.w3.org/2000/svg" version="1.1" viewBox="0 0 507 99" width="507.0pt" height="99.0pt">
<path d="M 0.00 0.00 L 507.00 0.00 L 507.00 99.00 L 0.00 99.00 L 0.00 0.00 Z" fill="#ffffff" />
<path d="M 167.84 21.34 C 171.75 21.21 175.68 21.31 179.60 21.29 C 179.56 35.52 179.63 49.78 179.58 64.01 C 179.65 68.93 177.35 73.58 173.18 76.23 C 167.62 79.91 160.46 80.14 154.02 79.61 C 148.15 79.10 141.83 76.51 138.85 71.14 C 136.35 66.96 137.23 61.71 137.07 57.00 C 137.23 52.15 136.37 46.19 138.85 41.86 C 140.69 38.40 144.07 36.49 147.81 35.70 C 154.68 34.57 161.36 35.16 167.79 37.95 C 167.80 32.41 167.64 26.87 167.84 21.34 Z" fill="#f73c27" />
<path d="M 201.45 21.80 C 205.73 23.21 206.07 30.89 201.68 32.37 C 198.48 33.71 193.68 33.66 191.53 30.49 C 189.89 27.91 190.98 25.38 191.79 22.75 C 194.88 21.40 198.14 20.81 201.45 21.80 Z" fill="#f73c27" />
<path d="M 268.48 21.41 C 272.41 21.10 276.38 21.33 280.32 21.28 C 280.27 26.97 280.33 32.67 280.26 38.36 C 283.99 36.80 287.50 35.32 291.62 35.23 C 296.30 35.11 301.24 35.08 305.30 37.72 C 308.81 39.92 310.62 43.92 310.72 47.97 C 310.83 53.93 310.87 59.98 310.69 65.94 C 310.54 70.75 307.11 74.88 302.99 77.05 C 297.67 80.00 290.92 80.06 285.00 79.60 C 279.29 79.13 272.76 76.38 270.03 71.02 C 267.80 66.82 268.40 62.59 268.32 58.00 C 268.48 45.82 268.11 33.58 268.48 21.41 Z" fill="#4d4d4d" />
<path d="M 324.61 21.80 C 327.30 21.12 330.38 21.46 333.14 21.54 C 335.48 24.43 336.83 28.07 334.33 31.32 C 331.47 33.56 327.09 33.71 323.95 31.99 C 320.43 29.85 321.08 23.56 324.61 21.80 Z" fill="#4d4d4d" />
<path d="M 409.53 24.75 C 409.68 28.40 409.86 32.05 410.27 35.68 C 414.84 35.65 419.42 35.67 423.99 35.66 C 424.05 38.86 424.06 42.07 424.08 45.27 C 419.27 45.28 414.46 45.28 409.65 45.37 C 409.77 51.60 409.42 57.88 409.78 64.10 C 409.96 66.94 411.47 68.74 414.19 69.46 C 417.80 70.08 421.68 69.66 425.31 69.49 C 425.29 72.79 425.29 76.09 425.31 79.40 C 419.63 79.67 412.93 80.45 407.46 78.62 C 402.99 77.18 399.51 73.63 398.57 68.97 C 396.89 61.34 397.91 53.08 397.71 45.29 C 396.02 45.29 394.34 45.29 392.66 45.29 C 392.66 42.08 392.67 38.88 392.69 35.67 C 394.58 35.67 396.47 35.67 398.37 35.67 C 398.78 32.04 399.26 28.43 399.84 24.83 C 403.06 24.69 406.30 24.75 409.53 24.75 Z" fill="#4d4d4d" />
<path d="M 27.01 35.47 C 30.99 35.89 33.44 38.24 36.88 39.78 C 40.39 38.13 42.99 35.80 47.06 35.41 C 52.92 34.91 59.51 35.00 64.56 38.41 C 68.79 41.18 71.14 45.96 71.21 50.97 C 71.33 60.38 71.20 69.80 71.22 79.22 C 67.23 79.24 63.25 79.24 59.26 79.25 C 59.12 71.17 59.18 63.08 59.25 55.00 C 59.21 52.66 59.21 50.16 57.96 48.09 C 56.37 45.85 53.61 45.21 51.00 45.23 C 48.34 45.17 44.99 45.89 43.60 48.42 C 42.58 50.76 42.69 53.50 42.66 56.00 C 42.73 63.74 42.72 71.47 42.68 79.21 C 39.03 79.22 35.29 79.46 31.66 79.09 C 30.32 78.35 30.91 76.32 30.70 75.00 C 30.65 67.00 30.91 58.97 30.67 50.98 C 30.64 48.27 28.76 46.42 26.25 45.72 C 23.14 44.87 18.71 44.91 16.20 47.22 C 14.41 49.20 14.62 52.50 14.54 55.00 C 14.58 63.09 14.62 71.17 14.53 79.26 C 10.52 79.23 6.51 79.23 2.50 79.26 C 2.42 71.17 2.48 63.08 2.44 54.99 C 2.43 51.40 2.48 47.42 4.11 44.14 C 5.69 40.84 8.53 38.45 11.84 36.99 C 16.43 34.93 22.09 34.97 27.01 35.47 Z" fill="#f73c27" />
<path d="M 104.18 35.19 C 111.45 35.05 118.80 36.47 123.35 42.67 C 126.98 47.58 125.55 54.86 126.11 60.77 C 115.53 61.11 104.81 60.20 94.29 61.38 C 95.14 64.16 95.00 67.51 97.99 68.92 C 103.21 71.12 108.71 70.25 113.56 67.58 C 113.62 66.53 113.66 65.49 113.71 64.44 C 117.81 64.35 121.91 64.32 126.01 64.41 C 125.36 67.84 125.10 70.93 122.53 73.53 C 116.91 79.34 108.66 80.19 101.00 79.68 C 94.81 79.42 88.03 76.81 84.82 71.20 C 82.28 66.77 83.01 61.93 82.88 57.00 C 82.97 51.82 82.37 47.04 85.60 42.60 C 90.02 36.67 97.13 35.09 104.18 35.19 Z" fill="#f73c27" />
<path d="M 240.12 35.28 C 245.70 35.48 252.24 37.76 255.20 42.82 C 257.86 47.22 257.32 52.09 257.37 57.00 C 257.27 60.90 257.68 65.01 256.96 68.84 C 255.89 73.58 252.14 76.67 247.70 78.19 C 241.83 80.11 235.12 79.94 229.01 79.59 C 224.56 79.25 218.73 77.83 216.10 73.87 C 213.14 68.61 213.94 60.75 219.90 57.89 C 227.59 54.07 237.42 55.83 245.66 55.98 C 245.50 53.69 245.68 51.13 244.93 48.94 C 243.33 46.09 240.09 45.24 237.03 45.22 C 234.35 45.16 230.64 45.61 228.80 47.80 C 228.17 49.21 227.83 50.75 227.35 52.21 C 223.50 52.20 219.66 52.19 215.81 52.21 C 216.00 49.35 215.85 46.79 217.18 44.15 C 218.94 40.76 222.28 38.21 225.78 36.82 C 230.11 34.97 235.48 35.13 240.12 35.28 Z" fill="#f73c27" />
<path d="M 365.09 35.19 C 371.60 35.10 378.53 35.70 383.17 40.85 C 385.71 43.50 385.69 46.54 385.96 49.99 C 382.43 50.01 378.91 50.00 375.38 50.00 C 374.61 48.37 374.40 46.25 372.54 45.50 C 369.01 44.10 364.71 44.06 361.08 45.10 C 359.42 45.62 358.44 46.50 357.75 48.11 C 357.58 50.51 359.72 50.70 361.48 51.37 C 368.55 53.05 376.03 52.41 382.58 56.41 C 389.61 60.33 389.10 72.39 382.28 76.27 C 376.50 79.95 369.64 79.97 363.02 79.68 C 357.06 79.34 351.02 77.78 347.10 72.96 C 345.09 70.48 345.34 67.82 345.02 64.83 C 348.52 64.82 352.03 64.82 355.53 64.87 C 356.33 66.20 356.83 67.89 357.96 68.98 C 360.81 70.67 364.79 70.78 368.02 70.68 C 370.85 70.53 373.46 70.28 375.40 67.95 C 375.86 65.80 374.95 64.87 373.14 64.01 C 368.54 62.11 362.95 62.79 358.02 61.59 C 353.26 60.62 347.84 57.75 346.25 52.84 C 344.75 48.10 345.77 42.04 349.97 38.95 C 354.31 35.67 359.83 35.19 365.09 35.19 Z" fill="#4d4d4d" />
<path d="M 458.61 35.32 C 458.61 38.66 458.61 42.00 458.65 45.34 C 455.00 45.41 450.56 44.73 447.13 46.17 C 444.83 47.24 444.82 49.77 444.67 51.96 C 444.56 61.05 444.77 70.16 444.59 79.26 C 440.58 79.24 436.56 79.24 432.55 79.24 C 432.53 69.49 432.42 59.73 432.57 49.98 C 432.74 45.26 433.74 40.69 437.98 37.99 C 443.56 34.13 452.11 35.40 458.61 35.32 Z" fill="#4d4d4d" />
<path d="M 484.95 35.18 C 491.93 35.03 499.15 36.60 503.62 42.40 C 506.92 46.67 506.44 51.90 506.53 57.00 C 506.50 60.54 506.69 64.34 505.89 67.81 C 504.75 72.44 501.02 75.98 496.72 77.78 C 491.64 80.02 485.43 80.03 479.99 79.57 C 474.43 79.11 468.34 76.49 465.40 71.52 C 462.90 67.62 463.38 62.47 463.27 58.00 C 463.40 52.58 462.67 46.78 466.24 42.24 C 470.69 36.48 478.03 35.02 484.95 35.18 Z" fill="#4d4d4d" />
<path d="M 192.60 35.83 C 196.29 35.40 200.08 35.69 203.80 35.65 C 203.90 50.18 203.88 64.73 203.80 79.25 C 199.75 79.29 195.70 79.28 191.66 78.81 C 191.74 65.87 191.70 52.93 191.67 40.00 C 191.82 38.52 191.45 36.93 192.60 35.83 Z" fill="#f73c27" />
<path d="M 322.75 35.70 C 326.71 35.67 330.68 35.66 334.64 35.64 C 334.70 50.18 334.77 64.72 334.61 79.25 C 331.00 79.22 327.33 79.46 323.75 79.06 C 322.99 78.64 322.66 78.01 322.76 77.16 C 322.63 63.36 322.71 49.51 322.75 35.70 Z" fill="#4d4d4d" />
<path d="M 105.01 45.00 C 107.79 45.06 111.23 45.87 113.05 48.12 C 113.74 49.74 113.74 51.69 114.04 53.41 C 107.41 53.46 100.78 53.45 94.16 53.39 C 94.71 51.63 95.00 49.58 95.95 47.98 C 98.05 45.58 101.97 44.89 105.01 45.00 Z" fill="#ffffff" />
<path d="M 480.51 45.77 C 484.34 44.81 490.19 44.85 492.97 48.16 C 494.94 50.62 494.30 55.00 494.46 58.00 C 494.35 60.97 494.80 65.25 492.51 67.52 C 489.76 70.11 485.50 69.95 482.00 69.67 C 479.14 69.43 475.56 67.11 475.41 64.00 C 475.14 59.81 475.15 55.20 475.41 51.01 C 475.39 48.33 478.22 46.45 480.51 45.77 Z" fill="#ffffff" />
<path d="M 152.23 46.29 C 157.77 44.57 162.70 46.19 167.80 48.34 C 167.75 52.56 167.81 56.79 167.80 61.01 C 167.69 63.30 167.89 65.38 166.20 67.16 C 163.47 70.36 158.80 69.95 155.04 69.60 C 152.07 69.23 149.68 66.96 149.25 63.99 C 148.77 59.71 148.88 55.28 149.12 50.99 C 149.27 48.88 150.08 47.00 152.23 46.29 Z" fill="#ffffff" />
<path d="M 296.46 46.57 C 299.43 47.89 298.82 51.34 298.99 54.00 C 298.87 57.76 299.37 61.86 298.46 65.52 C 296.57 69.83 292.03 69.94 287.95 69.77 C 284.49 69.76 280.97 67.74 280.48 64.08 C 280.00 58.88 280.41 53.58 280.30 48.36 C 285.30 46.07 291.11 44.34 296.46 46.57 Z" fill="#ffffff" />
<path d="M 245.93 63.85 C 245.47 65.40 245.04 66.89 244.31 68.34 C 241.60 71.01 237.50 70.75 233.99 70.81 C 231.98 70.69 229.19 70.87 227.63 69.37 C 226.26 67.80 227.15 66.35 227.22 64.50 C 232.95 62.50 239.95 63.47 245.93 63.85 Z" fill="#ffffff" />
</svg>