<?xml version="1.0" standalone="no"?>
<!DOCTYPE svg PUBLIC "-//W3C//DTD SVG 20010904//EN"
 "http://www.w3.org/TR/2001/REC-SVG-20010904/DTD/svg10.dtd">
<svg version="1.0" xmlns="http://www.w3.org/2000/svg"
 width="768.000000pt" height="126.000000pt" viewBox="0 0 768.000000 126.000000"
 preserveAspectRatio="xMidYMid meet">
<metadata>
Created by potrace 1.15, written by Peter Selinger 2001-2017
</metadata>
<g transform="translate(0.000000,126.000000) scale(0.100000,-0.100000)"
fill="#000000" stroke="none">
<path d="M0 637 l0 -627 130 0 130 0 0 312 0 313 158 -158 c86 -86 162 -157
167 -157 5 0 76 66 157 147 l148 148 0 -303 0 -302 135 0 135 0 0 625 c0 344
-4 625 -8 625 -10 0 -66 -53 -360 -344 l-222 -221 -285 285 -285 285 0 -628z"/>
<path d="M6730 610 l0 -600 135 0 135 0 0 225 c0 124 3 225 8 225 4 0 12 -8
18 -17 6 -10 41 -56 78 -103 37 -47 76 -96 87 -110 11 -14 54 -69 96 -122 l76
-98 159 0 c171 0 178 3 136 50 -13 14 -39 46 -58 70 -19 25 -40 52 -47 60 -7
8 -49 62 -94 120 -46 58 -99 126 -120 151 l-38 46 42 19 c58 26 127 98 160
167 23 49 27 70 27 147 0 74 -4 99 -25 147 -44 100 -132 172 -254 209 -34 10
-109 14 -283 14 l-238 0 0 -600z m503 312 c27 -28 32 -40 32 -81 0 -86 -53
-121 -185 -121 l-80 0 0 121 0 121 100 -4 c97 -4 101 -5 133 -36z"/>
<path d="M1848 1035 c-196 -43 -363 -214 -399 -410 -15 -78 -5 -215 20 -282
59 -161 184 -278 351 -329 58 -18 230 -18 295 0 127 34 264 144 322 261 106
210 72 440 -91 612 -126 134 -312 189 -498 148z m219 -271 c175 -87 216 -291
85 -427 -59 -62 -105 -81 -192 -81 -64 0 -82 4 -122 28 -131 77 -182 217 -124
342 35 76 94 129 176 157 43 15 128 6 177 -19z"/>
<path d="M2760 530 l0 -520 130 0 130 0 2 244 3 245 36 -32 c20 -18 94 -79
164 -137 70 -58 135 -112 145 -120 10 -8 37 -31 61 -50 24 -19 77 -63 118 -97
41 -35 79 -63 83 -63 4 0 8 232 8 515 l0 515 -130 0 -130 0 -2 -240 -3 -240
-165 138 c-91 75 -185 153 -209 172 -24 19 -48 40 -55 45 -45 40 -175 145
-180 145 -3 0 -6 -234 -6 -520z"/>
<path d="M4180 1038 c-132 -28 -223 -120 -251 -255 -10 -49 -10 -72 0 -120 25
-114 90 -185 216 -235 22 -9 60 -24 85 -34 122 -48 148 -112 57 -145 -53 -19
-133 0 -214 51 -35 22 -65 40 -67 40 -2 0 -34 -43 -71 -97 l-69 -96 40 -35
c43 -38 133 -82 205 -102 28 -7 89 -10 155 -8 92 2 118 7 164 29 67 31 117 80
150 145 22 42 25 62 25 144 -1 114 -17 153 -96 224 -51 46 -94 69 -217 117
-74 28 -102 51 -102 83 0 56 88 70 200 33 41 -14 75 -25 76 -24 94 146 115
181 112 194 -4 22 -117 78 -185 92 -66 13 -149 13 -213 -1z"/>
<path d="M4790 910 l0 -119 113 -3 112 -3 3 -388 2 -387 135 0 135 0 0 390 0
390 115 0 115 0 0 120 0 120 -365 0 -365 0 0 -120z"/>
<path d="M5780 520 l0 -510 325 0 325 0 0 125 0 125 -195 0 -196 0 3 72 3 73
148 3 147 3 0 119 0 120 -150 0 -151 0 3 68 3 67 188 3 187 2 0 120 0 120
-320 0 -320 0 0 -510z"/>
</g>
</svg>
