<?xml version="1.0" encoding="UTF-8" standalone="no"?>
<!DOCTYPE svg PUBLIC "-//W3C//DTD SVG 1.1//EN" "http://www.w3.org/Graphics/SVG/1.1/DTD/svg11.dtd">
<svg xmlns="http://www.w3.org/2000/svg" version="1.1" viewBox="0 0 235 40" width="235.0pt" height="40.0pt">
<path d="M 0.00 0.00 L 235.00 0.00 L 235.00 40.00 L 219.44 40.00 C 222.13 39.15 223.26 38.04 224.46 35.53 C 227.92 27.90 231.29 20.21 234.86 12.63 C 233.10 12.62 231.33 12.61 229.56 12.60 C 227.62 17.41 225.63 22.19 223.88 27.07 C 222.46 22.24 220.91 17.45 219.55 12.60 C 216.51 12.61 213.48 12.61 210.45 12.61 C 208.63 17.20 206.93 21.81 205.00 26.36 C 203.57 21.79 202.13 17.22 200.79 12.61 C 198.89 12.61 196.99 12.62 195.09 12.63 C 197.46 18.80 199.69 25.02 201.95 31.23 C 203.82 31.14 205.73 31.14 207.58 30.82 C 210.34 25.64 212.60 20.14 214.99 14.77 C 216.63 20.54 219.22 26.08 220.66 31.87 C 220.26 35.13 216.00 37.45 214.10 40.00 L 0.00 40.00 L 0.00 0.00 Z" fill="#ffffff" />
<path d="M 1.92 0.56 C 5.53 -0.03 9.34 0.26 13.00 0.23 C 23.97 0.23 34.94 0.30 45.91 0.18 C 46.61 1.79 47.44 3.14 47.45 4.95 C 47.56 11.63 47.23 18.33 46.84 25.00 C 46.53 29.80 47.36 34.04 44.97 38.46 C 30.67 38.30 16.37 38.43 2.07 38.38 C 1.42 37.60 0.78 36.81 0.13 36.03 C 0.15 26.35 0.39 16.68 0.46 7.00 C 0.63 4.80 0.22 2.26 1.92 0.56 Z" fill="#f47b20" />
<path d="M 16.52 5.84 C 16.55 6.91 16.58 7.98 16.62 9.04 C 17.55 9.24 18.48 9.44 19.41 9.64 C 19.55 11.19 19.69 12.74 19.83 14.30 C 17.80 14.11 15.77 13.95 13.74 13.90 C 15.44 16.88 19.08 19.60 19.68 22.98 C 20.13 25.75 17.12 27.31 15.44 29.00 C 15.40 29.96 15.37 30.93 15.34 31.89 C 13.60 31.90 11.86 31.91 10.12 31.92 C 10.13 30.90 10.13 29.88 10.14 28.86 C 8.83 28.66 7.52 28.47 6.21 28.27 C 6.03 26.65 5.85 25.02 5.67 23.40 C 8.19 23.59 10.71 23.70 13.23 23.64 C 11.14 20.91 7.57 18.36 6.49 15.05 C 5.70 12.32 8.71 10.41 10.23 8.50 C 11.98 5.96 13.76 6.29 16.52 5.84 Z" fill="#ffffff" />
<path d="M 71.71 6.66 C 71.92 8.01 72.14 9.37 72.36 10.72 C 68.37 10.12 65.36 9.41 61.89 11.99 C 64.59 16.80 70.00 18.26 72.43 22.99 C 72.69 25.34 72.28 27.78 70.21 29.21 C 65.94 32.09 61.11 30.96 56.38 30.31 C 56.16 28.95 55.93 27.59 55.70 26.23 C 60.18 26.54 64.05 28.28 67.56 24.50 C 64.58 20.86 60.01 18.44 57.49 14.52 C 55.66 11.42 57.85 7.88 60.90 6.71 C 64.61 5.21 67.95 6.07 71.71 6.66 Z" fill="#030000" />
<path d="M 95.40 5.86 C 97.21 5.86 99.02 5.86 100.83 5.85 C 100.34 14.27 99.84 22.69 99.60 31.11 C 97.82 31.11 96.05 31.12 94.28 31.12 C 94.60 22.69 95.40 14.30 95.40 5.86 Z" fill="#030000" />
<path d="M 161.18 6.77 C 161.25 8.13 161.31 9.49 161.39 10.86 C 156.55 10.20 150.43 9.06 146.12 11.96 C 141.74 14.60 140.62 22.87 145.50 25.53 C 148.75 27.56 152.67 26.77 156.23 26.32 C 156.29 24.54 156.34 22.75 156.39 20.96 C 154.84 20.94 153.29 20.92 151.74 20.90 C 151.81 19.54 151.89 18.17 151.97 16.81 C 155.37 16.80 158.78 16.80 162.18 16.80 C 161.65 21.27 161.58 25.74 161.49 30.23 C 156.42 30.74 151.85 31.69 146.74 30.67 C 143.37 30.04 139.95 28.79 138.24 25.59 C 134.91 19.76 136.82 11.97 142.50 8.39 C 148.14 4.91 154.97 5.74 161.18 6.77 Z" fill="#030000" />
<path d="M 40.59 9.26 C 40.79 10.86 40.99 12.47 41.18 14.07 C 38.02 13.63 33.90 12.62 30.88 13.91 C 27.62 15.28 26.35 19.20 27.63 22.38 C 28.68 24.43 30.83 24.90 32.96 24.79 C 34.84 24.91 35.05 23.19 36.18 21.98 C 35.00 21.81 33.82 21.63 32.64 21.46 C 32.65 20.08 32.65 18.69 32.66 17.31 C 35.66 17.31 38.65 17.32 41.65 17.32 C 41.42 21.06 41.24 24.81 41.05 28.56 C 35.95 29.14 29.14 30.20 24.49 27.51 C 19.02 23.97 19.46 15.25 24.44 11.44 C 29.10 7.70 35.10 8.79 40.59 9.26 Z" fill="#ffffff" />
<path d="M 176.59 12.21 C 176.76 13.62 176.91 15.03 177.06 16.44 C 174.63 17.03 171.68 16.81 170.51 19.47 C 169.16 23.01 169.63 27.37 169.53 31.11 C 167.77 31.11 166.01 31.11 164.25 31.12 C 164.61 24.95 164.94 18.78 164.91 12.60 C 166.65 12.61 168.39 12.61 170.13 12.62 L 169.75 14.73 C 171.98 13.55 174.12 12.71 176.59 12.21 Z" fill="#030000" />
<path d="M 88.99 13.19 C 90.82 13.64 92.23 14.94 92.25 16.92 C 92.22 21.66 91.47 26.36 91.56 31.11 C 89.81 31.11 88.06 31.12 86.31 31.12 C 86.55 28.12 86.72 25.11 86.90 22.10 C 84.25 22.96 81.18 23.53 78.83 25.04 L 78.34 27.12 C 80.30 29.28 82.69 28.26 85.30 28.51 C 84.61 29.35 83.95 30.25 83.17 31.02 C 80.63 31.31 77.43 31.26 75.19 29.86 C 72.33 27.91 73.20 23.53 76.12 22.11 C 79.44 20.51 83.37 20.04 86.91 19.01 C 86.72 17.91 86.55 16.84 86.23 15.77 C 83.08 14.14 78.66 16.01 75.47 16.68 L 76.88 13.62 C 80.63 12.41 85.20 12.13 88.99 13.19 Z" fill="#030000" />
<path d="M 117.15 13.79 C 120.30 15.51 120.37 18.55 120.81 21.71 C 115.91 21.93 111.01 21.78 106.10 21.88 C 107.10 24.21 107.24 26.41 109.91 27.40 C 112.72 28.18 116.11 27.40 118.97 27.08 C 118.71 28.15 118.46 29.23 118.21 30.30 C 113.52 31.12 108.90 31.94 104.59 29.29 C 100.91 26.91 100.62 21.04 102.46 17.44 C 104.89 12.22 112.51 11.47 117.15 13.79 Z" fill="#030000" />
<path d="M 134.55 13.33 C 134.69 14.39 134.84 15.46 134.99 16.53 C 132.34 16.38 128.46 14.86 126.91 17.86 C 129.01 20.19 132.15 21.63 133.97 24.13 C 135.28 26.07 134.48 28.45 132.62 29.68 C 128.94 31.99 124.92 30.91 120.93 30.28 C 120.79 29.22 120.65 28.17 120.50 27.12 C 124.03 27.61 126.95 28.49 130.04 26.11 C 128.02 24.02 125.64 22.37 123.49 20.44 C 121.39 18.86 121.57 15.13 123.85 13.78 C 127.23 11.81 130.94 12.72 134.55 13.33 Z" fill="#030000" />
<path d="M 190.02 12.79 C 192.32 13.24 194.66 14.21 194.74 16.92 C 194.73 21.65 194.20 26.37 194.20 31.11 C 192.44 31.11 190.67 31.12 188.90 31.12 C 189.21 28.09 189.39 25.06 189.54 22.03 C 186.21 23.01 183.00 23.84 180.21 26.02 C 181.03 26.91 181.90 27.73 182.83 28.48 C 184.32 28.51 185.80 28.47 187.29 28.36 C 186.93 29.32 186.58 30.28 186.22 31.24 C 183.91 31.12 181.38 31.17 179.15 30.54 C 176.39 29.81 174.81 26.10 176.74 23.77 C 179.63 20.07 186.31 20.98 189.76 18.17 C 189.03 16.64 189.01 15.20 186.98 15.19 C 184.09 14.85 180.86 16.04 178.05 16.68 L 179.40 13.68 C 182.70 12.43 186.56 12.38 190.02 12.79 Z" fill="#030000" />
<path d="M 195.09 12.63 C 196.99 12.62 198.89 12.61 200.79 12.61 C 202.13 17.22 203.57 21.79 205.00 26.36 C 206.93 21.81 208.63 17.20 210.45 12.61 C 213.48 12.61 216.51 12.61 219.55 12.60 C 220.91 17.45 222.46 22.24 223.88 27.07 C 225.63 22.19 227.62 17.41 229.56 12.60 C 231.33 12.61 233.10 12.62 234.86 12.63 C 231.29 20.21 227.92 27.90 224.46 35.53 C 223.26 38.04 222.13 39.15 219.44 40.00 L 214.10 40.00 C 216.00 37.45 220.26 35.13 220.66 31.87 C 219.22 26.08 216.63 20.54 214.99 14.77 C 212.60 20.14 210.34 25.64 207.58 30.82 C 205.73 31.14 203.82 31.14 201.95 31.23 C 199.69 25.02 197.46 18.80 195.09 12.63 Z" fill="#030000" />
<path d="M 112.10 15.87 C 114.16 15.97 115.12 17.89 116.47 19.18 C 112.98 19.35 109.51 19.37 106.02 19.18 C 107.92 17.51 109.29 15.71 112.10 15.87 Z" fill="#ffffff" />
</svg>