<?xml version="1.0" encoding="UTF-8" standalone="no"?>
<!DOCTYPE svg PUBLIC "-//W3C//DTD SVG 1.1//EN" "http://www.w3.org/Graphics/SVG/1.1/DTD/svg11.dtd">
<svg xmlns="http://www.w3.org/2000/svg" version="1.1" viewBox="0 0 353 143" width="353.0pt" height="143.0pt">
<path d="M 0.00 0.00 L 353.00 0.00 L 353.00 143.00 L 0.00 143.00 L 0.00 0.00 Z" fill="#ffffff" />
<path d="M 225.42 37.41 C 228.52 35.75 232.74 36.19 235.16 38.85 C 238.02 41.87 238.02 47.07 234.96 49.96 C 231.68 53.27 225.74 52.87 223.02 49.05 C 220.21 45.30 221.28 39.68 225.42 37.41 Z" fill="#f58026" />
<path d="M 280.47 43.39 C 283.22 43.13 286.00 43.22 288.76 43.08 C 286.88 48.83 288.07 54.05 288.94 59.83 L 288.95 60.13 C 292.77 57.38 296.59 55.26 301.48 55.82 C 310.69 56.53 316.75 65.15 316.37 74.01 C 316.81 83.34 309.57 92.31 299.92 92.24 C 295.60 92.46 292.36 90.41 288.98 88.03 C 289.00 89.14 289.02 90.25 289.05 91.37 C 286.14 91.36 283.24 91.35 280.33 91.36 C 280.46 75.39 280.17 59.34 280.47 43.39 Z" fill="#231f20" />
<path d="M 288.76 43.08 C 289.25 48.58 289.02 54.29 288.94 59.83 C 288.07 54.05 286.88 48.83 288.76 43.08 Z" fill="#110b0d" />
<path d="M 46.51 55.86 C 52.03 55.13 56.27 57.56 60.13 61.24 C 58.32 63.11 56.49 64.96 54.67 66.83 C 52.67 65.46 50.68 63.75 48.17 63.55 C 46.77 64.02 45.55 65.08 44.35 65.92 C 48.17 68.90 52.79 70.48 56.65 73.34 C 61.59 76.96 61.77 85.19 57.16 89.15 C 55.44 90.78 53.33 91.43 51.08 91.98 C 48.87 90.45 47.14 90.46 44.92 91.99 C 41.08 91.36 38.33 89.18 35.58 86.59 C 37.38 84.61 39.18 82.63 40.95 80.63 C 43.34 82.33 45.89 84.64 49.01 84.55 C 51.10 84.14 53.27 82.66 51.79 80.38 C 47.62 76.08 40.58 75.74 37.77 69.26 C 34.94 62.99 40.13 56.47 46.51 55.86 Z" fill="#231f20" />
<path d="M 83.26 55.80 C 89.17 55.30 95.08 58.94 95.78 65.13 C 94.34 73.44 95.22 81.62 94.93 89.98 C 92.88 89.97 90.83 89.96 88.78 89.95 C 88.68 83.55 88.83 77.11 88.40 70.73 C 88.12 71.59 87.86 72.46 87.60 73.33 C 87.35 71.09 87.18 68.68 86.36 66.57 C 84.95 63.62 81.25 63.20 78.51 64.42 C 76.77 65.53 75.47 67.13 74.51 68.94 C 73.33 70.98 72.87 72.62 72.86 74.99 C 72.84 79.79 73.02 84.59 72.91 89.39 C 70.29 89.98 67.67 90.56 65.06 91.17 C 65.29 79.68 65.15 68.17 65.14 56.68 C 68.10 56.69 71.06 56.69 74.03 56.69 C 74.01 57.78 74.00 58.87 73.99 59.96 C 76.91 58.01 79.61 56.01 83.26 55.80 Z" fill="#231f20" />
<path d="M 117.74 55.78 C 121.86 55.82 124.95 57.85 128.17 60.17 C 128.09 59.01 128.01 57.85 127.94 56.69 C 130.93 56.69 133.93 56.69 136.93 56.69 C 136.86 68.24 136.86 79.80 136.92 91.35 C 133.93 91.35 130.93 91.35 127.93 91.36 C 128.01 90.21 128.10 89.06 128.18 87.92 C 125.68 89.80 123.18 91.43 120.04 92.02 C 118.39 90.47 116.59 90.50 114.97 92.06 C 110.53 91.30 107.13 89.16 104.42 85.59 C 100.40 80.38 99.95 72.93 101.93 66.83 C 104.21 60.19 110.61 55.37 117.74 55.78 Z" fill="#231f20" />
<path d="M 157.99 55.76 C 162.30 55.66 165.28 57.82 168.77 59.96 C 171.09 58.71 173.47 58.06 176.05 57.57 C 176.22 66.04 176.33 74.53 176.02 83.00 C 175.86 86.46 176.46 89.77 176.80 93.19 C 175.46 100.66 169.15 104.24 162.07 104.94 C 160.45 103.29 158.56 103.29 156.95 104.96 C 153.45 104.47 150.18 103.91 147.22 101.82 C 144.27 99.82 142.88 96.99 141.23 93.95 C 144.43 93.94 147.62 93.95 150.81 94.00 C 156.31 98.13 165.28 98.52 168.78 91.66 C 169.62 90.83 171.37 87.82 169.14 87.76 L 168.64 87.75 C 165.91 89.20 163.71 90.94 160.52 91.25 C 155.07 91.93 149.67 90.17 146.03 85.99 C 141.55 81.15 140.91 74.50 142.14 68.27 C 143.82 61.05 150.46 55.47 157.99 55.76 Z" fill="#231f20" />
<path d="M 255.51 55.89 C 262.55 55.23 269.51 58.84 273.04 64.96 C 277.15 71.94 275.98 81.46 270.11 87.11 C 264.26 93.13 254.37 94.15 247.31 89.71 C 241.67 86.19 238.24 79.78 238.72 73.10 C 239.03 64.10 246.55 56.50 255.51 55.89 Z" fill="#231f20" />
<path d="M 195.89 56.03 C 197.76 57.09 199.44 57.89 201.09 55.96 C 204.39 56.59 206.99 58.32 209.69 60.22 C 209.62 59.05 209.54 57.87 209.47 56.69 C 212.38 56.69 215.29 56.69 218.20 56.69 C 218.20 68.25 218.19 79.81 218.20 91.36 C 215.30 91.35 212.41 91.36 209.51 91.38 C 209.56 90.23 209.61 89.08 209.66 87.93 C 206.29 90.27 203.22 92.43 198.92 92.24 C 189.15 92.50 181.83 83.38 182.17 74.00 C 181.96 65.62 187.22 57.30 195.89 56.03 Z" fill="#231f20" />
<path d="M 195.89 56.03 C 197.62 55.64 199.36 55.48 201.09 55.96 C 199.44 57.89 197.76 57.09 195.89 56.03 Z" fill="#000000" />
<path d="M 168.94 56.72 C 171.79 56.72 174.64 56.72 177.49 56.71 C 177.45 65.81 177.47 74.90 177.48 84.00 C 177.49 87.08 177.34 90.15 176.80 93.19 C 176.46 89.77 175.86 86.46 176.02 83.00 C 176.33 74.53 176.22 66.04 176.05 57.57 C 173.47 58.06 171.09 58.71 168.77 59.96 C 168.83 58.88 168.89 57.80 168.94 56.72 Z" fill="#0d0709" />
<path d="M 225.00 56.84 L 226.03 57.14 C 226.34 67.09 225.95 77.05 226.18 87.00 C 226.18 90.24 226.45 93.73 225.71 96.91 C 224.89 98.40 222.97 99.41 221.71 100.54 C 221.76 101.82 221.81 103.10 221.86 104.38 C 223.78 104.92 225.70 105.45 227.62 105.98 C 225.25 106.25 222.88 106.38 220.50 106.51 C 220.47 103.67 220.47 100.82 220.46 97.97 C 221.97 98.00 223.37 97.78 224.68 97.33 C 225.04 95.26 225.01 93.09 225.04 91.00 C 224.97 79.61 225.03 68.23 225.00 56.84 Z" fill="#100a0c" />
<path d="M 226.03 57.14 C 228.68 57.60 231.26 57.32 233.90 56.98 C 233.71 69.97 234.01 82.99 233.77 95.96 C 233.43 100.82 231.79 103.52 227.62 105.98 C 225.70 105.45 223.78 104.92 221.86 104.38 C 221.81 103.10 221.76 101.82 221.71 100.54 C 222.97 99.41 224.89 98.40 225.71 96.91 C 226.45 93.73 226.18 90.24 226.18 87.00 C 225.95 77.05 226.34 67.09 226.03 57.14 Z" fill="#231f20" />
<path d="M 115.39 64.44 C 118.53 63.38 122.48 63.69 125.05 65.95 C 129.55 69.71 129.64 77.47 125.61 81.60 C 122.16 85.16 115.85 85.18 112.41 81.58 C 107.58 76.65 108.73 67.16 115.39 64.44 Z" fill="#ffffff" />
<path d="M 156.41 64.42 C 159.32 63.59 162.93 63.74 165.43 65.61 C 170.88 69.45 170.48 79.30 164.42 82.42 C 159.61 85.03 153.21 82.91 151.08 77.84 C 148.71 72.77 151.10 66.37 156.41 64.42 Z" fill="#ffffff" />
<path d="M 197.23 64.26 C 200.11 63.51 203.80 63.70 206.15 65.76 C 211.03 69.49 211.15 77.64 206.75 81.77 C 203.46 85.06 197.45 85.13 194.13 81.86 C 188.88 77.05 190.10 66.69 197.23 64.26 Z" fill="#ffffff" />
<path d="M 253.53 64.59 C 257.49 63.19 261.87 64.19 264.67 67.36 C 268.52 71.45 268.06 78.19 263.80 81.81 C 259.39 85.75 252.22 84.96 248.81 80.11 C 244.77 74.77 247.27 66.83 253.53 64.59 Z" fill="#ffffff" />
<path d="M 294.48 64.51 C 297.84 63.30 302.06 63.66 304.64 66.34 C 308.83 70.26 308.79 77.73 304.65 81.67 C 301.63 84.90 295.96 85.07 292.51 82.46 C 286.70 78.10 287.41 67.27 294.48 64.51 Z" fill="#ffffff" />
<path d="M 95.78 65.13 C 96.41 73.82 95.90 82.61 96.06 91.32 C 93.22 91.31 90.39 91.32 87.55 91.33 C 87.61 85.33 87.53 79.33 87.60 73.33 C 87.86 72.46 88.12 71.59 88.40 70.73 C 88.83 77.11 88.68 83.55 88.78 89.95 C 90.83 89.96 92.88 89.97 94.93 89.98 C 95.22 81.62 94.34 73.44 95.78 65.13 Z" fill="#080505" />
<path d="M 74.51 68.94 C 73.51 76.31 74.16 83.93 74.00 91.36 C 71.02 91.34 68.04 91.30 65.06 91.17 C 67.67 90.56 70.29 89.98 72.91 89.39 C 73.02 84.59 72.84 79.79 72.86 74.99 C 72.87 72.62 73.33 70.98 74.51 68.94 Z" fill="#0a0405" />
<path d="M 169.14 87.76 C 171.37 87.82 169.62 90.83 168.78 91.66 C 168.53 90.22 168.65 88.92 169.14 87.76 Z" fill="#060303" />
<path d="M 51.08 91.98 C 49.17 92.43 46.84 92.41 44.92 91.99 C 47.14 90.46 48.87 90.45 51.08 91.98 Z" fill="#000000" />
<path d="M 120.04 92.02 C 118.41 92.45 116.61 92.43 114.97 92.06 C 116.59 90.50 118.39 90.47 120.04 92.02 Z" fill="#000000" />
<path d="M 162.07 104.94 C 160.37 105.23 158.65 105.22 156.95 104.96 C 158.56 103.29 160.45 103.29 162.07 104.94 Z" fill="#000000" />
</svg>