<?xml version="1.0" encoding="UTF-8" standalone="no"?>
<!DOCTYPE svg PUBLIC "-//W3C//DTD SVG 1.1//EN" "http://www.w3.org/Graphics/SVG/1.1/DTD/svg11.dtd">
<svg xmlns="http://www.w3.org/2000/svg" version="1.1" viewBox="0 0 318 159" width="318.0pt" height="159.0pt">
<path d="M 0.00 0.00 L 318.00 0.00 L 318.00 159.00 L 0.00 159.00 L 0.00 0.00 Z" fill="#ffffff" />
<path d="M 77.65 44.30 C 80.50 44.34 83.36 44.35 86.22 44.32 C 86.16 62.93 86.19 81.53 86.20 100.14 C 83.35 100.14 80.50 100.14 77.65 100.14 C 77.67 81.53 77.67 62.92 77.65 44.30 Z" fill="#1f1f1f" />
<path d="M 264.96 43.79 L 265.08 44.13 C 267.63 51.24 269.80 58.49 272.22 65.65 C 280.00 65.66 287.78 65.61 295.56 65.69 C 289.24 70.17 283.07 74.86 276.78 79.38 C 279.05 86.84 281.63 94.20 283.98 101.64 C 278.24 97.51 272.48 93.26 267.07 88.71 C 270.00 89.75 272.87 90.93 275.74 92.12 C 274.11 87.35 272.43 82.60 270.67 77.87 C 273.13 75.64 275.60 73.42 278.07 71.19 C 274.74 71.01 271.40 70.81 268.06 70.62 C 266.88 66.35 265.77 62.07 264.57 57.80 C 263.17 61.36 261.77 64.91 260.34 68.46 C 255.14 67.56 249.89 66.75 244.74 65.64 C 249.11 65.61 253.49 65.63 257.86 65.52 C 259.99 58.20 262.53 51.01 264.96 43.79 Z" fill="#9d4b40" />
<path d="M 26.88 47.28 C 29.75 47.30 32.63 47.33 35.50 47.36 C 35.42 51.08 35.41 54.80 35.44 58.53 C 37.38 58.51 39.31 58.49 41.25 58.47 C 41.25 60.83 41.25 63.19 41.28 65.54 C 39.33 65.54 37.39 65.54 35.44 65.54 C 35.43 73.04 35.43 80.54 35.41 88.04 C 35.52 89.48 35.29 91.40 36.52 92.43 C 37.88 93.13 39.77 92.87 41.27 93.07 C 41.25 95.58 41.25 98.10 41.26 100.62 C 37.51 100.78 33.19 101.38 29.98 98.97 C 27.39 97.00 26.85 94.09 26.87 91.01 C 26.87 82.53 26.88 74.04 26.88 65.55 C 25.25 65.53 23.62 65.51 22.00 65.49 C 22.01 63.16 22.01 60.82 22.00 58.49 C 23.63 58.50 25.26 58.50 26.89 58.51 C 26.87 54.77 26.87 51.03 26.88 47.28 Z" fill="#1f1f1f" />
<path d="M 156.76 47.29 C 159.62 47.31 162.47 47.31 165.33 47.29 C 165.35 51.02 165.34 54.76 165.31 58.49 C 167.25 58.50 169.19 58.50 171.13 58.50 C 171.14 60.84 171.16 63.18 171.19 65.52 C 169.24 65.51 167.29 65.51 165.35 65.51 C 165.33 72.67 165.36 79.84 165.31 87.01 C 165.42 88.89 165.07 91.04 166.38 92.57 C 169.06 93.19 171.99 92.90 174.71 92.93 C 173.25 95.39 171.97 98.04 170.25 100.33 C 167.62 101.22 163.75 101.01 161.18 99.94 C 158.03 98.49 156.88 95.29 156.80 92.02 C 156.69 83.19 156.80 74.35 156.77 65.51 C 155.16 65.51 153.55 65.52 151.95 65.52 C 151.95 63.18 151.95 60.84 151.95 58.50 C 153.56 58.50 155.17 58.50 156.78 58.50 C 156.76 54.76 156.76 51.03 156.76 47.29 Z" fill="#1f1f1f" />
<path d="M 57.99 57.78 C 61.99 57.63 66.75 58.27 69.34 61.68 C 72.39 65.50 71.32 71.38 71.51 76.00 C 71.69 84.02 71.04 92.17 71.97 100.14 C 69.28 100.13 66.59 100.14 63.89 100.17 C 63.73 99.09 63.57 98.02 63.40 96.95 C 60.71 98.71 58.34 100.44 55.01 100.74 C 51.17 101.18 47.24 100.27 45.46 96.50 C 43.24 91.36 44.65 84.59 48.68 80.70 C 52.62 76.80 58.04 74.58 63.06 72.49 C 62.77 70.23 63.20 67.31 61.31 65.68 C 59.71 64.32 56.48 64.58 54.98 66.00 C 54.04 67.27 53.88 69.18 53.43 70.68 C 50.55 70.66 47.68 70.65 44.80 70.65 C 45.44 67.76 45.82 65.10 47.66 62.66 C 50.07 59.35 53.99 57.88 57.99 57.78 Z" fill="#1f1f1f" />
<path d="M 100.98 58.06 C 106.21 57.24 112.19 57.84 115.36 62.63 C 118.78 67.76 117.89 75.03 118.02 80.93 C 111.90 80.96 105.77 80.93 99.65 80.95 C 99.73 84.29 99.17 88.36 100.54 91.46 C 101.95 94.57 107.06 94.57 108.52 91.49 C 109.25 89.83 109.27 87.79 109.54 86.00 C 112.41 86.00 115.28 86.00 118.16 86.00 C 117.66 89.69 117.43 93.05 115.21 96.19 C 112.97 99.54 108.86 100.80 105.00 100.83 C 100.74 100.90 96.34 99.88 93.82 96.14 C 90.72 91.78 91.02 86.10 91.01 81.00 C 91.12 75.96 90.52 69.95 92.33 65.20 C 93.72 61.42 96.96 58.64 100.98 58.06 Z" fill="#1f1f1f" />
<path d="M 138.95 57.95 C 141.62 57.60 144.40 57.51 146.48 59.49 C 148.67 61.73 148.92 65.03 148.96 67.99 C 148.95 78.71 148.92 89.42 148.96 100.14 C 146.05 100.14 143.14 100.14 140.23 100.15 C 140.26 90.77 140.19 81.38 140.28 72.00 C 140.30 69.73 140.06 67.49 139.79 65.24 C 136.42 64.37 134.44 65.52 131.60 67.09 C 131.47 78.09 131.56 89.10 131.54 100.10 C 128.65 100.12 125.76 100.15 122.87 100.17 C 122.85 86.28 122.87 72.39 122.86 58.50 C 125.61 58.50 128.36 58.50 131.11 58.50 C 131.08 59.90 131.05 61.31 131.02 62.72 C 133.50 60.72 135.67 58.49 138.95 57.95 Z" fill="#1f1f1f" />
<path d="M 108.31 66.70 C 109.46 68.70 109.34 71.57 109.54 73.82 C 106.21 73.82 102.88 73.81 99.55 73.84 C 99.78 71.08 99.46 67.76 101.62 65.66 C 103.54 64.29 107.08 64.48 108.31 66.70 Z" fill="#ffffff" />
<path d="M 212.18 72.51 C 217.10 71.62 223.32 72.08 226.59 76.40 C 230.21 81.15 229.39 87.41 229.51 93.00 C 229.37 98.00 230.09 104.23 227.87 108.80 C 226.35 112.06 223.50 114.14 219.99 114.82 C 214.93 115.57 209.41 115.35 205.89 111.09 C 202.18 106.66 202.73 100.40 202.71 95.00 C 202.87 89.95 202.11 83.87 204.08 79.17 C 205.48 75.67 208.45 73.18 212.18 72.51 Z" fill="#1f1f1f" />
<path d="M 244.17 72.43 C 249.08 71.65 255.29 72.18 258.35 76.65 C 261.88 81.77 261.05 88.13 261.15 94.00 C 261.09 99.27 261.68 105.10 258.86 109.82 C 256.58 113.70 252.33 115.21 248.00 115.18 C 243.87 115.19 239.76 114.30 237.20 110.77 C 233.76 106.24 234.31 100.36 234.23 95.00 C 234.34 90.02 233.72 84.11 235.55 79.44 C 237.00 75.67 240.17 73.03 244.17 72.43 Z" fill="#1f1f1f" />
<path d="M 174.09 72.84 C 182.24 72.87 190.39 72.89 198.54 72.82 C 198.37 76.18 199.20 79.35 197.22 82.22 C 192.26 90.60 187.28 98.98 182.34 107.37 C 187.73 107.36 193.13 107.37 198.52 107.35 C 198.51 109.69 198.51 112.03 198.52 114.37 C 190.04 114.36 181.56 114.37 173.08 114.36 C 173.27 111.30 172.50 107.87 174.27 105.28 C 179.21 96.83 184.10 88.38 189.00 79.90 C 184.06 79.93 179.11 79.92 174.17 79.92 C 174.14 77.56 174.13 75.20 174.09 72.84 Z" fill="#1f1f1f" />
<path d="M 62.89 78.90 C 62.93 82.64 62.90 86.37 62.97 90.10 C 60.84 92.13 59.34 94.19 56.04 93.71 C 52.41 93.57 52.70 89.11 53.70 86.70 C 55.56 83.25 59.64 80.89 62.89 78.90 Z" fill="#ffffff" />
<path d="M 220.31 81.72 C 221.44 85.54 220.74 90.03 220.92 94.00 C 220.79 97.66 221.34 101.66 220.44 105.22 C 219.29 109.10 212.90 109.13 211.85 105.17 C 210.71 101.38 211.41 96.94 211.23 93.00 C 211.38 89.46 210.78 85.40 211.90 82.02 C 213.12 78.28 218.82 78.13 220.31 81.72 Z" fill="#ffffff" />
<path d="M 251.99 82.10 C 253.05 85.85 252.46 90.13 252.61 94.00 C 252.46 97.76 253.12 102.27 251.69 105.81 C 250.41 109.04 244.72 108.83 243.59 105.51 C 242.33 101.65 243.02 97.04 242.86 93.00 C 242.99 89.33 242.34 84.97 243.70 81.52 C 245.31 78.08 250.85 78.41 251.99 82.10 Z" fill="#ffffff" />
</svg>