<?xml version="1.0" standalone="no"?>
<!DOCTYPE svg PUBLIC "-//W3C//DTD SVG 20010904//EN"
 "http://www.w3.org/TR/2001/REC-SVG-20010904/DTD/svg10.dtd">
<svg version="1.0" xmlns="http://www.w3.org/2000/svg"
 width="411.000000pt" height="122.000000pt" viewBox="0 0 411.000000 122.000000"
 preserveAspectRatio="xMidYMid meet">
<metadata>
Created by potrace 1.15, written by Peter Selinger 2001-2017
</metadata>
<g transform="translate(0.000000,122.000000) scale(0.100000,-0.100000)"
fill="#000000" stroke="none">
<path d="M3540 760 l0 -460 70 0 70 0 0 143 c0 79 3 146 6 149 17 18 56 -20
151 -148 l106 -144 79 0 c43 0 78 3 78 8 0 4 -54 79 -119 166 l-118 160 46 36
c55 43 106 133 116 203 l7 47 -71 0 c-65 0 -71 -2 -71 -20 0 -59 -71 -141
-138 -160 -77 -21 -72 -39 -72 235 l0 245 -70 0 -70 0 0 -460z"/>
<path d="M2587 930 c-101 -26 -189 -98 -230 -189 -16 -34 -21 -67 -22 -126 0
-71 4 -88 33 -148 61 -123 166 -182 310 -175 92 4 151 29 213 91 122 122 126
317 10 450 -67 76 -215 121 -314 97z m138 -137 c69 -18 125 -101 125 -186 0
-221 -322 -256 -379 -41 -27 100 35 203 136 230 44 11 65 11 118 -3z"/>
<path d="M1474 878 c7 -24 48 -163 91 -310 l78 -268 68 0 68 0 10 38 c5 20 29
111 52 202 23 91 45 170 48 177 3 7 31 -85 61 -203 l54 -215 69 3 69 3 84 284
c45 157 85 295 89 308 5 22 3 23 -63 23 l-68 0 -54 -197 c-29 -109 -56 -204
-60 -212 -4 -7 -30 79 -60 198 l-52 211 -67 0 -67 0 -48 -197 c-27 -109 -52
-204 -55 -211 -4 -7 -26 58 -50 145 -23 87 -49 182 -57 211 l-15 52 -69 0 -69
0 13 -42z"/>
<path d="M3080 610 l0 -310 69 0 70 0 3 189 c3 173 5 192 24 217 36 49 70 67
133 72 l59 4 4 69 3 69 -35 0 c-58 0 -109 -19 -151 -57 l-39 -35 0 46 0 46
-70 0 -70 0 0 -310z"/>
</g>
</svg>
